<svg width="24" height="24" viewBox="0 0 24 24" fill="none" xmlns="http://www.w3.org/2000/svg">
<path d="M11.9996 12C12.7414 12 13.4665 11.78 14.0833 11.3679C14.7001 10.9558 15.1808 10.37 15.4647 9.6847C15.7486 8.99937 15.8228 8.24525 15.6781 7.51771C15.5334 6.79017 15.1762 6.12188 14.6517 5.59735C14.1271 5.07282 13.4589 4.71561 12.7313 4.57089C12.0038 4.42618 11.2497 4.50045 10.5643 4.78432C9.87899 5.0682 9.29323 5.54892 8.88111 6.1657C8.46899 6.78248 8.24902 7.50762 8.24902 8.24941C8.25002 9.24382 8.64549 10.1972 9.34864 10.9004C10.0518 11.6035 11.0052 11.999 11.9996 12ZM11.9996 5.74902C12.4941 5.74902 12.9776 5.89567 13.3888 6.17041C13.7999 6.44516 14.1204 6.83567 14.3097 7.29255C14.4989 7.74944 14.5484 8.25219 14.452 8.73721C14.3555 9.22224 14.1173 9.66777 13.7677 10.0175C13.418 10.3671 12.9724 10.6053 12.4874 10.7018C12.0024 10.7982 11.4996 10.7487 11.0428 10.5595C10.5859 10.3702 10.1954 10.0497 9.92061 9.63855C9.64586 9.22737 9.49922 8.74394 9.49922 8.24941C9.49922 7.58627 9.76265 6.95028 10.2316 6.48137C10.7005 6.01245 11.3365 5.74902 11.9996 5.74902Z" fill="#015F45"/>
<path d="M11.9988 13.2502C10.673 13.2519 9.40188 13.8451 8.46437 14.8998C7.52686 15.9545 6.99952 17.3845 6.99805 18.8761C6.99805 19.0419 7.05659 19.2009 7.16079 19.3181C7.26499 19.4353 7.40632 19.5012 7.55369 19.5012C7.70105 19.5012 7.84238 19.4353 7.94659 19.3181C8.05079 19.2009 8.10933 19.0419 8.10933 18.8761C8.10933 17.7156 8.51912 16.6026 9.24854 15.782C9.97796 14.9614 10.9673 14.5004 11.9988 14.5004C13.0304 14.5004 14.0197 14.9614 14.7491 15.782C15.4785 16.6026 15.8883 17.7156 15.8883 18.8761C15.8883 19.0419 15.9469 19.2009 16.0511 19.3181C16.1553 19.4353 16.2966 19.5012 16.444 19.5012C16.5913 19.5012 16.7327 19.4353 16.8369 19.3181C16.9411 19.2009 16.9996 19.0419 16.9996 18.8761C16.9981 17.3845 16.4708 15.9545 15.5333 14.8998C14.5958 13.8451 13.3247 13.2519 11.9988 13.2502Z" fill="#015F45"/>
</svg>
