<svg width="20" height="21" viewBox="0 0 20 21" fill="none" xmlns="http://www.w3.org/2000/svg">
<g clip-path="url(#clip0_356_13267)">
<path d="M19.2675 8.05743L12.9467 1.73576C12.1644 0.955755 11.1047 0.517742 10 0.517742C8.89529 0.517742 7.83564 0.955755 7.05334 1.73576L0.73251 8.05743C0.499531 8.28892 0.314818 8.56435 0.189079 8.86775C0.0633394 9.17116 -0.000925334 9.4965 1.00662e-05 9.82493V18.0058C1.00662e-05 18.6688 0.263402 19.3047 0.732243 19.7735C1.20108 20.2424 1.83697 20.5058 2.50001 20.5058H17.5C18.1631 20.5058 18.7989 20.2424 19.2678 19.7735C19.7366 19.3047 20 18.6688 20 18.0058V9.82493C20.0009 9.4965 19.9367 9.17116 19.8109 8.86775C19.6852 8.56435 19.5005 8.28892 19.2675 8.05743ZM12.5 18.8391H7.50001V15.5608C7.50001 14.8977 7.7634 14.2618 8.23224 13.793C8.70109 13.3242 9.33697 13.0608 10 13.0608C10.6631 13.0608 11.2989 13.3242 11.7678 13.793C12.2366 14.2618 12.5 14.8977 12.5 15.5608V18.8391ZM18.3333 18.0058C18.3333 18.2268 18.2455 18.4387 18.0893 18.595C17.933 18.7513 17.721 18.8391 17.5 18.8391H14.1667V15.5608C14.1667 14.4557 13.7277 13.3959 12.9463 12.6145C12.1649 11.8331 11.1051 11.3941 10 11.3941C8.89494 11.3941 7.83513 11.8331 7.05373 12.6145C6.27233 13.3959 5.83334 14.4557 5.83334 15.5608V18.8391H2.50001C2.279 18.8391 2.06703 18.7513 1.91075 18.595C1.75447 18.4387 1.66668 18.2268 1.66668 18.0058V9.82493C1.66745 9.60408 1.75517 9.39242 1.91084 9.23576L8.23168 2.9166C8.70143 2.44904 9.33723 2.18655 10 2.18655C10.6628 2.18655 11.2986 2.44904 11.7683 2.9166L18.0892 9.23826C18.2442 9.3943 18.3319 9.60495 18.3333 9.82493V18.0058Z" fill="#015F45"/>
</g>
<defs>
<clipPath id="clip0_356_13267">
<rect width="20" height="20" fill="white" transform="translate(0 0.5)"/>
</clipPath>
</defs>
</svg>
