<svg width="24" height="24" viewBox="0 0 24 24" fill="none" xmlns="http://www.w3.org/2000/svg">
<path d="M2.65625 12C2.65625 11.603 2.97805 11.2812 3.375 11.2812H20.625C21.0219 11.2812 21.3437 11.603 21.3437 12C21.3437 12.397 21.0219 12.7187 20.625 12.7187H3.375C2.97805 12.7187 2.65625 12.397 2.65625 12Z" fill="#191919"/>
<path d="M14.3668 5.74177C14.6475 5.46108 15.1026 5.46108 15.3833 5.74177L21.1333 11.4918C21.414 11.7725 21.414 12.2275 21.1333 12.5082L15.3833 18.2582C15.1026 18.5389 14.6475 18.5389 14.3668 18.2582C14.0861 17.9775 14.0861 17.5225 14.3668 17.2418L19.6086 12L14.3668 6.75823C14.0861 6.47754 14.0861 6.02246 14.3668 5.74177Z" fill="#191919"/>
</svg>
