<svg width="100" height="100" viewBox="0 0 100 100" fill="none" xmlns="http://www.w3.org/2000/svg">
<g id="beauty">
<path id="Vector" d="M19.0165 58.5016C18.1899 59.7313 14.0633 66.0328 14.0633 69.4203C14.0083 70.9183 14.4334 72.3947 15.2767 73.634C16.1199 74.8733 17.3372 75.8107 18.7508 76.3094V79.4922C18.7508 79.9066 18.9155 80.304 19.2085 80.597C19.5015 80.8901 19.8989 81.0547 20.3133 81.0547C20.7277 81.0547 21.1252 80.8901 21.4182 80.597C21.7112 80.304 21.8758 79.9066 21.8758 79.4922V76.3094C23.2895 75.8107 24.5067 74.8733 25.35 73.634C26.1933 72.3947 26.6184 70.9183 26.5633 69.4203C26.5633 66.0328 22.4368 59.7328 21.6102 58.5016C21.4589 58.3007 21.263 58.1376 21.038 58.0254C20.8129 57.9131 20.5648 57.8547 20.3133 57.8547C20.0618 57.8547 19.8138 57.9131 19.5887 58.0254C19.3637 58.1376 19.1678 58.3007 19.0165 58.5016ZM21.8758 72.8766V68.75C21.8758 68.3356 21.7112 67.9382 21.4182 67.6451C21.1252 67.3521 20.7277 67.1875 20.3133 67.1875C19.8989 67.1875 19.5015 67.3521 19.2085 67.6451C18.9155 67.9382 18.7508 68.3356 18.7508 68.75V72.8781C18.2437 72.4593 17.8392 71.9299 17.5684 71.3305C17.2975 70.7311 17.1675 70.0777 17.1883 69.4203C17.1883 68.0234 18.7508 64.8984 20.3133 62.2953C21.8758 64.8984 23.4383 68.0234 23.4383 69.4203C23.4592 70.0777 23.3292 70.7311 23.0583 71.3305C22.7875 71.9299 22.383 72.4577 21.8758 72.8766ZM51.8758 70.9375C51.0415 72.0531 46.8758 77.7781 46.8758 80.9141C46.8562 82.3393 47.3038 83.7317 48.1503 84.8784C48.9968 86.0251 50.1956 86.8631 51.5633 87.2641V89.0625C51.5633 89.4769 51.728 89.8743 52.021 90.1674C52.314 90.4604 52.7114 90.625 53.1258 90.625C53.5402 90.625 53.9377 90.4604 54.2307 90.1674C54.5237 89.8743 54.6883 89.4769 54.6883 89.0625V87.2656C56.0562 86.8648 57.2552 86.027 58.1017 84.8802C58.9482 83.7334 59.3958 82.3409 59.3758 80.9156C59.3758 77.7797 55.2118 72.0547 54.3758 70.9391C54.2241 70.7544 54.0333 70.6056 53.8173 70.5035C53.6012 70.4013 53.3652 70.3482 53.1262 70.348C52.8872 70.3479 52.6511 70.4007 52.4349 70.5026C52.2188 70.6045 52.0278 70.753 51.8758 70.9375ZM54.6883 83.8938V81.25C54.6883 80.8356 54.5237 80.4382 54.2307 80.1451C53.9377 79.8521 53.5402 79.6875 53.1258 79.6875C52.7114 79.6875 52.314 79.8521 52.021 80.1451C51.728 80.4382 51.5633 80.8356 51.5633 81.25V83.8938C51.0754 83.5668 50.6769 83.1231 50.404 82.603C50.1311 82.0829 49.9926 81.5029 50.0008 80.9156C50.0008 79.7 51.5712 76.9078 53.1258 74.5844C54.6805 76.9078 56.2508 79.7 56.2508 80.9156C56.2591 81.5029 56.1205 82.0829 55.8477 82.603C55.5748 83.1231 55.1763 83.5668 54.6883 83.8938ZM76.5633 57.5781V59.375C76.5633 59.7894 76.728 60.1868 77.021 60.4799C77.314 60.7729 77.7114 60.9375 78.1258 60.9375C78.5402 60.9375 78.9377 60.7729 79.2307 60.4799C79.5237 60.1868 79.6883 59.7894 79.6883 59.375V57.5781C81.0562 57.1773 82.2551 56.3395 83.1017 55.1927C83.9482 54.0459 84.3958 52.6534 84.3758 51.2281C84.3758 48.0922 80.2118 42.3672 79.3758 41.2516C79.224 41.067 79.0331 40.9184 78.817 40.8163C78.6009 40.7143 78.3648 40.6613 78.1258 40.6613C77.8868 40.6613 77.6508 40.7143 77.4347 40.8163C77.2185 40.9184 77.0277 41.067 76.8758 41.2516C76.0415 42.3672 71.8758 48.0922 71.8758 51.2281C71.8559 52.6534 72.3034 54.0459 73.15 55.1927C73.9965 56.3395 75.1954 57.1773 76.5633 57.5781ZM78.1258 44.8969C79.6805 47.2203 81.2508 50.0125 81.2508 51.2281C81.2591 51.8154 81.1205 52.3954 80.8476 52.9155C80.5748 53.4356 80.1763 53.8793 79.6883 54.2063V51.5625C79.6883 51.1481 79.5237 50.7507 79.2307 50.4576C78.9377 50.1646 78.5402 50 78.1258 50C77.7114 50 77.314 50.1646 77.021 50.4576C76.728 50.7507 76.5633 51.1481 76.5633 51.5625V54.2063C76.0754 53.8793 75.6769 53.4356 75.404 52.9155C75.1311 52.3954 74.9925 51.8154 75.0008 51.2281C75.0008 50.0125 76.5711 47.2203 78.1258 44.8969Z" fill="#639B8B"/>
<path id="Vector_2" d="M95.3125 23.5938C95.3344 23.3758 95.3102 23.1557 95.2416 22.9477C95.1729 22.7397 95.0613 22.5485 94.914 22.3864C94.7667 22.2244 94.5869 22.0951 94.3864 22.007C94.1858 21.9189 93.969 21.8739 93.75 21.875H62.5C62.2816 21.875 62.0657 21.9208 61.8661 22.0094C61.6665 22.0979 61.4877 22.2274 61.3412 22.3893C61.1947 22.5513 61.0838 22.7421 61.0156 22.9496C60.9474 23.157 60.9235 23.3765 60.9453 23.5938L61.7266 31.4063L63.9141 53.2672C63.448 53.1768 62.9747 53.1292 62.5 53.125H53.125C52.5869 53.1975 52.0395 53.1544 51.5195 52.9983C50.9994 52.8423 50.5187 52.5771 50.1094 52.2203C49.8219 51.6948 49.754 51.077 49.9203 50.5016C50.0316 50.1676 50.0268 49.8059 49.9068 49.475C49.7868 49.1441 49.5585 48.8634 49.2591 48.6784C48.9596 48.4935 48.6065 48.415 48.2569 48.4558C47.9073 48.4966 47.5816 48.6542 47.3328 48.9031L46.3688 49.8672C44.5921 51.5514 42.5448 52.9247 40.3125 53.9297C39.2401 54.4524 38.3029 55.2159 37.5741 56.1604C36.8453 57.1049 36.3446 58.2051 36.1109 59.375H35.9375V48.4375C35.9375 47.1943 35.4436 46.002 34.5646 45.1229C33.6855 44.2439 32.4932 43.75 31.25 43.75H29.6875V32.8125C29.6875 32.3981 29.5229 32.0007 29.2299 31.7076C28.9368 31.4146 28.5394 31.25 28.125 31.25H26.5625V25C26.5625 24.5856 26.3979 24.1882 26.1049 23.8951C25.8118 23.6021 25.4144 23.4375 25 23.4375H21.875V18.75H39.0625C39.3904 18.75 39.7101 18.6468 39.9761 18.4551C40.2421 18.2633 40.4411 17.9927 40.5448 17.6816C40.6485 17.3705 40.6517 17.0346 40.5539 16.7216C40.4561 16.4086 40.2624 16.1343 40 15.9375L33.75 11.2297C33.4792 11.0274 33.1505 10.9179 32.8125 10.9172L15.625 10.9375C15.2106 10.9375 14.8132 11.1021 14.5201 11.3951C14.2271 11.6882 14.0625 12.0856 14.0625 12.5V17.1875C14.0625 17.6019 14.2271 17.9993 14.5201 18.2924C14.8132 18.5854 15.2106 18.75 15.625 18.75H18.75V23.4375H15.625C15.2106 23.4375 14.8132 23.6021 14.5201 23.8951C14.2271 24.1882 14.0625 24.5856 14.0625 25V31.25H12.5C12.0856 31.25 11.6882 31.4146 11.3951 31.7076C11.1021 32.0007 10.9375 32.3981 10.9375 32.8125V43.75H9.375C8.1318 43.75 6.93951 44.2439 6.06044 45.1229C5.18136 46.002 4.6875 47.1943 4.6875 48.4375V90.625C4.6875 91.8682 5.18136 93.0605 6.06044 93.9396C6.93951 94.8186 8.1318 95.3125 9.375 95.3125H31.25C31.7722 95.301 32.2885 95.2 32.7766 95.0141C33.2877 95.2067 33.8288 95.3078 34.375 95.3125H84.375C85.6182 95.3125 86.8105 94.8186 87.6896 93.9396C88.5686 93.0605 89.0625 91.8682 89.0625 90.625V86.0172L94.5312 31.4063L95.3125 23.5938ZM17.1875 14.0625L32.2906 14.0438L34.3906 15.625H17.1875V14.0625ZM92.0312 25L91.5625 29.6875H64.6953L64.2266 25H92.0312ZM35.9375 65.625V62.5H70.3125V65.625H35.9375ZM41.6891 56.7266C43.635 55.8136 45.4698 54.6807 47.1578 53.35C47.2722 53.5904 47.4082 53.82 47.5641 54.0359C48.2419 54.8284 49.1023 55.444 50.0711 55.8297C51.0399 56.2154 52.088 56.3597 53.125 56.25H62.5C63.3407 56.2528 64.1648 56.484 64.8844 56.9188C64.8938 56.9188 64.8984 56.9359 64.9094 56.9422C65.6033 57.3585 66.1794 57.9453 66.5828 58.6469C66.7008 58.8808 66.7985 59.1244 66.875 59.375H39.3266C39.7335 58.2149 40.5828 57.2629 41.6891 56.7266ZM17.1875 26.5625H23.4375V31.25H17.1875V26.5625ZM14.0625 34.375H26.5625V43.75H14.0625V34.375ZM9.375 92.1875C8.9606 92.1875 8.56317 92.0229 8.27015 91.7299C7.97712 91.4368 7.8125 91.0394 7.8125 90.625V48.4375C7.8125 48.0231 7.97712 47.6257 8.27015 47.3326C8.56317 47.0396 8.9606 46.875 9.375 46.875H31.25C31.6644 46.875 32.0618 47.0396 32.3549 47.3326C32.6479 47.6257 32.8125 48.0231 32.8125 48.4375V65.8922C31.9015 66.22 31.1132 66.8198 30.5542 67.6105C29.9953 68.4011 29.6927 69.3443 29.6875 70.3125V90.625C29.7081 91.1557 29.8 91.6813 29.9609 92.1875H9.375ZM33.4281 91.8359C33.2371 91.6971 33.0817 91.515 32.9747 91.3045C32.8677 91.094 32.8121 90.8611 32.8125 90.625V70.3125C32.8125 69.8981 32.9771 69.5007 33.2701 69.2076C33.5632 68.9146 33.9606 68.75 34.375 68.75H71.875C72.2894 68.75 72.6868 68.9146 72.9799 69.2076C73.2729 69.5007 73.4375 69.8981 73.4375 70.3125V90.625C73.4375 91.0394 73.2729 91.4368 72.9799 91.7299C72.6868 92.0229 72.2894 92.1875 71.875 92.1875H34.375C34.0287 92.1808 33.6949 92.0568 33.4281 91.8359ZM85.9375 90.625C85.9375 91.0394 85.7729 91.4368 85.4799 91.7299C85.1868 92.0229 84.7894 92.1875 84.375 92.1875H76.2953C76.4655 91.6838 76.5556 91.1566 76.5625 90.625V87.5H85.9375V90.625ZM86.0859 84.375H76.5625V70.3125C76.5442 69.3475 76.2366 68.4102 75.6794 67.6221C75.1222 66.8339 74.3412 66.2313 73.4375 65.8922V60.9375C73.4375 60.5231 73.2729 60.1257 72.9799 59.8326C72.6868 59.5396 72.2894 59.375 71.875 59.375H70.1562C69.7332 57.5306 68.6895 55.8874 67.2 54.7203L65.0078 32.8125H91.25L86.0859 84.375Z" fill="#639B8B"/>
<path id="Vector_3" d="M50.0516 14.0109C50.2203 16.7281 50.8328 18.75 51.5625 18.75C52.2922 18.75 52.9047 16.7281 53.0734 14.0109C55.7906 13.8422 57.8125 13.2312 57.8125 12.5C57.8125 11.7688 55.7906 11.1578 53.0734 10.9891C52.9047 8.27188 52.2938 6.25 51.5625 6.25C50.8313 6.25 50.2203 8.27188 50.0516 10.9891C47.3344 11.1578 45.3125 11.7688 45.3125 12.5C45.3125 13.2312 47.3344 13.8422 50.0516 14.0109ZM35.9375 37.5C35.9375 38.2313 37.9594 38.8422 40.6766 39.0109C40.8453 41.7281 41.4578 43.75 42.1875 43.75C42.9172 43.75 43.5297 41.7281 43.6984 39.0109C46.4156 38.8422 48.4375 38.2313 48.4375 37.5C48.4375 36.7687 46.4156 36.1578 43.6984 35.9891C43.5297 33.2719 42.9187 31.25 42.1875 31.25C41.4563 31.25 40.8453 33.2719 40.6766 35.9891C37.9594 36.1578 35.9375 36.7687 35.9375 37.5ZM85.9891 14.0109C86.1578 16.7281 86.7703 18.75 87.5 18.75C88.2297 18.75 88.8422 16.7281 89.0109 14.0109C91.7281 13.8422 93.75 13.2312 93.75 12.5C93.75 11.7688 91.7281 11.1578 89.0109 10.9891C88.8422 8.27188 88.2313 6.25 87.5 6.25C86.7687 6.25 86.1578 8.27188 85.9891 10.9891C83.2719 11.1578 81.25 11.7688 81.25 12.5C81.25 13.2312 83.2719 13.8422 85.9891 14.0109Z" fill="#639B8B"/>
</g>
</svg>
