<svg width="18" height="16" viewBox="0 0 18 16" fill="none" xmlns="http://www.w3.org/2000/svg">
<path d="M13.1233 0C12.2791 0.013284 11.4534 0.25169 10.7294 0.691141C10.0054 1.13059 9.40886 1.75553 9 2.50284C8.59114 1.75553 7.99461 1.13059 7.27063 0.691141C6.54665 0.25169 5.72086 0.013284 4.87666 0C3.53091 0.059151 2.263 0.654724 1.34992 1.6566C0.436849 2.65848 -0.047163 3.98522 0.00362936 5.34698C0.00362936 8.79559 3.59168 12.562 6.60097 15.1156C7.27286 15.6868 8.12237 16 9 16C9.87763 16 10.7271 15.6868 11.399 15.1156C14.4083 12.562 17.9964 8.79559 17.9964 5.34698C18.0472 3.98522 17.5632 2.65848 16.6501 1.6566C15.737 0.654724 14.4691 0.059151 13.1233 0ZM10.4357 13.9552C10.0338 14.2976 9.52535 14.4853 9 14.4853C8.47465 14.4853 7.96618 14.2976 7.56433 13.9552C3.71238 10.6856 1.50302 7.54872 1.50302 5.34698C1.45178 4.38734 1.77769 3.44613 2.40968 2.72863C3.04167 2.01112 3.92847 1.57554 4.87666 1.51687C5.82486 1.57554 6.71165 2.01112 7.34365 2.72863C7.97564 3.44613 8.30155 4.38734 8.2503 5.34698C8.2503 5.54813 8.32929 5.74104 8.46988 5.88327C8.61048 6.02551 8.80117 6.10542 9 6.10542C9.19883 6.10542 9.38952 6.02551 9.53012 5.88327C9.67071 5.74104 9.7497 5.54813 9.7497 5.34698C9.69845 4.38734 10.0244 3.44613 10.6564 2.72863C11.2883 2.01112 12.1751 1.57554 13.1233 1.51687C14.0715 1.57554 14.9583 2.01112 15.5903 2.72863C16.2223 3.44613 16.5482 4.38734 16.497 5.34698C16.497 7.54872 14.2876 10.6856 10.4357 13.9522V13.9552Z" fill="#171A19"/>
</svg>
