<svg width="26" height="24" viewBox="0 0 26 24" fill="none" xmlns="http://www.w3.org/2000/svg">
<path d="M1.44566 15.5516L9.30303 5.79372C9.77371 5.24318 10.3619 4.7978 11.0273 4.48817C11.6927 4.17854 12.4194 4.012 13.1576 4H22.3492C22.8386 4.00316 23.3177 4.13651 23.734 4.38548C24.1504 4.63445 24.4879 4.98945 24.7099 5.41164C24.9318 5.83384 25.0295 6.30697 24.9923 6.77929C24.9551 7.25162 24.7844 7.70494 24.4989 8.08969L16.6415 18.565C16.3039 19.001 15.8681 19.3568 15.3672 19.6055C14.8663 19.8541 14.3134 19.989 13.7506 20H4.04008C3.23404 20 2.46101 19.6901 1.89106 19.1384C1.3211 18.5867 1.0009 17.8385 1.0009 17.0583C0.991016 16.666 1.06232 16.2757 1.21062 15.9105C1.35892 15.5453 1.58122 15.2125 1.86442 14.9317C2.14762 14.6509 2.48601 14.4277 2.85965 14.2754C3.2333 14.1231 3.63465 14.0447 4.04008 14.0448H13.38C13.9175 14.0634 14.4266 14.2833 14.7999 14.658C15.1733 15.0328 15.3817 15.5332 15.3814 16.0538C15.3817 16.5744 15.1733 17.0748 14.7999 17.4496C14.4266 17.8243 13.9175 18.0442 13.38 18.0628H3.74357C3.61054 18.0632 3.47886 18.0369 3.35684 17.9856C3.23482 17.9343 3.12509 17.8591 3.03457 17.7647C2.94404 17.6704 2.87469 17.5589 2.83086 17.4373C2.78704 17.3157 2.7697 17.1867 2.77993 17.0583C2.77993 16.8109 2.88146 16.5737 3.06218 16.3988C3.24289 16.2238 3.488 16.1256 3.74357 16.1256H13.38" stroke="white" stroke-miterlimit="10" stroke-linecap="round"/>
</svg>
