<svg width="32" height="32" viewBox="0 0 32 32" fill="none" xmlns="http://www.w3.org/2000/svg">
<path d="M16.5398 0.000190832C16.2423 0.00133305 16.0015 0.238512 16.0003 0.531439V4.26781C14.8102 4.26781 13.8339 5.23029 13.8339 6.40228V8.6085C13.6108 8.53726 13.3965 8.46331 13.1982 8.38246C12.5073 8.10078 11.9855 7.76332 11.6665 7.3783C11.3474 6.99327 11.1983 6.56745 11.255 5.95331C11.2885 5.57526 10.9383 5.32432 10.6192 5.38247C6.65537 6.10256 4.96024 8.30973 4.67428 10.3543C4.57925 11.0336 4.62851 11.6868 4.78112 12.2678H4.62562C3.73484 12.2678 3.00291 12.9896 3.00291 13.8668V15.4647C1.23998 15.4647 -0.170575 16.9776 0.0167265 18.7094L1.17188 29.3979C1.33028 30.8634 2.5828 32 4.08621 32H27.9155C29.4172 32 30.6843 30.8693 30.8308 29.3979L31.986 18.7052C32.1558 16.9777 30.7613 15.4645 28.9988 15.4645V13.8666C28.9988 13.3901 28.7789 12.9658 28.4381 12.6739C29.4301 11.9984 30.0831 10.8711 30.0831 9.59886V6.4021C30.0831 5.23021 29.1057 4.26783 27.9157 4.26763V0.531257C27.9145 0.23833 27.6737 0.00115838 27.3762 9.40944e-06C27.0771 -0.00114339 26.8336 0.236698 26.8325 0.531257V4.26763H25.2098V0.531257C25.2086 0.236294 24.9645 -0.00172413 24.665 9.40944e-06C24.3675 0.00115141 24.1267 0.23833 24.1255 0.531257V4.26763H22.5028V0.531257C22.5016 0.236698 22.2582 -0.00113956 21.9591 9.40944e-06C21.6616 0.00115141 21.4207 0.23833 21.4196 0.531257V4.26763H19.7916V0.531257C19.7904 0.23833 19.5496 0.00115838 19.2521 9.40944e-06C18.953 -0.00114295 18.7095 0.236698 18.7084 0.531257V4.26763H17.0857V0.531257C17.0845 0.236294 16.8393 -0.0015427 16.5398 0.000190832ZM16.0003 5.33565H27.9145C28.5192 5.33565 28.9977 5.80689 28.9977 6.40232V9.59908C28.9977 11.0782 27.7938 12.2679 26.2918 12.2679C24.6578 12.2679 23.3036 13.5428 23.2295 15.1502L22.5493 30.3783C22.5352 30.6941 22.28 30.9335 21.958 30.9335C21.6359 30.9335 21.3802 30.6951 21.3656 30.3783L20.6907 15.1502C20.619 13.5417 19.258 12.2679 17.624 12.2679C16.122 12.2679 14.9171 11.0783 14.9171 9.59908V6.40232C14.9171 5.80691 15.3956 5.33565 16.0003 5.33565ZM10.3991 6.61064C10.4873 7.12216 10.5109 7.66917 10.8275 8.05125C11.3094 8.63279 11.9944 9.04392 12.7866 9.36686C13.1157 9.50106 13.4728 9.61508 13.8402 9.72208C13.8735 10.7168 14.3019 11.6154 14.9794 12.268H5.91282C5.73882 11.7683 5.65553 11.1448 5.74568 10.5003C5.95874 8.97716 7.19969 7.34961 10.3991 6.61064ZM4.62545 13.3356H17.624C18.69 13.3356 19.5597 14.1493 19.6063 15.197L19.618 15.4647H4.08607V13.8668C4.08607 13.5621 4.31605 13.3356 4.62545 13.3356ZM26.291 13.3356H27.3742C27.6837 13.3356 27.9137 13.5621 27.9137 13.8668V15.4647H24.2961L24.3077 15.197C24.3561 14.1484 25.2251 13.3356 26.291 13.3356ZM3.00217 16.5313H19.6651C19.6651 16.5313 20.2846 30.425 20.286 30.425C20.2942 30.6041 20.3381 30.7734 20.4002 30.9333H4.08535C3.13109 30.9333 2.34856 30.2284 2.24685 29.2875L1.09065 18.599C0.970622 17.4885 1.86225 16.5313 3.00217 16.5313ZM24.2481 16.5313H28.9968C30.1371 16.5313 31.0139 17.4855 30.904 18.6031C30.904 18.6031 29.7503 29.2901 29.7489 29.2915C29.6569 30.2271 28.8682 30.9332 27.9136 30.9332H23.5172C23.5795 30.7733 23.6234 30.6041 23.6314 30.4249L24.2481 16.5313Z" fill="#171A19"/>
</svg>
