<svg width="32" height="30" viewBox="0 0 32 30" fill="none" xmlns="http://www.w3.org/2000/svg">
<path fill-rule="evenodd" clip-rule="evenodd" d="M13.4258 18.1745C11.7718 17.2808 10.6488 15.5455 10.6488 13.5529C10.6488 10.6476 13.0353 8.28947 15.9736 8.28947C18.912 8.28947 21.2985 10.6476 21.2985 13.5529C21.2985 15.5455 20.1755 17.2808 18.5214 18.1745C21.6818 19.2268 23.9605 22.1811 23.9605 25.6579C23.9605 27.0434 23.5915 28.4053 22.8902 29.6053C22.7481 29.8492 22.4837 30 22.1986 30H9.74871C9.46358 30 9.19922 29.8492 9.05706 29.6053C8.35581 28.4053 7.98682 27.0434 7.98682 25.6579C7.98682 22.1811 10.2655 19.2268 13.4258 18.1745ZM21.7186 28.4211C22.1419 27.5621 22.3631 26.6171 22.3631 25.6579C22.3631 22.1724 19.4998 19.3421 15.9736 19.3421C12.4475 19.3421 9.58419 22.1724 9.58419 25.6579C9.58419 26.6171 9.80542 27.5621 10.2287 28.4211H21.7186ZM29.7581 20.565C30.1814 19.7061 30.4026 18.7618 30.4026 17.8018C30.4026 14.3163 27.5394 11.4861 24.0132 11.4861C23.5723 11.4861 23.2145 11.1324 23.2145 10.6966C23.2145 10.2616 23.5723 9.90711 24.0132 9.90711C28.4211 9.90711 32 13.4447 32 17.8018C32 19.1882 31.631 20.5492 30.9298 21.7492C30.7868 21.9939 30.5232 22.1439 30.2381 22.1439H24.5978C24.1569 22.1439 23.7991 21.7903 23.7991 21.3545C23.7991 20.9195 24.1569 20.565 24.5978 20.565H29.7581ZM2.2419 20.5263H7.40219C7.84306 20.5263 8.20087 20.88 8.20087 21.3158C8.20087 21.7516 7.84306 22.1053 7.40219 22.1053H1.76189C1.47676 22.1053 1.2124 21.9545 1.07023 21.7105C0.368991 20.5105 0 19.1487 0 17.7632C0 13.4061 3.57889 9.86842 7.98682 9.86842C8.42769 9.86842 8.7855 10.2221 8.7855 10.6579C8.7855 11.0937 8.42769 11.4474 7.98682 11.4474C4.46064 11.4474 1.59736 14.2776 1.59736 17.7632C1.59736 18.7224 1.8186 19.6674 2.2419 20.5263ZM15.9736 9.86842C18.031 9.86842 19.7011 11.5192 19.7011 13.5529C19.7011 15.5858 18.031 17.2366 15.9736 17.2366C13.9162 17.2366 12.2462 15.5858 12.2462 13.5529C12.2462 11.5192 13.9162 9.86842 15.9736 9.86842ZM23.5611 0C20.9167 0 18.769 2.12289 18.769 4.73684C18.769 7.35079 20.9167 9.47368 23.5611 9.47368C26.2056 9.47368 28.3532 7.35079 28.3532 4.73684C28.3532 2.12289 26.2056 0 23.5611 0ZM8.7855 0C6.14107 0 3.99341 2.12289 3.99341 4.73684C3.99341 7.35079 6.14107 9.47368 8.7855 9.47368C11.4299 9.47368 13.5776 7.35079 13.5776 4.73684C13.5776 2.12289 11.4299 0 8.7855 0ZM23.5611 1.57895C25.3246 1.57895 26.7559 2.99368 26.7559 4.73684C26.7559 6.48 25.3246 7.89474 23.5611 7.89474C21.7976 7.89474 20.3664 6.48 20.3664 4.73684C20.3664 2.99368 21.7976 1.57895 23.5611 1.57895ZM8.7855 1.57895C10.549 1.57895 11.9802 2.99368 11.9802 4.73684C11.9802 6.48 10.549 7.89474 8.7855 7.89474C7.02201 7.89474 5.59078 6.48 5.59078 4.73684C5.59078 2.99368 7.02201 1.57895 8.7855 1.57895Z" fill="#171A19"/>
</svg>
