<svg width="32" height="41" viewBox="0 0 32 41" fill="none" xmlns="http://www.w3.org/2000/svg">
<path fill-rule="evenodd" clip-rule="evenodd" d="M4.51533 4.76937L4.03606 2.31088C3.92485 1.74226 4.07382 1.15379 4.44186 0.706306C4.81057 0.259488 5.35997 0 5.93917 0H25.0868C25.666 0 26.2154 0.259488 26.5835 0.706306C26.9522 1.15379 27.1011 1.74226 26.9899 2.31088L26.51 4.76937L23.7245 29.3132C23.5034 31.2666 22.1947 32.8566 20.4452 33.5087V38.4468C20.4452 38.938 20.2499 39.4093 19.9024 39.7568C19.5549 40.1044 19.0836 40.2996 18.5917 40.2996H12.4336C11.9424 40.2996 11.4711 40.1044 11.1236 39.7568C10.7761 39.4093 10.5808 38.938 10.5808 38.4468V33.5087C8.83059 32.8566 7.52258 31.2666 7.30083 29.3132L4.51533 4.76937ZM25.5224 4.14184L25.9209 2.10236C25.9692 1.85347 25.9037 1.59531 25.7428 1.39937C25.5813 1.20343 25.3403 1.08957 25.0868 1.08957H5.93917C5.68499 1.08957 5.44472 1.20343 5.2832 1.39937C5.12169 1.59531 5.05682 1.85347 5.10514 2.10236L5.50296 4.14184H25.5224ZM18.6692 32.7382C20.7027 32.7382 22.4125 31.2117 22.6422 29.1908L25.3609 5.23141H5.66447L8.38377 29.1908C8.61281 31.2117 10.3226 32.7382 12.3568 32.7382H18.6692ZM19.3556 36.8164V33.8277H11.6704V36.8164H19.3556ZM11.6704 37.906V38.4468C11.6704 38.6494 11.7504 38.8433 11.8941 38.9863C12.0371 39.13 12.2311 39.2101 12.4336 39.2101H18.5917C18.7943 39.2101 18.9883 39.13 19.1319 38.9863C19.2749 38.8433 19.3556 38.6494 19.3556 38.4468V37.906H11.6704ZM16.6443 36.222H14.3817C14.293 36.4034 14.107 36.5285 13.8912 36.5285C13.5907 36.5285 13.3471 36.2842 13.3471 35.9837V35.6772C13.3471 35.376 13.5907 35.1324 13.8912 35.1324H17.1341C17.4353 35.1324 17.6789 35.376 17.6789 35.6772V35.9837C17.6789 36.2842 17.4346 36.5285 17.1341 36.5285C16.919 36.5285 16.733 36.4034 16.6443 36.222ZM22.4674 2.21688C22.4674 1.91635 22.7111 1.67209 23.0123 1.67209C23.3128 1.67209 23.5571 1.91635 23.5571 2.21688V3.01453C23.5571 3.31506 23.3128 3.55932 23.0123 3.55932C22.7111 3.55932 22.4674 3.31506 22.4674 3.01453V2.21688ZM19.9673 2.21688C19.9673 1.91635 20.2115 1.67209 20.5121 1.67209C20.8133 1.67209 21.0569 1.91635 21.0569 2.21688V3.01453C21.0569 3.31506 20.8133 3.55932 20.5121 3.55932C20.2115 3.55932 19.9673 3.31506 19.9673 3.01453V2.21688ZM17.4677 2.21688C17.4677 1.91635 17.712 1.67209 18.0125 1.67209C18.3131 1.67209 18.5573 1.91635 18.5573 2.21688V3.01453C18.5573 3.31506 18.3131 3.55932 18.0125 3.55932C17.712 3.55932 17.4677 3.31506 17.4677 3.01453V2.21688ZM12.468 2.21688C12.468 1.91635 12.7123 1.67209 13.0135 1.67209C13.314 1.67209 13.5576 1.91635 13.5576 2.21688V3.01453C13.5576 3.31506 13.314 3.55932 13.0135 3.55932C12.7123 3.55932 12.468 3.31506 12.468 3.01453V2.21688ZM9.96848 2.21688C9.96848 1.91635 10.2127 1.67209 10.5133 1.67209C10.8138 1.67209 11.0581 1.91635 11.0581 2.21688V3.01453C11.0581 3.31506 10.8138 3.55932 10.5133 3.55932C10.2127 3.55932 9.96848 3.31506 9.96848 3.01453V2.21688ZM14.9682 2.21688C14.9682 1.91635 15.2118 1.67209 15.513 1.67209C15.8135 1.67209 16.0578 1.91635 16.0578 2.21688V3.01453C16.0578 3.31506 15.8135 3.55932 15.513 3.55932C15.2118 3.55932 14.9682 3.31506 14.9682 3.01453V2.21688ZM7.46897 2.21688C7.46897 1.91635 7.71323 1.67209 8.01375 1.67209C8.31428 1.67209 8.55854 1.91635 8.55854 2.21688V3.01453C8.55854 3.31506 8.31428 3.55932 8.01375 3.55932C7.71323 3.55932 7.46897 3.31506 7.46897 3.01453V2.21688Z" fill="#171A19"/>
</svg>
