<svg width="32" height="27" viewBox="0 0 32 27" fill="none" xmlns="http://www.w3.org/2000/svg">
<path d="M22.5216 12.3456C22.2131 12.3514 21.9083 12.4136 21.6221 12.5291V7.79432C21.6113 7.46766 21.475 7.15775 21.2416 6.92905C21.4756 6.70077 21.612 6.39061 21.6221 6.06379V3.01805C21.6221 1.03832 16.1837 0 10.8111 0C5.43839 0 0 1.03832 0 3.01805V6.06379C0.0119044 6.38819 0.148177 6.69556 0.380549 6.92213C0.14715 7.15083 0.0108522 7.46074 0 7.7874V19.0359C0 20.7941 4.24485 21.8047 8.93945 22.0228C8.2164 23.158 7.70093 24.0994 7.55563 24.359C7.51351 24.437 7.49655 24.5261 7.50708 24.6141C7.51761 24.7021 7.55512 24.7846 7.61444 24.8505C7.69747 24.9474 9.576 26.9963 14.5958 26.9963C16.3011 27.0373 17.9974 26.736 19.5844 26.1103C20.5579 26.2422 21.5393 26.307 22.5216 26.3041C29.2712 26.3041 31.7862 23.5352 31.8935 23.4383C31.9512 23.3709 31.9874 23.2876 31.9973 23.1994C32.0071 23.1111 31.9903 23.0219 31.9488 22.9434C31.3573 21.867 26.0815 12.3456 22.5216 12.3456ZM22.5216 25.4492C21.9611 25.4492 21.4422 25.425 20.944 25.3869C21.1747 25.2353 21.3871 25.0576 21.5771 24.8574C21.6359 24.7912 21.6728 24.7084 21.6827 24.6204C21.6926 24.5324 21.6751 24.4435 21.6325 24.3659C21.3281 23.7983 19.3077 20.1572 17.2043 18.0322C19.0102 15.5125 21.0755 13.2109 22.5216 13.2109C25.0159 13.2109 29.3576 20.0707 31.0286 23.0749C30.3229 23.6841 27.8147 25.4492 22.5216 25.4492ZM8.47933 24.4801C10.0846 21.6074 13.0148 17.3642 14.5958 17.3642C16.1768 17.3642 19.1139 21.6074 20.7088 24.4801C20.1138 24.9612 18.2871 26.1414 14.5958 26.1414C10.9045 26.1414 9.08129 24.9577 8.47933 24.4801ZM0.864884 19.0359V9.07491C1.3042 9.35118 1.77597 9.57206 2.26946 9.73252C4.29329 10.4247 7.40687 10.8228 10.8111 10.8228C14.2152 10.8228 17.3288 10.4247 19.3527 9.72906C19.8465 9.57111 20.3185 9.35132 20.7572 9.07491V12.9686C19.6813 13.6608 18.55 14.8549 17.4949 16.1874V12.4218C17.497 12.3567 17.4848 12.2919 17.4591 12.2321C17.4334 12.1723 17.3948 12.1189 17.3461 12.0757C17.2989 12.0352 17.2437 12.0054 17.184 11.9881C17.1243 11.9707 17.0617 11.9664 17.0002 11.9753C12.8894 12.5327 8.72231 12.5327 4.61156 11.9753C4.54982 11.9662 4.48682 11.9707 4.42703 11.9887C4.36724 12.0066 4.31213 12.0375 4.26561 12.0791C4.21969 12.1199 4.18298 12.17 4.15792 12.2261C4.13287 12.2822 4.12005 12.343 4.12031 12.4045V17.558C4.12031 19.0982 9.68671 19.1778 10.8041 19.1778H10.9633C10.4374 19.8215 9.92541 20.5172 9.48605 21.1852C4.18604 21.0191 0.864884 19.8596 0.864884 19.0359ZM0.864884 6.05687V4.29172C1.3042 4.56799 1.77597 4.78886 2.26946 4.94932C4.29329 5.64154 7.40687 6.03956 10.8111 6.03956C14.2152 6.03956 17.3288 5.64154 19.3527 4.94586C19.8465 4.78791 20.3185 4.56812 20.7572 4.29172V6.05687C20.7572 6.93944 16.8825 8.22003 10.8111 8.22003C4.73957 8.22003 0.864884 6.94636 0.864884 6.06379V6.05687ZM10.8111 0.854883C16.8825 0.854883 20.7572 2.13548 20.7572 3.01805C20.7572 3.26725 20.3144 3.71026 19.069 4.13597C17.1628 4.79012 14.0734 5.1916 10.8111 5.1916C7.54871 5.1916 4.45934 4.8005 2.55314 4.15328C1.30771 3.72411 0.864884 3.28455 0.864884 3.03535C0.864884 2.13548 4.73957 0.854883 10.8111 0.854883ZM10.8111 9.09222C14.7584 9.09222 18.7369 8.53153 20.5739 7.44475C20.6778 7.53174 20.7436 7.65596 20.7572 7.79086C20.7572 8.04006 20.3144 8.48307 19.069 8.90878C17.1628 9.56293 14.0734 9.9471 10.8111 9.9471C7.54871 9.9471 4.45934 9.556 2.55314 8.90878C1.30771 8.47961 0.864884 8.04006 0.864884 7.79086C0.878485 7.65596 0.944293 7.53174 1.04824 7.44475C2.88525 8.53153 6.86372 9.09222 10.8111 9.09222ZM16.5539 17.4334C15.862 16.8623 15.2047 16.4989 14.5958 16.4989C13.7171 16.4989 12.7103 17.2534 11.7313 18.2987C11.4372 18.2987 11.1328 18.2987 10.8111 18.2987C7.28925 18.2987 5.30347 17.7726 4.99211 17.4784V12.9132C8.8565 13.3944 12.7656 13.3944 16.63 12.9132V17.3296L16.5539 17.4334Z" fill="#171A19"/>
</svg>
