<svg width="32" height="40" viewBox="0 0 32 40" fill="none" xmlns="http://www.w3.org/2000/svg">
<path d="M10.6154 3.33333V8.06667C9.87746 8.2214 9.21442 8.63079 8.73801 9.22583C8.2616 9.82088 8.00095 10.5652 8 11.3333V36.6667C8.00104 37.5504 8.34581 38.3976 8.95868 39.0225C9.57156 39.6474 10.4025 39.9989 11.2692 40H21.7308C22.5975 39.9989 23.4284 39.6474 24.0413 39.0225C24.6542 38.3976 24.999 37.5504 25 36.6667V11.3333C24.999 10.5652 24.7384 9.82088 24.262 9.22583C23.7856 8.63079 23.1225 8.2214 22.3846 8.06667V3.33333C22.3836 2.4496 22.0388 1.60237 21.4259 0.97748C20.8131 0.352588 19.9821 0.00105857 19.1154 0H13.8846C13.0179 0.00105857 12.1869 0.352588 11.5741 0.97748C10.9612 1.60237 10.6164 2.4496 10.6154 3.33333ZM23.6923 11.3333V36.6667C23.6923 37.1971 23.4856 37.7058 23.1178 38.0809C22.7499 38.456 22.251 38.6667 21.7308 38.6667H11.2692C10.749 38.6667 10.2501 38.456 9.88221 38.0809C9.51435 37.7058 9.30769 37.1971 9.30769 36.6667V11.3333C9.30769 10.8029 9.51435 10.2942 9.88221 9.91912C10.2501 9.54405 10.749 9.33333 11.2692 9.33333H21.7308C22.251 9.33333 22.7499 9.54405 23.1178 9.91912C23.4856 10.2942 23.6923 10.8029 23.6923 11.3333ZM21.0769 3.33333V8H11.9231V3.33333C11.9231 2.8029 12.1297 2.29419 12.4976 1.91912C12.8655 1.54405 13.3644 1.33333 13.8846 1.33333H19.1154C19.6356 1.33333 20.1345 1.54405 20.5024 1.91912C20.8703 2.29419 21.0769 2.8029 21.0769 3.33333Z" fill="#171A19"/>
<path d="M11.2691 10.6667C11.0957 10.6667 10.9294 10.737 10.8067 10.862C10.6841 10.987 10.6152 11.1566 10.6152 11.3334V18.0001C10.6152 18.1769 10.6841 18.3465 10.8067 18.4715C10.9294 18.5965 11.0957 18.6667 11.2691 18.6667H21.7306C21.904 18.6667 22.0703 18.5965 22.193 18.4715C22.3156 18.3465 22.3845 18.1769 22.3845 18.0001V11.3334C22.3845 11.1566 22.3156 10.987 22.193 10.862C22.0703 10.737 21.904 10.6667 21.7306 10.6667H11.2691ZM21.0768 17.3334H11.9229V12.0001H21.0768V17.3334Z" fill="#171A19"/>
</svg>
