<svg width="32" height="36" viewBox="0 0 32 36" fill="none" xmlns="http://www.w3.org/2000/svg">
<path d="M27.1669 15.385V13.9033V12.5107C27.1669 11.4287 26.2884 10.5484 25.2088 10.5484H24.9668C24.3082 9.43351 23.4248 8.44085 22.3643 7.65473C23.4091 6.254 23.4831 3.88718 22.5964 0.456105C22.5424 0.227367 22.3662 0.0575256 22.1366 0.0123258C21.9049 -0.0365264 21.669 0.0616347 21.5182 0.27485C20.3865 2.06092 18.9094 2.7759 16.727 2.59419C14.407 2.39832 12.6931 2.84667 11.6295 3.92096C10.8501 4.70762 10.4738 5.80063 10.5319 7.0644C9.06037 7.92904 7.85978 9.12712 7.02567 10.5484H6.79116C5.71157 10.5484 4.83332 11.4287 4.83332 12.5107V13.9033V15.3855C2.08957 15.7009 0 18.0128 0 20.8394V22.4624C0 26.1255 1.59228 29.5474 4.36937 31.8508C7.60928 34.5267 11.7388 36 15.9968 36C20.4539 36 24.7283 34.4025 28.0322 31.5019C30.5537 29.2876 32 25.9953 32 22.4688V20.8394C32 18.0022 29.8949 15.6846 27.1669 15.385ZM11.2407 7.73646C11.241 7.73629 11.2412 7.73603 11.2415 7.73586C11.2422 7.73552 11.2428 7.73543 11.2434 7.73509C12.6697 6.93839 14.3134 6.51744 15.9968 6.51744C16.1644 6.51744 16.3321 6.52337 16.4938 6.53524C16.7571 6.55305 16.9744 6.36084 16.9933 6.10333C17.0124 5.84583 16.8195 5.62166 16.5626 5.60294C16.3785 5.58924 16.1877 5.5824 15.9968 5.5824C14.4165 5.5824 12.8677 5.92482 11.4709 6.57302C11.5111 5.90855 11.7113 5.1655 12.2916 4.57978C13.14 3.72281 14.6476 3.36213 16.6496 3.52558C18.9219 3.71414 20.6005 3.03386 21.8667 1.40393C22.549 4.40812 22.3755 6.42293 21.3481 7.39769C21.3476 7.39809 21.3475 7.39869 21.3471 7.39909C21.3469 7.39929 21.3467 7.39932 21.3465 7.39952C20.6229 8.09258 19.4119 8.31766 17.749 8.07021C17.4962 8.03551 17.2568 8.20809 17.219 8.46422C17.1812 8.71944 17.357 8.95731 17.6119 8.9952C18.0895 9.06643 18.5379 9.10158 18.957 9.10158C20.0862 9.10158 20.9998 8.84288 21.6878 8.32996C22.5448 8.94438 23.292 9.694 23.8748 10.5484H8.12265C8.90341 9.39835 9.96865 8.43546 11.2407 7.73646ZM5.76623 12.5107C5.76623 11.9441 6.22608 11.4835 6.79116 11.4835H7.29064H24.7094H25.2088C25.7741 11.4835 26.234 11.9441 26.234 12.5107V13.4357H5.76623V12.5107ZM5.76623 14.3708H26.234V15.3414H5.76623V14.3708ZM31.0671 22.4688C31.0671 25.7255 29.7367 28.7616 27.4174 30.7988C24.2837 33.5496 20.2277 35.065 15.9968 35.065C11.9547 35.065 8.03587 33.6674 4.96337 31.1298C2.40197 29.005 0.93291 25.846 0.93291 22.4624V20.8394C0.93291 18.3662 2.85795 16.3646 5.35125 16.2801C5.39202 16.2756 5.43848 16.2765 5.4788 16.2765H26.5212C26.5591 16.276 26.6008 16.276 26.6395 16.2798C26.6546 16.2807 26.6665 16.2808 26.685 16.2824C29.1423 16.365 31.0671 18.3666 31.0671 20.8394V22.4688Z" fill="#171A19"/>
<path d="M21.4127 22.4486C20.8786 22.5953 20.3962 22.8748 19.9435 23.2823C19.4286 22.9728 18.8412 22.7213 18.2077 22.5518C18.2053 22.5511 18.2028 22.5501 18.2004 22.5495C18.1994 22.5492 18.1986 22.5496 18.1977 22.5493C17.5768 22.3741 16.9135 22.2843 16.2256 22.2793C16.1708 21.9138 16.1616 21.5856 16.2751 21.2565C16.3591 21.0127 16.23 20.7465 15.9865 20.662C15.7421 20.5776 15.4775 20.7072 15.3932 20.9515C15.2329 21.4167 15.2324 21.8582 15.2878 22.2963C14.7731 22.3312 14.2753 22.4157 13.8025 22.5493C13.8015 22.5495 13.8007 22.5492 13.7998 22.5495C13.7973 22.5501 13.7951 22.5511 13.7926 22.5517C13.1176 22.7323 12.4976 23.0083 11.9594 23.3462C11.5231 23.1611 11.1381 22.9079 10.7947 22.5668C10.6111 22.3856 10.3164 22.3865 10.1349 22.5705C9.9538 22.754 9.95517 23.0499 10.1383 23.2316C10.4374 23.5283 10.7725 23.7736 11.1327 23.9771C10.7586 24.3294 10.4622 24.7185 10.2749 25.13C10.1681 25.3651 10.2715 25.6422 10.5061 25.7495C10.5688 25.7783 10.6346 25.7915 10.6993 25.7915C10.8762 25.7915 11.0457 25.6902 11.124 25.518C11.4607 24.7774 12.3126 24.0961 13.375 23.6771C13.3714 23.7556 13.3634 23.8338 13.3634 23.9123C13.3634 25.9737 14.5216 27.5881 15.9999 27.5881C17.4786 27.5881 18.6367 25.9737 18.6367 23.9123C18.6367 23.8338 18.6288 23.7556 18.6252 23.6771C19.6875 24.0961 20.5394 24.7774 20.8761 25.518C20.9544 25.6902 21.1237 25.7915 21.3009 25.7915C21.3655 25.7915 21.4314 25.7783 21.494 25.7495C21.7286 25.6422 21.832 25.3651 21.7252 25.13C21.5141 24.666 21.164 24.2311 20.7192 23.8453C21.0167 23.608 21.3269 23.4415 21.6596 23.3498C21.9081 23.2818 22.0541 23.0243 21.986 22.7755C21.9176 22.5266 21.6605 22.3801 21.4127 22.4486ZM15.9999 26.6531C15.0764 26.6531 14.2963 25.398 14.2963 23.9123C14.2963 23.7338 14.3077 23.5548 14.3302 23.3781C14.8069 23.2681 15.3112 23.2124 15.8337 23.2124H16.1664C16.6887 23.2124 17.193 23.2681 17.6699 23.3786C17.6924 23.5548 17.7038 23.7338 17.7038 23.9123C17.7038 25.398 16.9235 26.6531 15.9999 26.6531Z" fill="#171A19"/>
</svg>
