<svg width="32" height="40" viewBox="0 0 32 40" fill="none" xmlns="http://www.w3.org/2000/svg">
<path d="M16.4996 4.00008C16.8586 4.00008 17.1496 3.7016 17.1496 3.33341C17.1496 2.96522 16.8586 2.66675 16.4996 2.66675C16.1406 2.66675 15.8496 2.96522 15.8496 3.33341C15.8496 3.7016 16.1406 4.00008 16.4996 4.00008Z" fill="#171A19"/>
<path d="M10 38C10 38.5304 10.2054 39.0391 10.5711 39.4142C10.9368 39.7893 11.4328 40 11.95 40H21.05C21.5672 40 22.0632 39.7893 22.4289 39.4142C22.7946 39.0391 23 38.5304 23 38V15.3333C22.9962 13.9457 22.5227 12.6025 21.6603 11.5333C21.6839 11.4693 21.6972 11.4017 21.7 11.3333V8.66667C21.7 8.48986 21.6315 8.32029 21.5096 8.19526C21.3877 8.07024 21.2224 8 21.05 8H20.4V2C20.4 1.46957 20.1946 0.960859 19.8289 0.585787C19.4632 0.210714 18.9672 0 18.45 0H14.55C14.0328 0 13.5368 0.210714 13.1711 0.585787C12.8054 0.960859 12.6 1.46957 12.6 2V8H11.95C11.7776 8 11.6123 8.07024 11.4904 8.19526C11.3685 8.32029 11.3 8.48986 11.3 8.66667V11.3333C11.3028 11.4017 11.3161 11.4693 11.3397 11.5333C10.4773 12.6025 10.0038 13.9457 10 15.3333V38ZM21.05 38.6667H11.95C11.7776 38.6667 11.6123 38.5964 11.4904 38.4714C11.3685 38.3464 11.3 38.1768 11.3 38V17.3333H15.8377C15.8377 21.9847 16.0704 26.3833 18.5527 30.3593C18.6475 30.5039 18.7937 30.6046 18.96 30.64C19.1263 30.6754 19.2994 30.6427 19.4425 30.5487C19.5855 30.4548 19.687 30.3072 19.7253 30.1375C19.7636 29.9678 19.7356 29.7895 19.6473 29.6407C17.3515 25.9627 17.1363 21.9247 17.1376 17.3333H21.7V38C21.7 38.1768 21.6315 38.3464 21.5096 38.4714C21.3877 38.5964 21.2224 38.6667 21.05 38.6667ZM21.7 16H17.1422C17.1422 15.9093 17.1422 15.82 17.1422 15.7287C17.1422 15.3787 17.1422 15.0213 17.1461 14.6667H17.7961C17.9685 14.6667 18.1338 14.5964 18.2557 14.4714C18.3776 14.3464 18.4461 14.1768 18.4461 14V12H20.3226C20.7571 12.4335 21.1028 12.9517 21.3393 13.5241C21.5759 14.0965 21.6985 14.7116 21.7 15.3333V16ZM15.85 13.3333V12H17.15V13.3333H15.85ZM13.9 2C13.9 1.82319 13.9685 1.65362 14.0904 1.5286C14.2123 1.40357 14.3776 1.33333 14.55 1.33333H18.45C18.6224 1.33333 18.7877 1.40357 18.9096 1.5286C19.0315 1.65362 19.1 1.82319 19.1 2V8H13.9V2ZM12.6 9.33333H20.4V10.6667H12.6V9.33333ZM12.6735 12H14.55V14C14.55 14.1768 14.6185 14.3464 14.7404 14.4714C14.8623 14.5964 15.0276 14.6667 15.2 14.6667H15.85C15.85 15.0193 15.85 15.374 15.8461 15.7207C15.8461 15.814 15.8461 15.9067 15.8461 16H11.3V15.3333C11.301 14.7119 11.423 14.097 11.6589 13.5246C11.8947 12.9522 12.2397 12.4338 12.6735 12Z" fill="#171A19"/>
</svg>
