<svg width="32" height="32" viewBox="0 0 32 32" fill="none" xmlns="http://www.w3.org/2000/svg">
<path d="M11.0468 0.000455878C10.4794 -0.0130738 9.91912 0.275057 9.61759 0.79731L8.81655 2.18479C8.37796 2.94443 8.64231 3.92952 9.40197 4.36802L21.027 11.0804C20.0789 10.9038 19.0986 10.7547 18.1302 10.6064C16.1756 10.3071 14.2914 9.98554 13.0041 9.42205C12.3605 9.14029 11.876 8.80274 11.5791 8.4179C11.2822 8.03304 11.1405 7.60018 11.1968 6.98043C11.2291 6.60297 10.8859 6.35406 10.5708 6.4096C6.66748 7.12965 4.99824 9.334 4.71664 11.3783C4.62079 12.074 4.675 12.7434 4.83435 13.3356H4.79893C3.92176 13.3356 3.20101 14.0563 3.20101 14.9335V17.068C1.43743 17.068 0 18.5044 0 20.2679V28.799C0 30.5626 1.43747 32 3.20101 32H28.799C30.5626 32 32 30.5626 32 28.799V20.2679C32 18.5044 30.5625 17.068 28.799 17.068L28.802 15.569C29.5617 16.0076 30.5468 15.7443 30.9853 14.9847L31.7864 13.5961C32.225 12.8365 31.9617 11.8514 31.202 11.4129L11.8011 0.211965C11.5637 0.0749086 11.3046 0.00660382 11.0468 0.000455878ZM11.2676 1.13585L30.6685 12.3368C30.9324 12.4891 31.0147 12.799 30.8623 13.0628L30.0613 14.4503C29.9089 14.7142 29.5991 14.7974 29.3352 14.6451L9.93527 3.44414C9.67141 3.2918 9.58814 2.98198 9.74048 2.71812L10.5415 1.33064C10.6989 1.05801 11.0162 0.990688 11.2676 1.13585ZM10.3426 7.64622C10.4237 8.14953 10.4427 8.68752 10.7363 9.06807C11.1868 9.65194 11.8288 10.0717 12.5749 10.3983C14.0669 11.0514 16.0059 11.3612 17.9686 11.6618C19.9314 11.9624 21.9175 12.249 23.4133 12.7639C23.8985 12.9308 24.3294 13.1213 24.6925 13.3357H5.95292C5.77078 12.829 5.68021 12.1882 5.77167 11.5243C5.98107 10.0045 7.20516 8.3872 10.3426 7.64622ZM4.79886 14.4023H26.7806L27.7316 14.9512V17.068H4.26632V14.9335C4.26632 14.6288 4.49418 14.4023 4.79886 14.4023ZM3.20094 18.1346H28.7989C29.99 18.1346 30.9332 19.0768 30.9332 20.2678V28.799C30.9332 29.99 29.9899 30.9332 28.7989 30.9332H3.20094C2.00985 30.9332 1.06767 29.9899 1.06767 28.799V20.2678C1.06767 19.0768 2.00991 18.1346 3.20094 18.1346ZM10.1343 21.8669C8.6662 21.8669 7.46445 23.0634 7.46445 24.5315C7.46445 25.9996 8.66614 27.2013 10.1343 27.2013H21.8666C23.3347 27.2013 24.5312 25.9996 24.5312 24.5315C24.5312 23.0634 23.3347 21.8669 21.8666 21.8669H10.1343ZM10.1343 22.9336H21.8666C22.7622 22.9336 23.4645 23.6359 23.4645 24.5315C23.4645 25.4271 22.7622 26.1346 21.8666 26.1346H10.1343C9.23869 26.1346 8.53118 25.4271 8.53118 24.5315C8.53118 23.6359 9.23869 22.9336 10.1343 22.9336Z" fill="#171A19"/>
</svg>
