<svg width="32" height="40" viewBox="0 0 32 40" fill="none" xmlns="http://www.w3.org/2000/svg">
<path fill-rule="evenodd" clip-rule="evenodd" d="M19.3856 15.4506V16.5088C19.3856 17.545 19.9481 18.4992 20.854 19.0008L21.3646 19.2829C22.9908 20.183 24 21.8954 24 23.7552V36.4598C24 37.399 23.6273 38.2996 22.9636 38.9633C22.3004 39.6274 21.4003 40 20.4619 40H11.5376C10.5992 40 9.69961 39.6274 9.03591 38.9633C8.37274 38.2996 8 37.399 8 36.4598V23.7552C8 21.8954 9.00917 20.183 10.6354 19.2829L11.1455 19.0008C12.0519 18.4992 12.6144 17.545 12.6144 16.5088V15.4506H11.6131C11.3447 15.4506 11.0873 15.3436 10.8975 15.154C10.7077 14.964 10.6013 14.7064 10.6013 14.4379V13.8418C10.6013 13.5732 10.7077 13.3157 10.8975 13.1261C11.0275 12.9961 11.189 12.9051 11.3641 12.8606V10.1345C11.3641 9.32636 12.0183 8.67173 12.8257 8.67173H13.4511C13.6724 8.30515 14.0839 7.472 14.0839 6.34277C14.0839 4.996 13.6545 3.04561 13.6545 2.34697C13.6545 1.05121 14.7046 0 16 0C17.2954 0 18.345 1.05121 18.345 2.34697C18.345 3.34066 17.9161 5.16854 17.9161 6.34277C17.9161 7.51701 18.3235 8.32466 18.5405 8.67173H19.1738C19.9811 8.67173 20.6354 9.32636 20.6354 10.1345V12.8606C20.8105 12.9051 20.9725 12.9961 21.1025 13.1261C21.2917 13.3157 21.3987 13.5732 21.3987 13.8418V14.4379C21.3987 14.7064 21.2917 14.964 21.1025 15.154C20.9127 15.3436 20.6553 15.4506 20.3869 15.4506H19.3856ZM13.7022 15.4506V16.5088C13.7022 17.9411 12.9248 19.2603 11.6718 19.953L11.1617 20.2355C9.88205 20.9437 9.08781 22.2915 9.08781 23.7552V36.4598C9.08781 37.1104 9.34575 37.734 9.80551 38.1936C10.2648 38.6532 10.8881 38.9118 11.5376 38.9118H20.4619C21.1119 38.9118 21.7352 38.6532 22.1945 38.1936C22.6537 37.734 22.9122 37.1104 22.9122 36.4598V23.7552C22.9122 22.2915 22.118 20.9437 20.8383 20.2355L20.3277 19.953C19.0752 19.2603 18.2978 17.9411 18.2978 16.5088V15.4506H13.7022ZM20.3109 13.9178H11.6891V14.3619H20.3109V13.9178ZM19.1738 9.76045H12.8257C12.6191 9.76045 12.4519 9.92798 12.4519 10.1345V12.8296H19.5476V10.1345C19.5476 9.92798 19.3803 9.76045 19.1738 9.76045ZM17.3111 8.67173C17.0658 8.12412 16.8283 7.33747 16.8283 6.34277C16.8283 5.16854 17.2571 3.34066 17.2571 2.34697C17.2571 1.65233 16.6946 1.08872 16 1.08872C15.3054 1.08872 14.7423 1.65233 14.7423 2.34697C14.7423 3.04561 15.1717 4.996 15.1717 6.34277C15.1717 7.31647 14.9242 8.11462 14.6747 8.67173H17.3111ZM20.7439 23.8453V34.4019C20.7439 34.8525 20.5651 35.2845 20.2464 35.6031C19.9282 35.9217 19.4962 36.1007 19.0459 36.1007H12.9536C12.5033 36.1007 12.0718 35.9217 11.7531 35.6031C11.4349 35.2845 11.2561 34.8525 11.2561 34.4019V23.8453C11.2561 23.3942 11.4349 22.9621 11.7531 22.6435C12.0718 22.325 12.5033 22.1459 12.9536 22.1459H19.0459C19.4962 22.1459 19.9282 22.325 20.2464 22.6435C20.5651 22.9621 20.7439 23.3942 20.7439 23.8453ZM19.6561 23.8453C19.6561 23.6832 19.5916 23.5277 19.4773 23.4132C19.363 23.2987 19.2079 23.2346 19.0459 23.2346H12.9536C12.7921 23.2346 12.637 23.2987 12.5221 23.4132C12.4079 23.5277 12.3439 23.6832 12.3439 23.8453V34.4019C12.3439 34.5634 12.4079 34.7189 12.5221 34.8335C12.637 34.948 12.7921 35.012 12.9536 35.012H19.0459C19.2079 35.012 19.363 34.948 19.4773 34.8335C19.5916 34.7189 19.6561 34.5634 19.6561 34.4019V23.8453ZM17.9187 25.5296C17.9187 25.5296 17.5916 26.3898 17.4071 27.318C17.2975 27.8696 17.2225 28.4472 17.3499 28.8443C17.4244 29.0773 17.3872 29.3089 17.2571 29.5189C17.1497 29.6929 16.9609 29.853 16.7869 29.957C16.4744 30.143 16.0954 30.1805 15.7531 30.059L15.7316 30.0515C15.3887 29.93 15.1177 29.6624 14.9919 29.3214C14.9326 29.1603 14.9222 29.0008 14.9416 28.8398C14.9557 28.7237 14.9955 28.6067 15.0123 28.4842C15.221 26.9509 17.0107 24.967 17.0107 24.967C17.1874 24.775 17.4752 24.7359 17.697 24.873C17.9187 25.0105 18.0115 25.2861 17.9187 25.5296ZM16.0236 28.9678C16.0398 28.9943 16.0645 29.0148 16.0944 29.0253L16.1159 29.0328C16.1536 29.0463 16.1955 29.0423 16.2301 29.0213C16.2401 29.0153 16.2527 29.0068 16.2658 28.9968C16.2118 28.7487 16.1945 28.4637 16.2055 28.1606C16.151 28.3202 16.1111 28.4782 16.0902 28.6307C16.076 28.7342 16.0356 28.9153 16.0236 28.9678ZM13.2068 29.2979C12.9069 29.2979 12.6632 29.0538 12.6632 28.7532C12.6632 28.4532 12.9069 28.2091 13.2068 28.2091H14.1263C14.2815 28.2091 14.4299 28.2757 14.5332 28.3922C14.6364 28.5087 14.6847 28.6632 14.6663 28.8178C14.6663 28.8178 14.5662 29.5649 15.0286 30.054C15.2231 30.26 15.5229 30.4056 15.9659 30.4426C17.2519 30.5496 17.6655 29.4639 17.7169 28.8278C17.7394 28.5452 17.9754 28.3277 18.259 28.3277H18.7927C19.0931 28.3277 19.3368 28.5717 19.3368 28.8718C19.3368 29.1723 19.0931 29.4164 18.7927 29.4164H18.7198C18.4729 30.4351 17.6807 31.6773 15.8758 31.5273C15.0941 31.4623 14.5814 31.1652 14.238 30.8022C13.7987 30.3371 13.6461 29.7389 13.5974 29.2979H13.2068Z" fill="#171A19"/>
</svg>
