<svg width="21" height="20" viewBox="0 0 21 20" fill="none" xmlns="http://www.w3.org/2000/svg">
<g clip-path="url(#clip0_302_2558)">
<path d="M10.4974 5C9.83813 5 9.19366 5.1955 8.6455 5.56177C8.09733 5.92804 7.67009 6.44863 7.4178 7.05772C7.16551 7.66681 7.0995 8.33703 7.22811 8.98363C7.35673 9.63024 7.6742 10.2242 8.14037 10.6904C8.60655 11.1565 9.20049 11.474 9.8471 11.6026C10.4937 11.7312 11.1639 11.6652 11.773 11.4129C12.3821 11.1606 12.9027 10.7334 13.269 10.1852C13.6352 9.63707 13.8307 8.9926 13.8307 8.33333C13.8307 7.44928 13.4795 6.60143 12.8544 5.97631C12.2293 5.35119 11.3815 5 10.4974 5ZM10.4974 10C10.1678 10 9.84553 9.90225 9.57145 9.71912C9.29737 9.53598 9.08374 9.27568 8.9576 8.97114C8.83145 8.6666 8.79845 8.33148 8.86276 8.00818C8.92706 7.68488 9.0858 7.38791 9.31889 7.15482C9.55197 6.92173 9.84895 6.763 10.1722 6.69869C10.4955 6.63438 10.8307 6.66739 11.1352 6.79353C11.4397 6.91968 11.7 7.1333 11.8832 7.40738C12.0663 7.68147 12.1641 8.0037 12.1641 8.33333C12.1641 8.77536 11.9885 9.19928 11.6759 9.51184C11.3633 9.82441 10.9394 10 10.4974 10Z" fill="#171A19"/>
<path d="M10.5003 19.9997C9.79855 20.0033 9.10619 19.8387 8.48115 19.5198C7.85611 19.2008 7.31659 18.7367 6.90776 18.1664C3.73193 13.7855 2.12109 10.4922 2.12109 8.37721C2.12109 6.15492 3.0039 4.02365 4.57529 2.45225C6.14669 0.88085 8.27797 -0.00195312 10.5003 -0.00195312C12.7226 -0.00195312 14.8538 0.88085 16.4252 2.45225C17.9966 4.02365 18.8794 6.15492 18.8794 8.37721C18.8794 10.4922 17.2686 13.7855 14.0928 18.1664C13.6839 18.7367 13.1444 19.2008 12.5194 19.5198C11.8943 19.8387 11.202 20.0033 10.5003 19.9997ZM10.5003 1.81721C8.76061 1.8192 7.09277 2.51115 5.86265 3.74127C4.63253 4.9714 3.94058 6.63923 3.93859 8.37888C3.93859 10.0539 5.51609 13.1514 8.37943 17.1005C8.62251 17.4354 8.9414 17.7079 9.31002 17.8958C9.67864 18.0837 10.0865 18.1816 10.5003 18.1816C10.914 18.1816 11.3219 18.0837 11.6905 17.8958C12.0591 17.7079 12.378 17.4354 12.6211 17.1005C15.4844 13.1514 17.0619 10.0539 17.0619 8.37888C17.0599 6.63923 16.368 4.9714 15.1379 3.74127C13.9077 2.51115 12.2399 1.8192 10.5003 1.81721Z" fill="#171A19"/>
</g>
<defs>
<clipPath id="clip0_302_2558">
<rect width="20" height="20" fill="white" transform="translate(0.5)"/>
</clipPath>
</defs>
</svg>
