<svg width="60" height="60" viewBox="0 0 60 60" fill="none" xmlns="http://www.w3.org/2000/svg">
<path d="M11.7056 35.7713L24.1465 19.9148C24.8917 19.0202 25.8231 18.2964 26.8766 17.7933C27.9301 17.2901 29.0808 17.0195 30.2495 17H44.803C45.5778 17.0051 46.3363 17.2218 46.9955 17.6264C47.6547 18.031 48.1893 18.6078 48.5406 19.2939C48.892 19.98 49.0467 20.7488 48.9878 21.5164C48.9289 22.2839 48.6586 23.0205 48.2066 23.6457L35.7657 40.6682C35.2311 41.3766 34.5411 41.9548 33.748 42.3589C32.9549 42.7629 32.0796 42.9822 31.1885 43H15.8135C14.5372 43 13.3133 42.4964 12.4108 41.5999C11.5084 40.7034 11.0014 39.4875 11.0014 38.2197C10.9858 37.5822 11.0987 36.9481 11.3335 36.3546C11.5683 35.7611 11.9203 35.2203 12.3687 34.7639C12.8171 34.3076 13.3528 33.9451 13.9445 33.6976C14.5361 33.4501 15.1715 33.3227 15.8135 33.3229H30.6016C31.4527 33.3531 32.2587 33.7103 32.8498 34.3193C33.441 34.9283 33.7711 35.7415 33.7705 36.5874C33.7711 37.4334 33.441 38.2466 32.8498 38.8556C32.2587 39.4646 31.4527 39.8218 30.6016 39.852H15.344C15.1334 39.8526 14.9249 39.8099 14.7317 39.7266C14.5385 39.6432 14.3647 39.521 14.2214 39.3677C14.0781 39.2144 13.9683 39.0332 13.8989 38.8356C13.8295 38.6381 13.802 38.4284 13.8182 38.2197C13.8182 37.8177 13.979 37.4322 14.2651 37.148C14.5512 36.8637 14.9393 36.704 15.344 36.704H30.6016" stroke="white" stroke-miterlimit="10" stroke-linecap="round"/>
</svg>
