<svg width="60" height="60" viewBox="0 0 60 60" fill="none" xmlns="http://www.w3.org/2000/svg">
<path d="M20.8477 45.0997C26.8663 45.0997 31.7452 40.2207 31.7452 34.2022C31.7452 28.1837 26.8663 23.3047 20.8477 23.3047C14.8292 23.3047 9.9502 28.1837 9.9502 34.2022C9.9502 40.2207 14.8292 45.0997 20.8477 45.0997Z" stroke="white" stroke-miterlimit="10" stroke-linecap="round" stroke-linejoin="round"/>
<path d="M20.8479 49.05C29.0481 49.05 35.6958 42.4024 35.6958 34.2021C35.6958 26.0019 29.0481 19.3542 20.8479 19.3542C12.6476 19.3542 6 26.0019 6 34.2021C6 42.4024 12.6476 49.05 20.8479 49.05Z" stroke="white" stroke-miterlimit="10" stroke-linecap="round" stroke-linejoin="round"/>
<path d="M20.8477 26.71V28.617" stroke="white" stroke-miterlimit="10" stroke-linecap="round" stroke-linejoin="round"/>
<path d="M20.8477 39.106V41.013" stroke="white" stroke-miterlimit="10" stroke-linecap="round" stroke-linejoin="round"/>
<path d="M27.931 33.7935H26.1602" stroke="white" stroke-miterlimit="10" stroke-linecap="round" stroke-linejoin="round"/>
<path d="M15.535 33.7935H13.6279" stroke="white" stroke-miterlimit="10" stroke-linecap="round" stroke-linejoin="round"/>
<path d="M25.8876 38.9696L24.5254 37.6074" stroke="white" stroke-miterlimit="10" stroke-linecap="round" stroke-linejoin="round"/>
<path d="M17.0336 30.1154L15.8076 28.7532" stroke="white" stroke-miterlimit="10" stroke-linecap="round" stroke-linejoin="round"/>
<path d="M25.8876 28.7532L24.5254 30.1154" stroke="white" stroke-miterlimit="10" stroke-linecap="round" stroke-linejoin="round"/>
<path d="M17.0336 37.6074L15.8076 38.9696" stroke="white" stroke-miterlimit="10" stroke-linecap="round" stroke-linejoin="round"/>
<path d="M39.5095 36.109C45.5032 36.109 50.4071 31.2051 50.4071 25.2115C50.4071 19.2179 45.5032 14.314 39.5095 14.314C36.1041 14.314 32.971 15.9486 30.9277 18.4005" stroke="white" stroke-miterlimit="10" stroke-linecap="round" stroke-linejoin="round"/>
<path d="M27.5225 16.6299C30.2468 12.9519 34.6059 10.5 39.5097 10.5C47.6829 10.5 54.3576 17.1747 54.3576 25.3479C54.3576 33.521 47.6829 40.1958 39.5097 40.1958" stroke="white" stroke-miterlimit="10" stroke-linecap="round" stroke-linejoin="round"/>
<path d="M39.5098 17.856V19.6268" stroke="white" stroke-miterlimit="10" stroke-linecap="round" stroke-linejoin="round"/>
<path d="M46.5931 24.9395H44.8223" stroke="white" stroke-miterlimit="10" stroke-linecap="round" stroke-linejoin="round"/>
<path d="M44.5497 29.9794L43.1875 28.7534" stroke="white" stroke-miterlimit="10" stroke-linecap="round" stroke-linejoin="round"/>
<path d="M35.6957 21.2614L34.4697 19.8992" stroke="white" stroke-miterlimit="10" stroke-linecap="round" stroke-linejoin="round"/>
<path d="M44.5497 19.8994L43.1875 21.2616" stroke="white" stroke-miterlimit="10" stroke-linecap="round" stroke-linejoin="round"/>
</svg>
