<svg width="60" height="60" viewBox="0 0 60 60" fill="none" xmlns="http://www.w3.org/2000/svg">
<path d="M41.9927 40.1438C41.9927 46.6153 35.9624 53.528 29.7851 53.528C23.6078 53.528 17.7246 46.6153 17.7246 40.1438C17.7246 33.6723 28.0202 27.0537 29.7851 27.0537C31.5501 27.0537 41.9927 33.6723 41.9927 40.1438Z" stroke="white" stroke-linecap="round" stroke-linejoin="round"/>
<path d="M17.7244 40.144C17.7244 40.144 8.16429 28.8189 13.7533 22.3474C19.3423 15.8759 32.5794 12.6401 32.5794 12.6401" stroke="white" stroke-linecap="round" stroke-linejoin="round"/>
<path d="M12.8711 23.671C12.8711 23.671 14.636 5.28609 28.0203 6.02149C34.7859 6.46273 37.1392 9.69847 38.0217 12.7871C38.3349 14.3169 38.2565 15.9011 37.7937 17.3925C37.3308 18.8839 36.4986 20.2341 35.3742 21.3177L29.7852 27.0538" stroke="white" stroke-linecap="round" stroke-linejoin="round"/>
<path d="M38.1689 13.5225C38.1689 13.5225 49.494 17.1994 49.494 25.8771C49.347 31.9074 41.993 40.1438 41.993 40.1438" stroke="white" stroke-linecap="round" stroke-linejoin="round"/>
</svg>
