<svg width="60" height="60" viewBox="0 0 60 60" fill="none" xmlns="http://www.w3.org/2000/svg">
<path d="M53.0002 34.9287C47.1019 34.9287 47.1019 32.0515 41.3475 32.0515C35.4492 32.0515 35.4492 34.9287 29.6948 34.9287C23.7965 34.9287 23.7964 32.0515 17.8981 32.0515C11.9999 32.0515 11.9999 34.9287 6.10156 34.9287" stroke="white" stroke-miterlimit="10" stroke-linecap="round" stroke-linejoin="round"/>
<path d="M53.0002 30.6131C47.1019 30.6131 47.1019 27.7358 41.3475 27.7358C35.4492 27.7358 35.4492 30.6131 29.6948 30.6131C23.7965 30.6131 23.7964 27.7358 17.8981 27.7358C11.9999 27.7358 11.9999 30.6131 6.10156 30.6131" stroke="white" stroke-miterlimit="10" stroke-linecap="round" stroke-linejoin="round"/>
<path d="M30.2694 22.9884C28.2553 22.9884 26.6729 21.4059 26.6729 19.3918" stroke="white" stroke-miterlimit="10" stroke-linecap="round" stroke-linejoin="round"/>
<path d="M35.1602 20.255C35.1602 21.262 34.8725 22.1251 34.4409 22.8444C33.4339 24.7146 31.5637 25.8655 29.4058 25.8655C26.2409 25.8655 23.6514 23.276 23.6514 20.1111C23.6514 16.9461 29.4058 7.59521 29.4058 7.59521C29.4058 7.59521 31.5637 11.0479 33.1462 14.5005C34.2971 16.8023 35.1602 18.9602 35.1602 20.255Z" stroke="white" stroke-miterlimit="10" stroke-linecap="round" stroke-linejoin="round"/>
<path d="M12.2871 11.6233V23.276" stroke="white" stroke-miterlimit="10" stroke-linecap="round" stroke-linejoin="round"/>
<path d="M15.3078 20.1111L12.2867 23.276L9.26562 20.1111" stroke="white" stroke-miterlimit="10" stroke-linecap="round" stroke-linejoin="round"/>
<path d="M46.6689 11.6235V23.2763" stroke="white" stroke-miterlimit="10" stroke-linecap="round" stroke-linejoin="round"/>
<path d="M49.8335 20.1113L46.6685 23.2763L43.6475 20.1113" stroke="white" stroke-miterlimit="10" stroke-linecap="round" stroke-linejoin="round"/>
<path d="M42.3521 49.171C42.3521 49.6026 42.2083 50.0342 42.0644 50.4657C41.6328 51.3289 40.7697 51.9044 39.7627 51.9044C38.3241 51.9044 37.0293 50.7535 37.0293 49.171C37.0293 47.7324 39.7627 43.2727 39.7627 43.2727C39.7627 43.2727 40.7697 44.8552 41.489 46.5815C41.9206 47.5885 42.3521 48.5956 42.3521 49.171Z" stroke="white" stroke-miterlimit="10" stroke-linecap="round" stroke-linejoin="round"/>
<path d="M32.1373 44.8551C32.1373 45.2867 31.9934 45.7182 31.8496 46.1498C31.418 47.013 30.5548 47.5884 29.5478 47.5884C28.1092 47.5884 26.8145 46.4376 26.8145 44.8551C26.8145 43.4165 29.5478 38.9568 29.5478 38.9568C29.5478 38.9568 30.5548 40.5392 31.2741 42.2656C31.7057 43.2726 32.1373 44.2796 32.1373 44.8551Z" stroke="white" stroke-miterlimit="10" stroke-linecap="round" stroke-linejoin="round"/>
<path d="M52.4215 44.8551C52.4215 45.2867 52.2776 45.7182 52.1338 46.1498C51.7022 47.013 50.839 47.5884 49.832 47.5884C48.3934 47.5884 47.0986 46.4376 47.0986 44.8551C47.0986 43.4165 49.832 38.9568 49.832 38.9568C49.832 38.9568 50.839 40.5392 51.5583 42.2656C51.9899 43.2726 52.4215 44.2796 52.4215 44.8551Z" stroke="white" stroke-miterlimit="10" stroke-linecap="round" stroke-linejoin="round"/>
<path d="M22.068 49.171C22.068 49.6026 21.9241 50.0342 21.7802 50.4657C21.3487 51.3289 20.4855 51.9044 19.4785 51.9044C18.0399 51.9044 16.7451 50.7535 16.7451 49.171C16.7451 47.7324 19.4785 43.2727 19.4785 43.2727C19.4785 43.2727 20.4855 44.8552 21.2048 46.5815C21.6364 47.5885 22.068 48.5956 22.068 49.171Z" stroke="white" stroke-miterlimit="10" stroke-linecap="round" stroke-linejoin="round"/>
<path d="M11.8531 44.8551C11.8531 45.2867 11.7093 45.7182 11.5654 46.1498C11.1338 47.013 10.2706 47.5884 9.26362 47.5884C7.82501 47.5884 6.53027 46.4376 6.53027 44.8551C6.53027 43.4165 9.26362 38.9568 9.26362 38.9568C9.26362 38.9568 10.2707 40.5392 10.99 42.2656C11.4216 43.2726 11.8531 44.2796 11.8531 44.8551Z" stroke="white" stroke-miterlimit="10" stroke-linecap="round" stroke-linejoin="round"/>
</svg>
