<svg width="60" height="60" viewBox="0 0 60 60" fill="none" xmlns="http://www.w3.org/2000/svg">
<path d="M29.119 55.0951H11.9936L10.4189 24.5844C10.222 21.435 12.781 18.876 15.7336 18.876H25.3789C28.5284 18.876 30.8906 21.435 30.6937 24.5844L29.119 55.0951Z" stroke="white" stroke-miterlimit="10" stroke-linecap="round" stroke-linejoin="round"/>
<path d="M26.1663 11.1992H14.9463V19.0729H26.1663V11.1992Z" stroke="white" stroke-miterlimit="10" stroke-linecap="round" stroke-linejoin="round"/>
<path d="M24.1978 46.8276H17.3083L15.3398 27.9307H25.9694L24.1978 46.8276Z" stroke="white" stroke-miterlimit="10" stroke-linecap="round" stroke-linejoin="round"/>
<path d="M29.3154 51.7489H48.9997V23.0098C48.9997 20.0572 46.6377 17.6951 43.685 17.6951H35.2207C32.8586 17.6951 30.6933 19.2698 30.1028 21.6319" stroke="white" stroke-miterlimit="10" stroke-linecap="round" stroke-linejoin="round"/>
<path d="M45.4568 17.695H33.0557V7.06548C37.1894 5.88442 41.3231 5.88442 45.4568 7.06548V17.695Z" stroke="white" stroke-miterlimit="10" stroke-linecap="round" stroke-linejoin="round"/>
</svg>
