<svg width="40" height="40" viewBox="0 0 40 40" fill="none" xmlns="http://www.w3.org/2000/svg">
<path d="M20.4195 22.1329H27.5424H34.6653C24.0678 21.7855 20.3326 16.7473 20.3326 16.7473C20.3326 16.7473 16.5975 21.6986 6 22.1329H13.1229H20.4195Z" stroke="#015F45" stroke-miterlimit="10" stroke-linecap="round" stroke-linejoin="round"/>
<path d="M34.7522 22.133C34.7522 22.2199 34.6653 22.2198 34.5785 22.3067C32.928 24.3915 30.6696 26.0419 28.0636 27.1711C25.8051 28.1266 23.1992 28.7347 20.4196 28.7347C17.6399 28.7347 15.0339 28.2135 12.7755 27.1711C10.0827 26.0419 7.82419 24.3915 6.26063 22.3067C6.17376 22.2198 6.17378 22.2199 6.08691 22.133C8.17166 15.7919 13.2098 11.4487 18.3348 12.0567C19.0297 12.1436 19.7246 12.3173 20.3327 12.5779C21.0276 12.3173 21.6356 12.1436 22.3306 12.0567" stroke="#015F45" stroke-miterlimit="10" stroke-linecap="round" stroke-linejoin="round"/>
<path d="M20.4199 12.5779C21.1148 12.3173 21.7229 12.1436 22.5047 12.0567C27.6297 11.4487 32.6678 15.7919 34.7526 22.133C34.7526 22.133 34.7526 22.133 34.5788 22.3067C32.9284 24.3915 30.6699 26.0419 28.064 27.1711C25.8055 28.1266 23.1996 28.7347 20.4199 28.7347" stroke="#015F45" stroke-miterlimit="10" stroke-linecap="round" stroke-linejoin="round"/>
</svg>
