<svg width="160" height="160" viewBox="0 0 160 160" fill="none" xmlns="http://www.w3.org/2000/svg">
<rect width="160" height="160" rx="80" fill="#F4F5F0"/>
<path d="M61.25 75.3125C61.25 71.0047 57.0453 67.5 51.875 67.5C46.7047 67.5 42.5 71.0047 42.5 75.3125C42.5 79.6203 46.7047 83.125 51.875 83.125C57.0453 83.125 61.25 79.6203 61.25 75.3125ZM45.625 75.3125C45.625 72.7281 48.4281 70.625 51.875 70.625C55.3219 70.625 58.125 72.7281 58.125 75.3125C58.125 77.8969 55.3219 80 51.875 80C48.4281 80 45.625 77.8969 45.625 75.3125ZM80 83.125C85.1703 83.125 89.375 79.6203 89.375 75.3125C89.375 71.0047 85.1703 67.5 80 67.5C74.8297 67.5 70.625 71.0047 70.625 75.3125C70.625 79.6203 74.8297 83.125 80 83.125ZM80 70.625C83.4469 70.625 86.25 72.7281 86.25 75.3125C86.25 77.8969 83.4469 80 80 80C76.5531 80 73.75 77.8969 73.75 75.3125C73.75 72.7281 76.5531 70.625 80 70.625ZM62.8125 84.5031V83.125H59.6875V84.5031C59.6875 85.4062 59.4734 86.3078 59.0703 87.1141C58.4531 88.35 58.125 89.7359 58.125 91.1219C58.125 93.6047 60.1453 95.625 62.6281 95.625H69.2469C71.7297 95.625 73.75 93.6047 73.75 91.1219C73.75 89.7359 73.4219 88.35 72.8047 87.1141C72.4016 86.3078 72.1875 85.4062 72.1875 84.5031V83.125H69.0625V84.5031C69.0625 85.8891 69.3906 87.275 70.0078 88.5109C70.4109 89.3172 70.625 90.2188 70.625 91.1219C70.625 91.8813 70.0063 92.5 69.2469 92.5H62.6281C61.8687 92.5 61.25 91.8813 61.25 91.1219C61.25 90.2188 61.4641 89.3172 61.8672 88.5109C62.4844 87.275 62.8125 85.8891 62.8125 84.5031Z" fill="#639B8B"/>
<path d="M119.062 59.6875H117.5V56.5625H120.625C121.489 56.5625 122.188 55.8641 122.188 55V48.75C122.188 47.8859 121.489 47.1875 120.625 47.1875H117.5V40.9375C117.5 37.4906 114.697 34.6875 111.25 34.6875C107.803 34.6875 105 37.4906 105 40.9375V47.1875H101.875C101.011 47.1875 100.312 47.8859 100.312 48.75V55C100.312 55.8641 101.011 56.5625 101.875 56.5625H105V59.6875H103.438C100.128 59.6875 97.2172 61.4297 95.5453 64.0625C94.9375 62.8453 94.2938 61.6484 93.5734 60.4984C93.1906 59.8844 92.4328 59.6172 91.7547 59.8453L86.7578 61.5125L89.6203 56.9359C89.9891 56.3453 89.9234 55.5813 89.4578 55.0625C83.0813 47.9703 74.7281 44.0625 65.9375 44.0625C57.1469 44.0625 48.7938 47.9703 42.4156 55.0641C41.95 55.5828 41.8844 56.3469 42.2531 56.9375L45.1156 61.5141L40.1187 59.8469C39.4344 59.6172 38.6812 59.8859 38.3 60.5C33.8922 67.5406 31.5625 75.9047 31.5625 84.6875C31.5625 93.4703 33.8922 101.834 38.3 108.875C38.6828 109.489 39.4406 109.758 40.1187 109.528L45.1156 107.861L42.2547 112.438C41.8859 113.028 41.9516 113.792 42.4172 114.311C48.7938 121.405 57.1469 125.312 65.9375 125.312C70.3984 125.312 74.7094 124.322 78.7844 122.375C79.4797 124.094 81.1594 125.312 83.125 125.312H122.188C125.634 125.312 128.438 122.509 128.438 119.062V69.0625C128.438 63.8922 124.233 59.6875 119.062 59.6875ZM108.125 40.9375C108.125 39.2141 109.527 37.8125 111.25 37.8125C112.973 37.8125 114.375 39.2141 114.375 40.9375V47.1875H108.125V40.9375ZM103.438 50.3125H119.062V53.4375H103.438V50.3125ZM108.125 56.5625H114.375V59.6875H108.125V56.5625ZM45.5375 113.08L50.0734 105.828C50.4234 105.27 50.3844 104.552 49.9766 104.034C49.5672 103.514 48.875 103.305 48.2531 103.519L40.3141 106.169C36.6297 99.8484 34.6875 92.45 34.6875 84.6875C34.6875 76.925 36.6297 69.5266 40.3172 63.2063L48.2563 65.8563C48.8766 66.0656 49.5703 65.8594 49.9797 65.3406C50.3875 64.8234 50.425 64.1047 50.0766 63.5469L45.5406 56.2953C51.2016 50.4125 58.4047 47.1875 65.9375 47.1875C73.4703 47.1875 80.6734 50.4125 86.3375 56.2953L81.8016 63.5469C81.4516 64.1047 81.4906 64.8234 81.8984 65.3406C82.3063 65.8594 82.9969 66.0656 83.6219 65.8563L91.5609 63.2063C95.2453 69.5266 97.1875 76.925 97.1875 84.6875C97.1875 86.7094 97.0516 88.7422 96.7828 90.7281L99.8797 91.1469C100.167 89.0203 100.312 86.8484 100.312 84.6875C100.312 78.8625 99.2672 73.2344 97.2906 68.0406C97.7844 65.0438 100.364 62.8125 103.438 62.8125H105.053L106.131 94.0625H83.125C82.2609 94.0625 81.5625 94.7609 81.5625 95.625V100.6C80.5141 100.973 79.6453 101.705 79.0922 102.652C76.9766 100.086 71.4375 98.75 65.9375 98.75C58.9484 98.75 51.875 100.897 51.875 105C51.875 109.103 58.9484 111.25 65.9375 111.25C70.9406 111.25 75.9734 110.144 78.4375 108.013V119.047C74.4906 121.122 70.2922 122.188 65.9375 122.188C58.4047 122.188 51.2016 118.963 45.5375 113.08ZM112.812 100.312H84.6875V97.1875H112.812V100.312ZM81.5625 109.688H97.1875V115.938H81.5625V109.688ZM76.875 105C76.875 105.906 73.0422 108.125 65.9375 108.125C58.8328 108.125 55 105.906 55 105C55 104.094 58.8328 101.875 65.9375 101.875C73.0422 101.875 76.875 104.094 76.875 105ZM115.938 120.625C115.938 121.488 115.238 122.188 114.375 122.188H83.125C82.2625 122.188 81.5625 121.488 81.5625 120.625V119.062H98.75C99.6141 119.062 100.312 118.364 100.312 117.5V108.125C100.312 107.261 99.6141 106.562 98.75 106.562H81.5625V105C81.5625 104.137 82.2625 103.438 83.125 103.438H114.375C115.238 103.438 115.938 104.137 115.938 105V120.625ZM125.312 119.062C125.312 120.786 123.911 122.188 122.188 122.188H118.795C118.967 121.7 119.062 121.173 119.062 120.625V105C119.062 102.966 117.752 101.247 115.938 100.6V95.625C115.938 94.7609 115.239 94.0625 114.375 94.0625H109.256L108.178 62.8125H114.32L113.352 90.8844L116.473 90.9906L117.447 62.8125H119.062C122.509 62.8125 125.312 65.6156 125.312 69.0625V119.062Z" fill="#639B8B"/>
</svg>
