<svg width="35" height="34" viewBox="0 0 35 34" fill="none" xmlns="http://www.w3.org/2000/svg">
<g clip-path="url(#clip0_2073_2215)">
<path d="M21.6233 10C20.7791 10.0125 19.9534 10.236 19.2294 10.6479C18.5054 11.0599 17.9089 11.6458 17.5 12.3464C17.0911 11.6458 16.4946 11.0599 15.7706 10.6479C15.0466 10.236 14.2209 10.0125 13.3767 10C12.0309 10.0555 10.763 10.6138 9.84992 11.5531C8.93685 12.4923 8.45284 13.7361 8.50363 15.0128C8.50363 18.2459 12.0917 21.7769 15.101 24.1709C15.7729 24.7064 16.6224 25 17.5 25C18.3776 25 19.2271 24.7064 19.899 24.1709C22.9083 21.7769 26.4964 18.2459 26.4964 15.0128C26.5472 13.7361 26.0632 12.4923 25.1501 11.5531C24.237 10.6138 22.9691 10.0555 21.6233 10Z" fill="#171A19"/>
</g>
<defs>
<clipPath id="clip0_2073_2215">
<rect x="0.5" width="34" height="34" rx="17" fill="white"/>
</clipPath>
</defs>
</svg>
