<svg width="32" height="32" viewBox="0 0 32 32" fill="none" xmlns="http://www.w3.org/2000/svg">
<rect width="32" height="32" rx="16" fill="#015F45"/>
<path d="M20.3986 8C19.4981 8.01461 18.6173 8.27686 17.8451 8.76026C17.0728 9.24365 16.4365 9.93108 16.0004 10.7531C15.5643 9.93108 14.928 9.24365 14.1557 8.76026C13.3835 8.27686 12.5026 8.01461 11.6022 8C10.1667 8.06507 8.81425 8.7202 7.84031 9.82226C6.86636 10.9243 6.35008 12.3837 6.40426 13.8817C6.40426 17.6751 10.2315 21.8182 13.4414 24.6272C14.1581 25.2555 15.0643 25.6 16.0004 25.6C16.9365 25.6 17.8427 25.2555 18.5594 24.6272C21.7693 21.8182 25.5965 17.6751 25.5965 13.8817C25.6507 12.3837 25.1344 10.9243 24.1605 9.82226C23.1865 8.7202 21.8341 8.06507 20.3986 8ZM17.5318 23.3508C17.1031 23.7273 16.5608 23.9338 16.0004 23.9338C15.44 23.9338 14.8976 23.7273 14.469 23.3508C10.3603 19.7542 8.00362 16.3036 8.00362 13.8817C7.94895 12.8261 8.29659 11.7907 8.97072 11.0015C9.64484 10.2122 10.5908 9.73309 11.6022 9.66856C12.6136 9.73309 13.5595 10.2122 14.2336 11.0015C14.9077 11.7907 15.2554 12.8261 15.2007 13.8817C15.2007 14.1029 15.285 14.3151 15.4349 14.4716C15.5849 14.6281 15.7883 14.716 16.0004 14.716C16.2125 14.716 16.4159 14.6281 16.5658 14.4716C16.7158 14.3151 16.8001 14.1029 16.8001 13.8817C16.7454 12.8261 17.093 11.7907 17.7672 11.0015C18.4413 10.2122 19.3872 9.73309 20.3986 9.66856C21.41 9.73309 22.3559 10.2122 23.0301 11.0015C23.7042 11.7907 24.0518 12.8261 23.9972 13.8817C23.9972 16.3036 21.6405 19.7542 17.5318 23.3474V23.3508Z" fill="white"/>
</svg>
