<svg xmlns="http://www.w3.org/2000/svg" fill="none" viewBox="0 0 40 40"><g clip-path="url(#a)"><path fill="#0A66C2" d="M20 40c11.046 0 20-8.954 20-20S31.046 0 20 0 0 8.954 0 20s8.954 20 20 20Z" opacity=".9"/><path fill="#fff" d="M28.998 29h.004v-6.602c0-3.23-.695-5.717-4.47-5.717-1.816 0-3.034.996-3.53 1.94h-.053v-1.639h-3.58v12.017h3.727v-5.95c0-1.567.297-3.082 2.238-3.082 1.912 0 1.94 1.788 1.94 3.182V29h3.724ZM11.297 16.982h3.732V29h-3.732V16.982ZM13.162 11A2.162 2.162 0 0 0 11 13.162c0 1.193.968 2.181 2.162 2.181 1.193 0 2.161-.988 2.161-2.181A2.163 2.163 0 0 0 13.162 11Z"/></g><defs><clipPath id="a"><path fill="#fff" d="M0 0h40v40H0z"/></clipPath></defs></svg>
