<svg width="20" height="21" viewBox="0 0 20 21" fill="none" xmlns="http://www.w3.org/2000/svg">
<g clip-path="url(#clip0_356_12156)">
<path d="M10 10.4999C10.9889 10.4999 11.9556 10.2067 12.7779 9.6573C13.6001 9.10789 14.241 8.327 14.6194 7.41337C14.9978 6.49974 15.0969 5.4944 14.9039 4.5245C14.711 3.55459 14.2348 2.66368 13.5355 1.96441C12.8363 1.26515 11.9454 0.788949 10.9755 0.596022C10.0055 0.403096 9.00021 0.502113 8.08658 0.880551C7.17295 1.25899 6.39206 1.89985 5.84265 2.7221C5.29324 3.54434 5 4.51104 5 5.49995C5.00132 6.82562 5.52853 8.09663 6.46593 9.03402C7.40332 9.97142 8.67432 10.4986 10 10.4999ZM10 2.16662C10.6593 2.16662 11.3037 2.36211 11.8519 2.72838C12.4001 3.09465 12.8273 3.61525 13.0796 4.22434C13.3319 4.83342 13.3979 5.50365 13.2693 6.15025C13.1407 6.79685 12.8232 7.3908 12.357 7.85697C11.8908 8.32315 11.2969 8.64062 10.6503 8.76923C10.0037 8.89785 9.33348 8.83184 8.72439 8.57955C8.1153 8.32726 7.59471 7.90001 7.22844 7.35185C6.86216 6.80369 6.66667 6.15922 6.66667 5.49995C6.66667 4.61589 7.01786 3.76805 7.64298 3.14293C8.2681 2.5178 9.11595 2.16662 10 2.16662Z" fill="#015F45"/>
<path d="M10 12.1672C8.01155 12.1694 6.10518 12.9603 4.69914 14.3663C3.29309 15.7724 2.50221 17.6787 2.5 19.6672C2.5 19.8882 2.5878 20.1002 2.74408 20.2564C2.90036 20.4127 3.11232 20.5005 3.33333 20.5005C3.55435 20.5005 3.76631 20.4127 3.92259 20.2564C4.07887 20.1002 4.16667 19.8882 4.16667 19.6672C4.16667 18.1201 4.78125 16.6363 5.87521 15.5424C6.96917 14.4484 8.4529 13.8338 10 13.8338C11.5471 13.8338 13.0308 14.4484 14.1248 15.5424C15.2188 16.6363 15.8333 18.1201 15.8333 19.6672C15.8333 19.8882 15.9211 20.1002 16.0774 20.2564C16.2337 20.4127 16.4457 20.5005 16.6667 20.5005C16.8877 20.5005 17.0996 20.4127 17.2559 20.2564C17.4122 20.1002 17.5 19.8882 17.5 19.6672C17.4978 17.6787 16.7069 15.7724 15.3009 14.3663C13.8948 12.9603 11.9884 12.1694 10 12.1672Z" fill="#015F45"/>
</g>
<defs>
<clipPath id="clip0_356_12156">
<rect width="20" height="20" fill="white" transform="translate(0 0.5)"/>
</clipPath>
</defs>
</svg>
