<svg width="20" height="21" viewBox="0 0 20 21" fill="none" xmlns="http://www.w3.org/2000/svg">
<g clip-path="url(#clip0_356_12174)">
<path d="M10 10.4999C10.9889 10.4999 11.9556 10.2067 12.7779 9.65729C13.6001 9.10788 14.241 8.32699 14.6194 7.41336C14.9978 6.49973 15.0969 5.49439 14.9039 4.52449C14.711 3.55458 14.2348 2.66367 13.5355 1.96441C12.8363 1.26514 11.9454 0.788941 10.9755 0.596015C10.0055 0.403089 9.00021 0.502105 8.08658 0.880544C7.17295 1.25898 6.39206 1.89984 5.84265 2.72209C5.29324 3.54434 5 4.51103 5 5.49994C5.00132 6.82562 5.52853 8.09662 6.46593 9.03401C7.40332 9.97141 8.67432 10.4986 10 10.4999ZM10 2.16661C10.6593 2.16661 11.3037 2.3621 11.8519 2.72838C12.4001 3.09465 12.8273 3.61524 13.0796 4.22433C13.3319 4.83342 13.3979 5.50364 13.2693 6.15024C13.1407 6.79685 12.8232 7.39079 12.357 7.85696C11.8908 8.32314 11.2969 8.64061 10.6503 8.76923C10.0037 8.89784 9.33348 8.83183 8.72439 8.57954C8.1153 8.32725 7.59471 7.90001 7.22844 7.35184C6.86216 6.80368 6.66667 6.15921 6.66667 5.49994C6.66667 4.61589 7.01786 3.76804 7.64298 3.14292C8.2681 2.5178 9.11595 2.16661 10 2.16661Z" fill="#65666A"/>
<path d="M10 12.1672C8.01155 12.1694 6.10518 12.9603 4.69914 14.3663C3.29309 15.7724 2.50221 17.6787 2.5 19.6672C2.5 19.8882 2.5878 20.1002 2.74408 20.2564C2.90036 20.4127 3.11232 20.5005 3.33333 20.5005C3.55435 20.5005 3.76631 20.4127 3.92259 20.2564C4.07887 20.1002 4.16667 19.8882 4.16667 19.6672C4.16667 18.1201 4.78125 16.6363 5.87521 15.5424C6.96917 14.4484 8.4529 13.8338 10 13.8338C11.5471 13.8338 13.0308 14.4484 14.1248 15.5424C15.2188 16.6363 15.8333 18.1201 15.8333 19.6672C15.8333 19.8882 15.9211 20.1002 16.0774 20.2564C16.2337 20.4127 16.4457 20.5005 16.6667 20.5005C16.8877 20.5005 17.0996 20.4127 17.2559 20.2564C17.4122 20.1002 17.5 19.8882 17.5 19.6672C17.4978 17.6787 16.7069 15.7724 15.3009 14.3663C13.8948 12.9603 11.9884 12.1694 10 12.1672Z" fill="#65666A"/>
</g>
<defs>
<clipPath id="clip0_356_12174">
<rect width="20" height="20" fill="white" transform="translate(0 0.5)"/>
</clipPath>
</defs>
</svg>
