<svg width="32" height="32" viewBox="0 0 32 32" fill="none" xmlns="http://www.w3.org/2000/svg">
<rect width="32" height="32" rx="16" fill="#015F45"/>
<path d="M16.0002 16C16.9495 16 17.8776 15.7185 18.6669 15.191C19.4563 14.6636 20.0715 13.914 20.4348 13.0369C20.7981 12.1598 20.8932 11.1947 20.708 10.2636C20.5228 9.33245 20.0656 8.47718 19.3943 7.80588C18.723 7.13459 17.8677 6.67744 16.9366 6.49223C16.0055 6.30702 15.0404 6.40207 14.1633 6.76537C13.2862 7.12867 12.5366 7.7439 12.0091 8.53326C11.4817 9.32261 11.2002 10.2506 11.2002 11.2C11.2015 12.4726 11.7076 13.6928 12.6075 14.5927C13.5074 15.4926 14.7275 15.9987 16.0002 16ZM16.0002 8C16.6331 8 17.2518 8.18767 17.778 8.53929C18.3043 8.89091 18.7144 9.39069 18.9566 9.97541C19.1988 10.5601 19.2622 11.2035 19.1387 11.8243C19.0152 12.445 18.7105 13.0152 18.2629 13.4627C17.8154 13.9103 17.2452 14.215 16.6245 14.3385C16.0037 14.462 15.3603 14.3986 14.7756 14.1564C14.1909 13.9142 13.6911 13.5041 13.3395 12.9778C12.9879 12.4516 12.8002 11.8329 12.8002 11.2C12.8002 10.3513 13.1373 9.53737 13.7375 8.93725C14.3376 8.33714 15.1515 8 16.0002 8Z" fill="white"/>
<path d="M15.9996 17.6C14.3028 17.6021 12.676 18.3614 11.4762 19.7112C10.2764 21.061 9.60149 22.8911 9.59961 24.8C9.59961 25.0122 9.67453 25.2157 9.80789 25.3657C9.94125 25.5157 10.1221 25.6 10.3107 25.6C10.4993 25.6 10.6802 25.5157 10.8136 25.3657C10.9469 25.2157 11.0218 25.0122 11.0218 24.8C11.0218 23.3148 11.5463 21.8904 12.4798 20.8402C13.4133 19.79 14.6794 19.2 15.9996 19.2C17.3198 19.2 18.5859 19.79 19.5194 20.8402C20.4529 21.8904 20.9774 23.3148 20.9774 24.8C20.9774 25.0122 21.0523 25.2157 21.1857 25.3657C21.319 25.5157 21.4999 25.6 21.6885 25.6C21.8771 25.6 22.058 25.5157 22.1913 25.3657C22.3247 25.2157 22.3996 25.0122 22.3996 24.8C22.3977 22.8911 21.7228 21.061 20.523 19.7112C19.3232 18.3614 17.6964 17.6021 15.9996 17.6Z" fill="white"/>
</svg>
