<svg width="20" height="21" viewBox="0 0 20 21" fill="none" xmlns="http://www.w3.org/2000/svg">
<g clip-path="url(#clip0_356_12165)">
<path d="M10 0.5C7.53792 0.501755 5.16344 1.41385 3.33333 3.06083V1.33333C3.33333 1.11232 3.24554 0.900358 3.08926 0.744078C2.93298 0.587797 2.72101 0.5 2.5 0.5C2.27899 0.5 2.06702 0.587797 1.91074 0.744078C1.75446 0.900358 1.66667 1.11232 1.66667 1.33333V3.83333C1.66667 4.49637 1.93006 5.13226 2.3989 5.6011C2.86774 6.06994 3.50363 6.33333 4.16667 6.33333H6.66667C6.88768 6.33333 7.09964 6.24554 7.25592 6.08926C7.4122 5.93298 7.5 5.72101 7.5 5.5C7.5 5.27899 7.4122 5.06703 7.25592 4.91074C7.09964 4.75446 6.88768 4.66667 6.66667 4.66667H4.16667C4.13856 4.6625 4.11074 4.65666 4.08333 4.64917C5.44127 3.28152 7.23177 2.42756 9.14922 2.23305C11.0667 2.03855 12.9922 2.51555 14.5971 3.58263C16.202 4.64972 17.3868 6.24075 17.9493 8.08413C18.5118 9.92751 18.4171 11.909 17.6813 13.6903C16.9455 15.4716 15.6144 16.9423 13.915 17.8515C12.2156 18.7606 10.2533 19.0517 8.36318 18.6752C6.47303 18.2986 4.77216 17.2778 3.55088 15.7868C2.32961 14.2959 1.66364 12.4273 1.66667 10.5C1.66667 10.279 1.57887 10.067 1.42259 9.91074C1.26631 9.75447 1.05435 9.66667 0.833333 9.66667C0.61232 9.66667 0.400358 9.75447 0.244078 9.91074C0.0877974 10.067 0 10.279 0 10.5C0 12.4778 0.58649 14.4112 1.6853 16.0557C2.78412 17.7002 4.3459 18.9819 6.17317 19.7388C8.00043 20.4957 10.0111 20.6937 11.9509 20.3079C13.8907 19.922 15.6725 18.9696 17.0711 17.5711C18.4696 16.1725 19.422 14.3907 19.8079 12.4509C20.1937 10.5111 19.9957 8.50043 19.2388 6.67317C18.4819 4.8459 17.2002 3.28412 15.5557 2.1853C13.9112 1.08649 11.9778 0.5 10 0.5V0.5Z" fill="#171A19"/>
<path d="M10.0013 5.5C9.78029 5.5 9.56833 5.5878 9.41205 5.74408C9.25577 5.90036 9.16797 6.11232 9.16797 6.33333V10.5C9.16802 10.721 9.25584 10.9329 9.41214 11.0892L11.9121 13.5892C12.0693 13.741 12.2798 13.825 12.4983 13.8231C12.7168 13.8212 12.9258 13.7335 13.0803 13.579C13.2348 13.4245 13.3225 13.2155 13.3244 12.997C13.3263 12.7785 13.2423 12.568 13.0905 12.4108L10.8346 10.155V6.33333C10.8346 6.11232 10.7468 5.90036 10.5906 5.74408C10.4343 5.5878 10.2223 5.5 10.0013 5.5Z" fill="#171A19"/>
</g>
<defs>
<clipPath id="clip0_356_12165">
<rect width="20" height="20" fill="white" transform="translate(0 0.5)"/>
</clipPath>
</defs>
</svg>
