<svg width="136" height="88" viewBox="0 0 136 88" fill="none" xmlns="http://www.w3.org/2000/svg">
<path fill-rule="evenodd" clip-rule="evenodd" d="M22.2424 0.102399C21.8458 0.235358 21.6075 5.46849 21.6075 14.0453C21.6075 21.5973 21.7676 27.6161 21.9634 27.4201C22.1585 27.2242 22.3733 21.2366 22.44 14.1134L22.5607 1.16289L68.1462 0.999398L113.732 0.836538L113.917 14.359L114.101 27.882L114.247 14.0536L114.393 0.225179L68.6349 0.0578669C43.4679 -0.0343776 22.5913 -0.0140201 22.2424 0.102399ZM0 38.7688V47.4289L4.41746 47.1789C8.00049 46.976 9.1425 46.6401 10.4625 45.3989C13.4526 42.5871 13.9667 37.0727 11.5791 33.4256C10.1301 31.2111 7.45331 30.1086 3.5271 30.1086H0V38.7688ZM26.48 30.5329C25.7923 31.2206 25.9963 35.8341 26.7138 35.8341C27.1581 35.8341 27.1485 36.2514 26.6852 37.1185C25.7536 38.861 26.1362 46.787 27.1682 47.1287C27.7402 47.3176 27.9626 46.3971 27.9626 43.839V40.2873H30.7366C36.7848 40.2873 39.4864 34.3658 35.0086 30.9242C33.9504 30.1111 27.2102 29.802 26.48 30.5329ZM39.4019 38.6969C39.4019 45.9066 39.555 47.2852 40.3551 47.2852C41.1553 47.2852 41.3084 45.9066 41.3084 38.6969C41.3084 31.4872 41.1553 30.1086 40.3551 30.1086C39.555 30.1086 39.4019 31.4872 39.4019 38.6969ZM45.1215 38.6969V47.4289L49.539 47.1789C53.0858 46.9785 54.2691 46.635 55.542 45.4384C58.7666 42.4058 58.8289 35.2705 55.6583 32.0973C54.292 30.7295 53.3196 30.4286 49.5771 30.2167L45.1215 29.9648V38.6969ZM61.0093 38.6969V47.2852H64.4634C69.0003 47.2852 70.9043 46.4925 72.4461 43.9612C74.0298 41.3612 74.1861 35.5116 72.7276 33.4275C71.1973 31.2403 68.4042 30.1086 64.5365 30.1086H61.0093V38.6969ZM76.8972 37.0206C76.8972 43.0502 77.0656 44.1469 78.2146 45.6089C79.3141 47.0084 80.0405 47.2852 82.6175 47.2852C87.7658 47.2852 88.972 45.1642 88.972 36.1109C88.972 31.4121 88.78 30.1086 88.0892 30.1086C87.4029 30.1086 87.1525 31.6825 86.965 37.1669C86.7572 43.227 86.5507 44.3512 85.5021 45.119C83.905 46.2877 81.9699 46.252 80.2165 45.0223C78.9029 44.1018 78.8037 43.5432 78.8037 37.0702C78.8037 31.3065 78.6398 30.1086 77.8505 30.1086C77.0618 30.1086 76.8972 31.3008 76.8972 37.0206ZM92.785 38.6969V47.2852H96.4564C100.779 47.2852 102.67 46.2088 103.287 43.3956C103.613 41.9089 103.394 40.9725 102.408 39.6371C101.269 38.0951 101.218 37.756 102.024 37.0867C103.002 36.2743 103.26 33.4606 102.467 32.2716C101.555 30.9032 99.1796 30.1086 96.0046 30.1086H92.785V38.6969ZM106.131 38.6969C106.131 45.8213 106.29 47.2852 107.063 47.2852C107.816 47.2852 108.03 45.9339 108.175 40.3026L108.355 33.3193L112.486 40.3108C117.984 49.6155 118.572 49.485 118.373 39.001C118.291 34.6349 118.219 30.8485 118.215 30.5857C118.209 30.323 117.929 30.1086 117.591 30.1086C117.243 30.1086 116.898 33.1514 116.797 37.1173L116.617 44.1259L112.518 37.1173C106.771 27.2872 106.131 27.4456 106.131 38.6969ZM120.112 30.4044C120.112 30.5666 121.399 32.8219 122.972 35.4149C125.464 39.5239 125.832 40.5908 125.832 43.708C125.832 45.675 126.118 47.2852 126.467 47.2852C126.817 47.2852 127.103 45.8913 127.103 44.1877C127.103 41.6761 127.66 40.106 130.044 35.8933C131.662 33.0343 132.801 30.5113 132.576 30.2855C131.978 29.6875 131.001 30.8472 128.741 34.8392L126.734 38.3833L124.316 34.2462C122.987 31.9707 121.496 30.1086 121.005 30.1086C120.514 30.1086 120.112 30.2416 120.112 30.4044ZM134.729 38.6969C134.729 43.9981 134.972 47.2852 135.364 47.2852C135.757 47.2852 136 43.9981 136 38.6969C136 33.3957 135.757 30.1086 135.364 30.1086C134.972 30.1086 134.729 33.3957 134.729 38.6969ZM34.176 32.3714C36.6558 34.1095 35.7464 38.3788 32.8974 38.3788C31.9409 38.3788 31.8494 38.1568 32.389 37.1484C32.7506 36.4716 33.0467 35.2953 33.0467 34.5344C33.0467 33.1342 32.1608 33.0852 28.975 34.3092C28.2086 34.6038 27.9626 34.2952 27.9626 33.0394C27.9626 31.5451 28.1997 31.3809 30.363 31.3809C31.6835 31.3809 33.3994 31.8269 34.176 32.3714ZM8.16953 32.9236C11.2708 34.5287 12.3029 38.6784 10.4796 42.2085C9.25944 44.57 7.73484 45.3767 4.49054 45.3767H1.90654V38.6969V32.0171H4.16262C5.40314 32.0171 7.20609 32.4249 8.16953 32.9236ZM53.4785 32.7042C56.6624 34.4097 57.2191 41.393 54.3847 44.0592C53.6075 44.7895 51.6762 45.5478 50.0105 45.7768L47.028 46.1859V39.1015V32.0171H49.612C51.0331 32.0171 52.7731 32.3263 53.4785 32.7042ZM70.3285 33.5356C71.8855 34.876 72.0857 35.476 72.04 38.6498C71.9694 43.547 70.3222 45.3767 65.9829 45.3767H62.9159V38.6969V32.0171H65.7401C67.8011 32.0171 69.0416 32.4274 70.3285 33.5356ZM100.041 32.4033C101.226 32.8581 101.373 35.2527 100.284 36.3431C99.8647 36.7629 98.2918 37.1065 96.7888 37.1065H94.0561V34.5618C94.0561 32.026 94.065 32.0171 96.546 32.0171C97.9156 32.0171 99.4884 32.1908 100.041 32.4033ZM31.0277 36.2432C30.7824 37.4926 28.8453 38.8381 28.2086 38.2013C27.7059 37.6975 29.7376 35.1979 30.6496 35.1979C30.9705 35.1979 31.1408 35.6681 31.0277 36.2432ZM15.2523 41.5596C15.2523 46.1452 15.4366 47.2852 16.1764 47.2852C16.8754 47.2852 17.1468 46.2387 17.2885 42.9968C17.4627 39.0283 17.6069 38.6466 19.2243 37.873C20.1858 37.4131 20.972 36.7661 20.972 36.4353C20.972 35.5771 18.8271 35.691 17.9215 36.5975C17.3286 37.1911 17.1589 37.1911 17.1589 36.5975C17.1589 36.1776 16.7299 35.8341 16.2056 35.8341C15.429 35.8341 15.2523 36.8946 15.2523 41.5596ZM100.453 39.6734C101.902 40.4502 102.125 43.5808 100.808 44.675C100.327 45.0745 98.6114 45.5351 96.9947 45.6986L94.0561 45.9963V42.5056V39.015H96.6401C98.0611 39.015 99.777 39.3114 100.453 39.6734ZM22.0447 45.1515C21.1715 46.0256 21.624 47.3755 22.7196 47.1643C23.331 47.046 23.8318 46.5478 23.8318 46.0574C23.8318 45.0528 22.7107 44.4848 22.0447 45.1515ZM47.6636 53.6469C44.8381 56.4753 46.8495 61.9171 50.7197 61.9171C52.7114 61.9171 55.237 60.3801 54.4839 59.6256C54.2163 59.3584 53.659 59.478 53.2453 59.8921C52.8315 60.3063 51.6864 60.6447 50.7007 60.6447C46.9003 60.6447 46.6493 54.1946 50.4325 53.7582C51.4887 53.636 52.7235 54.0031 53.4391 54.652C54.4222 55.5426 54.6542 55.5757 54.6542 54.827C54.6542 52.2301 49.8834 51.4247 47.6636 53.6469ZM56.5607 57.1458V61.9171H59.7383C61.486 61.9171 62.9159 61.6308 62.9159 61.2809C62.9159 60.931 61.772 60.6447 60.3738 60.6447H57.8318V56.5096C57.8318 54.1768 57.5547 52.3745 57.1963 52.3745C56.8289 52.3745 56.5607 54.3893 56.5607 57.1458ZM64.1869 57.1458C64.1869 59.9023 64.4551 61.9171 64.8224 61.9171C65.1898 61.9171 65.4579 59.9023 65.4579 57.1458C65.4579 54.3893 65.1898 52.3745 64.8224 52.3745C64.4551 52.3745 64.1869 54.3893 64.1869 57.1458ZM68 57.1458C68 59.9023 68.2682 61.9171 68.6355 61.9171C68.9857 61.9171 69.271 60.2738 69.271 58.2591V54.6011L71.8633 58.2591C73.2894 60.2713 74.7193 61.9171 75.0409 61.9171C75.3631 61.9171 75.6262 59.77 75.6262 57.1458C75.6262 54.3893 75.358 52.3745 74.9907 52.3745C74.6411 52.3745 74.352 54.0209 74.3482 56.0325L74.3405 59.6905L71.965 56.0408C68.715 51.05 68 51.2491 68 57.1458ZM78.1682 57.1458C78.1682 59.9023 78.4364 61.9171 78.8037 61.9171C79.1711 61.9171 79.4392 59.9023 79.4392 57.1458C79.4392 54.3893 79.1711 52.3745 78.8037 52.3745C78.4364 52.3745 78.1682 54.3893 78.1682 57.1458ZM82.6168 53.6469C79.8555 56.411 81.7875 61.9171 85.5186 61.9171C87.68 61.9171 89.6075 60.8349 89.6075 59.6218C89.6075 58.8215 89.312 58.8768 87.978 59.9271C86.259 61.2803 84.7407 61.132 83.4112 59.4799C82.4027 58.2266 82.3849 55.4059 83.3794 54.4103C84.47 53.3186 87.0858 53.4681 88.4451 54.6997C89.4041 55.5681 89.6075 55.5904 89.6075 54.827C89.6075 52.2301 84.8367 51.4247 82.6168 53.6469ZM113.9 69.7146L113.757 87.3721L68.1589 87.2092L22.5607 87.0457L22.2271 69.8692L21.8941 52.6926L21.7505 70.3463L21.6075 88H67.932C104.447 88 114.305 87.8314 114.483 87.2048C114.608 86.7677 114.56 78.6801 114.377 69.233L114.044 52.0564L113.9 69.7146ZM76.1276 79.4283C75.9312 80.1191 75.5766 81.2566 75.3402 81.9564C75.1031 82.6562 75.3751 82.4246 75.9439 81.4411C76.5127 80.4582 76.8667 79.3201 76.7313 78.913C76.5953 78.5052 76.324 78.7374 76.1276 79.4283ZM68.2345 80.7521C67.9981 81.4144 67.688 82.1714 67.5469 82.4335C67.4052 82.6956 67.559 82.9106 67.8881 82.9106C68.5224 82.9106 69.4153 80.2985 68.9431 79.8259C68.7906 79.6725 68.4715 80.0899 68.2345 80.7521ZM49.966 81.3457C49.3477 82.959 49.537 83.3528 50.299 82.0391C50.8627 81.0683 51.1017 81.0098 51.5993 81.721C52.1058 82.445 52.1668 82.438 51.9622 81.6784C51.6018 80.3443 50.4249 80.1484 49.966 81.3457ZM59.812 80.8234C59.7714 81.2496 59.3462 81.4475 58.867 81.2636C58.3878 81.0798 57.8095 81.4156 57.5814 82.0098C57.2338 82.917 57.3227 82.9615 58.1349 82.2866C58.6675 81.8444 59.1028 81.7426 59.1028 82.0614C59.1028 83.3318 61.5298 82.7828 61.8686 81.4347C62.1952 80.1357 62.1628 80.121 61.3506 81.207C60.513 82.3279 60.4749 82.3279 60.1851 81.207C60.0205 80.5695 59.8527 80.3965 59.812 80.8234ZM71.1776 81.6383C70.8033 82.3381 70.6406 82.9106 70.8153 82.9106C70.9901 82.9106 71.4388 82.3381 71.8131 81.6383C72.1874 80.9385 72.3501 80.366 72.1753 80.366C72.0006 80.366 71.5519 80.9385 71.1776 81.6383ZM79.9038 81.5874C79.6274 82.6454 79.71 82.8941 80.1815 82.4221C80.5514 82.0518 80.7281 81.3743 80.5755 80.915C80.4167 80.4385 80.1288 80.7273 79.9038 81.5874ZM82.6168 81.6383C82.2425 82.3381 82.0798 82.9106 82.2546 82.9106C82.4293 82.9106 82.878 82.3381 83.2523 81.6383C83.6267 80.9385 83.7894 80.366 83.6146 80.366C83.4398 80.366 82.9911 80.9385 82.6168 81.6383ZM84.0219 82.7516C83.3801 84.8942 83.4017 85.0113 84.2329 83.9024C85.0413 82.8248 85.5376 80.366 84.9479 80.366C84.8316 80.366 84.4153 81.4398 84.0219 82.7516ZM87.53 81.5874C87.2535 82.6454 87.3362 82.8941 87.8077 82.4221C88.1776 82.0518 88.3542 81.3743 88.2017 80.915C88.0428 80.4385 87.755 80.7273 87.53 81.5874ZM88.9713 82.3241C88.4871 83.5214 87.7886 84.7116 87.4194 84.9687C86.9726 85.2791 87.0082 85.4388 87.5255 85.4458C88.435 85.4572 90.4286 81.8781 90.086 80.8495C89.9576 80.4633 89.4562 81.1268 88.9713 82.3241ZM46.0487 81.6809C45.818 82.0537 45.7659 82.4959 45.9324 82.6625C46.0989 82.8292 46.4046 82.5238 46.6118 81.9837C47.0414 80.8628 46.6753 80.6656 46.0487 81.6809ZM54.3771 81.8247C54.6161 82.452 54.9713 82.805 55.1671 82.6091C55.3628 82.4138 55.1677 81.9004 54.733 81.4684C54.1051 80.845 54.0327 80.9182 54.3771 81.8247ZM63.9975 81.8501C63.819 82.3171 64.0471 82.6988 64.5047 82.6988C64.9622 82.6988 65.1904 82.3171 65.0118 81.8501C64.8326 81.3838 64.6044 81.0021 64.5047 81.0021C64.4049 81.0021 64.1768 81.3838 63.9975 81.8501ZM78.4599 81.6809C78.2292 82.0537 78.1771 82.4959 78.3436 82.6625C78.5101 82.8292 78.8158 82.5238 79.023 81.9837C79.4526 80.8628 79.0865 80.6656 78.4599 81.6809Z" fill="white"/>
</svg>
