<svg width="24" height="24" viewBox="0 0 24 24" fill="none" xmlns="http://www.w3.org/2000/svg">
<path d="M12.2513 13.2798H16.525H20.7988C14.4403 13.0714 12.1992 10.0485 12.1992 10.0485C12.1992 10.0485 9.95809 13.0192 3.59961 13.2798H7.87335H12.2513Z" stroke="#65666A" stroke-miterlimit="10" stroke-linecap="round" stroke-linejoin="round"/>
<path d="M20.8515 13.2798C20.8515 13.3319 20.7994 13.3319 20.7473 13.384C19.757 14.6349 18.4019 15.6251 16.8384 16.3027C15.4833 16.876 13.9197 17.2408 12.2519 17.2408C10.5841 17.2408 9.02056 16.9281 7.66547 16.3027C6.04979 15.6251 4.69471 14.6349 3.75657 13.384C3.70445 13.3319 3.70446 13.3319 3.65234 13.2798C4.90319 9.47514 7.92608 6.86921 11.0011 7.23404C11.418 7.28616 11.835 7.3904 12.1998 7.54675C12.6168 7.3904 12.9816 7.28616 13.3985 7.23404" stroke="#65666A" stroke-miterlimit="10" stroke-linecap="round" stroke-linejoin="round"/>
<path d="M12.252 7.54675C12.6689 7.3904 13.0337 7.28616 13.5028 7.23404C16.5778 6.86921 19.6007 9.47514 20.8515 13.2798C20.8515 13.2798 20.8515 13.2798 20.7473 13.384C19.757 14.6349 18.402 15.6251 16.8384 16.3027C15.4833 16.876 13.9198 17.2408 12.252 17.2408" stroke="#65666A" stroke-miterlimit="10" stroke-linecap="round" stroke-linejoin="round"/>
</svg>
