<svg width="24" height="24" viewBox="0 0 24 24" fill="none" xmlns="http://www.w3.org/2000/svg">
<path d="M15.9899 15.3402C17.9078 13.4297 17.332 9.75858 14.7038 7.14048C12.0757 4.52239 8.3904 3.94878 6.47256 5.85928C4.55471 7.76978 5.13054 11.4409 7.75869 14.059C10.3868 16.6771 14.0721 17.2507 15.9899 15.3402Z" stroke="white" stroke-miterlimit="10" stroke-linecap="round" stroke-linejoin="round"/>
<path d="M14.5322 13.8882C15.8581 12.5674 15.4551 10.0244 13.6319 8.2082C11.8088 6.39204 9.25599 5.99051 7.93008 7.31135C6.60416 8.63219 7.00724 11.1752 8.83037 12.9914C10.6535 14.8075 13.2063 15.2091 14.5322 13.8882Z" stroke="white" stroke-miterlimit="10" stroke-linecap="round" stroke-linejoin="round"/>
<path d="M21.2207 20.6213C20.675 21.1648 19.8868 21.1044 19.4018 20.5609L15.5215 15.9707L16.5522 14.9439L21.16 18.8093C21.7057 19.2321 21.7663 20.0777 21.2207 20.6213Z" stroke="white" stroke-miterlimit="10" stroke-linecap="round" stroke-linejoin="round"/>
<path d="M11.2157 9.26654C11.5505 9.26654 11.822 8.99613 11.822 8.66257C11.822 8.329 11.5505 8.05859 11.2157 8.05859C10.8808 8.05859 10.6094 8.329 10.6094 8.66257C10.6094 8.99613 10.8808 9.26654 11.2157 9.26654Z" fill="white"/>
<path d="M9.33676 11.1993C9.67161 11.1993 9.94306 10.9289 9.94306 10.5953C9.94306 10.2617 9.67161 9.99133 9.33676 9.99133C9.00192 9.99133 8.73047 10.2617 8.73047 10.5953C8.73047 10.9289 9.00192 11.1993 9.33676 11.1993Z" fill="white"/>
<path d="M9.33676 9.26654C9.67161 9.26654 9.94306 8.99613 9.94306 8.66257C9.94306 8.329 9.67161 8.05859 9.33676 8.05859C9.00192 8.05859 8.73047 8.329 8.73047 8.66257C8.73047 8.99613 9.00192 9.26654 9.33676 9.26654Z" fill="white"/>
<path d="M11.2157 11.1993C11.5505 11.1993 11.822 10.9289 11.822 10.5953C11.822 10.2617 11.5505 9.99133 11.2157 9.99133C10.8808 9.99133 10.6094 10.2617 10.6094 10.5953C10.6094 10.9289 10.8808 11.1993 11.2157 11.1993Z" fill="white"/>
<path d="M13.1551 11.1993C13.49 11.1993 13.7614 10.9289 13.7614 10.5953C13.7614 10.2617 13.49 9.99133 13.1551 9.99133C12.8203 9.99133 12.5488 10.2617 12.5488 10.5953C12.5488 10.9289 12.8203 11.1993 13.1551 11.1993Z" fill="white"/>
<path d="M11.2157 13.0716C11.5505 13.0716 11.822 12.8012 11.822 12.4676C11.822 12.1341 11.5505 11.8636 11.2157 11.8636C10.8808 11.8636 10.6094 12.1341 10.6094 12.4676C10.6094 12.8012 10.8808 13.0716 11.2157 13.0716Z" fill="white"/>
<path d="M13.1551 13.0716C13.49 13.0716 13.7614 12.8012 13.7614 12.4676C13.7614 12.1341 13.49 11.8636 13.1551 11.8636C12.8203 11.8636 12.5488 12.1341 12.5488 12.4676C12.5488 12.8012 12.8203 13.0716 13.1551 13.0716Z" fill="white"/>
</svg>
