<svg width="24" height="24" viewBox="0 0 24 24" fill="none" xmlns="http://www.w3.org/2000/svg">
<path d="M21.2009 13.9714C18.8415 13.9714 18.8415 12.8205 16.5398 12.8205C14.1805 12.8205 14.1805 13.9714 11.8787 13.9714C9.51936 13.9714 9.51936 12.8205 7.16004 12.8205C4.80072 12.8205 4.80072 13.9714 2.44141 13.9714" stroke="#65666A" stroke-miterlimit="10" stroke-linecap="round" stroke-linejoin="round"/>
<path d="M21.2009 12.2451C18.8415 12.2451 18.8415 11.0942 16.5398 11.0942C14.1805 11.0942 14.1805 12.2451 11.8787 12.2451C9.51936 12.2451 9.51936 11.0942 7.16004 11.0942C4.80072 11.0942 4.80072 12.2451 2.44141 12.2451" stroke="#65666A" stroke-miterlimit="10" stroke-linecap="round" stroke-linejoin="round"/>
<path d="M12.1085 9.1952C11.3029 9.1952 10.6699 8.56221 10.6699 7.75659" stroke="#65666A" stroke-miterlimit="10" stroke-linecap="round" stroke-linejoin="round"/>
<path d="M14.0645 8.10192C14.0645 8.50473 13.9494 8.84999 13.7768 9.13771C13.374 9.88579 12.6259 10.3461 11.7627 10.3461C10.4967 10.3461 9.46094 9.31035 9.46094 8.04437C9.46094 6.7784 11.7627 3.03802 11.7627 3.03802C11.7627 3.03802 12.6259 4.41908 13.2589 5.80015C13.7192 6.72086 14.0645 7.58402 14.0645 8.10192Z" stroke="#65666A" stroke-miterlimit="10" stroke-linecap="round" stroke-linejoin="round"/>
<path d="M4.91602 4.64923V9.31033" stroke="#65666A" stroke-miterlimit="10" stroke-linecap="round" stroke-linejoin="round"/>
<path d="M6.1239 8.04431L4.91547 9.31029L3.70703 8.04431" stroke="#65666A" stroke-miterlimit="10" stroke-linecap="round" stroke-linejoin="round"/>
<path d="M18.668 4.64935V9.31045" stroke="#65666A" stroke-miterlimit="10" stroke-linecap="round" stroke-linejoin="round"/>
<path d="M19.9334 8.04437L18.6674 9.31035L17.459 8.04437" stroke="#65666A" stroke-miterlimit="10" stroke-linecap="round" stroke-linejoin="round"/>
<path d="M16.9416 19.6683C16.9416 19.8409 16.8841 20.0136 16.8266 20.1862C16.6539 20.5315 16.3087 20.7617 15.9058 20.7617C15.3304 20.7617 14.8125 20.3013 14.8125 19.6683C14.8125 19.0929 15.9058 17.309 15.9058 17.309C15.9058 17.309 16.3087 17.942 16.5964 18.6325C16.769 19.0353 16.9416 19.4381 16.9416 19.6683Z" stroke="#65666A" stroke-miterlimit="10" stroke-linecap="round" stroke-linejoin="round"/>
<path d="M12.8557 17.942C12.8557 18.1146 12.7982 18.2872 12.7406 18.4599C12.568 18.8051 12.2227 19.0353 11.8199 19.0353C11.2445 19.0353 10.7266 18.575 10.7266 17.942C10.7266 17.3665 11.8199 15.5826 11.8199 15.5826C11.8199 15.5826 12.2227 16.2156 12.5104 16.9062C12.6831 17.309 12.8557 17.7118 12.8557 17.942Z" stroke="#65666A" stroke-miterlimit="10" stroke-linecap="round" stroke-linejoin="round"/>
<path d="M20.969 17.942C20.969 18.1146 20.9114 18.2872 20.8539 18.4599C20.6813 18.8051 20.336 19.0353 19.9332 19.0353C19.3577 19.0353 18.8398 18.575 18.8398 17.942C18.8398 17.3665 19.9332 15.5826 19.9332 15.5826C19.9332 15.5826 20.336 16.2156 20.6237 16.9062C20.7964 17.309 20.969 17.7118 20.969 17.942Z" stroke="#65666A" stroke-miterlimit="10" stroke-linecap="round" stroke-linejoin="round"/>
<path d="M8.82836 19.6683C8.82836 19.8409 8.77081 20.0136 8.71327 20.1862C8.54064 20.5315 8.19537 20.7617 7.79256 20.7617C7.21711 20.7617 6.69922 20.3013 6.69922 19.6683C6.69922 19.0929 7.79256 17.309 7.79256 17.309C7.79256 17.309 8.19537 17.942 8.48309 18.6325C8.65572 19.0353 8.82836 19.4381 8.82836 19.6683Z" stroke="#65666A" stroke-miterlimit="10" stroke-linecap="round" stroke-linejoin="round"/>
<path d="M4.74242 17.942C4.74242 18.1146 4.68488 18.2872 4.62733 18.4599C4.4547 18.8051 4.10943 19.0353 3.70662 19.0353C3.13118 19.0353 2.61328 18.575 2.61328 17.942C2.61328 17.3665 3.70662 15.5826 3.70662 15.5826C3.70662 15.5826 4.10944 16.2156 4.39716 16.9062C4.56979 17.309 4.74242 17.7118 4.74242 17.942Z" stroke="#65666A" stroke-miterlimit="10" stroke-linecap="round" stroke-linejoin="round"/>
</svg>
