<svg width="24" height="24" viewBox="0 0 24 24" fill="none" xmlns="http://www.w3.org/2000/svg">
<path d="M20.5198 12.78C19.8598 16.44 16.6798 18.96 13.1398 18.96C12.6598 18.96 12.2398 18.9 11.7598 18.84C12.5398 18.06 13.1398 17.16 13.5598 16.26C13.5598 16.2 13.6198 16.14 13.6198 16.08C13.7998 15.72 13.9198 15.36 14.0398 15C14.0998 14.88 14.0998 14.7 14.1598 14.58C14.6398 14.16 15.1198 13.8 15.6598 13.5C17.1598 12.78 18.8398 12.48 20.5198 12.78Z" stroke="white" stroke-miterlimit="10" stroke-linecap="round" stroke-linejoin="round"/>
<path d="M11.76 18.84C11.28 18.9 10.86 18.96 10.38 18.96C6.78001 18.96 3.66 16.44 3 12.78C4.74 12.48 6.42 12.78 7.8 13.5C8.34 13.8 8.88 14.16 9.3 14.58C9.36 14.7 9.36001 14.88 9.42001 15C9.54001 15.36 9.66001 15.72 9.78001 16.08C9.78001 16.14 9.84001 16.2 9.84001 16.26C10.38 17.16 10.98 18.06 11.76 18.84Z" stroke="white" stroke-miterlimit="10" stroke-linecap="round" stroke-linejoin="round"/>
<path d="M14.4005 12.42C14.4005 13.14 14.3405 13.86 14.1605 14.58C14.1005 14.7 14.1005 14.88 14.0405 15C13.9205 15.36 13.8005 15.72 13.6205 16.08C13.6205 16.14 13.5605 16.2 13.5605 16.26C13.1405 17.22 12.4805 18.06 11.7605 18.84C10.9805 18.06 10.3805 17.16 9.96053 16.26C9.96053 16.2 9.90052 16.14 9.90052 16.08C9.72052 15.72 9.60054 15.36 9.54054 15C9.48054 14.88 9.48053 14.7 9.42053 14.58C9.00053 12.9 9.12053 11.1 9.66053 9.48001C10.0805 8.22001 10.8005 7.02 11.8205 6C12.8405 7.02 13.5605 8.22001 13.9805 9.48001C14.2805 10.44 14.4005 11.4 14.4005 12.42Z" stroke="white" stroke-miterlimit="10" stroke-linecap="round" stroke-linejoin="round"/>
<path d="M17.5205 8.58002C17.5205 10.44 16.8605 12.18 15.7205 13.5C15.1805 13.8 14.6405 14.16 14.2205 14.58C14.4005 13.86 14.4605 13.14 14.4605 12.42C14.4605 11.4 14.2805 10.44 13.9805 9.48002C15.0005 8.88002 16.2005 8.58002 17.5205 8.58002Z" stroke="white" stroke-miterlimit="10" stroke-linecap="round" stroke-linejoin="round"/>
<path d="M9.36055 14.58C8.88055 14.16 8.40055 13.8 7.86055 13.5C6.72055 12.18 6.06055 10.44 6.06055 8.58002C7.32055 8.58002 8.58054 8.88002 9.60054 9.48002C9.00054 11.1 8.94055 12.9 9.36055 14.58Z" stroke="white" stroke-miterlimit="10" stroke-linecap="round" stroke-linejoin="round"/>
</svg>
