<svg width="24" height="24" viewBox="0 0 24 24" fill="none" xmlns="http://www.w3.org/2000/svg">
<path d="M11.6484 22.0381H4.79824L4.16832 9.8338C4.08959 8.57401 5.11318 7.55042 6.29424 7.55042H10.1524C11.4122 7.55042 12.357 8.57401 12.2783 9.8338L11.6484 22.0381Z" stroke="white" stroke-miterlimit="10" stroke-linecap="round" stroke-linejoin="round"/>
<path d="M10.4665 4.47961H5.97852V7.6291H10.4665V4.47961Z" stroke="white" stroke-miterlimit="10" stroke-linecap="round" stroke-linejoin="round"/>
<path d="M9.67989 18.7311H6.92409L6.13672 11.1723H10.3885L9.67989 18.7311Z" stroke="white" stroke-miterlimit="10" stroke-linecap="round" stroke-linejoin="round"/>
<path d="M11.7266 20.6996H19.6003V9.20397C19.6003 8.02291 18.6555 7.07806 17.4744 7.07806H14.0887C13.1438 7.07806 12.2777 7.70796 12.0415 8.65281" stroke="white" stroke-miterlimit="10" stroke-linecap="round" stroke-linejoin="round"/>
<path d="M18.1831 7.07806H13.2227V2.82624C14.8761 2.35382 16.5296 2.35382 18.1831 2.82624V7.07806Z" stroke="white" stroke-miterlimit="10" stroke-linecap="round" stroke-linejoin="round"/>
</svg>
