<svg width="24" height="24" viewBox="0 0 24 24" fill="none" xmlns="http://www.w3.org/2000/svg">
<path d="M16.7971 16.0576C16.7971 18.6462 14.385 21.4112 11.914 21.4112C9.44311 21.4112 7.08984 18.6462 7.08984 16.0576C7.08984 13.469 11.2081 10.8215 11.914 10.8215C12.62 10.8215 16.7971 13.469 16.7971 16.0576Z" stroke="white" stroke-linecap="round" stroke-linejoin="round"/>
<path d="M7.09055 16.0576C7.09055 16.0576 3.2665 11.5275 5.5021 8.93892C7.73771 6.35033 13.0326 5.05603 13.0326 5.05603" stroke="white" stroke-linecap="round" stroke-linejoin="round"/>
<path d="M5.14844 9.46842C5.14844 9.46842 5.85442 2.11446 11.2081 2.40862C13.9144 2.58511 14.8557 3.87941 15.2087 5.11488C15.334 5.7268 15.3026 6.36046 15.1175 6.95702C14.9323 7.55357 14.5994 8.09366 14.1497 8.52711L11.9141 10.8216" stroke="white" stroke-linecap="round" stroke-linejoin="round"/>
<path d="M15.2676 5.40906C15.2676 5.40906 19.7976 6.87985 19.7976 10.3509C19.7388 12.763 16.7972 16.0576 16.7972 16.0576" stroke="white" stroke-linecap="round" stroke-linejoin="round"/>
</svg>
