<svg width="32" height="40" viewBox="0 0 32 40" fill="none" xmlns="http://www.w3.org/2000/svg">
<path d="M9.0775 19.7133C7.85059 19.7354 6.647 19.3722 5.63196 18.6735C5.18715 18.3848 4.81852 17.9905 4.55798 17.5248C4.29744 17.0592 4.15285 16.5363 4.13672 16.0012C4.15285 15.4662 4.29744 14.9433 4.55798 14.4777C4.81852 14.012 5.18715 13.6177 5.63196 13.329C6.64659 12.6289 7.85013 12.2641 9.0775 12.2845C10.3034 12.2642 11.5055 12.629 12.5184 13.329C12.9632 13.6177 13.3318 14.012 13.5924 14.4777C13.8529 14.9433 13.9975 15.4662 14.0136 16.0012C13.9975 16.5363 13.8529 17.0592 13.5924 17.5248C13.3318 17.9905 12.9632 18.3848 12.5184 18.6735C11.5051 19.3721 10.303 19.7353 9.0775 19.7133ZM9.0775 13.1267C8.02433 13.1049 6.99056 13.4156 6.11953 14.0158C5.78217 14.2279 5.50069 14.5198 5.29928 14.8665C5.09787 15.2131 4.98257 15.6042 4.96328 16.006C4.98335 16.4075 5.09898 16.7983 5.30031 17.1448C5.50165 17.4913 5.78271 17.7834 6.11953 17.9961C6.99202 18.5926 8.02512 18.9015 9.0775 18.8805C10.1299 18.9015 11.163 18.5926 12.0355 17.9961C12.3761 17.7848 12.661 17.4929 12.8656 17.1454C13.0703 16.7979 13.1886 16.4053 13.2103 16.0012C13.1907 15.6001 13.0758 15.2096 12.8753 14.8631C12.6748 14.5167 12.3947 14.2244 12.0587 14.0111C11.1802 13.4082 10.1383 13.0974 9.0775 13.1219V13.1267Z" fill="#171A19"/>
<path d="M22.9166 19.7133C21.6911 19.7353 20.4891 19.3721 19.4757 18.6735C19.0309 18.3847 18.6623 17.9905 18.4017 17.5248C18.1412 17.0592 17.9966 16.5362 17.9805 16.0012C17.9966 15.4662 18.1412 14.9433 18.4017 14.4776C18.6623 14.012 19.0309 13.6177 19.4757 13.3289C20.4981 12.6474 21.6951 12.2842 22.9189 12.2842C24.1428 12.2842 25.3398 12.6474 26.3622 13.3289C26.807 13.6177 27.1756 14.012 27.4361 14.4776C27.6967 14.9433 27.8413 15.4662 27.8574 16.0012C27.8413 16.5362 27.6967 17.0592 27.4361 17.5248C27.1756 17.9905 26.807 18.3847 26.3622 18.6735C25.3471 19.3722 24.1435 19.7354 22.9166 19.7133ZM22.9166 13.1266C21.8637 13.107 20.8306 13.4176 19.9586 14.0158C19.6227 14.2291 19.3425 14.5214 19.142 14.8678C18.9415 15.2143 18.8266 15.6048 18.807 16.0059C18.827 16.407 18.9421 16.7973 19.1425 17.1437C19.343 17.4902 19.6229 17.7825 19.9586 17.996C20.8399 18.5735 21.8671 18.8807 22.9166 18.8807C23.9661 18.8807 24.9933 18.5735 25.8746 17.996C26.2114 17.7834 26.4925 17.4913 26.6938 17.1448C26.8951 16.7983 27.0108 16.4075 27.0308 16.0059C27.0115 15.6042 26.8962 15.2131 26.6948 14.8665C26.4934 14.5198 26.2119 14.2279 25.8746 14.0158C25.0041 13.414 23.9703 13.1015 22.9166 13.1219V13.1266Z" fill="#171A19"/>
<path d="M16.8209 26.2527H15.3117C14.1833 26.2527 13.4543 26.0974 13.0967 25.7352C13.0131 25.6544 12.9466 25.5573 12.9011 25.4498C12.8556 25.3422 12.8321 25.2265 12.832 25.1095C12.832 24.5214 13.2964 24.0603 14.2251 23.7404C15.3699 23.3499 16.6094 23.3499 17.7542 23.7404C18.683 24.0603 19.1473 24.5214 19.1473 25.1095C19.1472 25.2265 19.1237 25.3422 19.0782 25.4498C19.0327 25.5573 18.9662 25.6544 18.8826 25.7352C18.5529 26.0833 17.8564 26.2527 16.8209 26.2527ZM15.999 25.4106H16.7001C17.6799 25.4106 18.1861 25.2694 18.3161 25.133C18.3161 25.133 18.3161 25.133 18.3161 25.1047C18.3161 24.9307 17.9864 24.7048 17.4803 24.5308C16.5075 24.1966 15.4532 24.1966 14.4805 24.5308C13.9744 24.7048 13.6447 24.9307 13.6447 25.1047C13.6447 25.1047 13.6447 25.1047 13.6447 25.133C13.7747 25.2694 14.2808 25.42 15.2606 25.4106H15.999Z" fill="#171A19"/>
<path d="M16.0872 34.1144H15.999C15.948 34.1191 15.8967 34.1191 15.8457 34.1144C14.9848 34.0762 14.1332 33.9179 13.315 33.644C12.4683 33.3819 11.6938 32.9227 11.0536 32.3031C10.8474 32.0975 10.6853 31.8509 10.5774 31.5789C10.4696 31.3069 10.4182 31.0153 10.4267 30.7223C10.451 30.4313 10.5529 30.1525 10.7213 29.9155C10.8898 29.6786 11.1186 29.4924 11.3833 29.3768C11.9267 29.0977 12.5119 28.9117 13.1153 28.8263C14.0689 28.6741 15.0339 28.608 15.999 28.6287C16.9594 28.6088 17.9198 28.675 18.8687 28.8263C19.4721 28.9117 20.0574 29.0977 20.6008 29.3768C20.865 29.4949 21.0937 29.6815 21.2641 29.9177C21.4345 30.1539 21.5404 30.4314 21.5713 30.7223C21.5796 31.012 21.5295 31.3003 21.4242 31.5696C21.3188 31.839 21.1603 32.0838 20.9583 32.289C20.3155 32.9156 19.536 33.3798 18.683 33.644C17.8648 33.9179 17.0132 34.0762 16.1522 34.1144H16.0872ZM15.999 33.2864H16.0779C17.5082 33.2393 19.491 32.6418 20.3361 31.7197C20.4603 31.5973 20.5591 31.451 20.6269 31.2895C20.6946 31.1279 20.73 30.9543 20.7308 30.7788C20.6983 30.1107 19.4631 29.7955 18.7294 29.6637C17.8267 29.5181 16.913 29.4536 15.999 29.4708C15.0885 29.4495 14.178 29.5093 13.2778 29.6496C12.5442 29.7814 11.309 30.0966 11.2765 30.7647C11.2773 30.9402 11.3126 31.1138 11.3804 31.2753C11.4482 31.4369 11.547 31.5832 11.6712 31.7056C12.5163 32.6465 14.4991 33.2252 15.9293 33.2723H15.999V33.2864Z" fill="#171A19"/>
<path d="M15.9977 40C13.8699 40.0011 11.7718 39.495 9.87278 38.5227C8.00557 37.567 6.39713 36.1635 5.18739 34.4343C5.14609 34.3727 5.12136 34.3012 5.11566 34.2269C5.10996 34.1527 5.12348 34.0782 5.15488 34.0109L6.10682 32.0066L4.67195 32.8017C4.6244 32.8284 4.57213 32.8452 4.51814 32.8513C4.46415 32.8575 4.4095 32.8527 4.35732 32.8374C4.30513 32.8221 4.25643 32.7966 4.21401 32.7622C4.17159 32.7278 4.13627 32.6853 4.11008 32.6371C2.5161 29.6453 1.37644 26.4272 0.72954 23.0912C0.709147 23.0004 0.718513 22.9053 0.756221 22.8204C0.793928 22.7356 0.85792 22.6654 0.938501 22.6207L2.91667 21.5104H0.813124C0.713475 21.5105 0.617067 21.4745 0.541288 21.4089C0.465509 21.3434 0.415345 21.2525 0.399844 21.1528C0.124322 19.382 -0.00923048 17.5915 0.000495182 15.7988C0.000495182 15.7235 0.000495182 15.6436 0.000495182 15.5636C0.00201745 12.2316 1.09279 8.99392 3.10242 6.35639C3.16256 6.27621 3.2495 6.22098 3.34694 6.20106C3.44439 6.18114 3.54566 6.1979 3.63179 6.24818L5.45208 7.29734L4.28653 5.41544C4.23621 5.33598 4.21388 5.24162 4.22315 5.14767C4.23242 5.05373 4.27276 4.96572 4.33761 4.89792C5.81759 3.36074 7.58581 2.13867 9.53844 1.3035C11.5822 0.430443 13.7797 -0.0129246 15.9977 0.000286793C18.2154 -0.00633484 20.4113 0.443433 22.4523 1.32232C24.4049 2.15749 26.1731 3.37956 27.6531 4.91674C27.718 4.98454 27.7583 5.07255 27.7676 5.16649C27.7768 5.26044 27.7545 5.3548 27.7042 5.43426L26.5479 7.29734L28.3636 6.2623C28.4497 6.21201 28.551 6.19526 28.6484 6.21518C28.7459 6.2351 28.8328 6.29032 28.8929 6.37051C30.911 9.01635 32.0038 12.2668 31.9995 15.6106C31.9995 15.6906 31.9995 15.7706 31.9995 15.8459C32.0092 17.6385 31.8757 19.429 31.6002 21.1999C31.5857 21.2992 31.5364 21.39 31.4614 21.4556C31.3864 21.5212 31.2906 21.5574 31.1915 21.5574H29.088L31.0661 22.6677C31.1467 22.7125 31.2107 22.7826 31.2484 22.8675C31.2861 22.9524 31.2955 23.0474 31.2751 23.1382C30.6208 26.4586 29.4781 29.6605 27.8853 32.6371C27.8591 32.6853 27.8238 32.7278 27.7813 32.7622C27.7389 32.7966 27.6902 32.8221 27.638 32.8374C27.5859 32.8527 27.5312 32.8575 27.4772 32.8513C27.4232 32.8452 27.371 32.8284 27.3234 32.8017L25.8885 32.0066L26.8173 34.0109C26.8487 34.0782 26.8622 34.1527 26.8565 34.2269C26.8508 34.3012 26.8261 34.3727 26.7847 34.4343C25.5761 36.1645 23.9674 37.5683 22.0994 38.5227C20.2074 39.4915 18.1176 39.9974 15.9977 40ZM6.00466 34.1473C7.12066 35.6754 8.57417 36.9176 10.2489 37.7747C12.0314 38.6872 14.0006 39.1627 15.9977 39.1627C17.9948 39.1627 19.964 38.6872 21.7464 37.7747C23.4212 36.9176 24.8747 35.6754 25.9907 34.1473L24.5976 31.1927C24.5618 31.1152 24.5506 31.0283 24.5656 30.944C24.5806 30.8598 24.621 30.7823 24.6812 30.7222C24.7435 30.666 24.8209 30.6298 24.9035 30.6181C24.9862 30.6064 25.0704 30.6197 25.1456 30.6564L27.342 31.8749C28.7529 29.1495 29.7799 26.2372 30.3928 23.2229L27.2445 21.4633C27.165 21.417 27.1028 21.3454 27.0674 21.2597C27.032 21.174 27.0254 21.0789 27.0486 20.989C27.0719 20.8992 27.1236 20.8195 27.1959 20.7624C27.2682 20.7053 27.3571 20.6738 27.4488 20.6729L30.8293 20.7106C31.0615 19.1014 31.1748 17.4768 31.1683 15.8506V15.6059C31.171 12.5715 30.2195 9.61513 28.4518 7.16561L25.517 8.8452C25.4349 8.89298 25.3392 8.91107 25.2456 8.89651C25.152 8.88196 25.066 8.83562 25.0018 8.76509C24.9376 8.69456 24.8989 8.60402 24.8921 8.50831C24.8853 8.4126 24.9108 8.31739 24.9645 8.23829L26.8219 5.25078C25.4664 3.90349 23.8721 2.82765 22.1226 2.07978C20.1845 1.25158 18.1011 0.829092 15.9977 0.837731C13.8917 0.832922 11.8067 1.26023 9.86813 2.0939C8.11864 2.84176 6.52427 3.91761 5.16882 5.26489L7.02625 8.2524C7.07316 8.3316 7.09323 8.42417 7.08339 8.516C7.07355 8.60782 7.03434 8.69387 6.97174 8.76102C6.90915 8.82817 6.82659 8.87274 6.73667 8.88794C6.64675 8.90314 6.55439 8.88813 6.47367 8.8452L3.53891 7.16561C1.77125 9.61513 0.81974 12.5715 0.822411 15.6059V15.8506C0.815941 17.4768 0.929249 19.1014 1.16139 20.7106L4.54193 20.6729C4.63362 20.6738 4.72247 20.7053 4.79478 20.7624C4.86708 20.8195 4.91884 20.8992 4.94208 20.989C4.96531 21.0789 4.95872 21.174 4.92333 21.2597C4.88795 21.3454 4.82572 21.417 4.74625 21.4633L1.60254 23.2229C2.21232 26.2316 3.23453 29.1391 4.63945 31.8608L6.83587 30.6423C6.91375 30.6003 7.00265 30.5841 7.09009 30.5959C7.17753 30.6077 7.25913 30.647 7.32344 30.7081C7.3833 30.7684 7.42376 30.8455 7.43951 30.9295C7.45526 31.0135 7.44555 31.1003 7.41167 31.1786L6.00466 34.1473Z" fill="#171A19"/>
</svg>
