<svg width="32" height="26" viewBox="0 0 32 26" fill="none" xmlns="http://www.w3.org/2000/svg">
<path d="M25.5243 20.399H2.1407C0.95891 20.3978 0.0011699 19.4297 0 18.2352V2.16374C0.0011699 0.969231 0.95891 0.00118249 2.1407 0H25.5243C26.7061 0.00118249 27.6638 0.969231 27.665 2.16374V6.52555C27.665 6.71268 27.5663 6.88559 27.4059 6.97915C27.2456 7.07272 27.0481 7.07272 26.8877 6.97915C26.7274 6.88559 26.6286 6.71268 26.6286 6.52555V2.16374C26.6278 1.54761 26.1339 1.04834 25.5243 1.04755H2.1407C1.53113 1.04834 1.03717 1.54761 1.03639 2.16374V18.2352C1.03678 18.8516 1.53086 19.3513 2.1407 19.3521H25.5243C26.1339 19.3513 26.6278 18.8521 26.6286 18.2359V11.6317C26.6286 11.3425 26.8606 11.108 27.1468 11.108C27.433 11.108 27.665 11.3425 27.665 11.6317V18.2352C27.6638 19.4297 26.7061 20.3978 25.5243 20.399Z" fill="#171A19"/>
<path d="M17.863 23.8949H9.85769C9.57169 23.8949 9.33984 23.6605 9.33984 23.3715V19.8756C9.33984 19.5865 9.57169 19.3522 9.85769 19.3522H17.863C18.149 19.3522 18.3809 19.5865 18.3809 19.8756V23.3708C18.3811 23.5097 18.3266 23.643 18.2295 23.7413C18.1323 23.8396 18.0005 23.8949 17.863 23.8949ZM10.3784 22.8473H17.3452V20.399H10.3755L10.3784 22.8473Z" fill="#171A19"/>
<path d="M21.4786 26H6.12722C5.84122 26 5.60938 25.7656 5.60938 25.4765C5.61132 24.0254 6.77491 22.8496 8.21062 22.848H19.3952C20.8309 22.8496 21.9945 24.0254 21.9964 25.4765C21.9964 25.7656 21.7646 26 21.4786 26ZM6.73632 24.9524H20.8716C20.6508 24.3194 20.0593 23.8957 19.3952 23.8949H8.21274C7.54867 23.8957 6.95718 24.3194 6.73632 24.9524Z" fill="#171A19"/>
<path d="M20.7057 16.1551C20.5412 16.155 20.3864 16.076 20.2887 15.9421C20.1911 15.8083 20.162 15.6355 20.2105 15.4766L21.2009 12.2445C21.226 12.1635 21.2702 12.0899 21.3297 12.03L28.4203 4.86091C28.9424 4.31329 29.7164 4.09327 30.4444 4.28551C31.1724 4.47776 31.741 5.05232 31.9313 5.7881C32.1217 6.52388 31.9042 7.30623 31.3626 7.83409L24.2705 15.0018C24.2113 15.062 24.1385 15.1067 24.0583 15.1319L20.86 16.133C20.81 16.1482 20.758 16.1557 20.7057 16.1551ZM22.1517 12.6807L21.491 14.8409L23.6289 14.173L30.6325 7.09402C30.8962 6.8268 30.9989 6.43767 30.9018 6.0732C30.8047 5.70873 30.5226 5.4243 30.1618 5.32705C29.801 5.22979 29.4163 5.33449 29.1525 5.60171L22.1517 12.6807Z" fill="#171A19"/>
<path d="M23.582 14.8295C23.4445 14.8296 23.3126 14.7743 23.2156 14.6758L21.3295 12.7695C21.1271 12.5649 21.1271 12.2332 21.3295 12.0287C21.5319 11.8241 21.86 11.8241 22.0624 12.0287L23.947 13.9357C24.0954 14.0854 24.1398 14.3107 24.0595 14.5065C23.9793 14.7022 23.7902 14.8298 23.5806 14.8295H23.582Z" fill="#171A19"/>
<path d="M30.5127 8.47551C30.3752 8.47563 30.2433 8.4203 30.1463 8.32178L27.9369 6.08867C27.7346 5.88411 27.7346 5.55245 27.9369 5.34788C28.1393 5.14332 28.4675 5.14332 28.6698 5.34788L30.8792 7.5817C31.0275 7.73141 31.0719 7.95674 30.9917 8.15248C30.9114 8.34821 30.7223 8.47574 30.5127 8.47551Z" fill="#171A19"/>
<path d="M22.1409 7.76546H5.57839C5.29239 7.76546 5.06055 7.53112 5.06055 7.24205V3.8856C5.06055 3.59652 5.29239 3.36218 5.57839 3.36218H22.1409C22.4269 3.36218 22.6587 3.59652 22.6587 3.8856V7.24634C22.6564 7.53374 22.4252 7.76547 22.1409 7.76546ZM6.09623 6.71792H21.6231V4.4083H6.09694L6.09623 6.71792Z" fill="#171A19"/>
<path d="M11.9082 10.4641H5.57874C5.29255 10.4641 5.06055 10.2296 5.06055 9.94028C5.06055 9.65101 5.29255 9.4165 5.57874 9.4165H11.9082C12.1944 9.4165 12.4264 9.65101 12.4264 9.94028C12.4264 10.2296 12.1944 10.4641 11.9082 10.4641Z" fill="#171A19"/>
<path d="M11.9082 13.1662H5.57874C5.29255 13.1662 5.06055 12.9317 5.06055 12.6424C5.06055 12.3532 5.29255 12.1187 5.57874 12.1187H11.9082C12.1944 12.1187 12.4264 12.3532 12.4264 12.6424C12.4264 12.9317 12.1944 13.1662 11.9082 13.1662Z" fill="#171A19"/>
<path d="M11.9082 15.7911H5.57874C5.29255 15.7911 5.06055 15.5566 5.06055 15.2673C5.06055 14.978 5.29255 14.7435 5.57874 14.7435H11.9082C12.1944 14.7435 12.4264 14.978 12.4264 15.2673C12.4264 15.5566 12.1944 15.7911 11.9082 15.7911Z" fill="#171A19"/>
<path d="M18.4566 10.4641H15.9303C15.7452 10.4641 15.5741 10.3642 15.4815 10.2022C15.389 10.0401 15.389 9.84045 15.4815 9.67839C15.5741 9.51633 15.7452 9.4165 15.9303 9.4165H18.4566C18.7428 9.4165 18.9748 9.65101 18.9748 9.94028C18.9748 10.2296 18.7428 10.4641 18.4566 10.4641Z" fill="#171A19"/>
<path d="M18.4566 13.1662H15.9303C15.6441 13.1662 15.4121 12.9317 15.4121 12.6424C15.4121 12.3532 15.6441 12.1187 15.9303 12.1187H18.4566C18.7428 12.1187 18.9748 12.3532 18.9748 12.6424C18.9748 12.9317 18.7428 13.1662 18.4566 13.1662Z" fill="#171A19"/>
<path d="M18.4566 15.7911H15.9303C15.6441 15.7911 15.4121 15.5566 15.4121 15.2673C15.4121 14.978 15.6441 14.7435 15.9303 14.7435H18.4566C18.7428 14.7435 18.9748 14.978 18.9748 15.2673C18.9748 15.5566 18.7428 15.7911 18.4566 15.7911Z" fill="#171A19"/>
</svg>
