<svg width="32" height="38" viewBox="0 0 32 38" fill="none" xmlns="http://www.w3.org/2000/svg">
<path d="M25.5432 24.4496C25.5432 23.7426 25.0195 23.2124 24.3214 23.2124H6.98351C6.28535 23.2124 5.76172 23.7426 5.76172 24.4496V30.8124C5.76172 31.5194 6.28535 32.0496 6.98351 32.0496H24.3214C25.0195 32.0496 25.5432 31.5194 25.5432 30.8124V24.4496ZM24.2632 31.4605H6.57625C6.45989 31.4605 6.34353 31.3426 6.34353 31.2248V25.569H20.8887C21.0633 25.569 21.1796 25.4512 21.1796 25.2744C21.1796 25.0977 21.0633 24.9798 20.8887 24.9798H6.34353V24.155C6.34353 23.9783 6.51807 23.8015 6.69261 23.8015H24.3796C24.6705 23.8015 24.9614 24.0372 24.9614 24.3907V24.9798H23.2159C23.0414 24.9798 22.925 25.0977 22.925 25.2744C22.925 25.4512 23.0414 25.569 23.2159 25.569H24.9614C24.9614 25.569 24.9614 25.6868 24.9614 25.8047V30.7535C24.9614 31.107 24.6123 31.4605 24.2632 31.4605Z" fill="#171A19"/>
<path d="M17.9201 3.88835C18.2093 3.88835 18.4437 3.65095 18.4437 3.35811C18.4437 3.06527 18.2093 2.82788 17.9201 2.82788C17.6309 2.82788 17.3965 3.06527 17.3965 3.35811C17.3965 3.65095 17.6309 3.88835 17.9201 3.88835Z" fill="#171A19"/>
<path d="M9.77363 8.01237C10.0628 8.01237 10.2973 7.77498 10.2973 7.48214C10.2973 7.1893 10.0628 6.9519 9.77363 6.9519C9.48444 6.9519 9.25 7.1893 9.25 7.48214C9.25 7.77498 9.48444 8.01237 9.77363 8.01237Z" fill="#171A19"/>
<path d="M21.9924 8.01237C22.2816 8.01237 22.516 7.77498 22.516 7.48214C22.516 7.1893 22.2816 6.9519 21.9924 6.9519C21.7032 6.9519 21.4688 7.1893 21.4688 7.48214C21.4688 7.77498 21.7032 8.01237 21.9924 8.01237Z" fill="#171A19"/>
<path d="M15.0119 6.83415C15.3011 6.83415 15.5355 6.59675 15.5355 6.30391C15.5355 6.01108 15.3011 5.77368 15.0119 5.77368C14.7227 5.77368 14.4883 6.01108 14.4883 6.30391C14.4883 6.59675 14.7227 6.83415 15.0119 6.83415Z" fill="#171A19"/>
<path d="M16.758 12.7256C17.0472 12.7256 17.2816 12.4882 17.2816 12.1954C17.2816 11.9026 17.0472 11.6652 16.758 11.6652C16.4688 11.6652 16.2344 11.9026 16.2344 12.1954C16.2344 12.4882 16.4688 12.7256 16.758 12.7256Z" fill="#171A19"/>
<path d="M23.7385 11.5473C24.0277 11.5473 24.2621 11.3099 24.2621 11.017C24.2621 10.7242 24.0277 10.4868 23.7385 10.4868C23.4493 10.4868 23.2148 10.7242 23.2148 11.017C23.2148 11.3099 23.4493 11.5473 23.7385 11.5473Z" fill="#171A19"/>
<path d="M31.4764 17.9101H31.36C31.36 17.9101 31.36 17.7922 31.36 17.6744V16.7907C31.36 16.4372 31.0691 16.1426 30.72 16.1426H30.3128C29.9637 15.0822 28.6837 14.0217 27.4619 13.6682C27.4619 11.7829 26.0656 9.95659 24.262 9.30853C24.3783 8.95504 24.4365 8.54263 24.4365 8.13023C24.4365 5.83256 22.4002 4.0062 19.782 3.88837C19.7239 1.5907 18.6184 0.235659 16.6403 0C16.4076 0 16.233 0.176744 16.233 0.412403V1.06047C16.233 2.65116 14.8367 3.94729 12.9749 3.94729C9.19315 3.94729 7.09864 5.47907 7.09864 8.18915C7.09864 8.60155 7.15682 8.95504 7.33136 9.36744C5.52776 9.95659 4.1896 11.8419 4.13142 13.7271C2.90963 14.0806 1.74601 15.1411 1.33875 16.2015H1.10602C0.815119 16.2015 0.582397 16.4372 0.582397 16.7318V17.9101H0.349673C0.0587696 17.9101 0.000589155 18.2047 0.000589155 18.3814V25.3333C0.000589155 30.5767 -0.232135 36.7039 8.55316 36.7039V36.8217C8.66952 37.4109 9.13497 38 9.89132 38H21.702C22.342 38 23.2729 37.9411 23.2729 36.7628V36.645C32 36.4682 32 30.8124 32 25.3333V18.4992C31.9418 18.0279 31.7673 17.9101 31.4764 17.9101ZM4.65505 14.3752H20.8875C21.062 14.3752 21.1784 14.2574 21.1784 14.0806C21.1784 13.9039 21.062 13.786 20.8875 13.786H7.215C7.33136 13.6682 7.44772 13.5504 7.44772 13.3736C7.44772 13.0791 7.215 12.8434 6.9241 12.8434C6.63319 12.8434 6.40047 13.0791 6.40047 13.3736C6.40047 13.5504 6.45865 13.6682 6.63319 13.786H4.77141C4.82959 12.0186 6.16775 10.3101 7.85499 9.89767C8.02953 9.83876 8.08771 9.66201 8.08771 9.54418C8.08771 9.54418 8.08771 9.48527 8.08771 9.42636C7.91317 9.01395 7.85499 8.60155 7.85499 8.18915C7.85499 5.24341 10.6477 4.53643 13.0913 4.53643C15.3021 4.53643 16.9312 2.94574 16.9312 1.06047V0.706977C18.6766 1.06047 19.2002 2.17985 19.2002 4.12403C19.2002 4.12403 19.2584 4.47752 19.6075 4.47752C22.0511 4.47752 23.9711 6.0093 23.9711 8.07132C23.9711 8.42481 23.9129 9.07287 23.7965 9.07287H9.83314C9.65859 9.07287 9.54223 9.1907 9.54223 9.36744C9.54223 9.54419 9.65859 9.66201 9.83314 9.66201H12.8585C12.8585 9.72093 12.8004 9.77984 12.8004 9.83876C12.8004 10.1333 13.0331 10.369 13.324 10.369C13.6149 10.369 13.8476 10.1333 13.8476 9.83876C13.8476 9.77984 13.8476 9.72093 13.7894 9.66201H23.8547C25.4838 10.2512 26.8219 12.0186 26.8801 13.786H23.0402C22.8656 13.786 22.6329 13.845 22.6329 14.0806C22.6329 14.2574 22.8074 14.3752 22.982 14.3752H26.7056C26.7056 14.4341 26.6474 14.493 26.6474 14.5519C26.6474 14.8465 26.8801 15.0822 27.171 15.0822C27.4619 15.0822 27.6946 14.8465 27.6946 14.5519C28.5673 14.8465 29.3237 15.4357 29.6146 16.1426H10.124C10.2404 16.0248 10.3568 15.907 10.3568 15.7302C10.3568 15.4357 10.124 15.2 9.83314 15.2C9.54223 15.2 9.30951 15.4357 9.30951 15.7302C9.30951 15.907 9.36769 16.0248 9.54223 16.1426H1.97873C2.32782 15.3178 3.6078 14.3752 4.65505 14.3752ZM1.10602 16.9674C1.10602 16.8496 1.1642 16.7318 1.33875 16.7318H30.4873C30.6037 16.7318 30.72 16.8496 30.72 16.9674V17.6744C30.72 17.7333 30.6618 17.9101 30.4291 17.9101H1.33875C1.1642 17.9101 1.10602 17.8512 1.10602 17.6744V16.9674ZM21.6438 37.3519H9.83314C9.30951 37.3519 9.13497 36.9985 9.07679 36.7628H22.6329C22.6329 37.2341 22.2838 37.3519 21.6438 37.3519ZM31.36 25.3333C31.36 30.8124 31.3018 36.1736 22.5747 36.1736H8.90224C0.407854 36.1736 0.524216 30.8124 0.524216 25.3333V18.4992H31.36V25.3333Z" fill="#171A19"/>
</svg>
