<svg width="32" height="40" viewBox="0 0 32 40" fill="none" xmlns="http://www.w3.org/2000/svg">
<path fill-rule="evenodd" clip-rule="evenodd" d="M23.7754 9.18052C24.3173 9.27781 24.8213 9.54849 25.2156 9.96079C25.7179 10.4869 26 11.1997 26 11.9435V37.1966C26 37.9398 25.7179 38.6532 25.2156 39.1787C24.7127 39.7048 24.031 40 23.3204 40H8.67967C7.96904 40 7.28731 39.7048 6.78503 39.1787C6.28215 38.6532 6 37.9398 6 37.1966V11.9435C6 11.1997 6.28215 10.4869 6.78503 9.96079C7.17871 9.54849 7.68335 9.27781 8.22518 9.18052C8.0493 8.8258 7.97846 8.42077 8.02863 8.01707L8.57048 3.65315C8.62714 3.19518 8.83193 2.79148 9.13059 2.49234C9.13118 2.44469 9.1371 2.39705 9.1495 2.35072L9.45464 1.19721C9.64174 0.48974 10.2573 0 10.9591 0H21.0409C21.7427 0 22.3583 0.48974 22.5454 1.19721L22.8505 2.35072C22.8629 2.39705 22.8694 2.44469 22.8694 2.49234C23.1681 2.79148 23.3729 3.19518 23.4296 3.65315L23.9714 8.01707C24.0215 8.42077 23.9513 8.8258 23.7754 9.18052ZM23.3204 10.244H8.67967C8.24881 10.244 7.83565 10.4227 7.53109 10.7417C7.22653 11.06 7.05536 11.4929 7.05536 11.9435V37.1966C7.05536 37.6473 7.22653 38.0795 7.53109 38.3978C7.83565 38.7168 8.24881 38.8961 8.67967 38.8961H23.3204C23.7512 38.8961 24.1644 38.7168 24.4689 38.3978C24.7741 38.0795 24.9447 37.6473 24.9447 37.1966V11.9435C24.9447 11.4929 24.7741 11.06 24.4689 10.7417C24.1644 10.4227 23.7512 10.244 23.3204 10.244ZM10.4279 3.04959C10.0171 3.04959 9.67008 3.36858 9.61695 3.79544L9.07511 8.15937C9.04442 8.40688 9.11701 8.65703 9.2746 8.84432C9.43219 9.03227 9.65945 9.14015 9.8985 9.14015H22.1021C22.3406 9.14015 22.5678 9.03227 22.7254 8.84432C22.883 8.65703 22.9562 8.40688 22.9255 8.15937L22.3831 3.79544C22.3305 3.36858 21.9829 3.04959 21.5721 3.04959H10.4279ZM10.3518 1.94569H21.6488L21.5284 1.49171C21.4682 1.26272 21.2687 1.10388 21.0409 1.10388H10.9591C10.7319 1.10388 10.5324 1.26272 10.4716 1.49171L10.3518 1.94569ZM15.4726 29.9446C15.4726 29.6401 15.7087 29.3926 16.0003 29.3926C16.2913 29.3926 16.528 29.6401 16.528 29.9446V30.9637C16.528 31.2682 16.2913 31.5157 16.0003 31.5157C15.7087 31.5157 15.4726 31.2682 15.4726 30.9637V29.9446ZM10.4291 23.5641C10.7201 23.5641 10.9568 23.8116 10.9568 24.1161C10.9568 24.4212 10.7201 24.668 10.4291 24.668H9.45522C9.16423 24.668 8.92755 24.4212 8.92755 24.1161C8.92755 23.8116 9.16423 23.5641 9.45522 23.5641H10.4291ZM11.6875 27.8473C11.8935 27.6322 12.2281 27.6322 12.4335 27.8473C12.6395 28.0631 12.6395 28.4125 12.4335 28.6283L11.7453 29.3483C11.5393 29.564 11.2053 29.564 10.9993 29.3483C10.7933 29.1332 10.7933 28.7831 10.9993 28.568L11.6875 27.8473ZM12.4335 19.6046C12.6395 19.8197 12.6395 20.1698 12.4335 20.3848C12.2281 20.6006 11.8935 20.6006 11.6875 20.3848L10.9993 19.6648C10.7933 19.449 10.7933 19.0996 10.9993 18.8839C11.2053 18.6688 11.5393 18.6688 11.7453 18.8839L12.4335 19.6046ZM20.3125 20.3848C20.1065 20.6006 19.7725 20.6006 19.5665 20.3848C19.3605 20.1698 19.3605 19.8197 19.5665 19.6046L20.2553 18.8839C20.4607 18.6688 20.7953 18.6688 21.0013 18.8839C21.2073 19.0996 21.2073 19.449 21.0013 19.6648L20.3125 20.3848ZM16.0003 19.635C18.3642 19.635 20.2836 21.6429 20.2836 24.1161C20.2836 26.5892 18.3642 28.5978 16.0003 28.5978C13.6358 28.5978 11.717 26.5892 11.717 24.1161C11.717 21.6429 13.6358 19.635 16.0003 19.635ZM16.0003 20.7389C14.2184 20.7389 12.7723 22.2524 12.7723 24.1161C12.7723 25.9804 14.2184 27.4933 16.0003 27.4933C17.7816 27.4933 19.2283 25.9804 19.2283 24.1161C19.2283 22.2524 17.7816 20.7389 16.0003 20.7389ZM14.4887 24.1161C14.4887 24.4212 14.252 24.668 13.9611 24.668C13.6695 24.668 13.4334 24.4212 13.4334 24.1161C13.4334 22.6343 14.5832 21.4305 16.0003 21.4305C16.2913 21.4305 16.528 21.678 16.528 21.9824C16.528 22.2875 16.2913 22.535 16.0003 22.535C15.1657 22.535 14.4887 23.2432 14.4887 24.1161ZM16.528 18.2876C16.528 18.592 16.2913 18.8395 16.0003 18.8395C15.7087 18.8395 15.4726 18.592 15.4726 18.2876V17.2684C15.4726 16.964 15.7087 16.7165 16.0003 16.7165C16.2913 16.7165 16.528 16.964 16.528 17.2684V18.2876ZM21.5715 24.668C21.2799 24.668 21.0438 24.4212 21.0438 24.1161C21.0438 23.8116 21.2799 23.5641 21.5715 23.5641H22.5448C22.8364 23.5641 23.0724 23.8116 23.0724 24.1161C23.0724 24.4212 22.8364 24.668 22.5448 24.668H21.5715ZM19.5665 28.6283C19.3605 28.4125 19.3605 28.0631 19.5665 27.8473C19.7725 27.6322 20.1065 27.6322 20.3125 27.8473L21.0013 28.568C21.2073 28.7831 21.2073 29.1332 21.0013 29.3483C20.7953 29.564 20.4607 29.564 20.2553 29.3483L19.5665 28.6283ZM12.8272 4.15215C12.8272 3.84772 13.0633 3.6002 13.3549 3.6002C13.6459 3.6002 13.8826 3.84772 13.8826 4.15215V4.32951H18.118V4.15215C18.118 3.84772 18.3541 3.6002 18.6457 3.6002C18.9367 3.6002 19.1728 3.84772 19.1728 4.15215V4.88146C19.1728 5.18655 18.9367 5.4334 18.6457 5.4334H13.3549C13.0633 5.4334 12.8272 5.18655 12.8272 4.88146V4.15215Z" fill="#171A19"/>
</svg>
