<svg width="32" height="40" viewBox="0 0 32 40" fill="none" xmlns="http://www.w3.org/2000/svg">
<path fill-rule="evenodd" clip-rule="evenodd" d="M7.27692 32.6997C6.72606 31.3224 6.43804 29.845 6.43811 28.3439V17.6606C6.43804 15.1775 7.22679 12.7578 8.69077 10.7493C9.53251 9.5948 10.4863 8.43816 11.289 7.49795C11.976 6.69694 12.8432 6.09009 13.8052 5.71498V1.75583C13.8052 1.29025 13.9905 0.844164 14.3203 0.514294C14.6503 0.185118 15.0976 0 15.5641 0H19.8084C20.2749 0 20.7223 0.185118 21.0522 0.514294C21.3821 0.844164 21.5674 1.29025 21.5674 1.75583V5.72195C21.7086 5.77692 21.8478 5.83677 21.9847 5.90219C22.3927 5.52291 22.9696 5.28142 23.6131 5.28142C24.8802 5.28142 25.8733 6.21118 25.8733 7.30727C25.8733 7.39983 25.8664 7.4903 25.8531 7.57938C26.5415 7.86541 27.0096 8.50218 27.0096 9.22177C27.0096 9.48901 26.946 9.74442 26.8307 9.97478C27.6739 10.1021 28.3107 10.8078 28.3107 11.645C28.3107 11.787 28.2927 11.9248 28.2586 12.0563C28.8015 12.3876 29.1634 12.984 29.1634 13.6646C29.1634 13.8254 29.1431 13.9812 29.1048 14.1302C29.6486 14.4649 30 15.0398 30 15.6821C30 16.3919 29.5712 17.0183 28.9298 17.3308C28.9333 17.4407 28.9347 17.5507 28.9347 17.6606V28.3439C28.9347 30.8276 28.1458 33.2474 26.6817 35.2558C25.8456 36.4027 24.9016 37.3694 24.0946 38.1036L24.0934 38.105C22.9251 39.1614 21.4047 39.7467 19.8281 39.7467C18.5279 39.7467 16.8437 39.7467 15.5435 39.7432C14.8073 39.7432 14.0833 39.6158 13.4018 39.3716C12.9888 39.7467 12.3625 40 11.6514 40C10.9411 40 10.3143 39.7481 9.90279 39.3744C9.87246 39.3757 9.842 39.3764 9.81139 39.3764C8.50588 39.3764 7.43672 38.2908 7.43672 36.9428C7.43672 36.7667 7.45505 36.5948 7.48977 36.4292C6.86508 36.0415 6.43811 35.3205 6.43811 34.4889C6.43811 33.7554 6.76984 33.1082 7.27692 32.6997ZM16.1142 6.35036C14.572 6.35036 13.1068 7.02334 12.1035 8.1925C11.3167 9.11461 10.382 10.2469 9.55705 11.3785C8.22623 13.2039 7.50936 15.403 7.50936 17.6606V28.3439C7.50936 29.5499 7.71385 30.7392 8.10708 31.8632C8.34252 31.1373 9.04704 30.6028 9.88982 30.6028C10.9016 30.6028 11.7142 31.3732 11.7548 32.3204C12.1873 32.4505 12.5602 32.7352 12.8142 33.1179C12.8299 33.1179 12.8457 33.1179 12.8614 33.1179C13.9145 33.1179 14.7536 33.9377 14.7536 34.9267C14.7536 35.5377 14.4364 36.0819 13.9447 36.4104C13.9473 36.448 13.9487 36.4855 13.9487 36.5238C13.9487 36.8384 13.8569 37.1314 13.6977 37.3798C13.8608 37.6297 13.9487 37.9108 13.9487 38.2038C13.9487 38.2776 13.9431 38.3506 13.9323 38.4223C14.4492 38.5879 14.9933 38.6742 15.5452 38.6742C16.8446 38.6777 18.5286 38.6777 19.8281 38.6777C21.1386 38.6777 22.4022 38.1913 23.3735 37.313C24.135 36.6199 25.0266 35.7089 25.8155 34.6267C27.1463 32.8013 27.8631 30.6015 27.8631 28.3439V17.6606C27.8631 17.6189 27.8629 17.5771 27.8624 17.5354C27.5324 17.5131 27.2254 17.415 26.9609 17.2612C26.6854 17.4386 26.3607 17.5402 26.014 17.5402C25.0312 17.5402 24.2191 16.7156 24.2191 15.6821C24.2191 15.6167 24.2224 15.552 24.2288 15.4886C23.2362 15.2548 22.4999 14.3744 22.4999 13.3299C22.4999 12.8761 22.6384 12.4537 22.8767 12.1015C22.6437 11.78 22.5021 11.3743 22.5 10.9317C22.3183 10.8677 22.1501 10.7716 22.0015 10.6498C21.8893 10.6707 21.7738 10.6818 21.6559 10.6818C20.6033 10.6818 19.7405 9.81053 19.7405 8.72697C19.7405 7.74571 20.4491 6.93843 21.3654 6.79506C20.7082 6.50973 19.992 6.35663 19.2584 6.35663H19.2549C18.2573 6.35037 17.118 6.35036 16.1198 6.35036C16.1179 6.35036 16.1161 6.35036 16.1142 6.35036ZM15.7306 1.06964H15.5641C15.3818 1.06964 15.2068 1.14202 15.0779 1.27077C14.9489 1.39952 14.8765 1.57419 14.8765 1.75583V5.28142H20.4961V1.75583C20.4961 1.57419 20.4236 1.39952 20.2947 1.27077C20.1657 1.14202 19.9908 1.06964 19.8084 1.06964H19.6419V2.02307C19.6419 2.28474 19.5376 2.53667 19.3518 2.72178C19.1661 2.9076 18.9142 3.01129 18.6515 3.01129H16.721C16.4584 3.01129 16.2064 2.9076 16.0207 2.72178C15.8349 2.53667 15.7306 2.28474 15.7306 2.02307V1.06964ZM18.5706 1.06964H16.8019V1.94234H18.5706V1.06964ZM28.2534 16.4434C28.6321 16.3537 28.9291 16.0551 28.9291 15.6821C28.9291 15.316 28.6405 15.0203 28.2708 14.9263C28.1028 14.8832 27.9661 14.7621 27.9037 14.5999C27.8414 14.4385 27.8613 14.2568 27.9571 14.1128C28.0425 13.984 28.0921 13.8302 28.0921 13.6646C28.0921 13.2672 27.807 12.9367 27.43 12.8636C27.2465 12.8281 27.0946 12.7 27.0295 12.5254C26.9644 12.35 26.9953 12.1537 27.1112 12.0076C27.1911 11.9067 27.2394 11.7814 27.2394 11.645C27.2394 11.2943 26.9262 11.0235 26.5564 11.0235C26.427 11.0235 26.3056 11.0563 26.2015 11.114C26.1183 11.1606 26.0462 11.2233 25.9907 11.297C25.8507 11.4849 25.6046 11.5601 25.3835 11.4822C25.1623 11.4049 25.0174 11.1927 25.0259 10.9588C25.0263 10.9463 25.0266 10.9345 25.0266 10.9219C25.0266 10.8092 25.0081 10.7013 24.9739 10.6025C24.9261 10.4633 24.9376 10.3109 25.0057 10.1808C25.0737 10.0506 25.1924 9.95459 25.3338 9.91423C25.3854 9.89962 25.4351 9.88082 25.4824 9.85925C25.7447 9.73676 25.9384 9.50293 25.9384 9.22177C25.9384 8.91765 25.7206 8.67199 25.4216 8.55786C25.3348 8.65808 25.2221 8.75898 25.077 8.84667C24.8012 9.01369 24.3926 9.14383 23.7872 9.05058C23.495 9.00534 23.2944 8.73254 23.3396 8.44025C23.3847 8.14865 23.6585 7.94892 23.9507 7.99345C24.4095 8.06444 24.6167 7.83757 24.6585 7.78398C24.6688 7.75405 24.6819 7.72552 24.6976 7.69768C24.7022 7.68864 24.7067 7.68029 24.7114 7.67194C24.7692 7.56059 24.802 7.43741 24.802 7.30727C24.802 6.75679 24.2501 6.35036 23.6131 6.35036C23.1653 6.35036 22.7681 6.5501 22.5611 6.86466C22.4749 6.99549 22.4242 7.14651 22.4242 7.30727C22.4242 7.31144 22.4242 7.31562 22.4243 7.3198C22.4267 7.47917 22.3578 7.63088 22.2363 7.73457C22.1148 7.83826 21.9534 7.88211 21.7961 7.85427C21.7505 7.84661 21.7036 7.84244 21.6559 7.84244C21.1855 7.84244 20.8118 8.2433 20.8118 8.72697C20.8118 9.21134 21.1855 9.61219 21.6559 9.61219C21.7626 9.61219 21.8646 9.59131 21.9582 9.55373C22.1798 9.46396 22.4338 9.53216 22.581 9.72006C22.6907 9.85994 22.8524 9.95389 23.0356 9.95389C23.0462 9.95389 23.0568 9.95389 23.0672 9.9532C23.2416 9.94276 23.41 10.0186 23.5184 10.155C23.6269 10.2914 23.6617 10.4724 23.6119 10.6394C23.5854 10.7285 23.5712 10.8231 23.5712 10.9219C23.5712 11.2247 23.7046 11.4947 23.9176 11.6513C24.0478 11.7466 24.128 11.8955 24.1355 12.057C24.1431 12.2178 24.0774 12.3736 23.9567 12.4815C23.7206 12.691 23.5712 12.9937 23.5712 13.3299C23.5712 13.9478 24.0719 14.4482 24.6949 14.4781C24.9654 14.2179 25.5 13.8107 26.1645 13.8546C26.4595 13.8741 26.6833 14.1288 26.664 14.4232C26.6446 14.7175 26.3895 14.9409 26.0945 14.9214C25.728 14.8978 25.46 15.1984 25.3838 15.2952C25.3239 15.4107 25.2905 15.5422 25.2905 15.6821C25.2905 16.1108 25.6068 16.4713 26.014 16.4713C26.2214 16.4713 26.407 16.3752 26.5373 16.2263C26.6346 16.115 26.7736 16.0495 26.9214 16.044C27.0691 16.0384 27.2124 16.0948 27.3175 16.1985C27.4893 16.3683 27.737 16.4713 28.0104 16.4713C28.0943 16.4713 28.1758 16.4615 28.2534 16.4434ZM7.65285 33.8946C7.56124 34.07 7.50936 34.2739 7.50936 34.4889C7.50936 34.8807 7.68039 35.2336 7.95027 35.4493C8.19178 35.1828 8.60502 34.8926 9.29832 34.7743C9.58968 34.7248 9.86674 34.9204 9.91659 35.2113C9.96644 35.5022 9.77032 35.7785 9.47889 35.8286C8.88662 35.9295 8.6594 36.3011 8.64943 36.3178C8.64427 36.3324 8.63842 36.3471 8.63172 36.3624C8.5521 36.5391 8.50804 36.7354 8.50804 36.9428C8.50804 37.6909 9.08693 38.3068 9.81139 38.3068C9.88292 38.3068 9.95313 38.3012 10.0215 38.2894C10.2162 38.256 10.4133 38.3332 10.5344 38.4884C10.7508 38.7668 11.1756 38.9303 11.6514 38.9303C12.0149 38.9303 12.3462 38.8322 12.5846 38.661C12.6386 38.6228 12.6882 38.5803 12.7305 38.5351C12.756 38.5065 12.779 38.4766 12.7995 38.4453C12.8475 38.3715 12.8774 38.2908 12.8774 38.2038C12.8774 38.0416 12.7776 37.9025 12.6395 37.789C12.5124 37.6846 12.4405 37.5273 12.4445 37.3631C12.4485 37.1989 12.528 37.0451 12.6601 36.9469C12.7417 36.8864 12.8059 36.8043 12.8428 36.7089C12.5877 36.6874 12.278 36.6164 11.9092 36.4612C11.6368 36.3464 11.5089 36.0325 11.6237 35.7604C11.7385 35.4883 12.053 35.3609 12.3254 35.4758C12.7441 35.6518 13.058 35.6309 13.1564 35.6177C13.1819 35.6087 13.2069 35.5989 13.2312 35.5878C13.2399 35.5836 13.2487 35.5794 13.2573 35.5753C13.5066 35.4507 13.6824 35.2099 13.6824 34.9267C13.6824 34.5091 13.306 34.1869 12.8614 34.1869C12.7864 34.1869 12.7135 34.1959 12.644 34.2133C12.3845 34.2774 12.1172 34.141 12.0178 33.8932C11.8831 33.5571 11.5812 33.3114 11.2209 33.3114C11.2082 33.3114 11.1958 33.3114 11.1833 33.3121C11.0064 33.3205 10.8368 33.2411 10.7301 33.0998C10.6235 32.9586 10.5936 32.7741 10.6504 32.6071C10.673 32.5403 10.6852 32.4686 10.6852 32.3949C10.6852 31.9877 10.3209 31.6725 9.88982 31.6725C9.45867 31.6725 9.09439 31.9877 9.09439 32.3949C9.09439 32.4686 9.10658 32.5396 9.12917 32.6064C9.18572 32.7735 9.15623 32.9579 9.05025 33.0991C8.94428 33.2397 8.77548 33.3198 8.59909 33.3121C8.58571 33.3114 8.57225 33.3114 8.55879 33.3114C8.4204 33.3114 8.28849 33.3413 8.16829 33.3963C7.94874 33.4951 7.76886 33.6726 7.65285 33.8946ZM23.137 18.6001V29.2458C23.137 30.678 21.974 31.8388 20.5394 31.8388H14.8331C13.3985 31.8388 12.2356 30.678 12.2356 29.2458V18.6001C12.2356 15.6118 14.6625 13.1893 17.6561 13.1893H17.7165C20.7101 13.1893 23.137 15.6118 23.137 18.6001ZM22.0657 18.6001C22.0657 16.2027 20.1185 14.2589 17.7165 14.2589H17.6561C15.2541 14.2589 13.3069 16.2027 13.3069 18.6001V29.2458C13.3069 30.0872 13.9901 30.7692 14.8331 30.7692H20.5394C21.3824 30.7692 22.0657 30.0872 22.0657 29.2458V18.6001ZM10.0888 26.1461C10.7942 26.1461 11.3668 26.7175 11.3668 27.4217C11.3668 28.1253 10.7942 28.6974 10.0888 28.6974C9.38345 28.6974 8.81083 28.1253 8.81083 27.4217C8.81083 26.7175 9.38345 26.1461 10.0888 26.1461ZM10.0888 27.2151C9.97474 27.2151 9.88208 27.3076 9.88208 27.4217C9.88208 27.5352 9.97474 27.6277 10.0888 27.6277C10.2029 27.6277 10.2955 27.5352 10.2955 27.4217C10.2955 27.3076 10.2029 27.2151 10.0888 27.2151ZM4.55839 27.833C5.41155 27.833 6.11677 28.545 6.11677 29.4365C6.11677 30.3279 5.41155 31.0399 4.55839 31.0399C3.70515 31.0399 3 30.3279 3 29.4365C3 28.545 3.70515 27.833 4.55839 27.833ZM4.55839 28.9027C4.2825 28.9027 4.07125 29.1483 4.07125 29.4365C4.07125 29.7246 4.2825 29.9702 4.55839 29.9702C4.8342 29.9702 5.04545 29.7246 5.04545 29.4365C5.04545 29.1483 4.8342 28.9027 4.55839 28.9027ZM28.6607 6.60229C29.3997 6.60229 30 7.20149 30 7.93918C30 8.67756 29.3997 9.27676 28.6607 9.27676C27.921 9.27676 27.3207 8.67756 27.3207 7.93918C27.3207 7.20149 27.921 6.60229 28.6607 6.60229ZM28.6607 7.67124C28.5122 7.67124 28.392 7.79164 28.392 7.93918C28.392 8.08741 28.5122 8.20711 28.6607 8.20711C28.8085 8.20711 28.9291 8.08741 28.9291 7.93918C28.9291 7.79164 28.8085 7.67124 28.6607 7.67124ZM26.5902 1.92634C27.1401 1.92634 27.5865 2.37174 27.5865 2.92083C27.5865 3.46992 27.1401 3.9153 26.5902 3.9153C26.0403 3.9153 25.5938 3.46992 25.5938 2.92083C25.5938 2.37174 26.0403 1.92634 26.5902 1.92634ZM26.5902 2.99529C26.6315 2.99529 26.6651 2.96189 26.6651 2.92083C26.6651 2.87977 26.6315 2.84636 26.5902 2.84636C26.5488 2.84636 26.5152 2.87977 26.5152 2.92083C26.5152 2.96189 26.5488 2.99529 26.5902 2.99529Z" fill="#171A19"/>
</svg>
