<svg width="32" height="32" viewBox="0 0 32 32" fill="none" xmlns="http://www.w3.org/2000/svg">
<path d="M25.7663 24.5889L20.7962 19.6188C22.1506 17.9623 22.8165 15.8487 22.6562 13.715C22.4959 11.5813 21.5216 9.59083 19.9349 8.15534C18.3482 6.71984 16.2704 5.94913 14.1314 6.00261C11.9923 6.05609 9.95568 6.92968 8.44268 8.44268C6.92968 9.95568 6.05609 11.9923 6.00261 14.1314C5.94913 16.2704 6.71984 18.3482 8.15534 19.9349C9.59083 21.5216 11.5813 22.4959 13.715 22.6562C15.8487 22.8165 17.9623 22.1506 19.6188 20.7962L24.5889 25.7663C24.7459 25.9179 24.9563 26.0019 25.1746 26C25.3929 25.9981 25.6017 25.9105 25.7561 25.7561C25.9105 25.6017 25.9981 25.3929 26 25.1746C26.0019 24.9563 25.9179 24.7459 25.7663 24.5889ZM14.3531 21.0143C13.0357 21.0143 11.7478 20.6237 10.6524 19.8917C9.55695 19.1598 8.70317 18.1194 8.199 16.9023C7.69483 15.6851 7.56292 14.3458 7.81994 13.0536C8.07697 11.7615 8.71138 10.5746 9.64297 9.64297C10.5746 8.71138 11.7615 8.07697 13.0536 7.81994C14.3458 7.56292 15.6851 7.69483 16.9023 8.199C18.1194 8.70317 19.1598 9.55695 19.8917 10.6524C20.6237 11.7478 21.0143 13.0357 21.0143 14.3531C21.0124 16.1192 20.3099 17.8123 19.0611 19.0611C17.8123 20.3099 16.1192 21.0124 14.3531 21.0143Z" fill="#015F45"/>
</svg>
