<svg width="60" height="60" viewBox="0 0 60 60" fill="none" xmlns="http://www.w3.org/2000/svg">
<path d="M54.0416 44.5C48.1074 44.5 48.1074 41.6052 42.3179 41.6052C36.3837 41.6052 36.3837 44.5 30.5943 44.5C24.66 44.5 24.66 41.6052 18.7258 41.6052C12.7916 41.6052 12.7916 44.5 6.85742 44.5" stroke="white" stroke-miterlimit="10" stroke-linecap="round" stroke-linejoin="round"/>
<path d="M54.0416 40.1579C48.1074 40.1579 48.1074 37.2632 42.3179 37.2632C36.3837 37.2632 36.3837 40.1579 30.5943 40.1579C24.66 40.1579 24.66 37.2632 18.7258 37.2632C12.7916 37.2632 12.7916 40.1579 6.85742 40.1579" stroke="white" stroke-miterlimit="10" stroke-linecap="round" stroke-linejoin="round"/>
<path d="M15.1074 33.0658V17" stroke="white" stroke-miterlimit="10" stroke-linecap="round" stroke-linejoin="round"/>
<path d="M11.9229 20.0395L15.107 17L18.1465 20.0395" stroke="white" stroke-miterlimit="10" stroke-linecap="round" stroke-linejoin="round"/>
<path d="M30.4492 33.0658V17" stroke="white" stroke-miterlimit="10" stroke-linecap="round" stroke-linejoin="round"/>
<path d="M27.4102 20.0395L30.4496 17L33.4891 20.0395" stroke="white" stroke-miterlimit="10" stroke-linecap="round" stroke-linejoin="round"/>
<path d="M45.792 33.0658V17" stroke="white" stroke-miterlimit="10" stroke-linecap="round" stroke-linejoin="round"/>
<path d="M42.7529 20.0395L45.7924 17L48.9766 20.0395" stroke="white" stroke-miterlimit="10" stroke-linecap="round" stroke-linejoin="round"/>
</svg>
