<svg width="40" height="40" viewBox="0 0 40 40" fill="none" xmlns="http://www.w3.org/2000/svg">
<path d="M35.3331 23.2858C31.4009 23.2858 31.4009 21.3677 27.5647 21.3677C23.6325 21.3677 23.6325 23.2858 19.7962 23.2858C15.864 23.2858 15.864 21.3677 11.9318 21.3677C7.99958 21.3677 7.99958 23.2858 4.06738 23.2858" stroke="#015F45" stroke-miterlimit="10" stroke-linecap="round" stroke-linejoin="round"/>
<path d="M35.3331 20.4086C31.4009 20.4086 31.4009 18.4905 27.5647 18.4905C23.6325 18.4905 23.6325 20.4086 19.7962 20.4086C15.864 20.4086 15.864 18.4905 11.9318 18.4905C7.99958 18.4905 7.99958 20.4086 4.06738 20.4086" stroke="#015F45" stroke-miterlimit="10" stroke-linecap="round" stroke-linejoin="round"/>
<path d="M20.1799 15.3254C18.8372 15.3254 17.7822 14.2704 17.7822 12.9277" stroke="#015F45" stroke-miterlimit="10" stroke-linecap="round" stroke-linejoin="round"/>
<path d="M23.4402 13.5033C23.4402 14.1747 23.2483 14.7501 22.9606 15.2296C22.2893 16.4764 21.0425 17.2437 19.6039 17.2437C17.4939 17.2437 15.7676 15.5173 15.7676 13.4074C15.7676 11.2974 19.6039 5.06348 19.6039 5.06348C19.6039 5.06348 21.0425 7.36524 22.0975 9.66701C22.8647 11.2015 23.4402 12.6401 23.4402 13.5033Z" stroke="#015F45" stroke-miterlimit="10" stroke-linecap="round" stroke-linejoin="round"/>
<path d="M8.19141 7.74878V15.5173" stroke="#015F45" stroke-miterlimit="10" stroke-linecap="round" stroke-linejoin="round"/>
<path d="M10.2049 13.4072L8.19082 15.5172L6.17676 13.4072" stroke="#015F45" stroke-miterlimit="10" stroke-linecap="round" stroke-linejoin="round"/>
<path d="M31.1123 7.74902V15.5175" stroke="#015F45" stroke-miterlimit="10" stroke-linecap="round" stroke-linejoin="round"/>
<path d="M33.2217 13.4075L31.1117 15.5174L29.0977 13.4075" stroke="#015F45" stroke-miterlimit="10" stroke-linecap="round" stroke-linejoin="round"/>
<path d="M28.2341 32.7806C28.2341 33.0683 28.1382 33.356 28.0423 33.6438C27.7546 34.2192 27.1791 34.6028 26.5078 34.6028C25.5487 34.6028 24.6855 33.8356 24.6855 32.7806C24.6855 31.8215 26.5078 28.8484 26.5078 28.8484C26.5078 28.8484 27.1791 29.9034 27.6587 31.0542C27.9464 31.7256 28.2341 32.397 28.2341 32.7806Z" stroke="#015F45" stroke-miterlimit="10" stroke-linecap="round" stroke-linejoin="round"/>
<path d="M21.4245 29.9034C21.4245 30.1911 21.3286 30.4788 21.2327 30.7666C20.945 31.342 20.3696 31.7256 19.6982 31.7256C18.7391 31.7256 17.876 30.9584 17.876 29.9034C17.876 28.9443 19.6982 25.9712 19.6982 25.9712C19.6982 25.9712 20.3696 27.0262 20.8491 28.177C21.1368 28.8484 21.4245 29.5198 21.4245 29.9034Z" stroke="#015F45" stroke-miterlimit="10" stroke-linecap="round" stroke-linejoin="round"/>
<path d="M34.947 29.9034C34.947 30.1911 34.8511 30.4788 34.7552 30.7666C34.4675 31.342 33.892 31.7256 33.2207 31.7256C32.2616 31.7256 31.3984 30.9584 31.3984 29.9034C31.3984 28.9443 33.2207 25.9712 33.2207 25.9712C33.2207 25.9712 33.892 27.0262 34.3716 28.177C34.6593 28.8484 34.947 29.5198 34.947 29.9034Z" stroke="#015F45" stroke-miterlimit="10" stroke-linecap="round" stroke-linejoin="round"/>
<path d="M14.7117 32.7806C14.7117 33.0683 14.6157 33.356 14.5198 33.6438C14.2321 34.2192 13.6567 34.6028 12.9853 34.6028C12.0262 34.6028 11.1631 33.8356 11.1631 32.7806C11.1631 31.8215 12.9853 28.8484 12.9853 28.8484C12.9853 28.8484 13.6567 29.9034 14.1362 31.0542C14.4239 31.7256 14.7117 32.397 14.7117 32.7806Z" stroke="#015F45" stroke-miterlimit="10" stroke-linecap="round" stroke-linejoin="round"/>
<path d="M7.90208 29.9034C7.90208 30.1911 7.80618 30.4788 7.71027 30.7666C7.42255 31.342 6.8471 31.7256 6.17575 31.7256C5.21667 31.7256 4.35352 30.9584 4.35352 29.9034C4.35352 28.9443 6.17575 25.9712 6.17575 25.9712C6.17575 25.9712 6.84711 27.0262 7.32665 28.177C7.61437 28.8484 7.90208 29.5198 7.90208 29.9034Z" stroke="#015F45" stroke-miterlimit="10" stroke-linecap="round" stroke-linejoin="round"/>
</svg>
