<svg width="40" height="40" viewBox="0 0 40 40" fill="none" xmlns="http://www.w3.org/2000/svg">
<path d="M26.6499 25.5672C29.8463 22.383 28.8866 16.2644 24.5064 11.9009C20.1261 7.53742 13.984 6.5814 10.7876 9.76557C7.59119 12.9497 8.55089 19.0683 12.9312 23.4318C17.3114 27.7953 23.4535 28.7513 26.6499 25.5672Z" stroke="#015F45" stroke-miterlimit="10" stroke-linecap="round" stroke-linejoin="round"/>
<path d="M24.2207 23.1469C26.4306 20.9455 25.7588 16.7071 22.7202 13.6801C19.6817 10.6532 15.427 9.98401 13.2171 12.1854C11.0073 14.3868 11.6791 18.6252 14.7176 21.6521C17.7562 24.679 22.0108 25.3483 24.2207 23.1469Z" stroke="#015F45" stroke-miterlimit="10" stroke-linecap="round" stroke-linejoin="round"/>
<path d="M35.3668 34.3688C34.4573 35.2747 33.1437 35.1741 32.3353 34.2681L25.8682 26.6178L27.586 24.9065L35.2657 31.3489C36.1752 32.0535 36.2762 33.4628 35.3668 34.3688Z" stroke="#015F45" stroke-miterlimit="10" stroke-linecap="round" stroke-linejoin="round"/>
<path d="M18.6931 15.4442C19.2512 15.4442 19.7036 14.9935 19.7036 14.4375C19.7036 13.8816 19.2512 13.4309 18.6931 13.4309C18.135 13.4309 17.6826 13.8816 17.6826 14.4375C17.6826 14.9935 18.135 15.4442 18.6931 15.4442Z" fill="#015F45"/>
<path d="M15.5603 18.6653C16.1184 18.6653 16.5708 18.2147 16.5708 17.6587C16.5708 17.1028 16.1184 16.6521 15.5603 16.6521C15.0022 16.6521 14.5498 17.1028 14.5498 17.6587C14.5498 18.2147 15.0022 18.6653 15.5603 18.6653Z" fill="#015F45"/>
<path d="M15.5603 15.4442C16.1184 15.4442 16.5708 14.9935 16.5708 14.4375C16.5708 13.8816 16.1184 13.4309 15.5603 13.4309C15.0022 13.4309 14.5498 13.8816 14.5498 14.4375C14.5498 14.9935 15.0022 15.4442 15.5603 15.4442Z" fill="#015F45"/>
<path d="M18.6931 18.6653C19.2512 18.6653 19.7036 18.2147 19.7036 17.6587C19.7036 17.1028 19.2512 16.6521 18.6931 16.6521C18.135 16.6521 17.6826 17.1028 17.6826 17.6587C17.6826 18.2147 18.135 18.6653 18.6931 18.6653Z" fill="#015F45"/>
<path d="M21.9265 18.6653C22.4846 18.6653 22.937 18.2147 22.937 17.6587C22.937 17.1028 22.4846 16.6521 21.9265 16.6521C21.3684 16.6521 20.916 17.1028 20.916 17.6587C20.916 18.2147 21.3684 18.6653 21.9265 18.6653Z" fill="#015F45"/>
<path d="M18.6931 21.786C19.2512 21.786 19.7036 21.3353 19.7036 20.7793C19.7036 20.2234 19.2512 19.7727 18.6931 19.7727C18.135 19.7727 17.6826 20.2234 17.6826 20.7793C17.6826 21.3353 18.135 21.786 18.6931 21.786Z" fill="#015F45"/>
<path d="M21.9265 21.786C22.4846 21.786 22.937 21.3353 22.937 20.7793C22.937 20.2234 22.4846 19.7727 21.9265 19.7727C21.3684 19.7727 20.916 20.2234 20.916 20.7793C20.916 21.3353 21.3684 21.786 21.9265 21.786Z" fill="#015F45"/>
</svg>
