<svg width="60" height="60" viewBox="0 0 60 60" fill="none" xmlns="http://www.w3.org/2000/svg">
<path d="M30.6293 33.1995H41.3136H51.9979C36.1017 32.6783 30.499 25.1211 30.499 25.1211C30.499 25.1211 24.8962 32.548 9 33.1995H19.6844H30.6293Z" stroke="white" stroke-miterlimit="10" stroke-linecap="round" stroke-linejoin="round"/>
<path d="M52.1278 33.1995C52.1278 33.3298 51.9975 33.3298 51.8672 33.4601C49.3916 36.5872 46.0039 39.0628 42.0949 40.7567C38.7072 42.19 34.7983 43.1021 30.6288 43.1021C26.4594 43.1021 22.5504 42.3203 19.1627 40.7567C15.1235 39.0628 11.7358 36.5872 9.39045 33.4601C9.26016 33.3298 9.26018 33.3298 9.12988 33.1995C12.257 23.6878 19.8142 17.173 27.5017 18.0851C28.5441 18.2154 29.5865 18.476 30.4985 18.8669C31.5409 18.476 32.453 18.2154 33.4954 18.0851" stroke="white" stroke-miterlimit="10" stroke-linecap="round" stroke-linejoin="round"/>
<path d="M30.6289 18.8669C31.6713 18.476 32.5833 18.2154 33.756 18.0851C41.4435 17.173 49.0008 23.6878 52.1279 33.1995C52.1279 33.1995 52.1279 33.1995 51.8673 33.4601C49.3916 36.5872 46.0039 39.0628 42.095 40.7567C38.7073 42.19 34.7984 43.1021 30.6289 43.1021" stroke="white" stroke-miterlimit="10" stroke-linecap="round" stroke-linejoin="round"/>
</svg>
