<svg width="40" height="40" viewBox="0 0 40 40" fill="none" xmlns="http://www.w3.org/2000/svg">
<path d="M27.9951 26.7626C27.9951 31.0769 23.975 35.6854 19.8567 35.6854C15.7385 35.6854 11.8164 31.0769 11.8164 26.7626C11.8164 22.4483 18.6801 18.0359 19.8567 18.0359C21.0334 18.0359 27.9951 22.4483 27.9951 26.7626Z" stroke="#015F45" stroke-linecap="round" stroke-linejoin="round"/>
<path d="M11.8163 26.7626C11.8163 26.7626 5.44286 19.2126 9.16887 14.8982C12.8949 10.5839 21.7196 8.42676 21.7196 8.42676" stroke="#015F45" stroke-linecap="round" stroke-linejoin="round"/>
<path d="M8.58105 15.7807C8.58105 15.7807 9.75769 3.52406 18.6805 4.01433C23.1909 4.30848 24.7598 6.46564 25.3481 8.52475C25.5569 9.54462 25.5047 10.6007 25.1961 11.595C24.8875 12.5892 24.3327 13.4894 23.5831 14.2118L19.8571 18.0359" stroke="#015F45" stroke-linecap="round" stroke-linejoin="round"/>
<path d="M25.4463 9.01514C25.4463 9.01514 32.9964 11.4665 32.9964 17.2516C32.8983 21.2717 27.9957 26.7627 27.9957 26.7627" stroke="#015F45" stroke-linecap="round" stroke-linejoin="round"/>
</svg>
