<svg width="60" height="60" viewBox="0 0 60 60" fill="none" xmlns="http://www.w3.org/2000/svg">
<path d="M51.3004 30.4501C49.6504 39.6001 41.7004 45.9001 32.8504 45.9001C31.6504 45.9001 30.6004 45.7501 29.4004 45.6001C31.3504 43.6501 32.8504 41.4001 33.9004 39.1501C33.9004 39.0001 34.0504 38.8501 34.0504 38.7001C34.5004 37.8001 34.8004 36.9001 35.1004 36.0001C35.2504 35.7001 35.2504 35.2501 35.4004 34.9501C36.6004 33.9001 37.8004 33.0001 39.1504 32.2501C42.9004 30.4501 47.1004 29.7001 51.3004 30.4501Z" stroke="white" stroke-miterlimit="10" stroke-linecap="round" stroke-linejoin="round"/>
<path d="M29.4 45.6001C28.2 45.7501 27.15 45.9001 25.95 45.9001C16.95 45.9001 9.15 39.6001 7.5 30.4501C11.85 29.7001 16.05 30.4501 19.5 32.2501C20.85 33.0001 22.2 33.9001 23.25 34.9501C23.4 35.2501 23.4 35.7001 23.55 36.0001C23.85 36.9001 24.15 37.8001 24.45 38.7001C24.45 38.8501 24.6 39.0001 24.6 39.1501C25.95 41.4001 27.45 43.6501 29.4 45.6001Z" stroke="white" stroke-miterlimit="10" stroke-linecap="round" stroke-linejoin="round"/>
<path d="M36.0003 29.55C36.0003 31.35 35.8503 33.15 35.4003 34.95C35.2503 35.25 35.2504 35.7 35.1004 36C34.8004 36.9 34.5003 37.8 34.0503 38.7C34.0503 38.85 33.9003 39 33.9003 39.15C32.8503 41.55 31.2003 43.65 29.4003 45.6C27.4503 43.65 25.9503 41.4 24.9003 39.15C24.9003 39 24.7503 38.85 24.7503 38.7C24.3003 37.8 24.0004 36.9 23.8504 36C23.7004 35.7 23.7003 35.25 23.5503 34.95C22.5003 30.75 22.8003 26.25 24.1503 22.2C25.2003 19.05 27.0003 16.05 29.5503 13.5C32.1003 16.05 33.9004 19.05 34.9504 22.2C35.7004 24.6 36.0003 27 36.0003 29.55Z" stroke="white" stroke-miterlimit="10" stroke-linecap="round" stroke-linejoin="round"/>
<path d="M43.8002 19.9502C43.8002 24.6002 42.1502 28.9502 39.3002 32.2502C37.9502 33.0002 36.6002 33.9002 35.5502 34.9502C36.0002 33.1502 36.1502 31.3502 36.1502 29.5502C36.1502 27.0002 35.7002 24.6002 34.9502 22.2002C37.5002 20.7002 40.5002 19.9502 43.8002 19.9502Z" stroke="white" stroke-miterlimit="10" stroke-linecap="round" stroke-linejoin="round"/>
<path d="M23.4004 34.9502C22.2004 33.9002 21.0004 33.0002 19.6504 32.2502C16.8004 28.9502 15.1504 24.6002 15.1504 19.9502C18.3004 19.9502 21.4504 20.7002 24.0004 22.2002C22.5004 26.2502 22.3504 30.7502 23.4004 34.9502Z" stroke="white" stroke-miterlimit="10" stroke-linecap="round" stroke-linejoin="round"/>
</svg>
