<svg width="40" height="40" viewBox="0 0 40 40" fill="none" xmlns="http://www.w3.org/2000/svg">
<path d="M19.4123 36.7301H7.99543L6.94558 16.3896C6.81435 14.29 8.52034 12.584 10.4888 12.584H16.919C19.0186 12.584 20.5934 14.29 20.4622 16.3896L19.4123 36.7301Z" stroke="#015F45" stroke-miterlimit="10" stroke-linecap="round" stroke-linejoin="round"/>
<path d="M17.4439 7.46606H9.96387V12.7152H17.4439V7.46606Z" stroke="#015F45" stroke-miterlimit="10" stroke-linecap="round" stroke-linejoin="round"/>
<path d="M16.1309 31.2183H11.5379L10.2256 18.6204H17.312L16.1309 31.2183Z" stroke="#015F45" stroke-miterlimit="10" stroke-linecap="round" stroke-linejoin="round"/>
<path d="M19.5439 34.4994H32.6668V15.34C32.6668 13.3716 31.0921 11.7969 29.1237 11.7969H23.4808C21.9061 11.7969 20.4625 12.8467 20.0689 14.4214" stroke="#015F45" stroke-miterlimit="10" stroke-linecap="round" stroke-linejoin="round"/>
<path d="M30.3036 11.7968H22.0361V4.7104C24.7919 3.92303 27.5478 3.92303 30.3036 4.7104V11.7968Z" stroke="#015F45" stroke-miterlimit="10" stroke-linecap="round" stroke-linejoin="round"/>
</svg>
