<svg width="40" height="40" viewBox="0 0 40 40" fill="none" xmlns="http://www.w3.org/2000/svg">
<path d="M1.70563 25.7713L14.1465 9.9148C14.8917 9.02017 15.8231 8.29642 16.8766 7.79327C17.9301 7.29012 19.0808 7.0195 20.2495 7H34.803C35.5778 7.00513 36.3363 7.22183 36.9955 7.62641C37.6547 8.03098 38.1893 8.60785 38.5406 9.29392C38.892 9.97998 39.0467 10.7488 38.9878 11.5164C38.9289 12.2839 38.6586 13.0205 38.2066 13.6457L25.7657 30.6682C25.2311 31.3766 24.5411 31.9548 23.748 32.3589C22.9549 32.7629 22.0796 32.9822 21.1885 33H5.81345C4.53723 33 3.31327 32.4964 2.41084 31.5999C1.50841 30.7034 1.00143 29.4875 1.00143 28.2197C0.985775 27.5822 1.09867 26.9481 1.33348 26.3546C1.56829 25.7611 1.92026 25.2203 2.36866 24.7639C2.81707 24.3076 3.35285 23.9451 3.94445 23.6976C4.53606 23.4501 5.17153 23.3227 5.81345 23.3229H20.6016C21.4527 23.3531 22.2587 23.7103 22.8498 24.3193C23.441 24.9283 23.7711 25.7415 23.7705 26.5874C23.7711 27.4334 23.441 28.2466 22.8498 28.8556C22.2587 29.4646 21.4527 29.8218 20.6016 29.852H5.34399C5.13335 29.8526 4.92487 29.8099 4.73167 29.7266C4.53846 29.6432 4.36473 29.521 4.2214 29.3677C4.07807 29.2144 3.96825 29.0332 3.89887 28.8356C3.82948 28.6381 3.80202 28.4284 3.81823 28.2197C3.81823 27.8177 3.97898 27.4322 4.26511 27.148C4.55125 26.8637 4.93933 26.704 5.34399 26.704H20.6016" stroke="#015F45" stroke-miterlimit="10" stroke-linecap="round"/>
</svg>
