<svg width="40" height="40" viewBox="0 0 40 40" fill="none" xmlns="http://www.w3.org/2000/svg">
<path d="M19.4123 36.7301H7.99543L6.94558 16.3896C6.81435 14.29 8.52034 12.584 10.4888 12.584H16.919C19.0186 12.584 20.5934 14.29 20.4622 16.3896L19.4123 36.7301Z" stroke="#015F45" stroke-miterlimit="10" stroke-linecap="round" stroke-linejoin="round"/>
<path d="M17.4439 7.46606H9.96387V12.7152H17.4439V7.46606Z" stroke="#015F45" stroke-miterlimit="10" stroke-linecap="round" stroke-linejoin="round"/>
<path d="M16.1319 31.2186H11.5388L10.2266 18.6206H17.3129L16.1319 31.2186Z" stroke="#015F45" stroke-miterlimit="10" stroke-linecap="round" stroke-linejoin="round"/>
<path d="M19.543 34.4994H32.6658V15.34C32.6658 13.3716 31.0911 11.7969 29.1227 11.7969H23.4798C21.9051 11.7969 20.4616 12.8467 20.0679 14.4214" stroke="#015F45" stroke-miterlimit="10" stroke-linecap="round" stroke-linejoin="round"/>
<path d="M30.3045 11.7968H22.0371V4.7104C24.7929 3.92303 27.5487 3.92303 30.3045 4.7104V11.7968Z" stroke="#015F45" stroke-miterlimit="10" stroke-linecap="round" stroke-linejoin="round"/>
</svg>
