<svg width="32" height="32" viewBox="0 0 32 32" fill="none" xmlns="http://www.w3.org/2000/svg">
<rect width="32" height="32" rx="16" fill="#015F45"/>
<path d="M25.0279 9.48993C24.7972 9.23409 24.5084 9.02834 24.182 8.88726C23.8555 8.74619 23.4995 8.67327 23.1391 8.67368H9.87936L9.84491 8.40766C9.77442 7.85471 9.48684 7.34489 9.03667 6.97484C8.58651 6.60479 8.00507 6.40025 7.40258 6.39999H7.22052C7.003 6.39999 6.7944 6.47984 6.6406 6.62198C6.4868 6.76411 6.40039 6.95688 6.40039 7.15789C6.40039 7.35889 6.4868 7.55167 6.6406 7.6938C6.7944 7.83593 7.003 7.91578 7.22052 7.91578H7.40258C7.60346 7.91581 7.79734 7.98396 7.94745 8.10731C8.09756 8.23067 8.19346 8.40065 8.21697 8.585L9.34546 17.4524C9.46262 18.3746 9.94208 19.2249 10.6928 19.842C11.4436 20.4591 12.4134 20.8 13.4182 20.8H21.9828C22.2003 20.8 22.4089 20.7201 22.5627 20.578C22.7165 20.4359 22.8029 20.2431 22.8029 20.0421C22.8029 19.8411 22.7165 19.6483 22.5627 19.5062C22.4089 19.3641 22.2003 19.2842 21.9828 19.2842H13.4182C12.9106 19.2829 12.4158 19.1365 12.0018 18.8651C11.5877 18.5938 11.2746 18.2107 11.1054 17.7684H20.8813C21.8428 17.7685 22.7736 17.4563 23.5113 16.8866C24.249 16.3168 24.7466 15.5256 24.9172 14.6512L25.561 11.3513C25.6252 11.0239 25.6108 10.6875 25.5187 10.3658C25.4265 10.0441 25.259 9.7451 25.0279 9.48993ZM23.9511 11.0823L23.3064 14.3821C23.204 14.9074 22.905 15.3826 22.4616 15.7245C22.0182 16.0665 21.4588 16.2534 20.8813 16.2526H10.8446L10.0729 10.1895H23.1391C23.2596 10.1888 23.3788 10.2127 23.4881 10.2594C23.5975 10.3061 23.6944 10.3745 23.7719 10.4597C23.8494 10.545 23.9056 10.6449 23.9366 10.7525C23.9676 10.8601 23.9725 10.9727 23.9511 11.0823Z" fill="white"/>
<path d="M12.8002 25.6C13.6839 25.6 14.4002 24.8836 14.4002 24C14.4002 23.1163 13.6839 22.4 12.8002 22.4C11.9165 22.4 11.2002 23.1163 11.2002 24C11.2002 24.8836 11.9165 25.6 12.8002 25.6Z" fill="white"/>
<path d="M20.8002 25.6C21.6839 25.6 22.4002 24.8836 22.4002 24C22.4002 23.1163 21.6839 22.4 20.8002 22.4C19.9165 22.4 19.2002 23.1163 19.2002 24C19.2002 24.8836 19.9165 25.6 20.8002 25.6Z" fill="white"/>
</svg>
