<svg width="20" height="20" viewBox="0 0 20 20" fill="none" xmlns="http://www.w3.org/2000/svg">
<path fill-rule="evenodd" clip-rule="evenodd" d="M10.0091 0.72728C9.95487 0.72478 9.90171 0.742807 9.86021 0.777768C9.8187 0.812729 9.79191 0.862053 9.78516 0.915899L9.22234 5.44441L8.80527 8.80351L5.44417 9.22268L0.915746 9.78553C0.863533 9.79198 0.815481 9.8173 0.780638 9.85672C0.745794 9.89614 0.726563 9.94693 0.726562 9.99955C0.726562 10.0522 0.745794 10.103 0.780638 10.1424C0.815481 10.1818 0.863533 10.2071 0.915746 10.2136L5.44417 10.7764L8.80527 11.1956L9.22234 14.5547L9.78516 19.0832C9.79169 19.1353 9.81703 19.1833 9.85644 19.2181C9.89584 19.2529 9.94659 19.2721 9.99915 19.2721C10.0517 19.2721 10.1025 19.2529 10.1419 19.2181C10.1813 19.1833 10.2066 19.1353 10.2131 19.0832L10.7781 14.5547L11.1952 11.1955L14.5542 10.7764L19.0826 10.2136C19.1348 10.2071 19.1828 10.1818 19.2177 10.1424C19.2525 10.103 19.2717 10.0522 19.2717 9.99955C19.2717 9.94693 19.2525 9.89614 19.2177 9.85672C19.1828 9.8173 19.1348 9.79198 19.0826 9.78553L14.5542 9.22268L11.1952 8.80357L10.7781 5.44441C10.7781 5.44434 10.7781 5.44426 10.7781 5.44419L10.2131 0.915676C10.2068 0.865237 10.1829 0.818664 10.1455 0.784164C10.1082 0.749665 10.0599 0.729618 10.0091 0.72728Z" fill="#015F45"/>
</svg>
