<svg width="20" height="21" viewBox="0 0 20 21" fill="none" xmlns="http://www.w3.org/2000/svg">
<g clip-path="url(#clip0_329_7988)">
<path d="M14.5815 0.5C13.6435 0.515775 12.726 0.798881 11.9215 1.32073C11.1171 1.84258 10.4543 2.58469 10 3.47212C9.54572 2.58469 8.8829 1.84258 8.07847 1.32073C7.27405 0.798881 6.35651 0.515775 5.41852 0.5C3.92324 0.570242 2.51444 1.27748 1.49991 2.46721C0.485388 3.65695 -0.0524034 5.23245 0.00403263 6.84954C0.00403263 10.9448 3.99076 15.4174 7.33441 18.4498C8.08096 19.1281 9.02486 19.5 10 19.5C10.9751 19.5 11.919 19.1281 12.6656 18.4498C16.0092 15.4174 19.996 10.9448 19.996 6.84954C20.0524 5.23245 19.5146 3.65695 18.5001 2.46721C17.4856 1.27748 16.0768 0.570242 14.5815 0.5ZM11.5952 17.0718C11.1487 17.4784 10.5837 17.7013 10 17.7013C9.41628 17.7013 8.85131 17.4784 8.40481 17.0718C4.12487 13.1892 1.67003 9.46411 1.67003 6.84954C1.61308 5.70997 1.97521 4.59228 2.67742 3.74025C3.37964 2.88821 4.36497 2.37095 5.41852 2.30129C6.47206 2.37095 7.45739 2.88821 8.15961 3.74025C8.86182 4.59228 9.22395 5.70997 9.167 6.84954C9.167 7.0884 9.25477 7.31748 9.41098 7.48639C9.5672 7.65529 9.77908 7.75018 10 7.75018C10.2209 7.75018 10.4328 7.65529 10.589 7.48639C10.7452 7.31748 10.833 7.0884 10.833 6.84954C10.7761 5.70997 11.1382 4.59228 11.8404 3.74025C12.5426 2.88821 13.5279 2.37095 14.5815 2.30129C15.635 2.37095 16.6204 2.88821 17.3226 3.74025C18.0248 4.59228 18.3869 5.70997 18.33 6.84954C18.33 9.46411 15.8751 13.1892 11.5952 17.0682V17.0718Z" fill="#015F45"/>
</g>
<defs>
<clipPath id="clip0_329_7988">
<rect width="20" height="20" fill="white" transform="translate(0 0.5)"/>
</clipPath>
</defs>
</svg>
