<svg width="20" height="20" viewBox="0 0 20 20" fill="none" xmlns="http://www.w3.org/2000/svg">
<g clip-path="url(#clip0_116_1479)">
<path d="M10.0003 5C9.34106 5 8.69659 5.1955 8.14843 5.56177C7.60026 5.92804 7.17302 6.44863 6.92073 7.05772C6.66844 7.66681 6.60243 8.33703 6.73104 8.98363C6.85966 9.63024 7.17713 10.2242 7.6433 10.6904C8.10948 11.1565 8.70342 11.474 9.35003 11.6026C9.99663 11.7312 10.6669 11.6652 11.2759 11.4129C11.885 11.1606 12.4056 10.7334 12.7719 10.1852C13.1382 9.63707 13.3337 8.9926 13.3337 8.33333C13.3337 7.44928 12.9825 6.60143 12.3574 5.97631C11.7322 5.35119 10.8844 5 10.0003 5ZM10.0003 10C9.67069 10 9.34846 9.90225 9.07438 9.71912C8.8003 9.53598 8.58667 9.27568 8.46053 8.97114C8.33438 8.6666 8.30138 8.33148 8.36569 8.00818C8.42999 7.68488 8.58873 7.38791 8.82182 7.15482C9.0549 6.92173 9.35188 6.763 9.67518 6.69869C9.99848 6.63438 10.3336 6.66739 10.6381 6.79353C10.9427 6.91968 11.203 7.1333 11.3861 7.40738C11.5692 7.68147 11.667 8.0037 11.667 8.33333C11.667 8.77536 11.4914 9.19928 11.1788 9.51184C10.8663 9.82441 10.4424 10 10.0003 10Z" fill="white"/>
<path d="M10.0003 19.9997C9.29855 20.0033 8.60619 19.8387 7.98115 19.5198C7.35611 19.2008 6.81659 18.7367 6.40776 18.1664C3.23193 13.7855 1.62109 10.4922 1.62109 8.37721C1.62109 6.15492 2.5039 4.02365 4.07529 2.45225C5.64669 0.88085 7.77797 -0.00195312 10.0003 -0.00195312C12.2226 -0.00195312 14.3538 0.88085 15.9252 2.45225C17.4966 4.02365 18.3794 6.15492 18.3794 8.37721C18.3794 10.4922 16.7686 13.7855 13.5928 18.1664C13.1839 18.7367 12.6444 19.2008 12.0194 19.5198C11.3943 19.8387 10.702 20.0033 10.0003 19.9997ZM10.0003 1.81721C8.26061 1.8192 6.59277 2.51115 5.36265 3.74127C4.13253 4.9714 3.44058 6.63923 3.43859 8.37888C3.43859 10.0539 5.01609 13.1514 7.87943 17.1005C8.12251 17.4354 8.4414 17.7079 8.81002 17.8958C9.17864 18.0837 9.58651 18.1816 10.0003 18.1816C10.414 18.1816 10.8219 18.0837 11.1905 17.8958C11.5591 17.7079 11.878 17.4354 12.1211 17.1005C14.9844 13.1514 16.5619 10.0539 16.5619 8.37888C16.5599 6.63923 15.868 4.9714 14.6379 3.74127C13.4077 2.51115 11.7399 1.8192 10.0003 1.81721Z" fill="white"/>
</g>
<defs>
<clipPath id="clip0_116_1479">
<rect width="20" height="20" fill="white"/>
</clipPath>
</defs>
</svg>
