<svg width="14" height="16" viewBox="0 0 14 16" fill="none" xmlns="http://www.w3.org/2000/svg">
<path d="M6.99941 4.00146C6.44867 4.00146 5.91031 4.15785 5.45239 4.45084C4.99447 4.74383 4.63756 5.16027 4.42681 5.6475C4.21605 6.13473 4.16091 6.67086 4.26835 7.1881C4.37579 7.70534 4.641 8.18045 5.03042 8.55336C5.41985 8.92626 5.91601 9.18022 6.45616 9.2831C6.99632 9.38599 7.5562 9.33318 8.06501 9.13137C8.57382 8.92955 9.00871 8.58779 9.31468 8.14929C9.62065 7.7108 9.78396 7.19527 9.78396 6.6679C9.78396 5.96072 9.49059 5.2825 8.96839 4.78245C8.44618 4.28239 7.73792 4.00146 6.99941 4.00146ZM6.99941 8.00112C6.72404 8.00112 6.45486 7.92293 6.2259 7.77643C5.99694 7.62994 5.81848 7.42172 5.71311 7.1781C5.60773 6.93449 5.58016 6.66642 5.63388 6.4078C5.6876 6.14918 5.8202 5.91163 6.01491 5.72517C6.20963 5.53872 6.45771 5.41174 6.72778 5.3603C6.99786 5.30886 7.2778 5.33526 7.53221 5.43617C7.78661 5.53708 8.00406 5.70796 8.15704 5.92721C8.31003 6.14645 8.39169 6.40422 8.39169 6.6679C8.39169 7.02149 8.245 7.3606 7.9839 7.61063C7.72279 7.86066 7.36866 8.00112 6.99941 8.00112Z" fill="white"/>
<path d="M6.99969 16C6.4135 16.0028 5.83512 15.8712 5.31299 15.616C4.79085 15.3609 4.34015 14.9896 3.99863 14.5334C1.34564 11.029 0 8.39461 0 6.70276C0 4.92507 0.737465 3.2202 2.05016 1.96319C3.36286 0.706181 5.14325 0 6.99969 0C8.85612 0 10.6365 0.706181 11.9492 1.96319C13.2619 3.2202 13.9994 4.92507 13.9994 6.70276C13.9994 8.39461 12.6537 11.029 10.0007 14.5334C9.65922 14.9896 9.20852 15.3609 8.68639 15.616C8.16425 15.8712 7.58588 16.0028 6.99969 16ZM6.99969 1.45521C5.54644 1.4568 4.15318 2.01031 3.12558 2.99432C2.09798 3.97833 1.51994 5.31249 1.51828 6.70409C1.51828 8.04397 2.83607 10.5218 5.22801 13.6808C5.43107 13.9486 5.69747 14.1666 6.0054 14.3169C6.31333 14.4673 6.65406 14.5456 6.99969 14.5456C7.34532 14.5456 7.68604 14.4673 7.99397 14.3169C8.30191 14.1666 8.5683 13.9486 8.77136 13.6808C11.1633 10.5218 12.4811 8.04397 12.4811 6.70409C12.4794 5.31249 11.9014 3.97833 10.8738 2.99432C9.84619 2.01031 8.45294 1.4568 6.99969 1.45521Z" fill="white"/>
</svg>
