<svg width="24" height="24" viewBox="0 0 24 24" fill="none" xmlns="http://www.w3.org/2000/svg">
<path d="M8.20986 5.29014C8.11613 5.3831 8.04174 5.4937 7.99097 5.61556C7.9402 5.73742 7.91406 5.86812 7.91406 6.00014C7.91406 6.13215 7.9402 6.26285 7.99097 6.38471C8.04174 6.50657 8.11613 6.61717 8.20986 6.71014L12.7899 11.2901C12.8836 11.3831 12.958 11.4937 13.0087 11.6156C13.0595 11.7374 13.0856 11.8681 13.0856 12.0001C13.0856 12.1321 13.0595 12.2629 13.0087 12.3847C12.958 12.5066 12.8836 12.6172 12.7899 12.7101L8.20986 17.2901C8.11613 17.3831 8.04174 17.4937 7.99097 17.6156C7.9402 17.7374 7.91406 17.8681 7.91406 18.0001C7.91406 18.1322 7.9402 18.2629 7.99097 18.3847C8.04174 18.5066 8.11613 18.6172 8.20986 18.7101C8.39722 18.8964 8.65067 19.0009 8.91486 19.0009C9.17904 19.0009 9.4325 18.8964 9.61986 18.7101L14.2098 14.1201C14.7716 13.5576 15.0872 12.7951 15.0872 12.0001C15.0872 11.2051 14.7716 10.4426 14.2098 9.88014L9.61986 5.29014C9.43249 5.10389 9.17904 4.99934 8.91486 4.99934C8.65067 4.99934 8.39722 5.10389 8.20986 5.29014Z" fill="#171A19"/>
</svg>
