<svg width="100" height="100" viewBox="0 0 100 100" fill="none" xmlns="http://www.w3.org/2000/svg">
<g id="Basket">
<path id="Vector" d="M16.4694 47.0156C15.3913 47.0156 14.3444 46.6563 13.485 45.9688C12.9848 45.5803 12.5678 45.0952 12.2591 44.5422C11.9504 43.9892 11.7562 43.3797 11.6881 42.75C11.5319 41.4688 11.8913 40.2031 12.6881 39.1875L34.5631 11.4844C34.8201 11.1958 35.1776 11.0163 35.5626 10.9825C35.9475 10.9487 36.3309 11.0633 36.6342 11.3027C36.9375 11.5422 37.1378 11.8884 37.1943 12.2707C37.2509 12.653 37.1592 13.0424 36.9381 13.3594L15.0631 41.0625C14.8444 41.3428 14.7133 41.6814 14.6861 42.0358C14.659 42.3903 14.7371 42.7449 14.9106 43.0552C15.0841 43.3655 15.3453 43.6177 15.6615 43.7802C15.9777 43.9427 16.3348 44.0083 16.6881 43.9688C17.1725 43.9063 17.5944 43.6719 17.8913 43.2969L39.7819 15.5938C40.0389 15.3052 40.3964 15.1256 40.7813 15.0919C41.1663 15.0581 41.5496 15.1727 41.8529 15.4121C42.1562 15.6516 42.3566 15.9978 42.4131 16.3801C42.4696 16.7624 42.3779 17.1518 42.1569 17.4688L20.2663 45.1719C19.4694 46.1875 18.3288 46.8281 17.0475 46.9688C16.86 47 16.6569 47.0156 16.4694 47.0156Z" fill="#639B8B"/>
<path id="Vector_2" d="M40.6869 18.0469C39.2182 18.0469 37.8119 17.5625 36.6401 16.6406C35.9638 16.1083 35.399 15.4479 34.978 14.6973C34.557 13.9466 34.288 13.1203 34.1864 12.2657C34.0848 11.411 34.1527 10.5447 34.386 9.71629C34.6193 8.88785 35.0136 8.11351 35.5463 7.4375C36.6244 6.0625 38.1869 5.1875 39.9213 4.98437C41.2087 4.83044 42.5129 5.06197 43.6686 5.64964C44.8243 6.23731 45.7797 7.1547 46.4138 8.28566C47.0479 9.41661 47.3321 10.7103 47.2305 12.0029C47.129 13.2955 46.6461 14.5288 45.8432 15.5469C44.7651 16.9219 43.2026 17.7969 41.4682 18C41.2026 18.0312 40.9526 18.0469 40.6869 18.0469ZM40.7182 7.96875C40.5776 7.96875 40.4369 7.96875 40.2963 8C39.8362 8.05215 39.3909 8.19473 38.9861 8.41954C38.5813 8.64434 38.2249 8.94694 37.9374 9.30995C37.6499 9.67295 37.4369 10.0892 37.3108 10.5348C37.1847 10.9803 37.1479 11.4464 37.2026 11.9062C37.2547 12.3664 37.3973 12.8116 37.6221 13.2165C37.8469 13.6213 38.1495 13.9777 38.5125 14.2652C38.8755 14.5527 39.2918 14.7656 39.7373 14.8917C40.1829 15.0178 40.649 15.0546 41.1088 15C41.5689 14.9478 42.0142 14.8053 42.419 14.5805C42.8239 14.3557 43.1803 14.0531 43.4678 13.69C43.7553 13.327 43.9682 12.9108 44.0943 12.4652C44.2204 12.0197 44.2572 11.5536 44.2026 11.0937C44.1015 10.2381 43.6918 9.44867 43.0504 8.87339C42.409 8.29812 41.5798 7.97648 40.7182 7.96875ZM83.5307 47.0156C83.3432 47.0156 83.1557 47 82.9526 46.9844C81.6713 46.8281 80.5307 46.1875 79.7338 45.1875L57.8432 17.4687C57.6221 17.1518 57.5305 16.7624 57.587 16.3801C57.6435 15.9978 57.8439 15.6516 58.1472 15.4121C58.4505 15.1727 58.8338 15.0581 59.2187 15.0919C59.6037 15.1256 59.9612 15.3052 60.2182 15.5937L82.1088 43.2969C82.4058 43.671 82.8388 43.9122 83.3132 43.9679C83.7875 44.0235 84.2646 43.889 84.6401 43.5938C85.0142 43.2968 85.2554 42.8638 85.3111 42.3894C85.3667 41.915 85.2322 41.4379 84.9369 41.0625L63.0619 13.3594C62.8409 13.0424 62.7492 12.653 62.8057 12.2707C62.8622 11.8884 63.0626 11.5422 63.3659 11.3027C63.6692 11.0633 64.0525 10.9487 64.4375 10.9825C64.8224 11.0163 65.18 11.1958 65.4369 11.4844L87.3119 39.1875C88.1088 40.2031 88.4682 41.4688 88.3119 42.75C88.1721 43.9217 87.609 45.0019 86.7285 45.7875C85.8479 46.5731 84.7107 47.0098 83.5307 47.0156Z" fill="#639B8B"/>
<path id="Vector_3" d="M59.3125 18.0469C59.0469 18.0469 58.7969 18.0312 58.5312 18C57.6758 17.9015 56.8485 17.6339 56.0974 17.2128C55.3463 16.7916 54.6865 16.2254 54.1562 15.5469C53.6204 14.8727 53.2242 14.0985 52.9908 13.2696C52.7574 12.4406 52.6915 11.5735 52.7969 10.7187C53 8.98437 53.875 7.42187 55.25 6.34375C56.625 5.26562 58.3438 4.78125 60.0781 4.98437C61.8125 5.1875 63.375 6.0625 64.4531 7.4375C65.5312 8.8125 66.0312 10.5312 65.8125 12.2656C65.714 13.1211 65.4464 13.9484 65.0253 14.6995C64.6041 15.4506 64.0379 16.1104 63.3594 16.6406C62.1875 17.5625 60.7812 18.0469 59.3125 18.0469ZM59.2812 7.96875C58.5 7.96875 57.7344 8.23437 57.1094 8.73437C56.375 9.3125 55.9062 10.1562 55.7969 11.0937C55.6875 12.0312 55.9531 12.9531 56.5312 13.6875C57.1094 14.4219 57.9531 14.8906 58.8906 15C59.3505 15.0546 59.8165 15.0178 60.2621 14.8917C60.7077 14.7656 61.1239 14.5527 61.4869 14.2652C61.8499 13.9777 62.1525 13.6213 62.3773 13.2165C62.6021 12.8116 62.7447 12.3664 62.7969 11.9062C62.8515 11.4464 62.8147 10.9803 62.6886 10.5348C62.5625 10.0892 62.3496 9.67295 62.0621 9.30995C61.7746 8.94695 61.4182 8.64434 61.0133 8.41954C60.6085 8.19473 60.1632 8.05215 59.7031 8C59.5625 7.98437 59.4219 7.96875 59.2812 7.96875ZM95.4531 52.625H4.54688C2.04688 52.625 0 50.5938 0 48.0781V42.2812C0 39.7812 2.03125 37.7344 4.54688 37.7344H14.5781C15.4219 37.7344 16.0938 38.4062 16.0938 39.25C16.0938 40.0938 15.4219 40.7656 14.5781 40.7656H4.54688C4.14491 40.7656 3.7594 40.9253 3.47517 41.2095C3.19093 41.4938 3.03125 41.8793 3.03125 42.2812V48.0781C3.03125 48.9062 3.71875 49.5937 4.54688 49.5937H95.4531C96.2812 49.5937 96.9688 48.9219 96.9688 48.0781V42.2812C96.9688 41.8793 96.8091 41.4938 96.5248 41.2095C96.2406 40.9253 95.8551 40.7656 95.4531 40.7656H85.4062C84.5625 40.7656 83.8906 40.0938 83.8906 39.25C83.8906 38.4062 84.5625 37.7344 85.4062 37.7344H95.4531C97.9531 37.7344 100 39.7656 100 42.2812V48.0781C100 50.5781 97.9688 52.625 95.4531 52.625Z" fill="#639B8B"/>
<path id="Vector_4" d="M76.97 40.75H23.0325C22.1888 40.75 21.5169 40.0781 21.5169 39.2344C21.5169 38.3906 22.1888 37.7188 23.0325 37.7188H76.97C77.8138 37.7188 78.4856 38.3906 78.4856 39.2344C78.4856 40.0781 77.8138 40.75 76.97 40.75ZM80.3606 95.0625H19.6419C16.845 95.0625 14.4232 93.1719 13.7669 90.4531L4.09503 51.4687C3.9986 51.0772 4.06118 50.6634 4.26909 50.3179C4.47699 49.9723 4.81329 49.7232 5.2044 49.625C5.39729 49.5774 5.59768 49.5684 5.79406 49.5985C5.99044 49.6285 6.17896 49.697 6.34881 49.8001C6.51865 49.9032 6.66647 50.0388 6.7838 50.1991C6.90113 50.3594 6.98566 50.5413 7.03253 50.7344L16.7044 89.7188C17.0325 91.0781 18.2513 92.0156 19.6419 92.0156H80.3606C81.7513 92.0156 82.97 91.0625 83.2981 89.7188L92.97 50.7344C93.1731 49.9219 94.0013 49.4375 94.7981 49.625C95.6106 49.8281 96.1106 50.6562 95.9075 51.4687L86.2356 90.4531C85.916 91.7694 85.1627 92.9399 84.097 93.776C83.0313 94.6122 81.7152 95.0653 80.3606 95.0625Z" fill="#639B8B"/>
<path id="Vector_5" d="M49.9982 85.9219C47.4982 85.9219 45.4513 83.8906 45.4513 81.375V61.2969C45.4513 58.7969 47.4826 56.75 49.9982 56.75C52.4982 56.75 54.5451 58.7969 54.5451 61.2969V81.375C54.5451 83.875 52.4982 85.9219 49.9982 85.9219ZM49.9982 59.7812C49.5962 59.7812 49.2107 59.9409 48.9265 60.2252C48.6422 60.5094 48.4826 60.8949 48.4826 61.2969V81.375C48.4826 81.777 48.6422 82.1625 48.9265 82.4467C49.2107 82.7309 49.5962 82.8906 49.9982 82.8906C50.4002 82.8906 50.7857 82.7309 51.0699 82.4467C51.3541 82.1625 51.5138 81.777 51.5138 81.375V61.2969C51.5138 60.4531 50.8419 59.7812 49.9982 59.7812ZM67.7638 85.7969C67.4669 85.7969 67.1857 85.7656 66.8888 85.7188C65.7013 85.4844 64.6701 84.7969 63.9982 83.7969C63.3263 82.7969 63.0763 81.5781 63.3107 80.3906L67.1857 60.5469C67.4201 59.3594 68.1076 58.3281 69.1076 57.6406C70.1232 56.9687 71.3263 56.7188 72.5138 56.9531C74.9669 57.4375 76.5763 59.8281 76.1076 62.2813L72.2326 82.125C72.0259 83.1588 71.468 84.0892 70.6535 84.7584C69.839 85.4277 68.818 85.7946 67.7638 85.7969ZM71.6232 59.8906C71.3263 59.8906 71.0294 59.9844 70.7794 60.1563C70.4357 60.375 70.2169 60.7187 70.1388 61.125L66.2638 80.9688C66.1857 81.3594 66.2638 81.7656 66.4982 82.1094C66.7169 82.4375 67.0607 82.6719 67.4669 82.75C68.3263 82.9062 69.0919 82.3594 69.2482 81.5469L73.1232 61.7031C73.1989 61.3075 73.1148 60.898 72.8893 60.5641C72.6639 60.2303 72.3154 59.9994 71.9201 59.9219C71.8263 59.9062 71.7326 59.8906 71.6232 59.8906ZM32.2326 85.7969C30.0607 85.7969 28.1857 84.25 27.7794 82.125L23.9044 62.2813C23.7323 61.3989 23.8256 60.4854 24.1727 59.6561C24.5197 58.8268 25.1048 58.1191 25.8541 57.6224C26.6034 57.1257 27.4831 56.8623 28.382 56.8655C29.281 56.8688 30.1588 57.1385 30.9044 57.6406C31.9201 58.3125 32.5919 59.3438 32.8263 60.5469L36.7013 80.3906C36.9357 81.5781 36.6857 82.7969 36.0138 83.7969C35.5978 84.4166 35.0347 84.9236 34.3748 85.2726C33.715 85.6216 32.979 85.8018 32.2326 85.7969ZM28.3732 59.8906C28.2794 59.8906 28.1857 59.9062 28.0763 59.9219C27.8801 59.9593 27.6932 60.0352 27.5264 60.1451C27.3596 60.255 27.2162 60.3968 27.1044 60.5623C26.9925 60.7279 26.9146 60.9139 26.8749 61.1096C26.8352 61.3054 26.8346 61.5071 26.8732 61.7031L30.7482 81.5469C30.9044 82.3594 31.7013 82.9062 32.5294 82.75C32.9357 82.6719 33.2794 82.4375 33.4982 82.1094C33.7169 81.7812 33.8107 81.375 33.7326 80.9688L29.8576 61.125C29.7794 60.7344 29.5451 60.3906 29.2169 60.1563C28.9678 59.987 28.6744 59.8946 28.3732 59.8906Z" fill="#639B8B"/>
</g>
</svg>
