<svg width="40" height="40" viewBox="0 0 40 40" fill="none" xmlns="http://www.w3.org/2000/svg">
<path d="M27.5877 17.4393C27.6788 17.0568 27.7534 16.6648 27.8103 16.2647C27.8934 15.6811 27.9368 15.076 27.9368 14.4542C27.9368 10.9328 26.5061 7.74457 24.1939 5.43748C21.8822 3.1304 18.6865 1.70292 15.1572 1.70292C11.6275 1.70292 8.43173 3.1304 6.11954 5.43748C3.80734 7.74406 2.37671 10.9328 2.37671 14.4542C2.37671 16.037 2.66334 17.5489 3.18673 18.9357C3.73027 20.3767 4.52921 21.6896 5.52713 22.813C5.67574 22.9809 5.74576 23.1915 5.73971 23.3996C5.72007 24.6602 5.29239 25.7072 4.45718 26.534C4.11463 26.8733 3.70508 27.1703 3.22955 27.4246C3.82699 27.5644 4.43551 27.6187 5.05462 27.587C6.39257 27.5191 7.79802 27.0547 9.26946 26.1927C9.51277 26.0504 9.79839 26.0429 10.0387 26.147C10.8316 26.4918 11.6678 26.7607 12.5357 26.9406C13.374 27.1145 14.2515 27.2065 15.1572 27.2065C15.6328 27.2065 16.0872 27.1824 16.5184 27.1371C16.7632 27.112 17.0085 27.0778 17.2538 27.0371C17.5928 24.5702 18.7414 22.3591 20.4229 20.6813C22.2827 18.8256 24.7959 17.6203 27.5877 17.4393ZM23.3502 31.9679C22.8792 31.9679 22.4968 31.5864 22.4968 31.1165C22.4968 30.6465 22.8792 30.265 23.3502 30.265H33.2926C33.7636 30.265 34.1459 30.6465 34.1459 31.1165C34.1459 31.5864 33.7636 31.9679 33.2926 31.9679H23.3502ZM23.3502 29.4136C22.8792 29.4136 22.4968 29.0321 22.4968 28.5621C22.4968 28.0921 22.8792 27.7106 23.3502 27.7106H33.2926C33.7636 27.7106 34.1459 28.0921 34.1459 28.5621C34.1459 29.0321 33.7636 29.4136 33.2926 29.4136H23.3502ZM23.3502 26.8592C22.8792 26.8592 22.4968 26.4777 22.4968 26.0077C22.4968 25.5378 22.8792 25.1563 23.3502 25.1563H27.0456C27.5166 25.1563 27.899 25.5378 27.899 26.0077C27.899 26.4777 27.5166 26.8592 27.0456 26.8592H23.3502ZM14.7724 19.6509C10.5978 17.5474 8.94656 15.1936 8.69317 13.2896C8.52795 12.0501 8.93195 10.987 9.63568 10.2492C10.347 9.50428 11.364 9.09665 12.4138 9.17506C13.3856 9.24794 14.3774 9.72846 15.1557 10.7322C15.9345 9.72846 16.9264 9.24794 17.8976 9.17506C18.9474 9.09665 19.964 9.50428 20.6753 10.2492C21.379 10.987 21.783 12.0501 21.6178 13.2896C21.3644 15.1936 19.7131 17.5474 15.5391 19.6509C15.2887 19.7771 15.0051 19.7675 14.7724 19.6509ZM10.3797 13.0705C10.5621 14.4416 11.8607 16.1978 15.1557 17.937C18.4502 16.1978 19.7489 14.4416 19.9312 13.0705C20.0224 12.3834 19.8119 11.8073 19.4421 11.4193C19.0794 11.0393 18.56 10.8312 18.0246 10.8709C17.2705 10.9272 16.465 11.4912 15.9456 12.7664C15.8615 12.9724 15.6978 13.1454 15.4756 13.2353C15.0399 13.4112 14.5422 13.2011 14.3659 12.7664C13.8465 11.4912 13.041 10.9272 12.2869 10.8709C11.7514 10.8312 11.2315 11.0393 10.8689 11.4193C10.4991 11.8073 10.2885 12.3834 10.3797 13.0705ZM17.1521 28.7702C16.9994 28.7913 16.8468 28.8099 16.6916 28.826C16.1723 28.8808 15.659 28.9094 15.1572 28.9094C14.1487 28.9094 13.1538 28.8039 12.1892 28.6033C11.3494 28.4294 10.5349 28.1811 9.75457 27.8675C8.1728 28.7355 6.63436 29.2075 5.14126 29.2829C3.5061 29.3658 1.93845 28.9773 0.440307 28.1173C0.233771 28.0037 0.0750908 27.8056 0.0201825 27.5578C-0.0810704 27.101 0.208583 26.6481 0.666488 26.5471C1.83568 26.2892 2.70061 25.8816 3.25725 25.3307C3.70156 24.8904 3.95796 24.336 4.02395 23.6715C2.99531 22.4536 2.16765 21.0558 1.59388 19.5338C0.996442 17.952 0.670015 16.2375 0.670015 14.4542C0.670015 10.4638 2.29208 6.84938 4.91357 4.23418C7.53557 1.61797 11.1575 0 15.1572 0C19.1565 0 22.7789 1.61848 25.3999 4.23418C28.0219 6.85038 29.6435 10.4638 29.6435 14.4542C29.6435 15.1413 29.5936 15.8269 29.4969 16.5039C29.451 16.8246 29.3941 17.1438 29.3266 17.4605C32.0101 17.6992 34.422 18.8859 36.2214 20.6813C38.3311 22.9522 39.4937 25.4196 39.4937 28.5631C39.4937 29.9378 39.2413 31.2592 38.7809 32.4796C38.3487 33.6251 37.7306 34.6786 36.9639 35.602C37.0213 36.0187 37.1916 36.3685 37.4737 36.6475C37.8666 37.0365 38.4872 37.3265 39.3335 37.513C39.7914 37.614 40.0811 38.0669 39.9798 38.5238C39.9264 38.765 39.7748 38.9591 39.5758 39.0742C38.4041 39.7517 37.1745 40.0563 35.8914 39.9915C34.757 39.9342 33.5918 39.5838 32.3979 38.942C31.8237 39.1666 31.2252 39.3461 30.6101 39.4733C29.8646 39.6286 29.0979 39.71 28.3221 39.71C25.2402 39.71 22.448 38.4615 20.4259 36.4449C18.4467 34.4731 17.207 31.7654 17.1521 28.7702ZM30.2636 37.8105C30.9063 37.6773 31.5265 37.4783 32.1128 37.222C32.3536 37.1189 32.6392 37.1265 32.8825 37.2687C33.9661 37.903 34.9988 38.2458 35.9781 38.2956C36.2466 38.3092 36.513 38.3006 36.7765 38.2695C36.5931 38.1403 36.4254 38.0005 36.2738 37.8508C35.6028 37.1863 35.2582 36.3454 35.2426 35.3366C35.237 35.129 35.3071 34.9194 35.4557 34.7515C36.1937 33.9202 36.7856 32.9486 37.1881 31.8815C37.5749 30.8561 37.787 29.7368 37.787 28.5631C37.787 26.1681 36.7846 23.5383 35.0154 21.8846C33.3032 20.1762 30.9361 19.1186 28.3221 19.1186C25.7082 19.1186 23.3411 20.1762 21.6289 21.8846C19.9166 23.5931 18.8567 25.9549 18.8567 28.5631C18.8567 31.1713 19.9166 33.5331 21.6289 35.2416C23.3396 36.95 25.7072 38.0071 28.3221 38.0071C28.9941 38.0071 29.6445 37.9392 30.2636 37.8105Z" fill="black"/>
</svg>
