<svg width="32" height="33" viewBox="0 0 32 33" fill="none" xmlns="http://www.w3.org/2000/svg">
<g clip-path="url(#clip0_1098_9807)">
<path d="M21.3339 11.1667C21.0839 10.9168 20.7448 10.7764 20.3912 10.7764C20.0377 10.7764 19.6986 10.9168 19.4486 11.1667L16.0006 14.6147L12.5526 11.1667C12.3011 10.9239 11.9643 10.7895 11.6147 10.7925C11.2651 10.7956 10.9307 10.9358 10.6835 11.183C10.4363 11.4302 10.2961 11.7646 10.293 12.1142C10.29 12.4638 10.4244 12.8006 10.6673 13.0521L14.1152 16.5001L10.6673 19.9481C10.4244 20.1996 10.29 20.5364 10.293 20.8859C10.2961 21.2355 10.4363 21.57 10.6835 21.8172C10.9307 22.0644 11.2651 22.2046 11.6147 22.2076C11.9643 22.2107 12.3011 22.0763 12.5526 21.8334L16.0006 18.3854L19.4486 21.8334C19.7 22.0763 20.0368 22.2107 20.3864 22.2076C20.736 22.2046 21.0704 22.0644 21.3177 21.8172C21.5649 21.57 21.7051 21.2355 21.7081 20.8859C21.7112 20.5364 21.5768 20.1996 21.3339 19.9481L17.8859 16.5001L21.3339 13.0521C21.5839 12.802 21.7243 12.463 21.7243 12.1094C21.7243 11.7559 21.5839 11.4168 21.3339 11.1667Z" fill="#171A19"/>
<path d="M16 0.5C12.8355 0.5 9.74207 1.43838 7.11088 3.19649C4.4797 4.95459 2.42894 7.45345 1.21793 10.3771C0.00693258 13.3007 -0.309921 16.5177 0.307443 19.6214C0.924806 22.7251 2.44866 25.5761 4.6863 27.8137C6.92394 30.0513 9.77487 31.5752 12.8786 32.1926C15.9823 32.8099 19.1993 32.4931 22.1229 31.2821C25.0466 30.0711 27.5454 28.0203 29.3035 25.3891C31.0616 22.7579 32 19.6645 32 16.5C31.9954 12.2579 30.3082 8.19095 27.3086 5.19136C24.3091 2.19177 20.2421 0.504588 16 0.5V0.5ZM16 29.8333C13.3629 29.8333 10.7851 29.0513 8.5924 27.5863C6.39975 26.1212 4.69078 24.0388 3.68161 21.6024C2.67244 19.1661 2.4084 16.4852 2.92287 13.8988C3.43734 11.3124 4.70722 8.93661 6.57192 7.07191C8.43662 5.20721 10.8124 3.93733 13.3988 3.42286C15.9852 2.90839 18.6661 3.17244 21.1025 4.18161C23.5388 5.19077 25.6212 6.89974 27.0863 9.0924C28.5513 11.2851 29.3333 13.8629 29.3333 16.5C29.3295 20.035 27.9235 23.4242 25.4238 25.9238C22.9242 28.4234 19.535 29.8294 16 29.8333Z" fill="#171A19"/>
</g>
<defs>
<clipPath id="clip0_1098_9807">
<rect width="32" height="32" fill="white" transform="translate(0 0.5)"/>
</clipPath>
</defs>
</svg>
