<svg width="24" height="24" viewBox="0 0 24 24" fill="none" xmlns="http://www.w3.org/2000/svg">
<path d="M16.6667 7.5426H15.2667C15.1119 6.82521 14.7025 6.18062 14.1075 5.71747C13.5125 5.25432 12.7681 5.00092 12 5H7.33333C6.4496 5.00101 5.60237 5.33618 4.97748 5.932C4.35259 6.52782 4.00106 7.33564 4 8.17825V13.8991C4.00168 14.4684 4.20369 15.0207 4.57369 15.4675C4.94369 15.9144 5.46026 16.2299 6.04067 16.3635C5.97784 16.6816 5.98858 17.009 6.07213 17.3227C6.15568 17.6365 6.31002 17.9291 6.5244 18.1801C6.73877 18.4311 7.00801 18.6344 7.31332 18.776C7.61864 18.9176 7.95267 18.9939 8.29211 18.9996C8.63156 19.0054 8.96823 18.9405 9.27864 18.8094C9.58905 18.6783 9.86572 18.4842 10.0893 18.2407C10.313 17.9971 10.4781 17.7099 10.5734 17.3992C10.6686 17.0885 10.6916 16.7618 10.6407 16.4417H13.362C13.3448 16.5469 13.3357 16.6531 13.3347 16.7595C13.3347 17.3496 13.5805 17.9155 14.0181 18.3327C14.4557 18.7499 15.0492 18.9843 15.668 18.9843C16.2868 18.9843 16.8803 18.7499 17.3179 18.3327C17.7555 17.9155 18.0013 17.3496 18.0013 16.7595C18.0006 16.6266 17.987 16.4941 17.9607 16.3635C18.5408 16.2296 19.0571 15.914 19.4268 15.4672C19.7966 15.0204 19.9984 14.4682 20 13.8991V10.7209C19.9989 9.87824 19.6474 9.07042 19.0225 8.47461C18.3976 7.87879 17.5504 7.54361 16.6667 7.5426ZM18.6667 10.7209V11.3565H15.3333V8.8139H16.6667C17.1971 8.8139 17.7058 9.01481 18.0809 9.37244C18.456 9.73006 18.6667 10.2151 18.6667 10.7209ZM5.33333 13.8991V8.17825C5.33333 7.6725 5.54405 7.18746 5.91912 6.82983C6.29419 6.47221 6.8029 6.2713 7.33333 6.2713H12C12.5304 6.2713 13.0391 6.47221 13.4142 6.82983C13.7893 7.18746 14 7.6725 14 8.17825V15.1704H6.66667C6.31304 15.1704 5.97391 15.0365 5.72386 14.7981C5.47381 14.5596 5.33333 14.2363 5.33333 13.8991ZM9.33333 16.7595C9.33333 17.0124 9.22798 17.2549 9.04044 17.4337C8.8529 17.6126 8.59855 17.713 8.33333 17.713C8.06812 17.713 7.81376 17.6126 7.62623 17.4337C7.43869 17.2549 7.33333 17.0124 7.33333 16.7595C7.33374 16.6509 7.35475 16.5432 7.39533 16.4417H9.27133C9.31192 16.5432 9.33292 16.6509 9.33333 16.7595ZM15.6667 17.713C15.4015 17.713 15.1471 17.6126 14.9596 17.4337C14.772 17.2549 14.6667 17.0124 14.6667 16.7595C14.667 16.6509 14.688 16.5432 14.7287 16.4417H16.6047C16.6454 16.5432 16.6664 16.6509 16.6667 16.7595C16.6667 17.0124 16.5613 17.2549 16.3738 17.4337C16.1862 17.6126 15.9319 17.713 15.6667 17.713ZM17.3333 15.1704H15.3333V12.6278H18.6667V13.8991C18.6667 14.2363 18.5262 14.5596 18.2761 14.7981C18.0261 15.0365 17.687 15.1704 17.3333 15.1704Z" fill="#015F45"/>
</svg>
