<svg width="33" height="32" viewBox="0 0 33 32" fill="none" xmlns="http://www.w3.org/2000/svg">
<path d="M25.5279 9.48993C25.2972 9.23409 25.0084 9.02834 24.682 8.88726C24.3555 8.74619 23.9995 8.67327 23.6391 8.67368H10.3794L10.3449 8.40766C10.2744 7.85471 9.98684 7.34489 9.53667 6.97484C9.08651 6.60479 8.50507 6.40025 7.90258 6.39999H7.72052C7.503 6.39999 7.2944 6.47984 7.1406 6.62198C6.9868 6.76411 6.90039 6.95688 6.90039 7.15789C6.90039 7.35889 6.9868 7.55167 7.1406 7.6938C7.2944 7.83593 7.503 7.91578 7.72052 7.91578H7.90258C8.10346 7.91581 8.29734 7.98396 8.44745 8.10731C8.59756 8.23067 8.69346 8.40065 8.71697 8.585L9.84546 17.4524C9.96262 18.3746 10.4421 19.2249 11.1928 19.842C11.9436 20.4591 12.9134 20.8 13.9182 20.8H22.4828C22.7003 20.8 22.9089 20.7201 23.0627 20.578C23.2165 20.4359 23.3029 20.2431 23.3029 20.0421C23.3029 19.8411 23.2165 19.6483 23.0627 19.5062C22.9089 19.3641 22.7003 19.2842 22.4828 19.2842H13.9182C13.4106 19.2829 12.9158 19.1365 12.5018 18.8651C12.0877 18.5938 11.7746 18.2107 11.6054 17.7684H21.3813C22.3428 17.7685 23.2736 17.4563 24.0113 16.8866C24.749 16.3168 25.2466 15.5256 25.4172 14.6512L26.061 11.3513C26.1252 11.0239 26.1108 10.6875 26.0187 10.3658C25.9265 10.0441 25.759 9.7451 25.5279 9.48993ZM24.4511 11.0823L23.8064 14.3821C23.704 14.9074 23.405 15.3826 22.9616 15.7245C22.5182 16.0665 21.9588 16.2534 21.3813 16.2526H11.3446L10.5729 10.1895H23.6391C23.7596 10.1888 23.8788 10.2127 23.9881 10.2594C24.0975 10.3061 24.1944 10.3745 24.2719 10.4597C24.3494 10.545 24.4056 10.6449 24.4366 10.7525C24.4676 10.8601 24.4725 10.9727 24.4511 11.0823Z" fill="white"/>
<path d="M13.2992 25.6C14.1829 25.6 14.8992 24.8836 14.8992 24C14.8992 23.1163 14.1829 22.4 13.2992 22.4C12.4156 22.4 11.6992 23.1163 11.6992 24C11.6992 24.8836 12.4156 25.6 13.2992 25.6Z" fill="white"/>
<path d="M21.2992 25.6C22.1829 25.6 22.8992 24.8836 22.8992 24C22.8992 23.1163 22.1829 22.4 21.2992 22.4C20.4156 22.4 19.6992 23.1163 19.6992 24C19.6992 24.8836 20.4156 25.6 21.2992 25.6Z" fill="white"/>
</svg>
