<svg width="24" height="24" viewBox="0 0 24 24" fill="none" xmlns="http://www.w3.org/2000/svg">
<path d="M21.6159 17.8C19.2422 17.8 19.2422 16.6421 16.9264 16.6421C14.5527 16.6421 14.5527 17.8 12.2369 17.8C9.86324 17.8 9.86323 16.6421 7.48954 16.6421C5.11586 16.6421 5.11587 17.8 2.74219 17.8" stroke="white" stroke-miterlimit="10" stroke-linecap="round" stroke-linejoin="round"/>
<path d="M21.6159 16.0632C19.2422 16.0632 19.2422 14.9053 16.9264 14.9053C14.5527 14.9053 14.5527 16.0632 12.2369 16.0632C9.86324 16.0632 9.86323 14.9053 7.48954 14.9053C5.11586 14.9053 5.11587 16.0632 2.74219 16.0632" stroke="white" stroke-miterlimit="10" stroke-linecap="round" stroke-linejoin="round"/>
<path d="M6.04102 13.2263V6.79999" stroke="white" stroke-miterlimit="10" stroke-linecap="round" stroke-linejoin="round"/>
<path d="M4.76758 8.01578L6.04125 6.79999L7.25704 8.01578" stroke="white" stroke-miterlimit="10" stroke-linecap="round" stroke-linejoin="round"/>
<path d="M12.1777 13.2263V6.79999" stroke="white" stroke-miterlimit="10" stroke-linecap="round" stroke-linejoin="round"/>
<path d="M10.9629 8.01578L12.1787 6.79999L13.3945 8.01578" stroke="white" stroke-miterlimit="10" stroke-linecap="round" stroke-linejoin="round"/>
<path d="M18.3145 13.2263V6.79999" stroke="white" stroke-miterlimit="10" stroke-linecap="round" stroke-linejoin="round"/>
<path d="M17.0996 8.01578L18.3154 6.79999L19.5891 8.01578" stroke="white" stroke-miterlimit="10" stroke-linecap="round" stroke-linejoin="round"/>
</svg>
