<svg width="24" height="24" viewBox="0 0 24 24" fill="none" xmlns="http://www.w3.org/2000/svg">
<path d="M11.9992 13.7474C14.3276 13.7474 16.2152 11.8599 16.2152 9.53143C16.2152 7.203 14.3276 5.31543 11.9992 5.31543C9.67077 5.31543 7.7832 7.203 7.7832 9.53143C7.7832 11.8599 9.67077 13.7474 11.9992 13.7474Z" stroke="#65666A" stroke-miterlimit="10" stroke-linecap="round" stroke-linejoin="round"/>
<path d="M12.0001 15.4671C15.2783 15.4671 17.9358 12.8096 17.9358 9.53144C17.9358 6.25326 15.2783 3.59576 12.0001 3.59576C8.72196 3.59576 6.06445 6.25326 6.06445 9.53144C6.06445 12.8096 8.72196 15.4671 12.0001 15.4671Z" stroke="#65666A" stroke-miterlimit="10" stroke-linecap="round" stroke-linejoin="round"/>
<path d="M6.00912 9.53143H4.40039C4.40039 13.692 7.78429 17.1313 12.0003 17.1313C16.2163 17.1313 19.6002 13.7474 19.6002 9.53143H17.9914" stroke="#65666A" stroke-miterlimit="10" stroke-linecap="round" stroke-linejoin="round"/>
<path d="M12 7.0351C13.3868 7.0351 14.4963 8.14457 14.4963 9.53141" stroke="#65666A" stroke-miterlimit="10" stroke-linecap="round" stroke-linejoin="round"/>
<path d="M13.0264 17.1313H11.0293V18.4072H13.0264V17.1313Z" stroke="#65666A" stroke-miterlimit="10" stroke-linecap="round" stroke-linejoin="round"/>
<path d="M16.5207 19.4612C13.5251 18.0189 10.5296 18.0743 7.47852 19.4612V20.4042H16.5207V19.4612Z" stroke="#65666A" stroke-miterlimit="10" stroke-linecap="round" stroke-linejoin="round"/>
</svg>
