<svg width="24" height="24" viewBox="0 0 24 24" fill="none" xmlns="http://www.w3.org/2000/svg">
<path d="M15.3517 4.47915C15.3517 4.47915 14.9609 6.93543 13.8444 7.88444C12.7279 8.83346 13.8444 11.848 13.8444 11.848C13.8444 11.848 14.9609 13.6344 12.393 14.695C9.82506 15.7557 8.93188 18.0445 7.75956 18.8819C6.81055 19.6076 5.5824 20.3333 4.57756 19.7192C4.18679 19.4959 4.07515 18.9377 4.35427 18.5469C5.69406 16.8722 9.60176 11.4014 10.1042 4.42334" stroke="#65666A" stroke-miterlimit="10" stroke-linecap="round" stroke-linejoin="round"/>
<path d="M19.761 4.20001C19.761 4.20001 19.4818 6.6563 18.477 7.71696C17.4722 8.77763 18.7003 11.6805 18.7003 11.6805C18.7003 11.6805 19.9284 13.411 17.4163 14.5834C14.9042 15.8115 14.1227 18.1003 13.0062 19.0493C12.0572 19.8309 10.9407 20.6124 9.82422 20.0542" stroke="#65666A" stroke-miterlimit="10" stroke-linecap="round" stroke-linejoin="round"/>
</svg>
