<svg width="24" height="24" viewBox="0 0 24 24" fill="none" xmlns="http://www.w3.org/2000/svg">
<path d="M8.33948 18.0399C10.7469 18.0399 12.6985 16.0883 12.6985 13.6808C12.6985 11.2734 10.7469 9.32184 8.33948 9.32184C5.93206 9.32184 3.98047 11.2734 3.98047 13.6808C3.98047 16.0883 5.93206 18.0399 8.33948 18.0399Z" stroke="#65666A" stroke-miterlimit="10" stroke-linecap="round" stroke-linejoin="round"/>
<path d="M8.33954 19.62C11.6196 19.62 14.2787 16.961 14.2787 13.6809C14.2787 10.4008 11.6196 7.7417 8.33954 7.7417C5.05944 7.7417 2.40039 10.4008 2.40039 13.6809C2.40039 16.961 5.05944 19.62 8.33954 19.62Z" stroke="#65666A" stroke-miterlimit="10" stroke-linecap="round" stroke-linejoin="round"/>
<path d="M8.33984 10.684V11.4468" stroke="#65666A" stroke-miterlimit="10" stroke-linecap="round" stroke-linejoin="round"/>
<path d="M8.33984 15.6424V16.4052" stroke="#65666A" stroke-miterlimit="10" stroke-linecap="round" stroke-linejoin="round"/>
<path d="M11.1732 13.5174H10.4648" stroke="#65666A" stroke-miterlimit="10" stroke-linecap="round" stroke-linejoin="round"/>
<path d="M6.214 13.5174H5.45117" stroke="#65666A" stroke-miterlimit="10" stroke-linecap="round" stroke-linejoin="round"/>
<path d="M10.3535 15.5879L9.80859 15.043" stroke="#65666A" stroke-miterlimit="10" stroke-linecap="round" stroke-linejoin="round"/>
<path d="M6.81266 12.0462L6.32227 11.5013" stroke="#65666A" stroke-miterlimit="10" stroke-linecap="round" stroke-linejoin="round"/>
<path d="M10.3535 11.5013L9.80859 12.0462" stroke="#65666A" stroke-miterlimit="10" stroke-linecap="round" stroke-linejoin="round"/>
<path d="M6.81266 15.043L6.32227 15.5879" stroke="#65666A" stroke-miterlimit="10" stroke-linecap="round" stroke-linejoin="round"/>
<path d="M15.8038 14.4437C18.2013 14.4437 20.1628 12.4821 20.1628 10.0847C20.1628 7.6872 18.2013 5.72565 15.8038 5.72565C14.4416 5.72565 13.1884 6.3795 12.3711 7.36028" stroke="#65666A" stroke-miterlimit="10" stroke-linecap="round" stroke-linejoin="round"/>
<path d="M11.0098 6.65195C12.0995 5.18079 13.8431 4.20001 15.8047 4.20001C19.0739 4.20001 21.7438 6.86991 21.7438 10.1392C21.7438 13.4084 19.0739 16.0783 15.8047 16.0783" stroke="#65666A" stroke-miterlimit="10" stroke-linecap="round" stroke-linejoin="round"/>
<path d="M15.8047 7.14233V7.85068" stroke="#65666A" stroke-miterlimit="10" stroke-linecap="round" stroke-linejoin="round"/>
<path d="M18.638 9.97571H17.9297" stroke="#65666A" stroke-miterlimit="10" stroke-linecap="round" stroke-linejoin="round"/>
<path d="M17.8203 11.9917L17.2754 11.5013" stroke="#65666A" stroke-miterlimit="10" stroke-linecap="round" stroke-linejoin="round"/>
<path d="M14.2795 8.50453L13.7891 7.95966" stroke="#65666A" stroke-miterlimit="10" stroke-linecap="round" stroke-linejoin="round"/>
<path d="M17.8203 7.95966L17.2754 8.50453" stroke="#65666A" stroke-miterlimit="10" stroke-linecap="round" stroke-linejoin="round"/>
</svg>
