<svg width="32" height="41" viewBox="0 0 32 41" fill="none" xmlns="http://www.w3.org/2000/svg">
<path fill-rule="evenodd" clip-rule="evenodd" d="M19.736 11.0996C21.2191 11.5309 22.584 12.3309 23.695 13.4426C25.4314 15.179 26.4072 17.5336 26.4072 19.989V35.7439C26.4072 37.1256 25.8576 38.4511 24.881 39.4284C23.9037 40.4057 22.5782 40.9546 21.1965 40.9546H11.2108C9.82833 40.9546 8.50356 40.4057 7.52623 39.4284C6.5489 38.4511 6 37.1256 6 35.7439V19.989C6 17.5336 6.97514 15.179 8.71157 13.4426C9.8232 12.3309 11.1881 11.5309 12.6706 11.0996V9.77262C12.6706 9.35804 12.8348 8.96097 13.1282 8.66828C13.4209 8.37559 13.8179 8.21136 14.2318 8.21136H14.6216V6.85156H13.7376C13.4661 6.85156 13.2056 6.74354 13.0136 6.55157C12.8216 6.35961 12.7136 6.09904 12.7136 5.82752V2.678C12.7136 1.1985 13.9128 0 15.3916 0H17.058C18.2652 0 19.2849 0.797786 19.6199 1.89482H22.6928C23.4708 1.89482 24.2197 2.1897 24.7883 2.72033C25.3467 3.24002 25.6686 3.59622 26.2314 4.11955C26.5343 4.40203 26.6904 4.80785 26.6554 5.22097C26.6204 5.63336 26.397 6.00707 26.0511 6.23407L25.9313 6.31216C25.5496 6.56252 25.0518 6.54939 24.6832 6.27932C24.1832 5.91291 23.6307 5.54139 23.0526 5.11732C22.8607 4.97645 22.6278 4.90054 22.3892 4.90054H19.736V5.82752C19.736 6.09904 19.6287 6.35961 19.436 6.55157C19.244 6.74354 18.9835 6.85156 18.7119 6.85156H17.7857V8.21136H18.1747C18.5893 8.21136 18.9864 8.37559 19.2791 8.66828C19.5718 8.96097 19.736 9.35804 19.736 9.77262V11.0996ZM15.2588 11.8353C13.0961 11.8353 11.0224 12.6944 9.49329 14.2235C7.96415 15.7527 7.10508 17.8271 7.10508 19.989V35.7439C7.10508 36.8329 7.53716 37.8766 8.3072 38.6467C9.07724 39.4167 10.1217 39.8496 11.2108 39.8496H21.1965C22.2855 39.8496 23.3292 39.4167 24.0993 38.6467C24.8693 37.8766 25.3022 36.8329 25.3022 35.7439V19.989C25.3022 17.8271 24.4431 15.7527 22.9139 14.2235C21.3848 12.6944 19.3104 11.8353 17.1477 11.8353H15.2588ZM18.1747 9.31643H14.2318C14.1106 9.31643 13.9946 9.36387 13.9092 9.45C13.8238 9.5354 13.7756 9.65145 13.7756 9.77262V10.7302H18.6309V9.77262C18.6309 9.65145 18.5834 9.5354 18.4973 9.45C18.4119 9.36387 18.2959 9.31643 18.1747 9.31643ZM15.7266 6.85156V8.21136H16.6806V6.85156H15.7266ZM18.6309 2.678C18.6309 1.80869 17.9265 1.10434 17.058 1.10434H15.3916C14.523 1.10434 13.8187 1.80869 13.8187 2.678V5.74649H18.6309V2.678ZM19.736 3.79547H22.3892C22.8629 3.79547 23.3242 3.94657 23.7059 4.22612C24.2825 4.64873 24.8329 5.01879 25.3314 5.38374L25.4452 5.30928C25.508 5.26841 25.5481 5.20126 25.554 5.12681C25.5606 5.05236 25.5321 4.97937 25.4781 4.92828C24.9153 4.40421 24.5934 4.04876 24.0351 3.52834C23.6708 3.18894 23.1913 2.99988 22.6928 2.99988H19.736V3.79547ZM8.49916 24.5458C8.19406 24.5458 7.94663 24.2976 7.94663 23.9932C7.94663 23.6881 8.19406 23.4407 8.49916 23.4407H23.9504C24.2555 23.4407 24.5029 23.6881 24.5029 23.9932C24.5029 24.2976 24.2555 24.5458 23.9504 24.5458H8.49916ZM8.49916 28.612C8.19406 28.612 7.94663 28.3646 7.94663 28.0595C7.94663 27.7551 8.19406 27.507 8.49916 27.507H23.9504C24.2555 27.507 24.5029 27.7551 24.5029 28.0595C24.5029 28.3646 24.2555 28.612 23.9504 28.612H8.49916Z" fill="#171A19"/>
</svg>
