<svg width="32" height="28" viewBox="0 0 32 28" fill="none" xmlns="http://www.w3.org/2000/svg">
<path d="M27.2 20.4615C27.2 20.355 27.2313 20.2509 27.2899 20.1624C27.3485 20.0738 27.4318 20.0048 27.5292 19.9641C27.6267 19.9233 27.7339 19.9126 27.8374 19.9334C27.9408 19.9542 28.0359 20.0055 28.1105 20.0808C28.185 20.1561 28.2358 20.252 28.2564 20.3565C28.277 20.4609 28.2664 20.5692 28.2261 20.6676C28.1857 20.766 28.1173 20.8501 28.0296 20.9093C27.9419 20.9684 27.8388 21 27.7333 21C27.5919 21 27.4562 20.9433 27.3562 20.8423C27.2562 20.7413 27.2 20.6043 27.2 20.4615ZM29.3333 21C29.4388 21 29.5419 20.9684 29.6296 20.9093C29.7173 20.8501 29.7857 20.766 29.8261 20.6676C29.8664 20.5692 29.877 20.4609 29.8564 20.3565C29.8358 20.252 29.785 20.1561 29.7105 20.0808C29.6359 20.0055 29.5408 19.9542 29.4374 19.9334C29.3339 19.9126 29.2267 19.9233 29.1292 19.9641C29.0318 20.0048 28.9485 20.0738 28.8899 20.1624C28.8313 20.2509 28.8 20.355 28.8 20.4615C28.8 20.6043 28.8562 20.7413 28.9562 20.8423C29.0562 20.9433 29.1919 21 29.3333 21ZM14.4 8.61538C14.3988 8.31895 14.4783 8.02788 14.63 7.77406C14.7817 7.52023 14.9996 7.31345 15.26 7.17634C15.5203 7.03923 15.813 6.97708 16.1059 6.99671C16.3989 7.01634 16.6809 7.11699 16.921 7.28762C17.1611 7.45826 17.35 7.69231 17.4672 7.96414C17.5843 8.23597 17.6251 8.53511 17.585 8.82878C17.545 9.12245 17.4257 9.39934 17.2402 9.62913C17.0547 9.85891 16.8102 10.0327 16.5333 10.1315V11.3077C16.5333 11.4505 16.4771 11.5875 16.3771 11.6884C16.2771 11.7894 16.1414 11.8462 16 11.8462C15.8586 11.8462 15.7229 11.7894 15.6229 11.6884C15.5229 11.5875 15.4667 11.4505 15.4667 11.3077V10.1315C15.1556 10.0209 14.8861 9.81577 14.6951 9.54431C14.5041 9.27285 14.401 8.94836 14.4 8.61538ZM15.4667 8.61538C15.4667 8.72188 15.4979 8.82599 15.5566 8.91454C15.6152 9.00309 15.6984 9.0721 15.7959 9.11286C15.8934 9.15361 16.0006 9.16428 16.104 9.1435C16.2075 9.12272 16.3025 9.07144 16.3771 8.99614C16.4517 8.92083 16.5025 8.82489 16.5231 8.72043C16.5437 8.61598 16.5331 8.50772 16.4927 8.40932C16.4524 8.31093 16.384 8.22684 16.2963 8.16767C16.2086 8.1085 16.1055 8.07692 16 8.07692C15.8586 8.07702 15.723 8.13378 15.623 8.23474C15.523 8.3357 15.4668 8.4726 15.4667 8.61538ZM32 3.23077V21C31.9995 21.4283 31.8308 21.8389 31.5309 22.1417C31.2309 22.4446 30.8242 22.6149 30.4 22.6154H18.8734L19.5845 24.7692C19.8001 24.7494 20.0175 24.7738 20.2236 24.8411C20.4296 24.9084 20.62 25.0172 20.7832 25.1608C20.9465 25.3044 21.0793 25.4799 21.1735 25.6768C21.2678 25.8736 21.3215 26.0877 21.3316 26.3061C21.3417 26.5244 21.3078 26.7426 21.2321 26.9475C21.1563 27.1523 21.0403 27.3395 20.8909 27.4978C20.7416 27.6561 20.562 27.7822 20.363 27.8685C20.1641 27.9548 19.9499 27.9995 19.7333 28H12.2667C12.0501 27.9995 11.8359 27.9548 11.637 27.8685C11.438 27.7822 11.2584 27.6561 11.1091 27.4978C10.9597 27.3395 10.8437 27.1523 10.7679 26.9475C10.6922 26.7426 10.6583 26.5244 10.6684 26.3061C10.6785 26.0877 10.7322 25.8736 10.8265 25.6768C10.9207 25.4799 11.0535 25.3044 11.2168 25.1608C11.38 25.0172 11.5704 24.9084 11.7764 24.8411C11.9825 24.7738 12.1999 24.7494 12.4155 24.7692L13.1266 22.6154H1.6C1.1758 22.6149 0.769099 22.4446 0.469141 22.1417C0.169183 21.8389 0.000463038 21.4283 0 21V3.23077C0.000463038 2.80249 0.169183 2.39188 0.469141 2.08904C0.769099 1.78619 1.1758 1.61585 1.6 1.61538H12.9408C13.2837 1.11685 13.7411 0.70953 14.2738 0.428228C14.8065 0.146927 15.3988 0 16 0C16.6012 0 17.1935 0.146927 17.7262 0.428228C18.2589 0.70953 18.7163 1.11685 19.0592 1.61538H30.4C30.8242 1.61585 31.2309 1.78619 31.5309 2.08904C31.8308 2.39188 31.9995 2.80249 32 3.23077ZM14.9333 3.76923H17.0667C17.0667 3.48361 16.9543 3.20969 16.7542 3.00773C16.5542 2.80577 16.2829 2.69231 16 2.69231C15.7171 2.69231 15.4458 2.80577 15.2458 3.00773C15.0457 3.20969 14.9333 3.48361 14.9333 3.76923ZM14.9333 5.38461H17.0667V4.84615H14.9333V5.38461ZM12.8 6.46154C12.6586 6.46163 12.523 6.51839 12.423 6.61936C12.323 6.72032 12.2668 6.85722 12.2667 7V12.3846C12.2668 12.5274 12.323 12.6643 12.423 12.7653C12.523 12.8662 12.6586 12.923 12.8 12.9231H19.2C19.3414 12.923 19.477 12.8662 19.577 12.7653C19.677 12.6643 19.7332 12.5274 19.7333 12.3846V7C19.7332 6.85722 19.677 6.72032 19.577 6.61936C19.477 6.51839 19.3414 6.46163 19.2 6.46154H12.8ZM12.2667 4.84615H3.2V18.3077H28.8V4.84615H19.7333V5.48384C20.0444 5.59446 20.3139 5.79959 20.5049 6.07106C20.6959 6.34253 20.799 6.66702 20.8 7V12.3846C20.7995 12.8129 20.6308 13.2235 20.3309 13.5263C20.0309 13.8292 19.6242 13.9995 19.2 14H12.8C12.3758 13.9995 11.9691 13.8292 11.6691 13.5263C11.3692 13.2235 11.2005 12.8129 11.2 12.3846V7C11.201 6.66702 11.3041 6.34253 11.4951 6.07106C11.6861 5.79959 11.9556 5.59446 12.2667 5.48384V4.84615ZM13.3333 3.76923V5.38461H13.8667V3.76923C13.8667 3.19799 14.0914 2.65016 14.4915 2.24623C14.8916 1.84231 15.4342 1.61538 16 1.61538C16.5658 1.61538 17.1084 1.84231 17.5085 2.24623C17.9086 2.65016 18.1333 3.19799 18.1333 3.76923V5.38461H18.6667V3.76923C18.6667 3.05519 18.3857 2.37039 17.8856 1.86548C17.3855 1.36058 16.7072 1.07692 16 1.07692C15.2928 1.07692 14.6145 1.36058 14.1144 1.86548C13.6143 2.37039 13.3333 3.05519 13.3333 3.76923ZM1.06667 18.3077H2.13333V4.30769C2.13333 4.16488 2.18952 4.02792 2.28954 3.92694C2.38956 3.82596 2.52522 3.76923 2.66667 3.76923H12.2667C12.267 3.40445 12.3199 3.04166 12.4239 2.69231H1.6C1.45861 2.69249 1.32306 2.74928 1.22308 2.85022C1.1231 2.95116 1.06685 3.08802 1.06667 3.23077V18.3077ZM12.2667 25.8462C12.1252 25.8462 11.9896 25.9029 11.8895 26.0039C11.7895 26.1048 11.7333 26.2418 11.7333 26.3846C11.7333 26.5274 11.7895 26.6644 11.8895 26.7654C11.9896 26.8663 12.1252 26.9231 12.2667 26.9231H19.7333C19.8748 26.9231 20.0104 26.8663 20.1105 26.7654C20.2105 26.6644 20.2667 26.5274 20.2667 26.3846C20.2667 26.2418 20.2105 26.1048 20.1105 26.0039C20.0104 25.9029 19.8748 25.8462 19.7333 25.8462H12.2667ZM18.4602 24.7692L17.749 22.6154H14.251L13.5398 24.7692H18.4602ZM30.9333 19.3846H1.06667V21C1.06685 21.1428 1.1231 21.2796 1.22308 21.3805C1.32306 21.4815 1.45861 21.5383 1.6 21.5385H30.4C30.5414 21.5383 30.6769 21.4815 30.7769 21.3805C30.8769 21.2796 30.9332 21.1428 30.9333 21V19.3846ZM30.9333 3.23077C30.9332 3.08802 30.8769 2.95116 30.7769 2.85022C30.6769 2.74928 30.5414 2.69249 30.4 2.69231H19.5761C19.6801 3.04166 19.733 3.40445 19.7333 3.76923H29.3333C29.4748 3.76923 29.6104 3.82596 29.7105 3.92694C29.8105 4.02792 29.8667 4.16488 29.8667 4.30769V18.3077H30.9333V3.23077Z" fill="#171A19"/>
</svg>
