<svg width="32" height="26" viewBox="0 0 32 26" fill="none" xmlns="http://www.w3.org/2000/svg">
<path d="M29.113 0.0054247H8.83981C7.88458 0.0054247 7.01474 0.531609 6.49177 1.36699L5.66462 0.526184C5.33376 0.18986 4.87483 0 4.39988 0C4.39988 0 4.38921 0 4.38387 0C3.90893 0 3.47134 0.195285 3.14582 0.531609C-2.60688 6.49864 0.338845 14.8688 5.50986 20.1252C8.93587 23.6078 13.5092 26 17.8264 26C20.4946 26 23.0614 25.0887 25.2014 22.9514C25.5376 22.6205 25.7243 22.1757 25.7243 21.6929C25.7243 21.5898 25.7137 21.4922 25.6977 21.3945H28.8515C30.5858 21.3945 32 19.957 32 18.194V3.18965C32 1.43209 30.7032 0.0054247 29.113 0.0054247ZM28.8568 1.05237C30.0255 1.05237 30.9754 2.01252 30.9754 3.18965V5.45713L21.2364 12.4657C20.0143 13.3445 18.0559 13.4204 16.9619 12.6338L9.53355 7.28521L9.66162 7.15502C9.747 7.06822 9.82172 6.97058 9.89109 6.87294C9.89109 6.86752 9.89643 6.86209 9.90176 6.85667C10.0885 6.56374 10.1899 6.22742 10.1899 5.87482C10.1899 5.52222 10.0885 5.18047 9.90176 4.89297C9.90176 4.88754 9.89643 4.88212 9.89109 4.8767C9.82705 4.77363 9.747 4.68141 9.66162 4.59462L7.26556 2.15898C7.62844 1.49176 8.33285 1.05779 9.10129 1.05779H28.8515L28.8568 1.05237ZM24.4863 22.2082C19.358 27.3236 11.4227 24.6601 6.23562 19.3929C1.25138 14.3209 -1.41151 6.74817 3.88225 1.26393C4.01566 1.12831 4.19176 1.04694 4.39455 1.04694H4.39988C4.60267 1.04694 4.79478 1.12831 4.93353 1.26935L8.92519 5.32694C8.9999 5.40288 9.05327 5.48967 9.09062 5.57647C9.12798 5.66868 9.14932 5.76633 9.14932 5.86939C9.14932 5.97246 9.12798 6.0701 9.09062 6.16232C9.05327 6.25454 8.9999 6.34133 8.92519 6.41185L5.80871 9.5798C5.65395 9.73712 5.61659 9.97037 5.70731 10.1711C5.80871 10.3935 5.90476 10.5996 6.00082 10.8112C6.00082 10.822 6.00082 10.8383 6.01149 10.8546C6.37437 11.6357 6.7159 12.3301 7.0521 12.9756C7.10013 13.0678 7.15349 13.1655 7.20152 13.2577C7.26556 13.3716 7.32959 13.4855 7.39363 13.5994C7.48969 13.7676 7.58574 13.9357 7.67646 14.0985C7.68714 14.1148 7.69781 14.131 7.70315 14.1473C8.25814 15.0749 8.8238 15.8398 9.48552 16.5124C10.8997 17.9499 12.6927 18.9372 15.7132 20.353C15.9106 20.4452 16.1401 20.4018 16.2948 20.2499L19.4113 17.082C19.6995 16.7891 20.1958 16.7891 20.4839 17.082L24.4809 21.145C24.6197 21.286 24.6997 21.4868 24.6944 21.6929C24.6944 21.8936 24.6197 22.078 24.4809 22.2136L24.4863 22.2082ZM28.8568 20.353H25.1693L21.2204 16.3388C20.5426 15.6499 19.3686 15.6499 18.6909 16.3388L15.8306 19.2464C15.489 19.0837 15.1688 18.9318 14.8593 18.7799C12.7087 17.7275 11.3213 16.8867 10.2219 15.7692C9.49086 15.0207 8.8825 14.1364 8.27948 13.0515C8.23679 12.9756 8.1941 12.8996 8.14607 12.8183C8.09804 12.7315 8.05535 12.6447 8.00732 12.5525C7.68714 11.9449 7.35628 11.2614 6.99873 10.4911V9.86188L8.79712 8.0338L16.3695 13.4855C17.0633 13.9846 17.9651 14.2287 18.8937 14.2287C19.929 14.2287 20.9962 13.9195 21.8341 13.3119L30.9754 6.7319V18.194C30.9754 19.382 30.0255 20.3476 28.8568 20.3476V20.353Z" fill="#171A19"/>
</svg>
