<svg width="32" height="40" viewBox="0 0 32 40" fill="none" xmlns="http://www.w3.org/2000/svg">
<path d="M26.984 5.125C27.048 4.75 26.92 4.375 26.6002 4.0625L26.4722 3.9375C25.1287 2.875 21.6101 0 16.62 0C16.62 0 16.62 0 16.556 0C11.5019 0 7.85529 3 6.5118 4.125L6.38385 4.25C6.06397 4.5 6 4.875 6 5.25L8.75095 33.4375V39.1875C8.75095 39.6875 9.07083 40 9.64661 40H23.2734C23.7852 40 24.1691 39.6875 24.1691 39.1875V33.4375L26.984 5.125ZM18.6032 37.5C18.5392 36.3125 17.5796 35.375 16.3641 35.375C15.1485 35.375 14.1889 36.3125 14.1249 37.5H9.39071V33.75H23.4653V37.5H18.6032ZM17.9634 37.5H14.7647C14.8286 36.6875 15.5324 36 16.3641 36C17.1957 36 17.8995 36.6875 17.9634 37.5ZM9.26276 33.125L6.70373 6.875H26.1523L23.5293 33.125H9.26276ZM6.76771 4.6875L6.89566 4.5625C8.17517 3.5 11.7578 0.625 16.556 0.625C16.556 0.625 16.556 0.625 16.62 0.625C21.4181 0.625 24.7449 3.375 26.0244 4.4375L26.1523 4.5625C26.2803 4.6875 26.3442 4.875 26.3442 5.0625L26.2803 6.25H6.63976L6.5118 5.1875C6.5118 5 6.63976 4.8125 6.76771 4.6875ZM23.2094 39.375H9.64661C9.45468 39.375 9.39071 39.375 9.39071 39.1875V38.125H23.4653V39.1875C23.4653 39.375 23.4014 39.375 23.2094 39.375Z" fill="#171A19"/>
<path d="M8.6878 4.8124C8.62383 4.8124 8.49588 4.7499 8.4319 4.6874C8.30395 4.5624 8.30395 4.3749 8.4319 4.2499C8.49588 4.1874 10.3512 2.5624 13.1661 1.9999C13.358 1.9374 13.486 2.0624 13.55 2.2499C13.6139 2.4374 13.486 2.5624 13.294 2.6249C10.671 3.1874 8.87973 4.6874 8.87973 4.7499C8.81576 4.7499 8.75178 4.8124 8.6878 4.8124Z" fill="#171A19"/>
<path d="M22.9544 16.9376C22.8265 16.7501 22.6346 16.5626 22.4426 16.1876C22.3787 16.0001 22.3787 15.7501 22.4426 15.4376C22.5066 15.1876 22.5066 14.9376 22.5066 14.6876C22.5066 14.2501 22.3787 13.6876 21.9948 13.0626C21.9948 13.0626 21.9948 13.0626 21.9948 13.0001C21.7389 12.5001 21.2911 11.9376 20.7153 11.3751H20.6513C20.6513 11.3751 20.6513 11.3751 20.6513 11.3126C19.3718 10.3126 17.8364 9.9376 16.237 10.2501C13.9978 10.6876 11.5028 12.5001 10.927 15.5001C10.4152 18.1876 10.4152 20.6251 12.0786 24.4376L12.1426 24.6251C12.6544 25.6876 13.0382 26.8126 12.0146 27.5001C11.8866 27.5626 11.8227 27.8126 11.8866 27.9376C11.9506 28.0626 12.0786 28.0626 12.1426 28.0626C12.2065 28.0626 12.2705 28.0626 12.3345 28.0001C13.9339 27.0001 13.1022 25.2501 12.7183 24.3751L12.6544 24.1876C11.055 20.5001 11.055 18.1876 11.5668 15.6251C12.0786 12.8751 14.3817 11.2501 16.3649 10.8751C16.4929 10.8126 16.6848 10.8126 16.8128 10.8126C15.2774 12.0001 12.3345 15.1251 14.1898 20.1876C14.5736 21.1876 15.0215 22.0626 15.4693 22.8126C16.4289 24.6251 17.0687 25.7501 15.5333 27.3751C15.4053 27.5001 15.4053 27.6876 15.5333 27.8126C15.5972 27.8751 15.6612 27.8751 15.7252 27.8751C15.7892 27.8751 15.9171 27.8126 15.9811 27.7501C17.7724 25.7501 17.0047 24.3126 15.9811 22.5001C15.5972 21.7501 15.1494 20.9376 14.7656 19.9376C12.5264 14.0001 17.3246 11.0626 17.8364 10.8126C18.4761 10.8751 19.1159 11.1251 19.7557 11.5001C18.9879 11.8126 17.6445 12.5001 16.8128 13.8126C16.7488 13.9376 16.7488 14.1251 16.9407 14.2501C17.0687 14.3126 17.2606 14.3126 17.3886 14.1251C18.2202 12.7501 19.8196 12.1251 20.3314 11.9376C20.7793 12.3751 21.0991 12.8126 21.355 13.1876C20.7153 14.1251 19.9476 14.5626 19.2438 14.9376C18.4761 15.3751 17.7084 15.8126 17.2606 16.8126C16.4289 18.5626 16.8767 19.4376 17.4525 20.5626C17.7724 21.2501 18.2202 22.0626 18.5401 23.3126C18.6041 23.5001 19.7556 27.3126 15.5333 28.9376C15.3413 29.0001 15.2774 29.1876 15.3413 29.3126C15.4053 29.4376 15.5333 29.5001 15.6612 29.5001C15.7252 29.5001 15.7252 29.5001 15.7892 29.5001C20.5873 27.6251 19.2438 23.1251 19.1799 23.1251C19.0519 22.5626 18.86 22.0626 18.6681 21.6251C18.732 21.6251 18.732 21.6876 18.796 21.6876C19.3078 21.9376 19.8196 22.2501 20.3314 22.2501C20.5234 22.2501 20.7793 22.1876 20.9072 22.0626C21.2271 21.8126 21.2911 21.5001 21.2911 21.1876C21.355 20.8751 21.355 20.7501 21.547 20.6876C21.6109 20.6251 21.6749 20.6251 21.7389 20.6251C21.9308 20.5626 22.1867 20.5001 22.2507 20.1876C22.2507 20.0001 22.1867 19.8751 22.1227 19.8126C22.2507 19.7501 22.4426 19.6251 22.5066 19.3751C22.5066 19.1251 22.3786 19.0001 22.2507 18.9376C22.1867 18.8751 22.1227 18.8751 22.1227 18.7501C22.1227 18.7501 22.1867 18.6876 22.3787 18.5626L22.5706 18.4376C22.9544 18.1876 23.2743 18.0626 23.2743 17.6251C23.2743 17.2501 23.0824 17.0626 22.9544 16.9376ZM22.2507 17.8126L22.0588 17.9376C21.8668 18.0626 21.2271 18.3751 21.547 19.0001C21.6109 19.1251 21.6749 19.1876 21.7389 19.2501C21.6109 19.3126 21.419 19.4376 21.355 19.6876C21.355 19.8751 21.419 19.9376 21.483 20.0626C21.419 20.0626 21.355 20.1251 21.2911 20.1251C20.7793 20.3751 20.7153 20.7501 20.7153 21.0626C20.7153 21.3126 20.6513 21.4376 20.5234 21.5001C20.2675 21.6876 19.6277 21.3751 19.1159 21.0626C18.796 20.8751 18.5401 20.7501 18.2842 20.6251C18.2202 20.4376 18.1563 20.3126 18.0283 20.1876C17.4525 19.0626 17.1327 18.4376 17.8364 16.9376C18.2202 16.1251 18.86 15.7501 19.5637 15.3751C20.2035 15.0001 20.9712 14.5626 21.6749 13.6876C21.8029 14.0001 21.8668 14.3126 21.8668 14.5626C21.8668 14.7501 21.8668 15.0001 21.8029 15.1876C21.7389 15.5626 21.6749 15.9376 21.8668 16.3126C22.0588 16.8126 22.3147 17.0626 22.5066 17.2501C22.6346 17.3751 22.6346 17.4376 22.6346 17.4376C22.6346 17.6251 22.6346 17.6251 22.2507 17.8126Z" fill="#171A19"/>
<path d="M12.9101 15.3751C12.9741 15.1876 12.8462 15.0626 12.6542 15.0001C12.4623 14.9376 12.3344 15.0626 12.2704 15.2501C12.2064 15.4376 11.2468 19.7501 13.4859 23.1251C14.3176 24.3751 14.6375 25.5626 14.3816 26.6251C14.0617 28.0001 12.9101 28.6876 12.9101 28.6876C12.7822 28.7501 12.7182 29.0001 12.7822 29.1251C12.8462 29.2501 12.9741 29.2501 13.0381 29.2501C13.1021 29.2501 13.166 29.2501 13.23 29.1876C13.294 29.1251 14.5735 28.3751 14.9574 26.7501C15.2133 25.5001 14.8934 24.1876 13.9337 22.7501C11.9505 19.6251 12.9101 15.4376 12.9101 15.3751Z" fill="#171A19"/>
<path d="M15.9794 20.1876C15.8514 20.1876 15.7874 20.1251 15.7235 20.0001C14.5719 18.0001 14.9558 16.8126 15.5955 15.7501C15.6595 15.6251 15.8514 15.5626 16.0433 15.6251C16.1713 15.6876 16.2353 15.8751 16.1713 16.0626C15.6595 16.8751 15.2756 17.8126 16.2992 19.6876C16.3632 19.8126 16.2992 20.0001 16.1713 20.1251C16.1073 20.1251 16.0433 20.1876 15.9794 20.1876Z" fill="#171A19"/>
</svg>
