<svg width="32" height="22" viewBox="0 0 32 22" fill="none" xmlns="http://www.w3.org/2000/svg">
<path d="M29.9192 6.80691C29.6122 6.17824 29.1377 5.64945 28.5495 5.28056C27.9614 4.91166 27.2831 4.71741 26.5916 4.71986H21.3076V0.683908C21.3076 0.594082 21.2901 0.505137 21.2563 0.422151C21.2224 0.339166 21.1727 0.263766 21.1101 0.200258C21.0475 0.13675 20.9732 0.0863773 20.8914 0.052017C20.8096 0.0176567 20.7219 -1.8097e-05 20.6334 1.80403e-06H4.22181C4.13317 -0.000204778 4.04536 0.0173326 3.9634 0.0516096C3.88145 0.0858867 3.80696 0.13623 3.74421 0.199758C3.68146 0.263285 3.63167 0.338748 3.5977 0.421826C3.56373 0.504904 3.54625 0.593965 3.54625 0.68391C3.54625 0.773854 3.56373 0.862915 3.5977 0.945993C3.63167 1.02907 3.68146 1.10453 3.74421 1.16806C3.80696 1.23159 3.88145 1.28193 3.9634 1.31621C4.04536 1.35049 4.13317 1.36802 4.22181 1.36782H19.9592V17.7391H13.0305C12.8744 16.9244 12.4439 16.1902 11.8128 15.6623C11.1816 15.1345 10.3892 14.8458 9.57131 14.8458C8.75341 14.8458 7.96098 15.1345 7.32986 15.6623C6.69875 16.1902 6.26825 16.9244 6.11216 17.7391H3.86705C3.77841 17.7389 3.69059 17.7564 3.60864 17.7907C3.52669 17.825 3.4522 17.8753 3.38945 17.9388C3.3267 18.0023 3.27691 18.0778 3.24294 18.1609C3.20897 18.244 3.19149 18.333 3.19149 18.423C3.19149 18.5129 3.20897 18.602 3.24294 18.6851C3.27691 18.7681 3.3267 18.8436 3.38945 18.9071C3.4522 18.9707 3.52669 19.021 3.60864 19.0553C3.69059 19.0896 3.77841 19.1071 3.86705 19.1069H6.11216C6.26829 19.9215 6.6988 20.6557 7.32992 21.1835C7.96103 21.7113 8.75344 22 9.57131 22C10.3892 22 11.1816 21.7113 11.8127 21.1835C12.4438 20.6557 12.8743 19.9215 13.0305 19.1069H22.1624C22.3185 19.9215 22.749 20.6557 23.3802 21.1835C24.0113 21.7113 24.8037 22 25.6215 22C26.4394 22 27.2318 21.7113 27.8629 21.1835C28.4941 20.6557 28.9246 19.9215 29.0807 19.1069H31.3258C31.4143 19.1069 31.502 19.0892 31.5838 19.0549C31.6656 19.0205 31.7399 18.9701 31.8025 18.9066C31.8651 18.8431 31.9148 18.7677 31.9487 18.6847C31.9826 18.6017 32 18.5128 32 18.423V11.19C31.9999 11.0838 31.9755 10.9791 31.9286 10.8842L29.9192 6.80691ZM9.57131 20.6322C9.14066 20.6322 8.71967 20.5027 8.36157 20.26C8.00347 20.0172 7.72435 19.6722 7.55952 19.2685C7.39468 18.8648 7.35153 18.4206 7.43552 17.992C7.51951 17.5634 7.72687 17.1697 8.03137 16.8607C8.33587 16.5517 8.72384 16.3413 9.14622 16.2561C9.56859 16.1708 10.0064 16.2145 10.4043 16.3818C10.8021 16.549 11.1422 16.8322 11.3815 17.1955C11.6207 17.5588 11.7484 17.986 11.7484 18.423C11.7477 19.0087 11.5182 19.5702 11.11 19.9843C10.7019 20.3985 10.1485 20.6315 9.57131 20.6322ZM26.5916 6.08769C27.0325 6.08613 27.465 6.20998 27.8401 6.44519C28.2152 6.6804 28.5178 7.01755 28.7136 7.4184L30.6516 11.3515V11.8217H21.3076V6.08769H26.5916ZM25.6215 20.6322C25.1909 20.6322 24.7699 20.5027 24.4118 20.26C24.0537 20.0172 23.7746 19.6722 23.6098 19.2685C23.4449 18.8648 23.4018 18.4206 23.4858 17.992C23.5697 17.5634 23.7771 17.1697 24.0816 16.8607C24.3861 16.5517 24.7741 16.3413 25.1965 16.2561C25.6188 16.1708 26.0566 16.2145 26.4545 16.3818C26.8524 16.549 27.1924 16.8322 27.4317 17.1955C27.6709 17.5588 27.7986 17.986 27.7986 18.423C27.798 19.0087 27.5684 19.5702 27.1603 19.9843C26.7521 20.3985 26.1988 20.6315 25.6215 20.6322ZM29.0807 17.7391C28.9246 16.9244 28.4941 16.1902 27.863 15.6623C27.2319 15.1345 26.4395 14.8458 25.6215 14.8458C24.8036 14.8458 24.0112 15.1345 23.3801 15.6623C22.749 16.1902 22.3185 16.9244 22.1624 17.7391H21.3076V13.1895H30.6516V17.7391H29.0807ZM2.57203 5.21763H12.2185C12.3072 5.21743 12.395 5.23496 12.4769 5.26924C12.5589 5.30352 12.6334 5.35386 12.6961 5.41739C12.7589 5.48091 12.8087 5.55638 12.8426 5.63946C12.8766 5.72253 12.8941 5.8116 12.8941 5.90154C12.8941 5.99148 12.8766 6.08055 12.8426 6.16362C12.8087 6.2467 12.7589 6.32217 12.6961 6.38569C12.6334 6.44922 12.5589 6.49956 12.4769 6.53384C12.395 6.56812 12.3072 6.58565 12.2185 6.58545H2.57203C2.48339 6.58565 2.39557 6.56812 2.31362 6.53384C2.23166 6.49956 2.15718 6.44922 2.09443 6.38569C2.03167 6.32217 1.98189 6.2467 1.94792 6.16362C1.91395 6.08055 1.89646 5.99148 1.89646 5.90154C1.89646 5.8116 1.91395 5.72253 1.94792 5.63946C1.98189 5.55638 2.03167 5.48091 2.09443 5.41739C2.15718 5.35386 2.23166 5.30352 2.31362 5.26924C2.39557 5.23496 2.48339 5.21743 2.57203 5.21763ZM0 10.7372C3.73363e-06 10.6474 0.017446 10.5585 0.0513306 10.4755C0.0852151 10.3925 0.134878 10.3171 0.197484 10.2536C0.260089 10.1901 0.334411 10.1397 0.416205 10.1053C0.497998 10.071 0.585661 10.0533 0.674187 10.0533H9.02566C9.1143 10.0531 9.20212 10.0707 9.28407 10.1049C9.36602 10.1392 9.44051 10.1896 9.50326 10.2531C9.56601 10.3166 9.6158 10.3921 9.64977 10.4752C9.68374 10.5582 9.70123 10.6473 9.70123 10.7372C9.70123 10.8272 9.68374 10.9162 9.64977 10.9993C9.6158 11.0824 9.56601 11.1579 9.50326 11.2214C9.44051 11.2849 9.36602 11.3353 9.28407 11.3695C9.20212 11.4038 9.1143 11.4214 9.02566 11.4211H0.674187C0.58566 11.4212 0.497996 11.4035 0.416202 11.3691C0.334408 11.3348 0.260086 11.2844 0.19748 11.2209C0.134874 11.1574 0.0852113 11.082 0.0513273 10.999C0.0174434 10.916 2.33273e-06 10.8271 0 10.7372Z" fill="#171A19"/>
</svg>
