<svg width="32" height="28" viewBox="0 0 32 28" fill="none" xmlns="http://www.w3.org/2000/svg">
<path d="M1.95122 20.8996C1.44612 20.8996 0.941032 20.8694 0.425937 20.8092C0.2259 20.7841 0.0658709 20.6435 0.0158617 20.4476C-0.0341475 20.2518 0.0358653 20.0509 0.200896 19.9304C1.99623 18.6148 3.38648 16.9426 4.33666 14.9541C2.65635 13.3321 1.73618 11.2984 1.73618 9.17934C1.73618 4.11765 6.96714 0 13.4033 0C19.8395 0 25.0705 4.11765 25.0705 9.17934C25.0705 14.241 19.8395 18.3587 13.4033 18.3587C12.3031 18.3587 11.2129 18.2382 10.1527 18.0022C7.57225 19.9254 4.82175 20.8996 1.95122 20.8996ZM1.76118 19.9254C4.5617 19.9806 7.19218 19.0466 9.74265 17.0933C9.85767 17.0029 10.0077 16.9727 10.1477 17.0079C11.1979 17.264 12.2931 17.3895 13.3933 17.3895C19.2894 17.3895 24.0903 13.7088 24.0903 9.18436C24.0903 4.65997 19.2944 0.979197 13.3933 0.979197C7.49224 0.979197 2.70636 4.65495 2.70636 9.17934C2.70636 11.1227 3.60652 13.0057 5.24682 14.477C5.40685 14.6176 5.45186 14.8436 5.36685 15.0395C4.52169 16.9326 3.31147 18.5696 1.76118 19.9254Z" fill="#171A19"/>
<path d="M30.283 28C27.8175 28 25.4571 27.1714 23.2317 25.5244C22.3515 25.7253 21.4213 25.8257 20.4661 25.8257C14.9151 25.8257 10.4043 22.2704 10.4043 17.8967C10.4043 17.7963 10.4043 17.7059 10.4143 17.6105C10.4393 17.3443 10.6743 17.1485 10.9444 17.1736C11.2094 17.1987 11.4045 17.4397 11.3795 17.7059C11.3745 17.7712 11.3745 17.8314 11.3745 17.8967C11.3745 21.7331 15.4552 24.8515 20.4661 24.8515C21.4263 24.8515 22.3565 24.741 23.2267 24.5301C23.3667 24.495 23.5167 24.5251 23.6367 24.6155C25.7571 26.2374 27.9325 27.0308 30.2479 27.0308C28.9827 25.891 27.9875 24.5151 27.2824 22.9383C27.1974 22.7425 27.2424 22.5165 27.4024 22.3759C28.7927 21.1306 29.5578 19.5387 29.5578 17.8967C29.5578 15.1499 27.4374 12.6492 24.1518 11.5344C23.8968 11.4491 23.7618 11.1729 23.8468 10.9168C23.9318 10.6607 24.2068 10.5251 24.4619 10.6105C28.1476 11.8608 30.523 14.7181 30.523 17.8917C30.523 19.7095 29.7379 21.457 28.3076 22.8479C29.1127 24.5201 30.288 25.9311 31.8032 27.0409C31.9633 27.1564 32.0383 27.3623 31.9833 27.5581C31.9333 27.7539 31.7682 27.8945 31.5682 27.9197C31.1431 27.9749 30.713 28 30.283 28Z" fill="#171A19"/>
<path d="M21.2731 21.8437C21.1581 21.8437 21.043 21.8035 20.958 21.7232L19.3777 20.3523C19.1727 20.1766 19.1527 19.8702 19.3277 19.6644C19.5027 19.4585 19.8078 19.4384 20.0128 19.6141L21.2181 20.6586L24.3136 16.9176C24.4837 16.7117 24.7887 16.6816 24.9988 16.8523C25.2038 17.023 25.2338 17.3293 25.0638 17.5403L21.6531 21.6629C21.5681 21.7634 21.4481 21.8286 21.3181 21.8387C21.3031 21.8437 21.2881 21.8437 21.2731 21.8437Z" fill="#171A19"/>
<path d="M13.0937 12.2776C12.8236 12.2776 12.6086 12.0617 12.6086 11.7905V9.55094C12.6086 9.27978 12.8236 9.06386 13.0937 9.06386C14.1539 9.06386 15.014 8.20016 15.014 7.13559C15.014 6.07103 14.1539 5.20733 13.0937 5.20733C12.0335 5.20733 11.1733 6.07103 11.1733 7.13559C11.1733 7.40676 10.9583 7.62268 10.6882 7.62268C10.4182 7.62268 10.2031 7.40676 10.2031 7.13559C10.2031 5.53373 11.4984 4.23315 13.0937 4.23315C14.689 4.23315 15.9842 5.53373 15.9842 7.13559C15.9842 8.57175 14.939 9.76687 13.5787 9.99786V11.7905C13.5787 12.0567 13.3637 12.2776 13.0937 12.2776Z" fill="#171A19"/>
<path d="M13.0925 14.6931C12.8225 14.6931 12.6074 14.4772 12.6074 14.206V13.1615C12.6074 12.8904 12.8225 12.6744 13.0925 12.6744C13.3626 12.6744 13.5776 12.8904 13.5776 13.1615V14.206C13.5776 14.4772 13.3626 14.6931 13.0925 14.6931Z" fill="#171A19"/>
</svg>
