<svg width="32" height="28" viewBox="0 0 32 28" fill="none" xmlns="http://www.w3.org/2000/svg">
<path d="M32 2.79999C32 2.05739 31.7078 1.3452 31.1878 0.820099C30.6678 0.294998 29.9625 0 29.227 0H21.9746C21.6105 0 21.2499 0.0724239 20.9134 0.213137C20.577 0.35385 20.2713 0.560096 20.0138 0.820099C19.7563 1.0801 19.5521 1.38877 19.4127 1.72848C19.2734 2.06819 19.2016 2.43229 19.2016 2.79999V3.65076C19.204 4.09661 19.3758 4.52453 19.6816 4.84614C19.3758 5.16776 19.204 5.59568 19.2016 6.04152V14H12.3758C12.1174 14.0035 11.8608 14.0433 11.6133 14.1184L12.8025 2.85384C12.8079 2.76418 12.8079 2.67427 12.8025 2.58461C12.8025 2.24519 12.7363 1.9091 12.6076 1.59552C12.479 1.28194 12.2904 0.997018 12.0527 0.757015C11.8151 0.517012 11.5329 0.326631 11.2223 0.196742C10.9118 0.066853 10.5789 0 10.2428 0H2.56377C1.8849 0 1.23384 0.272306 0.753809 0.757015C0.273777 1.24172 0.00409835 1.89913 0.00409835 2.58461C-0.00136612 2.67427 -0.00136612 2.76418 0.00409835 2.85384L1.95052 21.3769C2.00375 21.9046 2.22018 22.4019 2.5691 22.7984C2.28089 22.9402 2.03773 23.1605 1.86715 23.4346C1.69657 23.7087 1.60538 24.0255 1.60389 24.3492V25.1999C1.60389 25.5676 1.67562 25.9317 1.81497 26.2715C1.95433 26.6112 2.15858 26.9198 2.41608 27.1798C2.67357 27.4398 2.97927 27.6461 3.3157 27.7868C3.65213 27.9275 4.01272 27.9999 4.37687 27.9999H8.42968C9.02033 28.0038 9.59641 27.815 10.0721 27.4615C10.2324 27.6329 10.4259 27.7692 10.6406 27.8618C10.8553 27.9544 11.0865 28.0015 11.32 27.9999H20.6841H20.8014H20.9347H30.2829C30.7379 27.9985 31.1738 27.8154 31.4955 27.4905C31.8172 27.1657 31.9986 26.7255 32 26.2661V6.04152C31.9977 5.59568 31.8259 5.16776 31.5201 4.84614C31.8259 4.52453 31.9977 4.09661 32 3.65076V2.79999ZM20.2682 2.79999C20.2682 2.34301 20.448 1.90474 20.768 1.5816C21.088 1.25846 21.522 1.07692 21.9746 1.07692H29.227C29.6796 1.07692 30.1136 1.25846 30.4337 1.5816C30.7537 1.90474 30.9335 2.34301 30.9335 2.79999V3.65076C30.9335 3.82499 30.8649 3.99208 30.7429 4.11528C30.6209 4.23847 30.4554 4.30768 30.2829 4.30768H20.9188C20.7462 4.30768 20.5807 4.23847 20.4587 4.11528C20.3367 3.99208 20.2682 3.82499 20.2682 3.65076V2.79999ZM30.9335 6.03076V12.923H20.2682V6.04152C20.2682 5.8673 20.3367 5.70021 20.4587 5.57701C20.5807 5.45382 20.7462 5.3846 20.9188 5.3846H30.2829C30.4554 5.3846 30.6209 5.45382 30.7429 5.57701C30.8649 5.70021 30.9335 5.8673 30.9335 6.04152V6.03076ZM30.9335 18.3077H22.2732C22.2977 18.2428 22.3173 18.1762 22.3319 18.1084C22.3319 18.0707 22.3586 18.033 22.3692 17.9953C22.3904 17.8835 22.4012 17.77 22.4012 17.6561V16.8C22.4005 16.6192 22.3827 16.4389 22.3479 16.2615C22.3479 16.2077 22.3479 16.1538 22.3052 16.1C22.2796 15.9863 22.2457 15.8748 22.2039 15.7661C22.1805 15.7072 22.1538 15.6497 22.1239 15.5938C22.0815 15.4967 22.0316 15.403 21.9746 15.3138C21.9423 15.2549 21.9048 15.1991 21.8626 15.1469C21.8065 15.0681 21.7459 14.9926 21.6813 14.9207C21.628 14.8669 21.58 14.8077 21.5267 14.7592C21.4645 14.6994 21.3986 14.6436 21.3294 14.5923L21.1321 14.4415C21.0894 14.4146 21.0467 14.3984 21.0094 14.3715C20.7766 14.2409 20.5272 14.143 20.2682 14.0807V14H30.9335V18.3077ZM19.6283 15.0769H19.7349C20.0646 15.091 20.3832 15.2014 20.6521 15.3946C20.7346 15.4535 20.8114 15.5202 20.8814 15.5938L20.9241 15.6477C20.9796 15.7075 21.0296 15.7724 21.0734 15.8415C21.0967 15.878 21.1181 15.9158 21.1374 15.9546C21.1694 16.0138 21.2014 16.0677 21.228 16.1269C21.249 16.1869 21.2668 16.248 21.2814 16.31C21.298 16.3522 21.3122 16.3953 21.324 16.4392C21.3455 16.5528 21.3562 16.6682 21.356 16.7838V17.6346C21.3583 17.724 21.3424 17.813 21.3093 17.896C21.2763 17.9791 21.2268 18.0544 21.1638 18.1175C21.1009 18.1805 21.0259 18.2299 20.9434 18.2626C20.8609 18.2953 20.7727 18.3106 20.6841 18.3077H11.32C11.1641 18.3057 11.0143 18.2463 10.8987 18.1407L10.84 18.0869C10.7966 18.0368 10.7607 17.9805 10.7334 17.92C10.7312 17.9057 10.7312 17.8912 10.7334 17.8769C10.7037 17.8051 10.6874 17.7285 10.6854 17.6507V16.8C10.6858 16.6749 10.7001 16.5503 10.7281 16.4284V16.3746C10.754 16.2691 10.7897 16.1664 10.8347 16.0677V16.0407C10.9457 15.8152 11.104 15.6167 11.2987 15.4592C11.6015 15.2149 11.9776 15.082 12.3652 15.0823L19.6283 15.0769ZM1.07063 2.74615C1.06532 2.69244 1.06532 2.63832 1.07063 2.58461C1.07203 2.18518 1.2298 1.80252 1.50951 1.52008C1.78923 1.23764 2.1682 1.07834 2.56377 1.07692H10.2428C10.6384 1.07834 11.0173 1.23764 11.297 1.52008C11.5768 1.80252 11.7345 2.18518 11.7359 2.58461C11.7387 2.63662 11.7387 2.68875 11.7359 2.74076L10.4721 14.77C10.1978 15.0306 9.97919 15.3452 9.82971 15.6943C9.68023 16.0434 9.60303 16.4196 9.60287 16.8V17.6507C9.60269 17.7628 9.6134 17.8746 9.63486 17.9846L9.66686 18.0977C9.66686 18.1677 9.70419 18.2323 9.73085 18.2969C9.75751 18.3615 9.77885 18.3938 9.80018 18.4369C9.82151 18.48 9.84817 18.5392 9.87483 18.5823C9.91272 18.6384 9.95366 18.6923 9.99748 18.7438C9.99748 18.7438 10.0295 18.7923 10.0508 18.8138V18.8892L10.0188 18.9269C9.96614 18.9897 9.91802 19.0563 9.87483 19.1261L9.82684 19.2069C9.79484 19.2715 9.75751 19.3415 9.73085 19.4061L9.68819 19.5461C9.66903 19.6008 9.653 19.6565 9.6402 19.713C9.61898 19.8212 9.60827 19.9312 9.6082 20.0415V21.8561C9.47677 22.086 9.28795 22.277 9.06059 22.4103C8.83322 22.5435 8.57524 22.6142 8.31237 22.6153H4.49419C4.12507 22.6159 3.76893 22.4779 3.49496 22.2281C3.22099 21.9783 3.04876 21.6346 3.01171 21.2638L1.07063 2.74615ZM9.60287 26.4384C9.28824 26.7465 8.86797 26.9201 8.42968 26.923H4.37687C3.92429 26.923 3.49025 26.7415 3.17023 26.4183C2.85021 26.0952 2.67042 25.6569 2.67042 25.1999V24.3492C2.67042 24.2629 2.68725 24.1775 2.71995 24.0978C2.75264 24.0181 2.80056 23.9457 2.86097 23.8847C2.92139 23.8237 2.99311 23.7753 3.07204 23.7423C3.15097 23.7092 3.23557 23.6923 3.32101 23.6923H9.48555H9.60287V26.2553C9.60287 26.3199 9.60287 26.3846 9.60287 26.433V26.4384ZM10.6694 26.2715V20.0415C10.672 19.9621 10.6882 19.8837 10.7174 19.81C10.7174 19.81 10.7174 19.81 10.7174 19.7776C10.7448 19.7187 10.7807 19.6643 10.824 19.6161L10.8827 19.5569C10.9989 19.4481 11.1509 19.3867 11.3093 19.3846H20.6841C20.8567 19.3846 21.0221 19.4538 21.1441 19.577C21.2662 19.7002 21.3347 19.8673 21.3347 20.0415V26.2661C21.3326 26.3491 21.3164 26.431 21.2867 26.5084C21.2673 26.5437 21.2459 26.5778 21.2227 26.6107C21.2045 26.645 21.1831 26.6775 21.1587 26.7076C21.1198 26.7463 21.0769 26.7806 21.0307 26.8099L20.9721 26.8476C20.9187 26.8802 20.8613 26.9056 20.8014 26.923C20.7659 26.9256 20.7303 26.9256 20.6948 26.923H11.32C11.1474 26.923 10.982 26.8538 10.86 26.7306C10.7379 26.6074 10.6694 26.4403 10.6694 26.2661V26.2715ZM30.2829 26.923H22.2839C22.3102 26.8528 22.3316 26.7808 22.3479 26.7076L22.3799 26.6107C22.4013 26.4971 22.4121 26.3817 22.4119 26.2661V20.0415C22.4121 19.9259 22.4013 19.8105 22.3799 19.6969C22.3799 19.6592 22.3799 19.6215 22.3426 19.5838C22.328 19.516 22.3083 19.4494 22.2839 19.3846H30.9335V26.2661C30.9335 26.4403 30.8649 26.6074 30.7429 26.7306C30.6209 26.8538 30.4554 26.923 30.2829 26.923Z" fill="#171A19"/>
<path d="M12.2696 20.4614C12.1282 20.4614 11.9925 20.5182 11.8925 20.6191C11.7925 20.7201 11.7363 20.8571 11.7363 20.9999V25.3076C11.7363 25.4504 11.7925 25.5873 11.8925 25.6883C11.9925 25.7893 12.1282 25.846 12.2696 25.846C12.411 25.846 12.5467 25.7893 12.6467 25.6883C12.7467 25.5873 12.8029 25.4504 12.8029 25.3076V20.9999C12.8029 20.8571 12.7467 20.7201 12.6467 20.6191C12.5467 20.5182 12.411 20.4614 12.2696 20.4614Z" fill="#171A19"/>
<path d="M21.8672 11.846C22.0087 11.846 22.1443 11.7893 22.2443 11.6883C22.3443 11.5873 22.4005 11.4504 22.4005 11.3076V6.99989C22.4005 6.85708 22.3443 6.72012 22.2443 6.61914C22.1443 6.51816 22.0087 6.46143 21.8672 6.46143C21.7258 6.46143 21.5902 6.51816 21.4902 6.61914C21.3902 6.72012 21.334 6.85708 21.334 6.99989V11.3076C21.334 11.4504 21.3902 11.5873 21.4902 11.6883C21.5902 11.7893 21.7258 11.846 21.8672 11.846Z" fill="#171A19"/>
<path d="M4.59061 21.5384H4.64927C4.78804 21.5221 4.91494 21.4515 5.00269 21.3417C5.09045 21.232 5.13205 21.0918 5.11854 20.9514L3.20412 2.6384C3.19059 2.49736 3.12254 2.36738 3.01473 2.27666C2.90691 2.18594 2.76803 2.14179 2.62819 2.15379C2.5571 2.15917 2.48779 2.17889 2.42437 2.21178C2.36096 2.24467 2.30472 2.29007 2.25898 2.34529C2.21324 2.40052 2.17893 2.46444 2.15808 2.53328C2.13723 2.60212 2.13026 2.67449 2.13759 2.7461L4.04668 21.0537C4.06009 21.1889 4.1236 21.314 4.22447 21.4038C4.32534 21.4937 4.45613 21.5418 4.59061 21.5384Z" fill="#171A19"/>
</svg>
