<svg width="32" height="36" viewBox="0 0 32 36" fill="none" xmlns="http://www.w3.org/2000/svg">
<path fill-rule="evenodd" clip-rule="evenodd" d="M6.55085 24.5152C6.06804 25.6701 5.8435 27.4648 5.92167 29.4162L5.92242 29.4335C5.92855 29.8867 5.42579 29.9416 5.42579 29.9416C5.15909 29.9416 4.93995 29.7346 4.92922 29.4726L4.92848 29.4553C4.92235 29.3153 4.87706 28.3705 4.68547 27.6049C4.62953 27.3805 4.56291 27.1727 4.47555 27.0154C4.45332 26.9755 4.41038 26.9228 4.39352 26.9017C4.22876 26.8799 4.10994 26.9732 4.01798 27.1155C3.90149 27.2962 3.82108 27.5371 3.7636 27.8126C3.5176 28.9968 3.72759 30.7615 4.23262 31.7394C4.39509 32.0526 4.45866 32.5081 4.44486 32.9959C4.41651 33.9738 4.10539 35.0903 4.10539 35.0903C4.03259 35.35 3.75895 35.5036 3.49455 35.4321C3.23016 35.3605 3.07464 35.0918 3.14745 34.832C3.14745 34.832 3.35279 34.0973 3.42712 33.3362C3.46927 32.9018 3.48921 32.4561 3.34667 32.1813C2.65542 30.8435 2.44012 28.2493 2.99343 26.9461C3.31913 26.179 3.87779 25.7935 4.63189 25.9524C4.79129 25.9863 4.94686 26.0774 5.08863 26.2181C5.17523 25.6505 5.2932 25.1295 5.43881 24.6726C5.33382 24.6267 5.23495 24.5694 5.14222 24.5039C5.10007 24.6628 4.97671 24.7968 4.80581 24.8472C4.54295 24.9255 4.26555 24.7802 4.18584 24.522C3.90383 23.6073 3.72297 22.6565 3.65246 21.6838C3.37198 17.8466 3.03404 13.2039 2.87234 10.9831C2.77271 9.61442 3.00719 8.24125 3.55667 6.97951C4.78974 4.15789 7.89345 0 15.5739 0C23.0405 0 26.3435 3.93355 27.762 6.7386C28.4586 8.11629 28.7675 9.65281 28.6556 11.1871L27.89 21.6838C27.8141 22.7205 27.6141 23.733 27.2984 24.7034C27.2156 24.9602 26.9351 25.1017 26.6746 25.0204C26.4707 24.9564 26.3374 24.775 26.329 24.5762C26.2692 24.6123 26.2071 24.6447 26.1427 24.6726C26.2883 25.1295 26.4063 25.6505 26.4929 26.2181C26.6347 26.0774 26.7903 25.9863 26.9497 25.9524C27.7038 25.7935 28.2624 26.179 28.5881 26.9461C29.1415 28.2493 28.9268 30.8435 28.2348 32.1813C28.0931 32.4561 28.1122 32.9018 28.1544 33.3362C28.2287 34.0973 28.4341 34.832 28.4341 34.832C28.5069 35.0918 28.3513 35.3605 28.0869 35.4321C27.8226 35.5036 27.549 35.35 27.4762 35.0903C27.4762 35.0903 27.165 33.9738 27.1366 32.9959C27.1228 32.5081 27.1865 32.0526 27.349 31.7394C27.8547 30.7615 28.064 28.9968 27.818 27.8126C27.7613 27.5371 27.6808 27.2962 27.5635 27.1155C27.4716 26.9732 27.3528 26.8799 27.188 26.9017C27.1712 26.9228 27.1282 26.9755 27.1068 27.0154C27.0186 27.1727 26.952 27.3805 26.896 27.6049C26.7044 28.3705 26.6592 29.3153 26.6531 29.4553L26.6523 29.4726C26.6416 29.7346 26.4224 29.9416 26.1557 29.9416L26.1381 29.9236H26.1366C25.8691 29.913 25.6592 29.6962 25.6592 29.4357V29.4335L25.6599 29.4162C25.7381 27.4648 25.5135 25.6701 25.0307 24.5152C24.866 24.1208 24.6774 23.8061 24.4491 23.6118C24.3916 23.6005 24.3081 23.5855 24.2031 23.5727C24.0207 23.5486 23.7785 23.529 23.4957 23.5343C22.9761 23.5433 22.3194 23.6352 21.6519 23.9438C21.4427 24.0402 21.2326 24.1584 21.0249 24.3014C20.7629 24.4821 20.5514 24.6854 20.382 24.9097C20.323 24.988 20.2686 25.0686 20.2195 25.1514C20.0463 25.4457 19.9337 25.7695 19.8647 26.115C19.8616 26.1278 19.8594 26.1406 19.8571 26.1534C19.7889 26.511 19.7666 26.8919 19.772 27.2894C19.775 27.4445 19.7819 27.6034 19.7919 27.7637C19.8195 28.1853 19.8724 28.6227 19.9352 29.0706C19.9597 29.2468 19.9866 29.4252 20.0142 29.6044C20.028 29.694 20.041 29.7836 20.0555 29.8731C20.1238 30.3135 20.2686 30.7434 20.4556 31.1454C20.5 31.2395 20.546 31.3321 20.5943 31.4232C21.035 32.2544 21.6366 32.9432 22.1048 33.3211C22.2519 33.4393 22.3753 33.5266 22.4703 33.556C22.76 33.6448 23.0252 33.8616 23.2367 34.1432C23.6229 34.6559 23.8367 35.3763 23.8367 35.3763C23.9126 35.6353 23.7601 35.9063 23.4964 35.9809C23.2328 36.0554 22.957 35.9056 22.8811 35.6466C22.8811 35.6466 22.7631 35.2438 22.5455 34.8832C22.4435 34.7154 22.3347 34.5377 22.1737 34.488C22.1025 34.4662 22.0205 34.4315 21.9301 34.3834C21.5637 34.8004 21.0212 35.0647 20.4165 35.0647C19.4693 35.0647 18.6746 34.415 18.4692 33.5455C18.4109 33.6471 18.3151 33.7284 18.1925 33.7683C16.5303 34.3073 14.7224 34.2757 13.0771 33.6742C12.8272 34.479 12.0648 35.0647 11.1651 35.0647C10.5604 35.0647 10.0186 34.8004 9.65152 34.3834C9.56109 34.4315 9.47904 34.4662 9.40777 34.488C9.24683 34.5377 9.13802 34.7154 9.03686 34.8832C8.81845 35.2438 8.70046 35.6466 8.70046 35.6466C8.62459 35.9056 8.34868 36.0554 8.08506 35.9809C7.82143 35.9063 7.66971 35.6353 7.74558 35.3763C7.74558 35.3763 7.95858 34.6559 8.34482 34.1432C8.55634 33.8616 8.8215 33.6448 9.11118 33.556C9.20697 33.5266 9.32963 33.4393 9.47677 33.3211C9.94501 32.9432 10.5474 32.2544 10.9873 31.4232C11.0355 31.3321 11.0815 31.2395 11.1259 31.1454C11.3129 30.7434 11.4578 30.3135 11.526 29.8731C11.5406 29.7836 11.5544 29.694 11.5674 29.6044C11.595 29.4252 11.6218 29.2468 11.6463 29.0706C11.7099 28.6227 11.762 28.1853 11.7896 27.7637C11.8003 27.6034 11.8072 27.4445 11.8095 27.2894C11.8149 26.8919 11.7927 26.511 11.7245 26.1534C11.7222 26.1406 11.7199 26.1278 11.7168 26.115C11.6478 25.7695 11.5352 25.4457 11.362 25.1514C11.3129 25.0686 11.2585 24.988 11.1995 24.9097C11.0301 24.6854 10.8186 24.4821 10.5566 24.3014C10.3489 24.1584 10.1389 24.0402 9.9297 23.9438C9.2622 23.6352 8.60539 23.5433 8.0858 23.5343C7.80302 23.529 7.56089 23.5486 7.3785 23.5727C7.27427 23.5855 7.19072 23.6005 7.13325 23.6118C6.90487 23.8061 6.71638 24.1208 6.55085 24.5152ZM4.71002 22.2733C5.00967 21.8141 5.53313 21.5092 6.12935 21.5092C6.28569 21.5092 6.43665 21.5303 6.57996 21.5694C6.80833 21.3872 7.09874 21.2788 7.41524 21.2788C8.14635 21.2788 8.74027 21.8622 8.74027 22.5805C8.74027 22.5887 8.74027 22.5963 8.74027 22.6038C9.12115 22.652 9.535 22.7423 9.95956 22.8974C10.2584 22.5729 10.6907 22.3682 11.1712 22.3682C11.9008 22.3682 12.5192 22.8394 12.7284 23.4884C13.5538 23.5493 14.2044 24.2277 14.2044 25.0535C14.2044 25.0942 14.2029 25.1348 14.1998 25.1747C14.8275 25.4841 15.2589 26.1225 15.2589 26.8596C15.2589 27.6064 14.816 28.2523 14.1738 28.5572C14.1431 28.707 14.0895 28.8485 14.0174 28.9788C14.7501 29.3085 15.2589 30.035 15.2589 30.8782C15.2589 31.8155 14.629 32.6097 13.7615 32.8732C15.0758 33.2767 16.4874 33.2744 17.8002 32.8672C16.9434 32.5976 16.3226 31.8087 16.3226 30.8782C16.3226 30.035 16.8323 29.3085 17.5641 28.9788C17.4921 28.8485 17.4385 28.707 17.4078 28.5572C16.7656 28.2523 16.3226 27.6064 16.3226 26.8596C16.3226 26.1225 16.7541 25.4841 17.3818 25.1747C17.3787 25.1348 17.3771 25.0942 17.3771 25.0535C17.3771 24.2277 18.0285 23.5493 18.8531 23.4884C19.0623 22.8394 19.6808 22.3682 20.4104 22.3682C20.8909 22.3682 21.3239 22.5729 21.6228 22.8974C22.0466 22.7423 22.4603 22.652 22.8412 22.6038C22.8412 22.5963 22.8412 22.5887 22.8412 22.5805C22.8412 21.8622 23.4352 21.2788 24.1663 21.2788C24.4828 21.2788 24.7732 21.3872 25.0016 21.5694C25.1449 21.5303 25.2959 21.5092 25.4522 21.5092C26.027 21.5092 26.5343 21.7922 26.8385 22.2244C26.8638 22.0218 26.8838 21.8186 26.8991 21.6146L27.664 11.1178C27.7636 9.7567 27.4899 8.39484 26.8715 7.17299C25.5595 4.57722 22.4818 0.976421 15.5739 0.976421C8.49427 0.976421 5.60667 4.76392 4.47016 7.3642C3.98276 8.48291 3.77508 9.69949 3.86321 10.9138C4.02491 13.1347 4.36362 17.7766 4.64334 21.6146C4.65943 21.8351 4.68167 22.055 4.71002 22.2733ZM18.4209 32.9944C18.4217 32.9846 18.4224 32.9756 18.4224 32.9658C18.4132 32.9658 18.4041 32.9658 18.3941 32.965C18.4033 32.9748 18.4125 32.9846 18.4209 32.9944ZM18.8953 28.7898C18.8539 28.4616 18.821 28.1401 18.8003 27.8262C18.7888 27.6493 18.7811 27.4754 18.7788 27.3037C18.7719 26.8385 18.801 26.3928 18.88 25.9742C18.883 25.9584 18.8861 25.9426 18.8892 25.9268C18.9804 25.4721 19.1321 25.049 19.3597 24.662C19.4026 24.5905 19.447 24.5198 19.4946 24.4512C19.3857 24.5039 19.2593 24.516 19.1397 24.4829C19.0876 24.4678 19.0317 24.4603 18.9749 24.4603C18.6416 24.4603 18.3711 24.726 18.3711 25.0535C18.3711 25.1386 18.3887 25.2191 18.4217 25.2922C18.483 25.4277 18.4776 25.5835 18.4071 25.7152C18.3374 25.847 18.2109 25.9396 18.0623 25.9682C17.6369 26.0495 17.3166 26.4184 17.3166 26.8596C17.3166 27.2804 17.6078 27.6342 18.0025 27.7374C18.2286 27.7968 18.3818 28.0024 18.3719 28.2312C18.3711 28.2395 18.3711 28.2478 18.3711 28.2561C18.3711 28.5444 18.6041 28.78 18.8953 28.7898ZM19.0608 29.9447C18.8845 29.8317 18.6738 29.767 18.4477 29.767C17.8231 29.767 17.3166 30.2646 17.3166 30.8782C17.3166 31.4917 17.8231 31.9894 18.4477 31.9894C18.6186 31.9894 18.7819 31.9525 18.9275 31.8847C19.126 31.7929 19.3628 31.841 19.5091 32.0021C19.6555 32.1633 19.677 32.3996 19.5612 32.5833C19.4662 32.7339 19.4118 32.9116 19.4118 33.1013C19.4118 33.6456 19.8624 34.0882 20.4165 34.0882C20.7024 34.0882 20.9606 33.9708 21.143 33.7826C20.664 33.3226 20.1253 32.6534 19.713 31.8742C19.6571 31.7688 19.6034 31.6611 19.552 31.552C19.3267 31.0686 19.1551 30.5507 19.0731 30.0199C19.0692 29.9951 19.0646 29.9695 19.0608 29.9447ZM19.762 24.1102C19.9567 23.8911 20.1858 23.6879 20.4532 23.5027C20.513 23.4613 20.5736 23.4221 20.6334 23.3837C20.5644 23.3581 20.4885 23.3446 20.4104 23.3446C20.0578 23.3446 19.7712 23.6261 19.7712 23.9724C19.7712 23.98 19.772 23.9875 19.772 23.995C19.7735 24.0342 19.7697 24.0726 19.762 24.1102ZM7.62374 17.5312C7.40993 17.3626 7.37543 17.0554 7.54786 16.8454C7.71952 16.6353 8.03215 16.6015 8.24596 16.7708C8.24596 16.7708 10.342 18.4105 12.6196 16.688C12.8372 16.5239 13.1491 16.5638 13.3162 16.7776C13.484 16.9907 13.4434 17.2978 13.2258 17.4619C10.3083 19.6677 7.62374 17.5312 7.62374 17.5312ZM23.2811 16.7708C23.4949 16.6015 23.8084 16.6353 23.9801 16.8454C24.1517 17.0554 24.118 17.3626 23.9042 17.5312C23.9042 17.5312 21.2197 19.6677 18.3021 17.4619C18.0845 17.2978 18.0438 16.9907 18.2109 16.7776C18.3787 16.5638 18.6907 16.5239 18.9083 16.688C21.1859 18.4105 23.2811 16.7708 23.2811 16.7708ZM26.3435 12.0092C26.6117 12.0656 26.7818 12.3261 26.7236 12.5896C26.6661 12.8524 26.401 13.0202 26.1327 12.963C22.8934 12.2742 20.4226 9.82145 19.4739 8.75092C18.2845 10.1866 14.2956 13.9071 5.27409 13.2566C5.0005 13.237 4.79433 13.0029 4.81502 12.7342C4.83495 12.4654 5.07332 12.2636 5.3469 12.2832C15.7372 13.0323 19.0225 7.70599 19.0225 7.70599C19.1075 7.56521 19.2585 7.47637 19.4248 7.46734C19.5903 7.45906 19.7497 7.53284 19.8494 7.66458C19.8494 7.66458 22.504 11.1924 26.3435 12.0092ZM7.74633 22.5624C7.73637 22.3915 7.59227 22.2545 7.41524 22.2545C7.29646 22.2545 7.19224 22.3162 7.134 22.4081C6.99222 22.6286 6.69951 22.7009 6.46807 22.5729C6.36845 22.5172 6.25273 22.4856 6.12935 22.4856C5.74847 22.4856 5.43881 22.7897 5.43881 23.1639C5.43881 23.4244 5.58902 23.651 5.80896 23.7647C6.02814 23.3468 6.28411 23.0231 6.5623 22.8086C6.58222 22.7935 6.60215 22.7785 6.62284 22.7641C6.67189 22.7295 6.72633 22.7039 6.78457 22.6881C6.78457 22.6881 6.95618 22.6422 7.2497 22.6045C7.38841 22.5865 7.55628 22.5707 7.74633 22.5624ZM12.5207 29.9447C12.5169 29.9695 12.5123 29.9951 12.5084 30.0199C12.4264 30.5507 12.2548 31.0686 12.0295 31.552C11.9781 31.6611 11.9245 31.7688 11.8693 31.8742C11.4562 32.6534 10.9175 33.3226 10.4385 33.7826C10.6217 33.9708 10.8792 34.0882 11.1651 34.0882C11.7199 34.0882 12.1697 33.6456 12.1697 33.1013C12.1697 32.9116 12.1153 32.7339 12.0203 32.5833C11.9045 32.3996 11.9261 32.1633 12.0724 32.0021C12.2188 31.841 12.4556 31.7929 12.6548 31.8847C12.7997 31.9525 12.9629 31.9894 13.1338 31.9894C13.7584 31.9894 14.2657 31.4917 14.2657 30.8782C14.2657 30.2646 13.7584 29.767 13.1338 29.767C12.9077 29.767 12.697 29.8317 12.5207 29.9447ZM11.8195 24.1102C11.8119 24.0726 11.808 24.0342 11.8095 23.995C11.8103 23.9875 11.8103 23.98 11.8103 23.9724C11.8103 23.6261 11.5237 23.3446 11.1712 23.3446C11.093 23.3446 11.0172 23.3581 10.9482 23.3837C11.0087 23.4221 11.0685 23.4613 11.1283 23.5027C11.3965 23.6879 11.6249 23.8911 11.8195 24.1102ZM12.6863 28.7898C12.9775 28.78 13.2104 28.5444 13.2104 28.2561C13.2104 28.2478 13.2104 28.2395 13.2104 28.2312C13.1997 28.0024 13.353 27.7968 13.5791 27.7374C13.9738 27.6342 14.2657 27.2804 14.2657 26.8596C14.2657 26.4184 13.9446 26.0495 13.5193 25.9682C13.3714 25.9396 13.2442 25.847 13.1744 25.7152C13.1039 25.5835 13.0985 25.4277 13.1598 25.2922C13.1928 25.2191 13.2104 25.1386 13.2104 25.0535C13.2104 24.726 12.9399 24.4603 12.6066 24.4603C12.5498 24.4603 12.4939 24.4678 12.4418 24.4829C12.3222 24.516 12.1958 24.5039 12.0869 24.4512C12.1345 24.5198 12.179 24.5905 12.2219 24.662C12.4495 25.049 12.6012 25.4721 12.6924 25.9268C12.6955 25.9426 12.6985 25.9584 12.7016 25.9742C12.7813 26.3928 12.8104 26.8385 12.8028 27.3037C12.8005 27.4754 12.7928 27.6493 12.7813 27.8262C12.7606 28.1401 12.7276 28.4616 12.6863 28.7898ZM23.8352 22.5624C24.0253 22.5707 24.1931 22.5865 24.3318 22.6045C24.6253 22.6422 24.797 22.6881 24.797 22.6881C24.8552 22.7039 24.9096 22.7295 24.9587 22.7641C24.9793 22.7785 24.9993 22.7935 25.0192 22.8086C25.2974 23.0231 25.5534 23.3468 25.7725 23.7647C25.9925 23.651 26.1427 23.4244 26.1427 23.1639C26.1427 22.7897 25.8331 22.4856 25.4522 22.4856C25.3288 22.4856 25.2131 22.5172 25.1135 22.5729C24.8821 22.7009 24.5893 22.6286 24.4483 22.4081C24.3893 22.3162 24.285 22.2545 24.1663 22.2545C23.99 22.2545 23.8452 22.3915 23.8352 22.5624ZM1.53503 20.2587C2.38186 20.2587 3.07006 20.9348 3.07006 21.7666C3.07006 22.5993 2.38186 23.2746 1.53503 23.2746C0.687442 23.2746 0 22.5993 0 21.7666C0 20.9348 0.687442 20.2587 1.53503 20.2587ZM1.53503 21.2351C1.23615 21.2351 0.993943 21.473 0.993943 21.7666C0.993943 22.0602 1.23615 22.2981 1.53503 22.2981C1.83314 22.2981 2.07605 22.0602 2.07605 21.7666C2.07605 21.473 1.83314 21.2351 1.53503 21.2351ZM30.465 20.2587C31.3118 20.2587 32 20.9348 32 21.7666C32 22.5993 31.3118 23.2746 30.465 23.2746C29.6174 23.2746 28.9299 22.5993 28.9299 21.7666C28.9299 20.9348 29.6174 20.2587 30.465 20.2587ZM30.465 21.2351C30.1661 21.2351 29.9239 21.473 29.9239 21.7666C29.9239 22.0602 30.1661 22.2981 30.465 22.2981C30.7631 22.2981 31.006 22.0602 31.006 21.7666C31.006 21.473 30.7631 21.2351 30.465 21.2351ZM2.21016 23.8189C2.85696 23.8189 3.38192 24.3345 3.38192 24.9699C3.38192 25.6061 2.85696 26.1218 2.21016 26.1218C1.56335 26.1218 1.03765 25.6061 1.03765 24.9699C1.03765 24.3345 1.56335 23.8189 2.21016 23.8189ZM2.21016 24.7953C2.1113 24.7953 2.03159 24.8736 2.03159 24.9699C2.03159 25.0671 2.1113 25.1454 2.21016 25.1454C2.30825 25.1454 2.38873 25.0671 2.38873 24.9699C2.38873 24.8736 2.30825 24.7953 2.21016 24.7953ZM29.7898 23.8189C30.4366 23.8189 30.9615 24.3345 30.9615 24.9699C30.9615 25.6061 30.4366 26.1218 29.7898 26.1218C29.1422 26.1218 28.6173 25.6061 28.6173 24.9699C28.6173 24.3345 29.1422 23.8189 29.7898 23.8189ZM29.7898 24.7953C29.6909 24.7953 29.6112 24.8736 29.6112 24.9699C29.6112 25.0671 29.6909 25.1454 29.7898 25.1454C29.8879 25.1454 29.9676 25.0671 29.9676 24.9699C29.9676 24.8736 29.8879 24.7953 29.7898 24.7953Z" fill="#171A19"/>
</svg>
