<svg width="228" height="501" viewBox="0 0 228 501" fill="none" xmlns="http://www.w3.org/2000/svg">
<g clip-path="url(#clip0_354_9261)">
<path d="M226.3 434.638C225.93 434.823 225.412 434.749 225.227 434.267C223.34 428.777 221.267 423.361 218.529 418.205C215.79 413.049 212.459 408.226 208.759 403.738C201.135 394.464 191.884 386.637 181.966 379.96C170.827 372.467 158.873 366.346 146.883 360.448C135.115 354.662 123.236 349.06 111.875 342.457C101.92 336.708 92.1868 330.216 83.7862 322.278C89.1893 331.032 95.4434 339.23 102.549 346.686C110.875 355.441 120.312 363.156 130.526 369.574C141.813 376.659 154.099 381.629 166.46 386.526C178.598 391.348 190.847 396.282 201.542 403.923C210.757 410.526 219.084 419.169 223.414 429.852C223.932 431.188 224.376 432.486 224.709 433.896C224.857 434.489 223.932 434.675 223.71 434.155C221.489 428.777 218.899 423.769 215.235 419.206C211.571 414.606 207.241 410.6 202.542 407.076C192.143 399.286 180.189 394.13 168.162 389.345C155.728 384.411 143.293 379.589 131.784 372.727C121.496 366.569 111.912 359.113 103.4 350.655C97.2198 344.498 91.5947 337.858 86.5988 330.698C94.7773 348.838 104.436 366.309 115.464 382.853C118.943 388.084 122.607 393.203 126.381 398.248C126.455 398.248 126.492 398.285 126.566 398.359C140.481 410.044 156.172 419.503 173.232 425.587C173.38 425.29 173.639 424.993 174.083 424.882C184.778 422.137 196.657 425.216 204.688 432.82C205.502 433.599 205.021 435.009 203.8 434.86C189.293 433.376 174.971 429.444 161.686 423.398C163.98 426.069 166.238 428.814 168.643 431.41C171.863 434.86 175.267 438.162 178.857 441.24C180.967 443.095 183.187 444.839 185.407 446.545C185.518 446.508 185.629 446.471 185.74 446.471C191.773 446.359 197.953 448.622 203.134 451.664C208.389 454.78 212.941 459.046 216.271 464.239C216.752 465.018 216.086 466.02 215.161 465.649C205.65 461.754 196.62 456.709 188.257 450.774C187.924 450.811 187.628 450.7 187.369 450.329L187.11 449.921C180.522 445.135 174.342 439.794 168.717 433.859C165.313 430.298 161.982 426.477 159.28 422.285C152.767 419.169 146.513 415.534 140.592 411.379C136.632 408.597 132.931 405.592 129.416 402.291C143.997 421.321 160.428 438.866 178.302 454.854C181.226 457.488 184.149 460.122 187.11 462.718C187.998 463.497 186.925 464.907 185.962 464.165C179.412 459.194 173.084 453.89 167.015 448.326C175.045 459.454 180.411 472.548 182.854 486.051C183.668 490.613 184.186 495.213 184.334 499.85C184.334 500.777 183.224 501.334 182.632 500.555C174.749 490.539 171.049 477.519 172.492 464.833C172.603 463.979 173.454 463.757 174.083 464.054C172.64 460.826 171.012 457.71 169.198 454.669C166.904 450.811 164.387 446.99 161.612 443.429C161.538 443.318 161.501 443.206 161.501 443.095C145.995 428.146 132.043 411.453 119.609 393.982C114.095 386.266 108.914 378.291 104.029 370.167C104.177 370.686 104.288 371.206 104.436 371.725C105.694 374.507 106.99 377.252 108.47 379.923C110.542 383.67 112.8 387.305 115.168 390.903C119.831 398.025 124.679 405.036 128.528 412.64C136.928 429.259 137.816 448.066 142.923 465.723C145.625 475.108 149.474 484.048 155.802 491.578C156.357 492.246 155.95 492.95 155.358 493.21C156.172 494.174 154.951 495.695 153.951 494.805C152.36 493.395 150.954 491.838 149.622 490.168C147.216 487.868 144.959 485.346 142.775 482.861C139.556 479.151 136.521 475.293 133.709 471.287C128.047 463.275 123.162 454.706 119.128 445.803C115.02 436.752 111.801 427.33 109.506 417.685C107.212 408.004 106.286 398.174 105.25 388.269C104.362 379.626 103.067 370.798 99.6622 362.748C89.8554 345.499 81.3808 327.471 74.4975 308.887C74.3865 308.59 74.2755 308.256 74.1644 307.959C74.7195 324.281 83.0831 339.341 83.9343 355.663C84.4154 365.011 82.9721 374.285 81.7508 383.521C80.5296 392.758 79.8635 401.957 80.4556 411.231C80.7887 416.387 81.4548 421.543 82.38 426.625C83.3421 431.707 84.7114 436.641 85.9326 441.686C86.0437 442.168 85.2665 442.353 85.0815 441.908C84.9704 441.611 84.8594 441.315 84.7484 441.018L84.7484 441.129C84.8964 441.686 84.1193 441.797 83.8602 441.352C81.5288 436.975 79.8635 432.226 78.1242 427.553C76.4218 422.953 74.8305 418.279 73.3503 413.605C70.3897 404.22 67.8362 394.687 66.0969 384.968C64.3946 375.323 63.5434 365.53 63.8765 355.7C64.0615 350.804 64.5426 345.907 65.3568 341.085C66.1709 336.374 67.3922 331.774 68.5764 327.174C69.9086 322.13 71.2039 317.011 71.796 311.817C72.2031 307.959 72.129 304.102 71.4259 300.318C61.6561 271.866 55.4759 242.228 53.1815 212.218C52.7374 206.246 52.4413 200.237 52.2563 194.227C52.2563 194.487 52.1823 194.747 52.1823 194.969C51.7382 200.125 51.6272 205.319 51.7012 210.512C51.8862 221.01 52.9224 231.47 53.8106 241.931C54.7358 252.429 55.5869 262.964 55.4759 273.536C55.3649 284.145 54.1066 294.568 51.5532 304.881C48.6296 316.64 44.3368 327.991 40.007 339.304C39.859 339.675 39.5999 339.898 39.3039 339.972L39.3039 340.046C39.3039 340.046 39.2668 340.269 39.2298 340.38C39.1558 341.048 38.0456 341.085 38.0086 340.38C38.0086 340.083 38.0086 339.75 38.0086 339.453C37.7866 339.156 37.7126 338.785 37.8606 338.377L37.9346 338.154C37.7496 333.295 37.6755 328.436 37.2315 323.576C36.7134 317.938 35.9732 312.337 35.0481 306.772C33.2717 295.718 31.0143 284.738 29.386 273.647C27.7577 262.63 26.8695 251.464 27.7207 240.373C28.5718 229.43 31.4954 218.821 35.6772 208.694C40.229 197.714 46.0391 187.216 52.2193 177.052C52.5524 159.878 54.1067 142.777 56.8082 125.825C53.7366 132.465 49.9249 138.771 45.5951 144.632C42.1534 149.306 38.3417 153.683 34.2339 157.763C30.0891 161.844 25.6113 165.776 20.7264 169.003C16.9147 171.562 12.5848 173.714 8.03298 174.382C7.81094 174.493 7.58889 174.604 7.36685 174.678C6.95978 174.827 6.58971 174.753 6.33066 174.567C4.70235 174.678 3.07404 174.567 1.40873 174.233C1.18669 174.196 1.00165 174.048 0.816619 173.899C0.520564 174.196 -0.071548 173.899 0.002466 173.454C0.483557 170.301 2.74098 167.297 4.92439 165.071C7.36685 162.623 10.2534 160.657 13.325 159.099C14.2131 158.654 15.1013 158.246 15.9895 157.837C19.6162 155.463 23.5019 153.46 27.5727 151.939C30.2742 150.938 33.0867 150.159 35.9362 149.565C37.4535 148.675 38.9338 147.711 40.3031 146.635C41.6723 145.522 42.8935 144.224 44.2628 143.037C47.2234 139.105 49.9619 134.987 52.3673 130.647C54.4397 126.938 56.2901 123.08 57.9924 119.148C58.6585 115.512 59.3246 111.877 60.1018 108.279C60.4719 106.573 60.8419 104.903 61.212 103.197C59.1396 107.129 56.2531 110.653 53.1445 113.695C48.8517 117.924 43.7077 121.262 38.1567 123.599C32.6796 125.899 26.6845 127.197 20.7264 127.197C18.3209 127.197 15.1753 126.863 13.7691 124.564C12.3258 122.152 14.0651 119.741 16.3596 118.888C17.8028 118.332 19.3201 118.257 20.8374 118.22C23.1318 118.22 25.4633 118.183 27.7577 118.183C32.3466 118.183 36.8984 118.295 41.4873 118.443C42.0054 118.443 42.3014 118.814 42.3755 119.222C45.484 117.479 48.4446 115.401 51.1091 113.027C55.735 108.91 59.1026 103.939 62.1002 98.5603C62.1742 98.449 62.2852 98.3748 62.3592 98.3006C69.7236 67.7717 80.9737 38.096 96.2206 10.646C98.182 7.12199 100.217 3.63511 102.364 0.222391C102.697 -0.334006 103.622 0.222391 103.326 0.778787C96.3316 13.6135 89.9294 26.708 84.2303 40.0991C81.8249 49.9292 83.6752 60.3528 87.1169 69.7377C90.8916 80.0129 96.6647 89.3608 101.55 99.1167C110.986 117.961 116.796 138.622 118.573 159.618C119.572 171.451 119.313 183.359 117.796 195.118C117.648 196.268 116.056 196.416 115.612 195.377C111.319 185.213 104.51 176.607 97.8489 167.927C91.3357 159.507 85.3405 150.864 80.8627 141.145C72.2401 122.412 68.8354 101.305 70.8708 80.7919C71.0929 78.3437 71.4259 75.9325 71.833 73.4843C69.3535 81.2 67.1701 89.027 65.2458 96.9652C62.5072 108.316 60.3238 119.815 58.6585 131.389C58.8436 132.724 58.9176 134.06 59.0656 135.395C59.2876 137.361 59.5097 139.29 59.8057 141.256C60.3608 145.077 61.101 148.898 61.9891 152.681C62.2112 153.683 62.5072 154.647 62.7663 155.649C63.9135 156.836 64.9867 158.171 66.0599 159.433C67.6142 161.213 69.1685 163.031 70.6858 164.811C73.2393 167.816 75.7557 170.858 78.3092 173.899C78.4573 173.825 78.6053 173.788 78.7533 173.751C80.3076 173.343 82.0099 174.085 82.602 175.606C83.2682 177.312 82.38 179.167 80.8257 180.02C80.4556 180.206 80.0856 180.094 79.7895 179.909C79.5675 179.909 79.3824 179.909 79.1604 179.909C77.6801 179.723 76.5329 178.351 76.4219 176.867C76.3849 176.236 76.5329 175.68 76.8289 175.161C74.3495 172.119 71.87 169.077 69.3905 166.072C67.9843 164.329 66.615 162.586 65.2088 160.842C64.6907 160.212 64.1726 159.581 63.6545 158.95C65.2458 164.403 67.1331 169.745 69.3905 174.975C70.2787 177.015 71.2039 179.019 72.1661 180.985C72.8322 182.32 73.6093 183.692 74.2385 185.065C74.8676 184.842 75.5707 184.917 76.1628 185.139C76.8289 185.399 77.4581 185.955 77.6801 186.66C77.9762 187.476 77.8281 188.403 77.273 189.071C76.3108 190.295 74.2755 190.703 73.0912 189.553C72.7582 189.22 72.4621 188.849 72.3141 188.403C72.1661 187.921 72.092 187.476 72.1661 186.994C72.1661 186.92 72.1661 186.883 72.1661 186.808C72.2031 186.549 72.3141 186.4 72.4621 186.215C71.722 185.065 71.0929 183.841 70.5007 182.617C69.6126 180.873 68.7614 179.093 67.9473 177.312C66.319 173.677 64.8757 169.93 63.5804 166.147C61.027 158.616 59.2506 150.827 58.2514 142.925C58.0294 141.145 57.8444 139.364 57.6963 137.547C56.068 150.27 55.1058 163.105 54.8468 175.903C54.9208 176.088 54.9208 176.311 54.8468 176.533C54.8468 176.867 54.8468 177.164 54.8468 177.498C54.9948 177.72 55.0318 178.017 54.9208 178.351L54.8468 178.536C54.7728 184.249 54.8098 189.961 54.9948 195.674C55.6239 196.564 56.2901 197.417 56.9562 198.308C66.0599 202.759 74.9046 207.73 83.5642 212.997C92.89 218.71 101.92 224.867 110.468 231.656C126.566 244.416 141.036 259.477 151.768 277.097C157.652 286.741 162.426 297.128 165.646 307.959C166.09 309.406 163.869 310.333 163.462 308.85C163.462 308.776 163.388 308.664 163.388 308.59C159.317 298.426 149.844 291.86 140.629 286.741C135.818 284.07 130.896 281.548 126.196 278.729C121.866 276.132 117.648 273.35 113.54 270.42C97.0718 258.549 82.676 243.971 70.7968 227.501C64.9127 219.34 59.6207 210.623 55.2169 201.572C56.2531 222.382 59.1396 243.118 63.8025 263.409C65.1347 265.375 66.356 267.415 67.7252 269.344C69.5015 271.866 71.2779 274.352 73.2023 276.763C77.051 281.622 81.2328 286.148 85.7476 290.377C92.927 297.091 100.883 302.989 109.358 307.922C109.432 307.848 109.506 307.774 109.617 307.737C111.986 306.698 114.872 306.884 117.389 307.255C119.942 307.626 122.422 308.405 124.753 309.517C129.49 311.78 133.413 315.453 135.892 320.089C136.447 321.128 135.189 321.944 134.301 321.647C122.385 317.864 111.023 312.337 100.735 305.214C94.7403 301.06 89.1152 296.349 83.8973 291.267C85.2295 294.346 86.6728 297.35 88.1901 300.281C88.4491 299.873 89.0042 299.687 89.5223 300.058C93.3711 302.729 96.9237 305.697 100.032 309.184C101.55 310.89 102.956 312.67 104.251 314.562C105.324 316.12 107.138 318.494 105.805 320.423C104.695 322.018 102.512 321.833 101.068 320.868C99.2922 319.644 97.8119 317.641 96.4426 316.009C93.4081 312.374 90.6695 308.442 88.3011 304.324C85.6736 299.724 83.4162 294.865 82.0839 289.709C82.0839 289.635 82.0839 289.56 82.0839 289.486C79.0123 286.333 76.0518 283.069 73.2763 279.656C71.0928 276.948 68.9835 274.129 67.0221 271.236C66.2819 270.123 65.5048 268.973 64.7647 267.823C67.1701 277.653 69.9826 287.409 73.2023 297.017C75.5337 303.879 78.0502 310.667 80.7517 317.381C82.0839 318.606 83.4532 319.83 84.8224 320.98C89.8554 322.389 94.8143 324.096 99.7732 325.765C106.175 327.879 112.541 330.068 118.832 332.442C131.118 337.005 143.219 342.124 154.84 348.207C165.683 353.883 176.119 360.374 185.703 368.016C195.251 375.583 203.985 384.263 211.201 394.13C218.677 404.331 224.302 415.905 226.966 428.294C227.336 429.927 227.595 431.559 227.817 433.228C227.965 434.341 226.966 434.823 226.152 434.638L226.3 434.638ZM148.03 484.567C140.999 472.214 138.927 457.34 136.225 443.54C134.412 434.155 132.302 424.77 128.306 416.053C124.716 408.226 119.831 401.104 115.168 393.908C112.578 389.901 110.024 385.895 107.73 381.741C107.249 380.85 106.805 379.96 106.36 379.033C112.504 394.761 118.314 410.637 124.124 426.477C127.158 434.712 130.156 442.947 133.228 451.182C135.966 458.527 138.557 465.945 141.702 473.105C143.478 477.111 145.551 480.969 147.956 484.53L148.03 484.567ZM106.657 382.928C108.063 392.795 108.692 402.736 110.727 412.492C114.761 431.855 122.496 450.403 133.524 466.799C136.336 471.027 139.408 475.071 142.627 479.003C142.331 478.446 142.072 477.89 141.776 477.296C138.446 470.36 135.966 463.052 133.376 455.819C127.343 439.052 121.163 422.285 115.094 405.555C112.134 397.357 109.21 389.16 106.36 380.962C106.472 381.629 106.583 382.26 106.694 382.928L106.657 382.928ZM39.2299 205.801C34.752 215.853 31.3844 226.388 30.1631 237.368C27.6467 259.477 32.9017 281.511 36.4543 303.211C37.4535 309.406 38.3787 315.638 38.9338 321.907C39.3039 325.802 39.5999 329.845 39.5999 333.814C40.155 332.368 40.6731 330.958 41.2282 329.511C44.9289 311.929 42.7085 293.418 40.6731 275.687C39.4149 264.818 38.4157 253.987 38.6377 243.044C38.8598 232.435 40.081 221.826 42.2644 211.439C43.4857 205.652 45.0029 199.94 46.7793 194.301C47.7044 191.371 48.7036 188.441 49.8138 185.547C46.0391 192.187 42.3754 198.864 39.2669 205.875L39.2299 205.801ZM49.3328 193.3C47.6674 198.382 46.2612 203.538 45.077 208.731C42.7455 219.081 41.3763 229.69 40.9692 240.299C40.5251 251.242 41.3762 262.11 42.5235 272.979C43.6707 284.033 45.0769 295.05 45.114 306.179C45.114 311.224 44.8549 316.269 44.1888 321.239C45.7431 316.788 47.2233 312.299 48.4816 307.774C51.3311 297.536 52.9964 287.075 53.3295 276.429C53.9956 255.359 50.48 234.438 50.2209 213.405C50.1469 207.693 50.2209 202.017 50.665 196.342C50.9611 192.929 51.3311 189.479 51.9603 186.066C51.0351 188.478 50.1469 190.889 49.3328 193.337L49.3328 193.3ZM116.833 176.014C117.056 161.065 115.279 146.078 111.43 131.612C108.729 121.411 105.065 111.506 100.476 102.01C95.6655 92.0687 89.8924 82.6096 85.9697 72.2231C82.676 63.4688 80.8257 53.8241 82.343 44.5505C81.9729 45.4036 81.6399 46.2939 81.2698 47.1471C81.4178 47.3697 81.4918 47.7035 81.3438 48.0374C81.2328 48.2599 81.1588 48.5196 81.0848 48.7422C81.6029 67.5862 87.1909 85.7255 93.8522 103.271C101.032 122.152 109.395 140.7 114.058 160.434C115.279 165.553 116.204 170.783 116.759 176.014L116.833 176.014ZM115.094 178.61C114.687 173.64 113.947 168.706 112.985 163.847C110.986 153.757 107.878 143.964 104.362 134.319C97.4418 115.401 89.0042 97.0023 84.0823 77.3792C81.9359 68.6991 80.4556 59.8335 80.2706 50.8937C79.4194 53.1564 78.6053 55.4192 77.8652 57.7191C76.977 62.0591 76.5329 66.4363 76.4589 70.8506C76.3109 81.0145 78.1982 91.1413 81.2698 100.823C87.82 121.559 99.1812 140.292 107.619 160.286C110.801 167.853 113.54 175.643 115.353 183.655C115.316 181.986 115.242 180.28 115.094 178.61ZM73.5353 108.131C74.9416 118.257 77.6431 128.199 81.6769 137.584C85.8216 147.266 91.4837 155.983 97.8859 164.329C104.066 172.416 110.616 180.465 115.353 189.553L115.353 189.145C111.245 169.596 101.661 151.68 92.853 133.949C83.4162 114.956 74.4605 94.925 74.1274 73.2988C74.1274 73.1875 74.1274 73.0392 74.1274 72.9279C73.8684 74.4487 73.6093 76.0067 73.4243 77.5276C72.1291 87.6915 72.1661 97.9667 73.5723 108.131L73.5353 108.131ZM89.7814 247.384C96.8867 254.729 104.621 261.517 112.874 267.563C116.907 270.531 121.052 273.313 125.271 275.947C129.971 278.84 134.856 281.437 139.704 284.07C147.327 288.225 155.247 293.122 160.354 300.207C159.614 298.389 158.799 296.608 157.911 294.828C155.654 290.377 152.952 286.148 149.918 282.142C143.664 273.869 136.114 266.673 128.047 260.219C110.727 246.308 91.1136 235.439 74.3865 220.75C69.1685 216.15 64.0985 211.142 59.7317 205.615C67.7622 220.861 77.7541 234.994 89.7814 247.421L89.7814 247.384ZM73.7204 217.041C81.7509 224.274 90.5585 230.617 99.4402 236.775C117.167 249.016 135.67 260.812 149.474 277.653C144.959 270.345 139.815 263.446 134.19 257.029C120.275 241.115 103.511 228.058 85.7476 216.744C76.977 211.142 67.9103 206.098 58.8806 200.941C63.3584 206.728 68.2803 212.107 73.7574 217.041L73.7204 217.041ZM81.1587 430.001C81.3068 430.446 81.4918 430.928 81.6398 431.373C81.4178 430.483 81.2327 429.593 81.0107 428.74C80.0485 424.251 79.3084 419.726 78.8643 415.163C77.9391 405.926 78.1612 396.653 79.2344 387.453C80.3076 378.031 82.0469 368.609 81.9729 359.113C81.8989 350.099 79.6415 341.493 77.125 332.887C76.3848 330.327 75.6447 327.731 74.9416 325.171C74.9416 338.266 74.9416 351.397 74.9416 364.492C75.0156 379.663 75.2746 394.909 77.273 409.97C78.1612 416.721 79.4194 423.435 81.1217 430.075L81.1587 430.001ZM73.1282 344.275C73.1282 335.15 73.1282 325.987 73.0912 316.862C72.9802 316.157 72.8322 315.49 72.7212 314.822C72.3141 317.493 71.796 320.126 71.2039 322.649C70.1677 327.212 68.9094 331.737 67.9473 336.337C66.9481 341.122 66.2819 346.019 65.9489 350.878C64.6166 370.761 68.4653 390.606 74.2384 409.562C75.3856 413.345 76.6439 417.092 77.9021 420.838C75.7927 410.971 74.6085 400.919 73.9424 390.829C72.9432 375.323 73.0912 359.781 73.0542 344.275L73.1282 344.275ZM220.194 414.569C217.899 408.968 215.013 403.626 211.645 398.582C204.947 388.603 196.509 379.812 187.332 372.133C178.08 364.417 167.977 357.74 157.393 351.954C146.18 345.833 134.449 340.64 122.57 336.04C111.282 331.663 99.8103 327.916 88.4121 323.91C95.1474 329.4 102.29 334.334 109.839 338.748C121.163 345.388 133.043 351.063 144.811 356.85C156.912 362.748 168.976 368.795 180.337 376.065C190.662 382.668 200.284 390.347 208.389 399.583C213.755 405.667 218.566 412.529 222.081 419.948C221.526 418.13 220.897 416.35 220.157 414.606L220.194 414.569Z" fill="#015F45"/>
<path d="M201.059 444.468C201.059 444.468 200.726 444.69 200.504 444.765C200.467 444.765 200.393 444.839 200.356 444.839C199.986 444.95 199.69 444.987 199.283 444.95C199.023 444.95 198.727 444.876 198.505 444.765C197.913 444.542 197.432 444.06 197.136 443.503C197.025 443.244 196.951 442.984 196.914 442.687C196.914 442.428 196.914 442.131 196.951 441.834C197.099 441.203 197.432 440.61 197.95 440.202C198.468 439.794 199.171 439.608 199.801 439.72C200.467 439.794 201.059 440.165 201.503 440.647C201.688 440.87 201.873 441.129 201.984 441.389C202.132 441.76 202.169 442.131 202.169 442.539C202.169 443.244 201.725 443.911 201.207 444.357C201.17 444.357 201.133 444.394 201.096 444.431L201.059 444.468Z" fill="#015F45"/>
<path d="M154.616 460.493C154.394 459.565 154.764 458.453 155.393 457.748C156.133 456.932 157.132 456.449 158.242 456.561C159.204 456.635 160.204 457.303 160.685 458.119C161.277 459.083 161.499 460.27 161.018 461.346C160.537 462.459 159.316 463.312 158.057 463.015L157.983 463.015C157.465 463.015 156.947 462.941 156.466 462.756C155.985 462.57 155.615 462.236 155.282 461.865C154.912 461.494 154.727 461.012 154.616 460.493Z" fill="#015F45"/>
<path d="M159.724 452.369C159.798 452.592 159.835 452.777 159.798 453C159.798 453.222 159.687 453.408 159.539 453.556C159.391 453.741 159.243 453.853 159.058 453.927C158.836 454.001 158.651 454.038 158.429 454.001C158.392 454.001 158.318 454.001 158.281 454.001C158.17 454.001 158.022 454.001 157.911 453.927C157.837 453.927 157.763 453.927 157.689 453.853L157.652 453.853L157.541 453.779C157.318 453.667 157.096 453.519 156.948 453.333C156.8 453.111 156.689 452.888 156.652 452.629L156.652 452.221C156.689 451.961 156.8 451.738 156.948 451.553C157.059 451.404 157.207 451.293 157.392 451.182C157.541 451.071 157.726 450.996 157.948 450.996C158.207 450.996 158.466 450.996 158.688 451.108C158.91 451.219 159.132 451.367 159.28 451.553C159.391 451.664 159.465 451.813 159.539 451.961C159.576 452.035 159.65 452.109 159.687 452.183C159.687 452.221 159.724 452.295 159.761 452.332L159.724 452.369Z" fill="#015F45"/>
<path d="M159.537 452.035C159.537 452.035 159.537 451.998 159.5 451.961C159.463 451.887 159.426 451.775 159.352 451.738L159.537 452.035Z" fill="#015F45"/>
<path d="M164.351 458.119C164.351 458.119 164.499 457.933 164.573 457.859L164.795 457.748C164.795 457.748 165.017 457.674 165.165 457.674C165.202 457.674 165.239 457.674 165.276 457.674L165.313 457.674L165.535 457.748C165.535 457.748 165.72 457.859 165.794 457.933C165.868 457.97 165.905 458.045 165.905 458.119C165.979 458.193 166.016 458.304 166.016 458.415C166.016 458.638 166.016 458.675 166.016 458.824C165.979 458.972 165.979 459.009 165.868 459.157L165.72 459.306L165.683 459.306L165.683 459.38C165.683 459.38 165.424 459.491 165.313 459.528C165.202 459.565 165.091 459.565 164.943 459.528L164.721 459.454C164.721 459.454 164.536 459.343 164.462 459.269C164.388 459.232 164.351 459.157 164.314 459.083C164.24 458.972 164.203 458.861 164.203 458.749L164.203 458.527C164.203 458.527 164.277 458.23 164.388 458.119L164.351 458.119Z" fill="#015F45"/>
<path d="M106.876 291.972C107.135 292.343 107.246 292.677 107.358 293.085C107.358 293.196 107.395 293.307 107.395 293.381C107.395 293.604 107.395 293.789 107.395 294.012C107.32 294.42 107.172 294.791 106.913 295.125C106.913 295.162 106.839 295.199 106.802 295.236C106.802 295.459 106.802 295.718 106.58 295.83C106.358 295.978 106.099 296.089 105.84 296.201C105.729 296.238 105.655 296.275 105.544 296.312C105.433 296.312 105.322 296.386 105.211 296.386C105.063 296.386 104.915 296.386 104.804 296.386C104.508 296.386 104.175 296.275 103.916 296.163C103.657 296.052 103.435 295.904 103.25 295.718C103.25 295.718 103.176 295.681 103.139 295.644C102.584 295.199 102.214 294.531 102.103 293.826C101.991 293.122 102.214 292.38 102.658 291.823C103.065 291.341 103.694 290.97 104.323 290.933C104.619 290.859 104.878 290.822 105.174 290.859C105.581 290.896 105.951 291.081 106.284 291.304C106.543 291.452 106.765 291.712 106.95 291.935L106.876 291.972Z" fill="#015F45"/>
<path d="M105.249 287.112C105.249 287.112 105.175 287.224 105.101 287.298C105.101 287.298 105.064 287.298 105.027 287.298C104.953 287.372 104.842 287.446 104.694 287.483C104.435 287.595 104.213 287.595 103.954 287.558C103.695 287.52 103.473 287.409 103.288 287.261C103.14 287.149 103.029 287.001 102.955 286.853C102.844 286.704 102.77 286.519 102.77 286.333C102.77 286.074 102.77 285.814 102.881 285.592C102.992 285.369 103.14 285.183 103.325 285.035C103.473 284.924 103.658 284.85 103.843 284.813C104.028 284.738 104.213 284.738 104.398 284.775C104.657 284.813 104.879 284.924 105.064 285.072C105.397 285.332 105.545 285.703 105.582 286.074C105.582 286.074 105.582 286.222 105.582 286.259C105.582 286.296 105.582 286.333 105.582 286.408C105.582 286.408 105.582 286.667 105.508 286.779C105.471 286.89 105.36 286.964 105.286 287.075L105.249 287.075L105.249 287.112Z" fill="#015F45"/>
<path d="M112.204 291.304C112.204 291.304 111.908 291.49 111.723 291.49C111.575 291.49 111.464 291.49 111.316 291.452C111.168 291.452 111.057 291.378 110.946 291.267C110.835 291.193 110.761 291.082 110.687 290.97C110.613 290.859 110.576 290.711 110.539 290.599L110.539 290.34C110.539 290.34 110.65 290.006 110.761 289.857L110.946 289.672C110.946 289.672 111.242 289.486 111.427 289.486C111.575 289.486 111.686 289.486 111.834 289.524C111.982 289.524 112.093 289.598 112.204 289.709C112.315 289.783 112.389 289.894 112.463 290.006C112.537 290.117 112.574 290.265 112.611 290.377L112.611 290.636C112.611 290.636 112.5 290.97 112.389 291.119L112.204 291.304Z" fill="#015F45"/>
<path d="M40.7843 178.499C40.4513 179.612 39.7481 180.577 38.6749 180.985C36.3435 181.801 34.1971 179.649 34.0491 177.387C33.9751 176.125 34.3081 174.753 35.1593 173.788C36.0475 172.787 37.2687 172.268 38.6009 172.342C40.9694 172.527 42.6347 175.383 41.5615 177.498C41.3765 177.869 41.0804 178.203 40.7843 178.499Z" fill="#015F45"/>
<path d="M40.4084 167.111C40.4084 167.111 40.2233 166.815 40.1863 166.666C40.1123 166.518 40.1123 166.332 40.1493 166.147C40.1493 165.961 40.2233 165.813 40.3343 165.702C40.4084 165.553 40.5194 165.442 40.6304 165.331C40.7784 165.22 40.9265 165.145 41.0745 165.108C41.1485 165.108 41.1855 165.108 41.2595 165.108L41.7036 165.108C41.7036 165.108 41.9626 165.108 42.0737 165.182C42.1477 165.182 42.2217 165.257 42.2587 165.331C42.3327 165.368 42.3697 165.442 42.4067 165.516L42.5548 165.813C42.6288 166.036 42.6658 166.258 42.6288 166.481L42.5548 166.815C42.4807 167 42.3327 167.186 42.1477 167.334L41.8516 167.482C41.6296 167.556 41.4075 167.594 41.1855 167.556C41.0005 167.556 40.8524 167.482 40.7414 167.371C40.5934 167.297 40.4824 167.186 40.3713 167.074L40.4084 167.111Z" fill="#015F45"/>
</g>
<defs>
<clipPath id="clip0_354_9261">
<rect width="228" height="501" fill="white" transform="matrix(1 8.74228e-08 8.74228e-08 -1 0 501)"/>
</clipPath>
</defs>
</svg>
