<svg width="14" height="9" viewBox="0 0 14 9" fill="none" xmlns="http://www.w3.org/2000/svg">
<path d="M0.289206 7.79161C0.38217 7.88533 0.49277 7.95973 0.614629 8.0105C0.736488 8.06127 0.867194 8.0874 0.999206 8.0874C1.13122 8.0874 1.26192 8.06127 1.38378 8.0105C1.50564 7.95973 1.61624 7.88533 1.7092 7.79161L6.28921 3.21161C6.38217 3.11789 6.49277 3.04349 6.61463 2.99272C6.73649 2.94196 6.86719 2.91582 6.99921 2.91582C7.13122 2.91582 7.26192 2.94196 7.38378 2.99272C7.50564 3.04349 7.61624 3.11789 7.70921 3.21161L12.2892 7.7916C12.3822 7.88533 12.4928 7.95973 12.6146 8.0105C12.7365 8.06126 12.8672 8.0874 12.9992 8.0874C13.1312 8.0874 13.2619 8.06126 13.3838 8.0105C13.5056 7.95973 13.6162 7.88533 13.7092 7.7916C13.8955 7.60424 14 7.35079 14 7.08661C14 6.82242 13.8955 6.56897 13.7092 6.38161L9.11921 1.79162C8.5567 1.22982 7.79421 0.914259 6.99921 0.914259C6.2042 0.914259 5.44171 1.22982 4.87921 1.79162L0.289206 6.38161C0.102956 6.56897 -0.00158798 6.82242 -0.00158796 7.08661C-0.00158793 7.35079 0.102956 7.60424 0.289206 7.79161Z" fill="#171A19"/>
</svg>
