<svg width="20" height="20" viewBox="0 0 20 20" fill="none" xmlns="http://www.w3.org/2000/svg">
<path d="M10.833 0.833413C10.833 0.612399 10.9208 0.400438 11.0771 0.244157C11.2333 0.087877 11.4453 7.95858e-05 11.6663 7.95858e-05C13.8757 0.00250592 15.9939 0.881259 17.5562 2.44354C19.1185 4.00581 19.9972 6.12402 19.9996 8.33341C19.9996 8.55443 19.9118 8.76639 19.7556 8.92267C19.5993 9.07895 19.3873 9.16675 19.1663 9.16675C18.9453 9.16675 18.7333 9.07895 18.577 8.92267C18.4208 8.76639 18.333 8.55443 18.333 8.33341C18.331 6.56591 17.628 4.87137 16.3782 3.62156C15.1283 2.37175 13.4338 1.66873 11.6663 1.66675C11.4453 1.66675 11.2333 1.57895 11.0771 1.42267C10.9208 1.26639 10.833 1.05443 10.833 0.833413ZM11.6663 5.00008C12.5504 5.00008 13.3982 5.35127 14.0233 5.97639C14.6485 6.60151 14.9996 7.44936 14.9996 8.33341C14.9996 8.55443 15.0874 8.76639 15.2437 8.92267C15.4 9.07895 15.612 9.16675 15.833 9.16675C16.054 9.16675 16.266 9.07895 16.4222 8.92267C16.5785 8.76639 16.6663 8.55443 16.6663 8.33341C16.665 7.00774 16.1378 5.73674 15.2004 4.79934C14.263 3.86195 12.992 3.33474 11.6663 3.33341C11.4453 3.33341 11.2333 3.42121 11.0771 3.57749C10.9208 3.73377 10.833 3.94573 10.833 4.16675C10.833 4.38776 10.9208 4.59972 11.0771 4.756C11.2333 4.91228 11.4453 5.00008 11.6663 5.00008ZM19.2438 13.9492C19.7267 14.4335 19.9979 15.0895 19.9979 15.7734C19.9979 16.4573 19.7267 17.1133 19.2438 17.5976L18.4855 18.4717C11.6605 25.0059 -4.94783 8.40175 1.48549 1.55508L2.44383 0.721746C2.92863 0.252311 3.57877 -0.00737952 4.25358 -0.00114138C4.92839 0.00509676 5.57361 0.276762 6.04966 0.75508C6.07549 0.780913 7.61965 2.78675 7.61965 2.78675C8.07784 3.2681 8.33291 3.90752 8.33182 4.57208C8.33073 5.23664 8.07358 5.87522 7.61382 6.35508L6.64882 7.56841C7.18286 8.86601 7.96804 10.0453 8.95924 11.0385C9.95045 12.0317 11.1281 12.8193 12.4246 13.3559L13.6455 12.3851C14.1254 11.9257 14.7639 11.6688 15.4282 11.6679C16.0926 11.667 16.7318 11.922 17.213 12.3801C17.213 12.3801 19.218 13.9234 19.2438 13.9492ZM18.0971 15.1609C18.0971 15.1609 16.103 13.6267 16.0771 13.6009C15.9055 13.4307 15.6735 13.3352 15.4317 13.3352C15.19 13.3352 14.958 13.4307 14.7863 13.6009C14.7638 13.6242 13.083 14.9634 13.083 14.9634C12.9697 15.0536 12.8349 15.1127 12.6919 15.1349C12.5488 15.1571 12.4024 15.1417 12.2671 15.0901C10.5875 14.4647 9.06193 13.4857 7.79368 12.2193C6.52543 10.9529 5.54416 9.42877 4.91632 7.75008C4.86065 7.61296 4.84251 7.46349 4.86374 7.31703C4.88498 7.17057 4.94483 7.03241 5.03716 6.91675C5.03716 6.91675 6.37632 5.23508 6.39882 5.21341C6.56904 5.04173 6.66455 4.80976 6.66455 4.568C6.66455 4.32623 6.56904 4.09426 6.39882 3.92258C6.37299 3.89758 4.83882 1.90175 4.83882 1.90175C4.66457 1.7455 4.43716 1.66183 4.2032 1.66787C3.96923 1.67391 3.74644 1.76922 3.58049 1.93425L2.62216 2.76758C-2.0795 8.42091 12.313 22.0151 17.2671 17.3334L18.0263 16.4584C18.2042 16.2936 18.3111 16.0661 18.3243 15.824C18.3375 15.5819 18.256 15.3441 18.0971 15.1609Z" fill="white"/>
</svg>
