<svg width="60" height="60" viewBox="0 0 60 60" fill="none" xmlns="http://www.w3.org/2000/svg">
<path d="M29.999 34.3683C35.8201 34.3683 40.5389 29.6494 40.5389 23.8283C40.5389 18.0072 35.8201 13.2883 29.999 13.2883C24.1779 13.2883 19.459 18.0072 19.459 23.8283C19.459 29.6494 24.1779 34.3683 29.999 34.3683Z" stroke="white" stroke-miterlimit="10" stroke-linecap="round" stroke-linejoin="round"/>
<path d="M29.9994 38.6677C38.1948 38.6677 44.8386 32.0239 44.8386 23.8285C44.8386 15.633 38.1948 8.98926 29.9994 8.98926C21.8039 8.98926 15.1602 15.633 15.1602 23.8285C15.1602 32.0239 21.8039 38.6677 29.9994 38.6677Z" stroke="white" stroke-miterlimit="10" stroke-linecap="round" stroke-linejoin="round"/>
<path d="M15.0218 23.8284H11C11 34.2297 19.4598 42.8281 29.9997 42.8281C40.5397 42.8281 48.9994 34.3684 48.9994 23.8284H44.9776" stroke="white" stroke-miterlimit="10" stroke-linecap="round" stroke-linejoin="round"/>
<path d="M30 17.5876C33.4671 17.5876 36.2408 20.3613 36.2408 23.8284" stroke="white" stroke-miterlimit="10" stroke-linecap="round" stroke-linejoin="round"/>
<path d="M32.5659 42.8281H27.5732V46.0179H32.5659V42.8281Z" stroke="white" stroke-miterlimit="10" stroke-linecap="round" stroke-linejoin="round"/>
<path d="M41.3028 48.6528C33.8138 45.047 26.3249 45.1857 18.6973 48.6528V51.0105H41.3028V48.6528Z" stroke="white" stroke-miterlimit="10" stroke-linecap="round" stroke-linejoin="round"/>
</svg>
