<svg width="40" height="40" viewBox="0 0 40 40" fill="none" xmlns="http://www.w3.org/2000/svg">
<path d="M34.2006 20.2999C33.1006 26.3999 27.8006 30.5999 21.9006 30.5999C21.1006 30.5999 20.4006 30.4999 19.6006 30.3999C20.9006 29.0999 21.9006 27.5999 22.6006 26.0999C22.6006 25.9999 22.7006 25.8999 22.7006 25.7999C23.0006 25.1999 23.2006 24.5999 23.4006 23.9999C23.5006 23.7999 23.5006 23.4999 23.6006 23.2999C24.4006 22.5999 25.2006 21.9999 26.1006 21.4999C28.6006 20.2999 31.4006 19.7999 34.2006 20.2999Z" stroke="#015F45" stroke-miterlimit="10" stroke-linecap="round" stroke-linejoin="round"/>
<path d="M19.6 30.3999C18.8 30.4999 18.1 30.5999 17.3 30.5999C11.3 30.5999 6.1 26.3999 5 20.2999C7.9 19.7999 10.7 20.2999 13 21.4999C13.9 21.9999 14.8 22.5999 15.5 23.2999C15.6 23.4999 15.6 23.7999 15.7 23.9999C15.9 24.5999 16.1 25.1999 16.3 25.7999C16.3 25.8999 16.4 25.9999 16.4 26.0999C17.3 27.5999 18.3 29.0999 19.6 30.3999Z" stroke="#015F45" stroke-miterlimit="10" stroke-linecap="round" stroke-linejoin="round"/>
<path d="M24.0002 19.7C24.0002 20.9 23.9002 22.1 23.6002 23.3C23.5002 23.5 23.5002 23.8 23.4002 24C23.2002 24.6 23.0002 25.2 22.7002 25.8C22.7002 25.9 22.6002 26 22.6002 26.1C21.9002 27.7 20.8002 29.1 19.6002 30.4C18.3002 29.1 17.3002 27.6 16.6002 26.1C16.6002 26 16.5002 25.9 16.5002 25.8C16.2002 25.2 16.0002 24.6 15.9002 24C15.8002 23.8 15.8002 23.5 15.7002 23.3C15.0002 20.5 15.2002 17.5 16.1002 14.8C16.8002 12.7 18.0002 10.7 19.7002 9C21.4002 10.7 22.6002 12.7 23.3002 14.8C23.8002 16.4 24.0002 18 24.0002 19.7Z" stroke="#015F45" stroke-miterlimit="10" stroke-linecap="round" stroke-linejoin="round"/>
<path d="M29.2008 13.3C29.2008 16.4 28.1008 19.3 26.2008 21.5C25.3008 22 24.4008 22.6 23.7008 23.3C24.0008 22.1 24.1008 20.9 24.1008 19.7C24.1008 18 23.8008 16.4 23.3008 14.8C25.0008 13.8 27.0008 13.3 29.2008 13.3Z" stroke="#015F45" stroke-miterlimit="10" stroke-linecap="round" stroke-linejoin="round"/>
<path d="M15.6006 23.3C14.8006 22.6 14.0006 22 13.1006 21.5C11.2006 19.3 10.1006 16.4 10.1006 13.3C12.2006 13.3 14.3006 13.8 16.0006 14.8C15.0006 17.5 14.9006 20.5 15.6006 23.3Z" stroke="#015F45" stroke-miterlimit="10" stroke-linecap="round" stroke-linejoin="round"/>
</svg>
