<svg width="60" height="60" viewBox="0 0 60 60" fill="none" xmlns="http://www.w3.org/2000/svg">
<path d="M38.3811 11.1979C38.3811 11.1979 37.4042 17.3386 34.613 19.7111C31.8218 22.0836 34.613 29.62 34.613 29.62C34.613 29.62 37.4042 34.0859 30.9844 36.7376C24.5646 39.3892 22.3316 45.1112 19.4009 47.2047C17.0283 49.019 13.958 50.8332 11.4459 49.2981C10.4689 48.7398 10.1898 47.3442 10.8876 46.3673C14.2371 42.1805 24.0064 28.5035 25.2624 11.0583" stroke="white" stroke-miterlimit="10" stroke-linecap="round" stroke-linejoin="round"/>
<path d="M49.4063 10.5C49.4063 10.5 48.7085 16.6407 46.1964 19.2924C43.6843 21.944 46.7547 29.2012 46.7547 29.2012C46.7547 29.2012 49.825 33.5276 43.5448 36.4584C37.2645 39.5287 35.3107 45.2507 32.5195 47.6233C30.1469 49.5771 27.3557 51.531 24.5645 50.1354" stroke="white" stroke-miterlimit="10" stroke-linecap="round" stroke-linejoin="round"/>
</svg>
