<svg width="40" height="40" viewBox="0 0 40 40" fill="none" xmlns="http://www.w3.org/2000/svg">
<path d="M25.5874 7.46509C25.5874 7.46509 24.9362 11.5589 23.0753 13.1406C21.2145 14.7223 23.0753 19.7465 23.0753 19.7465C23.0753 19.7465 24.9361 22.7238 20.6563 24.4916C16.3764 26.2593 14.8878 30.074 12.9339 31.4696C11.3522 32.6791 9.30531 33.8887 7.63058 32.8652C6.97929 32.4931 6.79322 31.5626 7.25842 30.9114C9.4914 28.1201 16.0042 19.0022 16.8416 7.37207" stroke="#015F45" stroke-miterlimit="10" stroke-linecap="round" stroke-linejoin="round"/>
<path d="M32.9372 7C32.9372 7 32.472 11.0938 30.7973 12.8616C29.1226 14.6294 31.1694 19.4675 31.1694 19.4675C31.1694 19.4675 33.2164 22.3517 29.0295 24.3056C24.8427 26.3525 23.5401 30.1671 21.6793 31.7488C20.0976 33.0514 18.2368 34.354 16.376 33.4236" stroke="#015F45" stroke-miterlimit="10" stroke-linecap="round" stroke-linejoin="round"/>
</svg>
