<svg width="40" height="40" viewBox="0 0 40 40" fill="none" xmlns="http://www.w3.org/2000/svg">
<path d="M13.8988 30.0664C17.9112 30.0664 21.1638 26.8138 21.1638 22.8014C21.1638 18.789 17.9112 15.5364 13.8988 15.5364C9.88645 15.5364 6.63379 18.789 6.63379 22.8014C6.63379 26.8138 9.88645 30.0664 13.8988 30.0664Z" stroke="#015F45" stroke-miterlimit="10" stroke-linecap="round" stroke-linejoin="round"/>
<path d="M13.8986 32.7C19.3654 32.7 23.7972 28.2683 23.7972 22.8014C23.7972 17.3346 19.3654 12.9028 13.8986 12.9028C8.43174 12.9028 4 17.3346 4 22.8014C4 28.2683 8.43174 32.7 13.8986 32.7Z" stroke="#015F45" stroke-miterlimit="10" stroke-linecap="round" stroke-linejoin="round"/>
<path d="M13.8984 17.8066V19.078" stroke="#015F45" stroke-miterlimit="10" stroke-linecap="round" stroke-linejoin="round"/>
<path d="M13.8984 26.0706V27.3419" stroke="#015F45" stroke-miterlimit="10" stroke-linecap="round" stroke-linejoin="round"/>
<path d="M18.62 22.5288H17.4395" stroke="#015F45" stroke-miterlimit="10" stroke-linecap="round" stroke-linejoin="round"/>
<path d="M10.3563 22.5288H9.08496" stroke="#015F45" stroke-miterlimit="10" stroke-linecap="round" stroke-linejoin="round"/>
<path d="M17.2577 25.9799L16.3496 25.0718" stroke="#015F45" stroke-miterlimit="10" stroke-linecap="round" stroke-linejoin="round"/>
<path d="M11.3554 20.0771L10.5381 19.1689" stroke="#015F45" stroke-miterlimit="10" stroke-linecap="round" stroke-linejoin="round"/>
<path d="M17.2577 19.1689L16.3496 20.0771" stroke="#015F45" stroke-miterlimit="10" stroke-linecap="round" stroke-linejoin="round"/>
<path d="M11.3554 25.0718L10.5381 25.9799" stroke="#015F45" stroke-miterlimit="10" stroke-linecap="round" stroke-linejoin="round"/>
<path d="M26.3394 24.0728C30.3351 24.0728 33.6044 20.8035 33.6044 16.8077C33.6044 12.812 30.3351 9.54272 26.3394 9.54272C24.069 9.54272 21.9804 10.6325 20.6182 12.2671" stroke="#015F45" stroke-miterlimit="10" stroke-linecap="round" stroke-linejoin="round"/>
<path d="M18.3486 11.0866C20.1649 8.63463 23.0709 7 26.3402 7C31.7889 7 36.2387 11.4498 36.2387 16.8986C36.2387 22.3474 31.7889 26.7972 26.3402 26.7972" stroke="#015F45" stroke-miterlimit="10" stroke-linecap="round" stroke-linejoin="round"/>
<path d="M26.3398 11.9038V13.0844" stroke="#015F45" stroke-miterlimit="10" stroke-linecap="round" stroke-linejoin="round"/>
<path d="M31.0614 16.626H29.8809" stroke="#015F45" stroke-miterlimit="10" stroke-linecap="round" stroke-linejoin="round"/>
<path d="M29.6991 19.9863L28.791 19.1689" stroke="#015F45" stroke-miterlimit="10" stroke-linecap="round" stroke-linejoin="round"/>
<path d="M23.7968 14.1742L22.9795 13.2661" stroke="#015F45" stroke-miterlimit="10" stroke-linecap="round" stroke-linejoin="round"/>
<path d="M29.6991 13.2661L28.791 14.1742" stroke="#015F45" stroke-miterlimit="10" stroke-linecap="round" stroke-linejoin="round"/>
</svg>
