<svg width="40" height="40" viewBox="0 0 40 40" fill="none" xmlns="http://www.w3.org/2000/svg">
<path d="M36.0274 29.6666C32.0713 29.6666 32.0713 27.7368 28.2116 27.7368C24.2555 27.7368 24.2555 29.6666 20.3958 29.6666C16.4397 29.6666 16.4397 27.7368 12.4836 27.7368C8.52741 27.7368 8.52743 29.6666 4.57129 29.6666" stroke="#015F45" stroke-miterlimit="10" stroke-linecap="round" stroke-linejoin="round"/>
<path d="M36.0274 26.7719C32.0713 26.7719 32.0713 24.842 28.2116 24.842C24.2555 24.842 24.2555 26.7719 20.3958 26.7719C16.4397 26.7719 16.4397 24.842 12.4836 24.842C8.52741 24.842 8.52743 26.7719 4.57129 26.7719" stroke="#015F45" stroke-miterlimit="10" stroke-linecap="round" stroke-linejoin="round"/>
<path d="M10.0713 22.0438V11.3333" stroke="#015F45" stroke-miterlimit="10" stroke-linecap="round" stroke-linejoin="round"/>
<path d="M7.94824 13.3596L10.071 11.3333L12.0974 13.3596" stroke="#015F45" stroke-miterlimit="10" stroke-linecap="round" stroke-linejoin="round"/>
<path d="M20.2998 22.0438V11.3333" stroke="#015F45" stroke-miterlimit="10" stroke-linecap="round" stroke-linejoin="round"/>
<path d="M18.2734 13.3596L20.2998 11.3333L22.3261 13.3596" stroke="#015F45" stroke-miterlimit="10" stroke-linecap="round" stroke-linejoin="round"/>
<path d="M30.5283 22.0438V11.3333" stroke="#015F45" stroke-miterlimit="10" stroke-linecap="round" stroke-linejoin="round"/>
<path d="M28.502 13.3596L30.5283 11.3333L32.6511 13.3596" stroke="#015F45" stroke-miterlimit="10" stroke-linecap="round" stroke-linejoin="round"/>
</svg>
