<svg width="60" height="60" viewBox="0 0 60 60" fill="none" xmlns="http://www.w3.org/2000/svg">
<path d="M39.9749 38.3506C44.7695 33.5744 43.3299 24.3965 36.7595 17.8512C30.1891 11.306 20.976 9.87198 16.1814 14.6482C11.3868 19.4245 12.8263 28.6023 19.3967 35.1476C25.9671 41.6928 35.1803 43.1269 39.9749 38.3506Z" stroke="white" stroke-miterlimit="10" stroke-linecap="round" stroke-linejoin="round"/>
<path d="M36.3306 34.7205C39.6454 31.4184 38.6377 25.0608 34.0798 20.5205C29.522 15.9801 23.14 14.9763 19.8252 18.2784C16.5104 21.5805 17.5181 27.938 22.0759 32.4784C26.6338 37.0188 33.0158 38.0226 36.3306 34.7205Z" stroke="white" stroke-miterlimit="10" stroke-linecap="round" stroke-linejoin="round"/>
<path d="M53.0497 51.5533C51.6855 52.9122 49.7151 52.7612 48.5025 51.4023L38.8018 39.9268L41.3785 37.3599L52.8981 47.0235C54.2623 48.0804 54.4139 50.1943 53.0497 51.5533Z" stroke="white" stroke-miterlimit="10" stroke-linecap="round" stroke-linejoin="round"/>
<path d="M28.0402 23.1664C28.8773 23.1664 29.5559 22.4903 29.5559 21.6564C29.5559 20.8225 28.8773 20.1465 28.0402 20.1465C27.203 20.1465 26.5244 20.8225 26.5244 21.6564C26.5244 22.4903 27.203 23.1664 28.0402 23.1664Z" fill="white"/>
<path d="M23.3409 27.9981C24.1781 27.9981 24.8567 27.3221 24.8567 26.4882C24.8567 25.6543 24.1781 24.9783 23.3409 24.9783C22.5038 24.9783 21.8252 25.6543 21.8252 26.4882C21.8252 27.3221 22.5038 27.9981 23.3409 27.9981Z" fill="white"/>
<path d="M23.3409 23.1664C24.1781 23.1664 24.8567 22.4903 24.8567 21.6564C24.8567 20.8225 24.1781 20.1465 23.3409 20.1465C22.5038 20.1465 21.8252 20.8225 21.8252 21.6564C21.8252 22.4903 22.5038 23.1664 23.3409 23.1664Z" fill="white"/>
<path d="M28.0402 27.9981C28.8773 27.9981 29.5559 27.3221 29.5559 26.4882C29.5559 25.6543 28.8773 24.9783 28.0402 24.9783C27.203 24.9783 26.5244 25.6543 26.5244 26.4882C26.5244 27.3221 27.203 27.9981 28.0402 27.9981Z" fill="white"/>
<path d="M32.8907 27.9981C33.7279 27.9981 34.4065 27.3221 34.4065 26.4882C34.4065 25.6543 33.7279 24.9783 32.8907 24.9783C32.0536 24.9783 31.375 25.6543 31.375 26.4882C31.375 27.3221 32.0536 27.9981 32.8907 27.9981Z" fill="white"/>
<path d="M28.0402 32.6791C28.8773 32.6791 29.5559 32.003 29.5559 31.1691C29.5559 30.3352 28.8773 29.6592 28.0402 29.6592C27.203 29.6592 26.5244 30.3352 26.5244 31.1691C26.5244 32.003 27.203 32.6791 28.0402 32.6791Z" fill="white"/>
<path d="M32.8907 32.6791C33.7279 32.6791 34.4065 32.003 34.4065 31.1691C34.4065 30.3352 33.7279 29.6592 32.8907 29.6592C32.0536 29.6592 31.375 30.3352 31.375 31.1691C31.375 32.003 32.0536 32.6791 32.8907 32.6791Z" fill="white"/>
</svg>
