<svg xmlns="http://www.w3.org/2000/svg" fill="none" viewBox="0 0 51 50"><circle cx="25.5" cy="25" r="25" fill="#1DA1F2"/><path fill="#fff" d="M36.75 18.024a9.617 9.617 0 0 1-2.658.728 4.587 4.587 0 0 0 2.03-2.55 9.22 9.22 0 0 1-2.926 1.117 4.611 4.611 0 0 0-7.98 3.154c.001.366.032.718.108 1.052-3.835-.187-7.228-2.025-9.507-4.825a4.644 4.644 0 0 0-.632 2.332 4.62 4.62 0 0 0 2.05 3.833 4.556 4.556 0 0 1-2.085-.568v.05a4.634 4.634 0 0 0 3.696 4.533 4.606 4.606 0 0 1-1.21.152c-.295 0-.593-.017-.873-.079.598 1.827 2.294 3.17 4.31 3.214a9.268 9.268 0 0 1-5.72 1.967 8.64 8.64 0 0 1-1.103-.063 12.986 12.986 0 0 0 7.076 2.07c8.488 0 13.129-7.032 13.129-13.126 0-.204-.007-.401-.017-.597a9.201 9.201 0 0 0 2.312-2.394Z"/></svg>