<svg xmlns="http://www.w3.org/2000/svg" fill="none" viewBox="0 0 51 50"><circle cx="25.5" cy="25" r="24.5" fill="#fff" stroke="#ECEFF1"/><path fill="#ECEFF1" d="M34.875 15.625h-18.75v18.75h18.75v-18.75Z"/><path fill="#CFD8DC" d="m25.5 26.972 9.375 7.403V19.759L25.5 26.972Z"/><path fill="#F44336" d="M35.656 15.625h-.781L25.5 23.028l-9.375-7.403h-.781A2.345 2.345 0 0 0 13 17.969V32.03a2.345 2.345 0 0 0 2.344 2.344h.781V19.759L25.5 26.97l9.375-7.212v14.617h.781A2.345 2.345 0 0 0 38 32.031V17.97a2.345 2.345 0 0 0-2.344-2.344Z"/></svg>