<svg xmlns="http://www.w3.org/2000/svg" fill="none" viewBox="0 0 40 40"><g clip-path="url(#a)"><path fill="#4696EF" d="M20 40c11.046 0 20-8.954 20-20S31.046 0 20 0 0 8.954 0 20s8.954 20 20 20Z" opacity=".9"/><path fill="#fff" d="M24.384 10.148v3.174h-1.887a1.758 1.758 0 0 0-1.396.434l.001-.002c-.27.379-.398.841-.36 1.305v-.006 2.271h3.525l-.467 3.558h-3.053v9.122h-3.68v-9.122H14v-3.558h3.067v-2.62a4.636 4.636 0 0 1 1.252-3.468l-.003.002a4.515 4.515 0 0 1 3.337-1.232h-.01a20.11 20.11 0 0 1 2.838.154l-.098-.01.001-.002Z"/></g><defs><clipPath id="a"><path fill="#fff" d="M0 0h40v40H0z"/></clipPath></defs></svg>
